<svg width="740" height="738" viewBox="0 0 740 738" fill="none" xmlns="http://www.w3.org/2000/svg">
<path d="M321.719 52.851C177.328 -89.3992 64.8527 88.7898 26.3336 196.73C14.316 230.406 -34.3196 334.722 42.0372 397.703C118.394 460.684 66.1768 511.463 42.0372 571.897C-1.02658 672.883 143.816 687.798 233.834 726.634C311.789 760.267 405.365 717.404 443.725 622.571C482.084 527.737 499.981 532.728 536.004 521.675C660.491 493.08 728.65 372.23 736.525 319.797C765.799 124.876 601.889 77.9515 553.323 99.0016C455.615 141.351 358.208 85.8801 321.719 52.851Z" fill="white"/>
<g filter="url(#filter0_d_10_149)">
<circle cx="401" cy="313" r="97" fill="#43C048" fill-opacity="0.13" shape-rendering="crispEdges"/>
<circle cx="401" cy="313" r="96" stroke="#4CAF50" stroke-width="2" shape-rendering="crispEdges"/>
</g>
<path d="M384.67 298.978L370.218 306.974C369.677 307.271 369.344 307.825 369.344 308.423V324.423C369.344 325.021 369.677 325.572 370.218 325.872L384.673 333.874C385.212 334.171 385.88 334.171 386.419 333.874L400.871 325.872C401.407 325.572 401.739 325.021 401.739 324.423V308.423C401.739 307.825 401.407 307.274 400.865 306.974L386.416 298.978C386.145 298.828 385.842 298.754 385.542 298.754C385.238 298.754 384.938 298.828 384.667 298.978M459.024 313.382L456.615 314.713C456.523 314.763 456.47 314.855 456.47 314.955V317.623C456.47 317.723 456.526 317.814 456.615 317.864L459.024 319.199C459.115 319.249 459.224 319.249 459.315 319.199L461.724 317.864C461.813 317.814 461.869 317.723 461.869 317.623V314.955C461.869 314.855 461.813 314.763 461.721 314.713L459.312 313.382C459.268 313.356 459.218 313.344 459.168 313.344C459.118 313.344 459.068 313.356 459.024 313.382Z" fill="#388E3C"/>
<path d="M439.287 282.016L432.252 278.091C432.031 277.967 431.76 277.97 431.542 278.099C431.324 278.229 431.188 278.462 431.188 278.715L431.185 302.429L424.698 298.839C424.427 298.688 424.123 298.615 423.823 298.615C423.522 298.615 423.219 298.688 422.948 298.839H422.951L408.5 306.834C407.958 307.132 407.625 307.686 407.625 308.28V324.281C407.625 324.879 407.958 325.429 408.5 325.73L422.954 333.732C423.493 334.029 424.162 334.029 424.7 333.732L439.152 325.73C439.688 325.432 440.021 324.879 440.021 324.281V283.265C440.021 282.747 439.738 282.27 439.287 282.016ZM430.791 320.579L424.223 324.216C423.979 324.352 423.676 324.352 423.431 324.216L416.861 320.579C416.61 320.444 416.46 320.19 416.46 319.919V312.645C416.46 312.374 416.61 312.124 416.858 311.985L423.428 308.351C423.552 308.283 423.684 308.251 423.823 308.251C423.961 308.251 424.097 308.286 424.22 308.351L430.788 311.985C431.035 312.124 431.185 312.377 431.185 312.648V319.922C431.185 320.19 431.035 320.444 430.791 320.579Z" fill="#37474F"/>
<path d="M384.67 298.978L369.344 324.423C369.344 325.021 369.677 325.572 370.218 325.872L384.673 333.874C385.212 334.171 385.88 334.171 386.419 333.874L401.739 308.423C401.739 307.825 401.407 307.274 400.865 306.974L386.416 298.978C386.145 298.828 385.842 298.754 385.542 298.754C385.238 298.754 384.938 298.828 384.667 298.978" fill="#2E7D32"/>
<path d="M384.67 298.978L370.218 306.974C369.677 307.271 369.344 307.825 369.344 308.423L384.67 333.874C385.209 334.171 385.877 334.171 386.416 333.874L400.868 325.872C401.407 325.572 401.739 325.021 401.739 324.423L386.416 298.978C386.145 298.828 385.842 298.754 385.542 298.754C385.238 298.754 384.938 298.828 384.667 298.978" fill="#4CAF50"/>
<path d="M474.488 306.837L460.04 298.841C459.769 298.691 459.465 298.617 459.165 298.617C458.865 298.617 458.561 298.691 458.29 298.841L443.842 306.837C443.303 307.134 442.967 307.7 442.967 308.318V324.254C442.967 324.869 443.303 325.438 443.842 325.735L458.296 333.737C458.838 334.037 459.501 334.037 460.043 333.737L466.707 330.047C467.317 329.708 467.314 328.833 466.701 328.498L452.2 320.584C451.956 320.446 451.802 320.19 451.802 319.913V312.65C451.802 312.379 451.95 312.129 452.185 312L458.767 308.359H458.764C458.888 308.292 459.024 308.259 459.162 308.259C459.3 308.259 459.436 308.295 459.56 308.359L466.142 312.002C466.377 312.132 466.525 312.382 466.525 312.653V318.579C466.525 318.832 466.66 319.068 466.881 319.194C467.102 319.318 467.373 319.318 467.594 319.191L474.656 315.089C475.092 314.836 475.363 314.367 475.363 313.861V308.324C475.363 307.703 475.027 307.134 474.488 306.837ZM365.521 306.837L351.073 298.841C350.802 298.691 350.498 298.617 350.198 298.617C349.897 298.617 349.594 298.691 349.323 298.841L334.875 306.837C334.336 307.134 334 307.7 334 308.318V330.303C334 330.556 334.135 330.792 334.356 330.919C334.577 331.042 334.848 331.042 335.069 330.916L342.131 326.813C342.567 326.56 342.835 326.092 342.835 325.585V312.647C342.835 312.377 342.982 312.126 343.218 311.997L349.8 308.356C349.924 308.289 350.059 308.256 350.198 308.256C350.336 308.256 350.472 308.292 350.595 308.356L357.178 312C357.413 312.129 357.56 312.379 357.56 312.65V325.588C357.56 326.095 357.828 326.563 358.267 326.816L365.33 330.919C365.55 331.045 365.821 331.045 366.042 330.922C366.26 330.792 366.396 330.556 366.396 330.303V308.321C366.396 307.703 366.06 307.134 365.521 306.837Z" fill="#37474F"/>
<g filter="url(#filter1_d_10_149)">
<circle cx="174.5" cy="408.5" r="64.5" fill="#FF6D00" fill-opacity="0.15" shape-rendering="crispEdges"/>
<circle cx="174.5" cy="408.5" r="63.5" stroke="#FF6D00" stroke-width="2" shape-rendering="crispEdges"/>
</g>
<path d="M206.461 371.031H140.715L146.516 436.777L173.588 444.512L200.66 436.777L206.461 371.031Z" fill="#E65100"/>
<path d="M173.59 376.828V438.514L195.247 432.326L200.082 376.828H173.59Z" fill="#FF6D00"/>
<path d="M173.59 409.705V401.97H190.22L188.866 424.207L173.59 429.235V421.113L181.518 418.406L182.098 409.705H173.59ZM190.8 394.235L191.38 386.5H173.59V394.235H190.8Z" fill="white"/>
<path d="M173.581 421.113V429.235L158.305 424.207L157.531 413.572H165.266L165.653 418.406L173.581 421.113ZM164.106 394.235H173.581V386.5H155.984L157.338 409.705H173.581V401.97H164.686L164.106 394.235Z" fill="#EEEEEE"/>
<path d="M174.143 159.055C141.588 159.055 114.869 183.984 112 215.791H236.286C233.417 183.984 206.698 159.055 174.143 159.055ZM197.91 192.692C197.91 189.834 200.227 187.516 203.086 187.516C205.944 187.516 208.262 189.834 208.262 192.692C208.262 195.551 205.944 197.868 203.086 197.868C200.227 197.868 197.91 195.551 197.91 192.692ZM145.2 197.868C142.341 197.868 140.024 195.551 140.024 192.692C140.024 189.834 142.341 187.516 145.2 187.516C148.058 187.516 150.376 189.834 150.376 192.692C150.376 195.551 148.058 197.868 145.2 197.868Z" fill="#30DC80"/>
<path d="M200.141 172.581C199.778 172.581 199.413 172.49 199.079 172.296C198.062 171.708 197.715 170.408 198.3 169.391L211.756 146.066C212.344 145.046 213.644 144.697 214.662 145.287C215.679 145.875 216.026 147.175 215.441 148.192L201.984 171.517C201.591 172.2 200.876 172.581 200.141 172.581Z" fill="#30DC80"/>
<path d="M148.157 172.581C147.422 172.581 146.707 172.198 146.314 171.517L132.86 148.192C132.272 147.175 132.621 145.875 133.636 145.287C134.651 144.697 135.954 145.046 136.542 146.066L149.998 169.391C150.586 170.411 150.236 171.711 149.219 172.296C148.885 172.49 148.52 172.581 148.157 172.581Z" fill="#30DC80"/>
<g filter="url(#filter2_d_10_149)">
<circle cx="174" cy="180" r="87" fill="#32DC81" fill-opacity="0.24" shape-rendering="crispEdges"/>
<circle cx="174" cy="180" r="86" stroke="#30DC80" stroke-width="2" shape-rendering="crispEdges"/>
</g>
<g filter="url(#filter3_d_10_149)">
<circle cx="618.5" cy="242.5" r="70.5" fill="#7C4DFF" fill-opacity="0.12" shape-rendering="crispEdges"/>
<circle cx="618.5" cy="242.5" r="69.5" stroke="#7C4DFF" stroke-width="2" shape-rendering="crispEdges"/>
</g>
<path d="M619.418 228.002H603.53C595.853 228.002 589.629 221.778 589.629 214.101C589.629 206.423 595.853 200.199 603.53 200.199H619.418V228.002Z" fill="#E64A19"/>
<path d="M617.432 255.803H603.53C595.853 255.803 589.629 249.579 589.629 241.901C589.629 234.224 595.853 228 603.53 228H617.432V255.803Z" fill="#7C4DFF"/>
<path d="M603.53 283.611C595.853 283.611 589.629 277.388 589.629 269.71C589.629 262.032 595.853 255.809 603.53 255.809H617.432V269.71C617.432 277.388 611.208 283.611 603.53 283.611Z" fill="#66BB6A"/>
<path d="M631.331 228.002H617.43V200.199H631.331C639.009 200.199 645.233 206.423 645.233 214.101C645.233 221.778 639.009 228.002 631.331 228.002Z" fill="#FF7043"/>
<path d="M631.331 255.803C639.009 255.803 645.233 249.579 645.233 241.901C645.233 234.224 639.009 228 631.331 228C623.654 228 617.43 234.224 617.43 241.901C617.43 249.579 623.654 255.803 631.331 255.803Z" fill="#29B6F6"/>
<g filter="url(#filter4_d_10_149)">
<circle cx="299" cy="610" r="95" fill="#40C4FF" fill-opacity="0.19" shape-rendering="crispEdges"/>
<circle cx="299" cy="610" r="94" stroke="#40C4FF" stroke-width="2" shape-rendering="crispEdges"/>
</g>
<path d="M301.555 553.551L245.305 609.801L262.18 626.676L335.305 553.551H301.555Z" fill="#40C4FF"/>
<path d="M335.305 604.176L304.367 635.113L287.492 618.238L301.555 604.176H335.305Z" fill="#40C4FF"/>
<path d="M287.491 618.239L270.617 635.113L287.492 651.987L304.366 635.113L287.491 618.239Z" fill="#03A9F4"/>
<path d="M335.305 666.051H301.555L287.492 651.988L304.367 635.113L335.305 666.051Z" fill="#01579B"/>
<path d="M287.492 651.988L312.805 643.551L304.367 635.113L287.492 651.988Z" fill="#084994"/>
<defs>
<filter id="filter0_d_10_149" x="300" y="216" width="202" height="202" filterUnits="userSpaceOnUse" color-interpolation-filters="sRGB">
<feFlood flood-opacity="0" result="BackgroundImageFix"/>
<feColorMatrix in="SourceAlpha" type="matrix" values="0 0 0 0 0 0 0 0 0 0 0 0 0 0 0 0 0 0 127 0" result="hardAlpha"/>
<feOffset dy="4"/>
<feGaussianBlur stdDeviation="2"/>
<feComposite in2="hardAlpha" operator="out"/>
<feColorMatrix type="matrix" values="0 0 0 0 0 0 0 0 0 0 0 0 0 0 0 0 0 0 0.25 0"/>
<feBlend mode="normal" in2="BackgroundImageFix" result="effect1_dropShadow_10_149"/>
<feBlend mode="normal" in="SourceGraphic" in2="effect1_dropShadow_10_149" result="shape"/>
</filter>
<filter id="filter1_d_10_149" x="106" y="344" width="137" height="137" filterUnits="userSpaceOnUse" color-interpolation-filters="sRGB">
<feFlood flood-opacity="0" result="BackgroundImageFix"/>
<feColorMatrix in="SourceAlpha" type="matrix" values="0 0 0 0 0 0 0 0 0 0 0 0 0 0 0 0 0 0 127 0" result="hardAlpha"/>
<feOffset dy="4"/>
<feGaussianBlur stdDeviation="2"/>
<feComposite in2="hardAlpha" operator="out"/>
<feColorMatrix type="matrix" values="0 0 0 0 0 0 0 0 0 0 0 0 0 0 0 0 0 0 0.25 0"/>
<feBlend mode="normal" in2="BackgroundImageFix" result="effect1_dropShadow_10_149"/>
<feBlend mode="normal" in="SourceGraphic" in2="effect1_dropShadow_10_149" result="shape"/>
</filter>
<filter id="filter2_d_10_149" x="83" y="93" width="182" height="182" filterUnits="userSpaceOnUse" color-interpolation-filters="sRGB">
<feFlood flood-opacity="0" result="BackgroundImageFix"/>
<feColorMatrix in="SourceAlpha" type="matrix" values="0 0 0 0 0 0 0 0 0 0 0 0 0 0 0 0 0 0 127 0" result="hardAlpha"/>
<feOffset dy="4"/>
<feGaussianBlur stdDeviation="2"/>
<feComposite in2="hardAlpha" operator="out"/>
<feColorMatrix type="matrix" values="0 0 0 0 0 0 0 0 0 0 0 0 0 0 0 0 0 0 0.25 0"/>
<feBlend mode="normal" in2="BackgroundImageFix" result="effect1_dropShadow_10_149"/>
<feBlend mode="normal" in="SourceGraphic" in2="effect1_dropShadow_10_149" result="shape"/>
</filter>
<filter id="filter3_d_10_149" x="544" y="172" width="149" height="149" filterUnits="userSpaceOnUse" color-interpolation-filters="sRGB">
<feFlood flood-opacity="0" result="BackgroundImageFix"/>
<feColorMatrix in="SourceAlpha" type="matrix" values="0 0 0 0 0 0 0 0 0 0 0 0 0 0 0 0 0 0 127 0" result="hardAlpha"/>
<feOffset dy="4"/>
<feGaussianBlur stdDeviation="2"/>
<feComposite in2="hardAlpha" operator="out"/>
<feColorMatrix type="matrix" values="0 0 0 0 0 0 0 0 0 0 0 0 0 0 0 0 0 0 0.25 0"/>
<feBlend mode="normal" in2="BackgroundImageFix" result="effect1_dropShadow_10_149"/>
<feBlend mode="normal" in="SourceGraphic" in2="effect1_dropShadow_10_149" result="shape"/>
</filter>
<filter id="filter4_d_10_149" x="200" y="515" width="198" height="198" filterUnits="userSpaceOnUse" color-interpolation-filters="sRGB">
<feFlood flood-opacity="0" result="BackgroundImageFix"/>
<feColorMatrix in="SourceAlpha" type="matrix" values="0 0 0 0 0 0 0 0 0 0 0 0 0 0 0 0 0 0 127 0" result="hardAlpha"/>
<feOffset dy="4"/>
<feGaussianBlur stdDeviation="2"/>
<feComposite in2="hardAlpha" operator="out"/>
<feColorMatrix type="matrix" values="0 0 0 0 0 0 0 0 0 0 0 0 0 0 0 0 0 0 0.25 0"/>
<feBlend mode="normal" in2="BackgroundImageFix" result="effect1_dropShadow_10_149"/>
<feBlend mode="normal" in="SourceGraphic" in2="effect1_dropShadow_10_149" result="shape"/>
</filter>
</defs>
</svg>
