<?xml version="1.0" encoding="utf-8"?>
<!-- Generator: Adobe Illustrator 24.3.0, SVG Export Plug-In . SVG Version: 6.00 Build 0)  -->
<svg version="1.1" xmlns="http://www.w3.org/2000/svg" xmlns:xlink="http://www.w3.org/1999/xlink" x="0px" y="0px"
	 viewBox="0 0 500 500" style="enable-background:new 0 0 500 500;" xml:space="preserve">
<style type="text/css">
	.st0{display:none;}
	.st1{display:inline;fill:#81DFFF;}
	.st2{fill:#B7EDFF;}
	.st3{opacity:0.3;fill:#828BA4;}
	.st4{opacity:0.8;}
	.st5{fill:#454C61;}
	.st6{fill:#30384F;}
	.st7{fill:#FFFFFF;}
	.st8{fill:#F5D533;}
	.st9{fill:#FF6469;}
	.st10{fill:#75C1F8;}
	.st11{fill:#B8DFFB;}
	.st12{fill:#3FA9F5;}
	.st13{fill:#FBEDA7;}
	.st14{fill:#F9E88F;}
	.st15{fill:#79829D;}
	.st16{font-family:'Comfortaa';}
	.st17{font-size:15.3974px;}
	.st18{opacity:0.7;fill:url(#SVGID_1_);}
	.st19{fill:#B4ECFF;}
	.st20{fill:#95D0F9;}
	.st21{font-family:'Comfortaa-Bold';}
	.st22{font-size:13px;}
	.st23{opacity:0.7;fill:url(#SVGID_2_);}
	.st24{fill:#FFBCBE;}
	.st25{fill:#FFAAAC;}
	.st26{fill:#FF7B80;}
	.st27{opacity:0.7;fill:url(#SVGID_3_);}
	.st28{opacity:0.7;fill:url(#SVGID_4_);}
	.st29{fill:#4F5669;}
	.st30{fill:#3A4258;}
	.st31{fill:#7F8492;}
	.st32{fill:#6E7484;}
	.st33{fill:#0077CC;}
	.st34{fill:#EAECF0;}
	.st35{fill:#C8CCD7;}
	.st36{fill:#DFE2E8;}
	.st37{fill:#D0D3DC;}
	.st38{fill:#FCFCFD;}
	.st39{fill:#C0C4D1;}
	.st40{fill:#A7ADBF;}
	.st41{opacity:0.3;fill:#616C8C;}
	.st42{fill:#B0B5C5;}
	.st43{fill:#9098AE;}
	.st44{fill-rule:evenodd;clip-rule:evenodd;fill:#616C8C;}
	.st45{fill:#4D4D4D;}
	.st46{fill:#333333;}
	.st47{fill:#FFC1C3;}
	.st48{fill:#69BCF7;}
	.st49{fill:#596072;}
	.st50{fill:#898E9B;}
	.st51{fill:#A9D8FA;}
	.st52{fill:#F3F3F4;}
	.st53{fill:#8189A3;}
	.st54{fill:#E2E3E6;}
	.st55{fill:url(#SVGID_5_);}
	.st56{font-size:10.8099px;}
	.st57{letter-spacing:2;}
	.st58{fill:#9FA5B9;}
	.st59{opacity:0.3;fill:#878FA8;}
	.st60{fill:#626879;}
	.st61{fill:#CBCED9;}
	.st62{opacity:0.6;fill:#0077CC;}
	.st63{fill:url(#SVGID_6_);}
	.st64{fill:#666C7D;}
	.st65{fill:#C6CAD6;}
	.st66{fill:#616C8C;}
	.st67{fill:#84C8F9;}
	.st68{opacity:0.7;fill:url(#SVGID_7_);}
	.st69{opacity:0.7;fill:url(#SVGID_8_);}
</style>
<g id="BACKGROUND" class="st0">
	<rect class="st1" width="500" height="500"/>
</g>
<g id="OBJECTS">
	<ellipse class="st2" cx="257" cy="334.3" rx="214.66" ry="122.9"/>
	<path class="st3" d="M339.3,247.72l-184.8,106.7l-0.11,0.02l0,0v0l-18.01,3.81c-2.29-0.41-4.48,1.12-4.89,3.41l0,0
		c-0.41,2.29,1.12,4.48,3.41,4.89l20.68-4.37l80.64,46.56l-11.71,2.48c-2.29-0.41-4.48,1.12-4.89,3.41v0
		c-0.41,2.29,1.12,4.48,3.41,4.89l23.32-4.93l6.64,3.83v0.06l42.59-25.42c-0.11,1.04-0.15,2.09-0.09,3.15
		c0.89,15.95,21.72,27.75,46.51,26.37c24.79-1.39,44.17-15.44,43.28-31.39c-0.82-14.67-18.51-25.83-40.64-26.44l93.24-53v-7.04
		l0.04-0.03L339.3,247.72z"/>
	<g class="st4">
		<polygon class="st5" points="190.87,148.8 120.88,190.12 120.03,189.7 120.03,138.58 190.87,97.68 191.7,98.1 		"/>
		<g>
			<polygon class="st6" points="191.71,149.23 120.88,190.12 120.87,139 191.71,98.1 			"/>
			<g>
				<polygon class="st7" points="127.53,144.59 125.55,145.73 125.55,144.12 127.53,142.98 				"/>
				<polygon class="st8" points="156.34,127.96 129.72,143.32 129.72,141.71 156.34,126.34 				"/>
				<polygon class="st7" points="127.53,148.37 125.55,149.51 125.55,147.9 127.53,146.76 				"/>
				<polygon class="st8" points="142.02,140.01 129.72,147.1 129.72,145.49 142.02,138.39 				"/>
				<polygon class="st7" points="127.53,152.15 125.56,153.29 125.55,151.68 127.53,150.54 				"/>
				<polygon class="st8" points="148.38,140.11 129.72,150.88 129.72,149.27 148.38,138.5 				"/>
				<polygon class="st7" points="127.53,155.93 125.56,157.07 125.56,155.46 127.53,154.32 				"/>
				<polygon class="st8" points="151.99,141.81 129.72,154.66 129.72,153.05 151.99,140.2 				"/>
			</g>
			<g>
				<polygon class="st7" points="127.53,161.43 125.56,162.57 125.56,160.96 127.53,159.82 				"/>
				<polygon class="st9" points="143.82,152.02 129.72,160.16 129.72,158.55 143.82,150.41 				"/>
				<polygon class="st7" points="127.53,165.21 125.56,166.35 125.56,164.74 127.53,163.6 				"/>
				<polygon class="st9" points="155.61,149 129.72,163.94 129.72,162.33 155.61,147.39 				"/>
				<polygon class="st7" points="127.53,168.99 125.56,170.13 125.56,168.52 127.53,167.38 				"/>
				<polygon class="st9" points="139.92,161.83 129.72,167.72 129.72,166.11 139.92,160.22 				"/>
				<polygon class="st7" points="127.53,172.77 125.56,173.91 125.56,172.3 127.53,171.16 				"/>
				<polygon class="st9" points="147.97,160.97 129.72,171.5 129.72,169.89 147.97,159.36 				"/>
			</g>
			<g>
				<polygon class="st7" points="169.48,119.99 170.98,119.12 170.98,117.89 169.48,118.76 				"/>
				<polygon class="st7" points="183.11,110.89 172.66,116.93 172.66,118.15 183.11,112.12 				"/>
				<polygon class="st7" points="169.48,122.87 170.98,122 170.98,120.78 169.48,121.64 				"/>
				<polygon class="st7" points="177.48,117.02 172.66,119.81 172.66,121.04 177.48,118.25 				"/>
				<polygon class="st7" points="169.48,125.76 170.98,124.89 170.98,123.66 169.48,124.53 				"/>
				<polygon class="st7" points="179.98,118.46 172.66,122.69 172.66,123.92 179.98,119.69 				"/>
				<polygon class="st7" points="169.48,128.64 170.98,127.77 170.98,126.54 169.48,127.41 				"/>
				<polygon class="st7" points="181.4,120.53 172.66,125.57 172.66,126.8 181.4,121.76 				"/>
				<polygon class="st7" points="169.48,132.83 170.98,131.96 170.98,130.73 169.48,131.6 				"/>
				<polygon class="st7" points="179.47,125.84 172.66,129.77 172.66,131 179.47,127.06 				"/>
				<polygon class="st7" points="169.48,135.71 170.98,134.85 170.98,133.62 169.48,134.49 				"/>
				<polygon class="st7" points="172.66,132.65 172.66,133.88 185.16,126.66 185.16,125.43 				"/>
				<polygon class="st7" points="169.48,138.6 170.98,137.73 170.98,136.5 169.48,137.37 				"/>
				<polygon class="st7" points="177.59,132.69 172.66,135.53 172.66,136.76 177.59,133.92 				"/>
				<polygon class="st7" points="169.48,141.48 170.98,140.61 170.98,139.38 169.48,140.25 				"/>
				<polygon class="st7" points="172.66,139.65 181.47,134.56 181.47,133.33 172.66,138.42 				"/>
			</g>
		</g>
	</g>
	<g class="st4">
		<polygon class="st10" points="229,147.69 159,189 158.16,188.58 158.15,137.46 228.99,96.56 229.82,96.99 		"/>
		<g>
			<polygon class="st11" points="229.88,148.18 159.04,189.07 159.04,137.95 229.87,97.06 			"/>
			<g>
				<polygon class="st12" points="216.78,142.48 172.13,168.25 172.13,144.36 216.78,118.59 				"/>
				<polygon class="st7" points="213.17,126.39 175.74,148 175.74,146.96 213.17,125.36 				"/>
				<polygon class="st7" points="213.17,130 175.74,151.6 175.74,150.57 213.17,128.97 				"/>
				<polygon class="st7" points="213.17,133.61 175.74,155.21 175.74,154.18 213.17,132.57 				"/>
			</g>
			<polygon class="st12" points="229.87,101.99 159.04,142.88 159.04,137.95 229.87,97.06 			"/>
		</g>
	</g>
	<g>
		<path class="st8" d="M241.41,76.92c-0.79,1.37-1.27,2.9-1.27,4.29l0,23.83c0,2.79,5.73,6.71,8.14,5.32l18.87-13.71
			c1.23-0.71,2.34-1.94,3.14-3.35C261.36,88.25,250.83,81.21,241.41,76.92z"/>
		<path class="st13" d="M267.15,96.65l-18.87,13.71c-2.41,1.39-8.14-2.53-8.14-5.32l0-23.83c0-2.79,1.96-6.17,4.37-7.57l20.64-11.91
			c2.41-1.39,8.43,1.47,8.46,3.94l-2.09,23.41C271.51,91.87,269.56,95.26,267.15,96.65z"/>
		<path class="st8" d="M241.41,76.92c-0.79,1.37-1.27,2.9-1.27,4.29l0,23.83c0,2.79,5.73,6.71,8.14,5.32l18.87-13.71
			c1.23-0.71,2.34-1.94,3.14-3.35C261.36,88.25,250.83,81.21,241.41,76.92z"/>
		<path class="st14" d="M241.41,76.92c-0.79,1.37-1.27,2.9-1.27,4.29l0,23.83c0,2.79,5.73,6.71,8.14,5.32l18.87-13.71
			c1.23-0.71,2.34-1.94,3.14-3.35C261.36,88.25,250.83,81.21,241.41,76.92z"/>
		<path class="st8" d="M269.46,98.19l-20.64,11.91c-2.41,1.39-4.37,0.26-4.37-2.52l0-23.83c0-2.79,1.96-6.17,4.37-7.57l20.64-11.91
			c2.41-1.39,4.37-0.26,4.37,2.52l0,23.83C273.83,93.41,271.87,96.8,269.46,98.19z"/>
		<text transform="matrix(0.866 -0.5 4.000000e-05 1 251.4955 96.5256)" class="st15 st16 st17">&lt;/&gt;</text>
		<linearGradient id="SVGID_1_" gradientUnits="userSpaceOnUse" x1="265.6757" y1="103.0421" x2="248.0017" y2="49.6216">
			<stop  offset="0" style="stop-color:#EDFAFF"/>
			<stop  offset="1" style="stop-color:#30384F;stop-opacity:0"/>
		</linearGradient>
		<path class="st18" d="M273.83,73.16l0-6.36c0-2.79-1.96-3.91-4.37-2.52l-20.64,11.91c-2.41,1.39-4.37,4.78-4.37,7.57l0,16.83
			C252.74,88.38,263,78.49,273.83,73.16z"/>
	</g>
	<g>
		<path class="st19" d="M133.9,115.68l-18.87,13.71c-2.41,1.39-8.14-2.53-8.14-5.32l0-23.83c0-2.79,1.96-6.17,4.37-7.57l20.64-11.91
			c2.41-1.39,8.43,1.47,8.46,3.94l-2.09,23.41C138.27,110.9,136.32,114.29,133.9,115.68z"/>
		<path class="st12" d="M108.17,95.96c-0.79,1.37-1.27,2.9-1.27,4.29l0,23.83c0,2.79,5.73,6.71,8.14,5.32l18.87-13.71
			c1.23-0.71,2.34-1.94,3.14-3.35C128.12,107.29,117.59,100.25,108.17,95.96z"/>
		<path class="st12" d="M108.17,95.96c-0.79,1.37-1.27,2.9-1.27,4.29l0,23.83c0,2.79,5.73,6.71,8.14,5.32l18.87-13.71
			c1.23-0.71,2.34-1.94,3.14-3.35C128.12,107.29,117.59,100.25,108.17,95.96z"/>
		<path class="st20" d="M108.17,95.96c-0.79,1.37-1.27,2.9-1.27,4.29l0,23.83c0,2.79,5.73,6.71,8.14,5.32l18.87-13.71
			c1.23-0.71,2.34-1.94,3.14-3.35C128.12,107.29,117.59,100.25,108.17,95.96z"/>
		<path class="st12" d="M136.22,117.23l-20.64,11.91c-2.41,1.39-4.37,0.26-4.37-2.52l0-23.83c0-2.79,1.96-6.17,4.37-7.57
			l20.64-11.91c2.41-1.39,4.37-0.26,4.37,2.52l0,23.83C140.59,112.45,138.63,115.84,136.22,117.23z"/>
		<text transform="matrix(0.866 -0.5 4.000000e-05 1 115.0817 116.8014)" class="st7 st21 st22">{...}</text>
		<linearGradient id="SVGID_2_" gradientUnits="userSpaceOnUse" x1="132.4343" y1="122.0765" x2="114.7604" y2="68.6561">
			<stop  offset="0" style="stop-color:#EDFAFF"/>
			<stop  offset="1" style="stop-color:#30384F;stop-opacity:0"/>
		</linearGradient>
		<path class="st23" d="M140.59,92.19l0-6.36c0-2.79-1.96-3.91-4.37-2.52l-20.64,11.91c-2.41,1.39-4.37,4.78-4.37,7.57l0,16.83
			C119.5,107.42,129.76,97.53,140.59,92.19z"/>
	</g>
	<g>
		<path class="st24" d="M203.7,83.68l-18.87,13.71c-2.41,1.39-8.14-2.53-8.14-5.32l0-23.83c0-2.79,1.96-6.17,4.37-7.57l20.64-11.91
			c2.41-1.39,8.43,1.47,8.46,3.94l-2.09,23.41C208.07,78.9,206.11,82.29,203.7,83.68z"/>
		<path class="st9" d="M177.96,63.96c-0.79,1.37-1.27,2.9-1.27,4.29l0,23.83c0,2.79,5.73,6.71,8.14,5.32l18.87-13.71
			c1.23-0.71,2.34-1.94,3.14-3.35C197.92,75.29,187.38,68.25,177.96,63.96z"/>
		<path class="st25" d="M177.96,63.96c-0.79,1.37-1.27,2.9-1.27,4.29l0,23.83c0,2.79,5.73,6.71,8.14,5.32l18.87-13.71
			c1.23-0.71,2.34-1.94,3.14-3.35C197.92,75.29,187.38,68.25,177.96,63.96z"/>
		<path class="st26" d="M206.01,85.23l-20.64,11.91c-2.41,1.39-4.37,0.26-4.37-2.52l0-23.83c0-2.79,1.96-6.17,4.37-7.57l20.64-11.91
			c2.41-1.39,4.37-0.26,4.37,2.52l0,23.83C210.38,80.45,208.43,83.84,206.01,85.23z"/>
		<g>
			<text transform="matrix(0.866 -0.5 4.000000e-05 1 189.1506 83.2152)" class="st7 st21 st17">JS</text>
		</g>
		<linearGradient id="SVGID_3_" gradientUnits="userSpaceOnUse" x1="202.2274" y1="90.0765" x2="184.5535" y2="36.6561">
			<stop  offset="0" style="stop-color:#EDFAFF"/>
			<stop  offset="1" style="stop-color:#30384F;stop-opacity:0"/>
		</linearGradient>
		<path class="st27" d="M210.38,60.19l0-6.36c0-2.79-1.96-3.91-4.37-2.52l-20.64,11.91c-2.41,1.39-4.37,4.78-4.37,7.57l0,16.83
			C189.29,75.42,199.55,65.53,210.38,60.19z"/>
	</g>
	<g>
		<path class="st8" d="M79.62,173.2c-0.79,1.37-1.27,2.9-1.27,4.29l0,23.83c0,2.79,5.73,6.71,8.14,5.32l18.87-13.71
			c1.23-0.71,2.34-1.94,3.14-3.35C99.57,184.53,89.04,177.49,79.62,173.2z"/>
		<path class="st13" d="M105.35,192.93l-18.87,13.71c-2.41,1.39-8.14-2.53-8.14-5.32l0-23.83c0-2.79,1.96-6.17,4.37-7.57
			l20.64-11.91c2.41-1.39,8.43,1.47,8.46,3.94l-2.09,23.41C109.72,188.15,107.76,191.53,105.35,192.93z"/>
		<path class="st8" d="M79.62,173.2c-0.79,1.37-1.27,2.9-1.27,4.29l0,23.83c0,2.79,5.73,6.71,8.14,5.32l18.87-13.71
			c1.23-0.71,2.34-1.94,3.14-3.35C99.57,184.53,89.04,177.49,79.62,173.2z"/>
		<path class="st14" d="M79.62,173.2c-0.79,1.37-1.27,2.9-1.27,4.29l0,23.83c0,2.79,5.73,6.71,8.14,5.32l18.87-13.71
			c1.23-0.71,2.34-1.94,3.14-3.35C99.57,184.53,89.04,177.49,79.62,173.2z"/>
		<path class="st8" d="M107.67,194.47l-20.64,11.91c-2.41,1.39-4.37,0.26-4.37-2.52l0-23.83c0-2.79,1.96-6.17,4.37-7.57l20.64-11.91
			c2.41-1.39,4.37-0.26,4.37,2.52l0,23.83C112.04,189.69,110.08,193.08,107.67,194.47z"/>
		<text transform="matrix(0.866 -0.5 4.000000e-05 1 86.6679 194.7325)" class="st15 st16 st17">XML</text>
		<linearGradient id="SVGID_4_" gradientUnits="userSpaceOnUse" x1="103.8826" y1="199.3178" x2="86.2087" y2="145.8976">
			<stop  offset="0" style="stop-color:#EDFAFF"/>
			<stop  offset="1" style="stop-color:#30384F;stop-opacity:0"/>
		</linearGradient>
		<path class="st28" d="M112.04,169.43l0-6.36c0-2.79-1.96-3.91-4.37-2.52l-20.64,11.91c-2.41,1.39-4.37,4.78-4.37,7.57l0,16.83
			C90.95,184.66,101.21,174.77,112.04,169.43z"/>
	</g>
	<g>
		<g>
			<path class="st6" d="M306.46,343.98l0.59,8.06c0,0,1.02,4.65-2.98,8.03c-4,3.38-9.98,2.1-14.36,0
				c-3.47-1.66-13.87-6.36-18.25-13.41c-1.08-1.74-3.6-5.67,1.02-8.13c2.98-1.58,9.2,0.86,13.62,1.87c2.71,0.62,7.1,1.3,7.1,1.3
				s3.93-2.64,7.91-1C305.09,342.34,306.75,340.68,306.46,343.98z"/>
			<path class="st29" d="M289.64,335.74c0,0-1.01,8.23,6.77,9.96c7.78,1.73,13.2-0.48,14.12-4.86c0.57-2.71,3.19-28.17,4.79-42.43
				l-20.41-15.84L289.64,335.74z"/>
			<path class="st29" d="M369.87,303.62c-0.96-7.16-3.64-14.03-4.45-21.19l-18.26,5.53c0,0-28.31-12.41-36.26-13.49
				c-4.58-0.62-8.55-0.84-12.77,3.01c-5.24,4.79-4.34,10.49-4.34,10.49l0.36,3.36l30.84,16.5c0-0.06,11.62,6.37,17.47,8.07
				c8.95,2.6,20.89,0.48,25.51-2.12c0.63-0.36,1.47-0.8,2.44-1.32C370.4,309.51,370.26,306.55,369.87,303.62z"/>
			<path class="st30" d="M281.17,360.96l0.59,8.06c0,0,1.02,4.65-2.98,8.03c-4,3.38-9.98,2.1-14.36,0
				c-3.47-1.66-13.87-6.36-18.25-13.41c-1.08-1.74-3.6-5.67,1.02-8.13c2.98-1.58,9.2,0.86,13.62,1.87c2.71,0.62,7.1,1.3,7.1,1.3
				s3.93-2.64,7.91-1C279.8,359.33,281.45,357.66,281.17,360.96z"/>
			<g>
				<path class="st6" d="M373.16,405.59c-1.13-0.65-2.13-0.58-2.75,0.05l-0.06-0.09l-5.61,3.16l4.42,8.28l6.31-3.09
					c0.63-0.42,0.98-1.21,0.98-2.81C376.45,408.95,375.02,406.67,373.16,405.59z"/>
				
					<ellipse transform="matrix(0.866 -0.5 0.5 0.866 -157.2627 238.8061)" class="st6" cx="366.98" cy="412.86" rx="2.75" ry="4.77"/>
			</g>
			<g>
				<path class="st6" d="M305.16,407.28c1.13-0.65,2.13-0.58,2.75,0.05l0.06-0.09l5.61,3.16l-4.42,8.28l-6.31-3.09
					c-0.63-0.42-0.98-1.21-0.98-2.81C301.87,410.63,303.3,408.35,305.16,407.28z"/>
				<path class="st6" d="M307.96,416.49c0,2.15,1.51,3.02,3.37,1.95c1.86-1.08,3.37-3.69,3.37-5.84c0-2.15-1.51-3.02-3.37-1.95
					S307.96,414.34,307.96,416.49z"/>
			</g>
			<g>
				<path class="st6" d="M368.03,377.53c1.13-0.65,2.13-0.58,2.75,0.05l0.06-0.09l5.61,3.16l-4.42,8.28l-6.31-3.09
					c-0.63-0.42-0.98-1.21-0.98-2.81C364.73,380.89,366.17,378.6,368.03,377.53z"/>
				<path class="st6" d="M370.83,386.74c0,2.15,1.51,3.02,3.37,1.95c1.86-1.08,3.37-3.69,3.37-5.84c0-2.15-1.51-3.02-3.37-1.95
					C372.34,381.97,370.83,384.59,370.83,386.74z"/>
			</g>
			<g>
				<path class="st6" d="M315.34,377.53c-1.13-0.65-2.13-0.58-2.75,0.05l-0.06-0.09l-5.61,3.16l4.42,8.28l6.31-3.09
					c0.63-0.42,0.98-1.21,0.98-2.81C318.64,380.89,317.21,378.6,315.34,377.53z"/>
				<path class="st6" d="M312.54,386.74c0,2.15-1.51,3.02-3.37,1.95c-1.86-1.08-3.37-3.69-3.37-5.84c0-2.15,1.51-3.02,3.37-1.95
					C311.03,381.97,312.54,384.59,312.54,386.74z"/>
			</g>
			<path class="st31" d="M341.44,388.07l-28.95-14.08c0,0-1.5-0.91-3.56,0.21c-2.06,1.12-2.25,2.64-2.25,2.64v2.06l29.87,14.97
				L341.44,388.07z"/>
			<path class="st31" d="M337.79,389.19l30.64-15.2c0,0,1.34-0.91,3.4,0.21c2.06,1.12,2.09,2.64,2.09,2.64v2.06l-31.39,16.09
				L337.79,389.19z"/>
			<path class="st5" d="M345.93,397.05h-13.1v-11.88c0-3.26,2.64-5.9,5.9-5.9h1.3c3.26,0,5.9,2.64,5.9,5.9V397.05z"/>
			<path class="st6" d="M336.51,364.46v16.69c0,0,0.04,3.37,3.41,3.37c3.37,0,2.66-2.99,2.66-2.99v-17.06H336.51z"/>
			<path class="st5" d="M332.97,349.18v15.72c0,0,2.2,2.81,6.13,2.81c3.93,0,6.51-2.81,6.51-2.81v-17.96L332.97,349.18z"/>
			<path class="st32" d="M263.5,353.96c0,0-0.98,8,6.58,9.68c7.55,1.68,12.83-0.47,13.72-4.72c0.55-2.63,3.1-27.37,4.65-41.22
				l-19.83-15.39L263.5,353.96z"/>
			<path class="st33" d="M315.34,311.29c8.04-5.14,13.52-8.01,20.21-8.98c9.64-1.4,22.36,2.9,29.47,5.89
				c4.58,1.93,18.15,7.67,14.97,15.16c-2.26,5.32-13.38,9.17-21.52,13.1c-8.14,3.93-18.71,10.85-27.69,11.41
				c-8.98,0.56-18.8-4.21-26.94-9.54c-8.14-5.33-7.3-13-1.96-17.77C306.18,316.69,308.33,315.78,315.34,311.29z"/>
			<path class="st32" d="M370.96,290.07l-49.1,14.88c0,0-28.31-12.41-36.26-13.49c-4.58-0.62-8.55-0.84-12.77,3.01
				c-5.24,4.79-4.34,10.49-4.34,10.49l0.36,3.36l30.84,16.5c0-0.06,11.62,6.37,17.47,8.07c8.95,2.6,20.89,0.48,25.51-2.12
				c4.62-2.6,19.63-9.82,25.4-16.17C373.85,308.26,370.96,290.07,370.96,290.07z"/>
			<g>
				<path class="st6" d="M297.58,327.85v7.86c0,0,1.35,8.05,9.77,12.54c8.42,4.49,21.54,8.23,27.9,5.8
					c6.36-2.43,30.32-14.78,35.56-17.59c5.24-2.81,7.86-4.3,8.8-6.74c0.94-2.43,0.19-9.92,0.19-9.92s-13.66,10.85-29.37,16.09
					c-15.72,5.24-21.74,8.23-29.42,6.36C313.34,340.38,297.58,327.85,297.58,327.85z"/>
				<path class="st5" d="M331.9,352.54c-2.33-3.73-0.79-7.84,1.72-11.05c-4.87,1.37-8.52,1.76-12.62,0.76
					c-7.67-1.87-23.43-14.41-23.43-14.41v7.86c0,0,1.35,8.05,9.77,12.54c7.81,4.17,19.67,7.68,26.42,6.23
					C333.11,353.9,332.5,353.26,331.9,352.54z"/>
			</g>
			<path class="st31" d="M305.24,408.83c0,0-2.67-4.3,1.45-5.8c4.12-1.5,27.01-12.91,27.01-12.91s4.93,0.75,4.93,2.62
				s0.56,4.12,0.56,4.12s-24.88,11.6-27.32,12.91C309.45,411.08,307.39,410.14,305.24,408.83z"/>
			<path class="st31" d="M375.14,408.83c0,0,2.1-4.3-2.01-5.8c-4.12-1.5-26.82-13.47-26.82-13.47s-4.75,0.75-4.75,2.62
				s0,4.12,0,4.12s24.7,12.16,27.13,13.47C371.12,411.08,372.99,410.14,375.14,408.83z"/>
		</g>
		<g>
			<g>
				<path class="st34" d="M223.83,419.23L223.83,419.23c-2.33,0-4.22-1.89-4.22-4.22v-95.26h8.43v95.26
					C228.05,417.35,226.16,419.23,223.83,419.23z"/>
				<path class="st35" d="M223.6,319.76v99.45c0.08,0,0.15,0.02,0.23,0.02c2.33,0,4.22-1.89,4.22-4.22v-95.26H223.6z"/>
			</g>
			<g>
				<path class="st34" d="M135.57,366.16L135.57,366.16c-2.33,0-4.22-1.89-4.22-4.22v-95.26h8.43v95.26
					C139.78,364.27,137.9,366.16,135.57,366.16z"/>
				<path class="st35" d="M135.33,266.68v99.45c0.08,0,0.15,0.02,0.23,0.02c2.33,0,4.22-1.89,4.22-4.22v-95.26H135.33z"/>
			</g>
			<g>
				<path class="st34" d="M391.52,318.06L391.52,318.06c-2.33,0-4.22-1.89-4.22-4.22v-95.26h8.43v95.26
					C395.73,316.17,393.85,318.06,391.52,318.06z"/>
				<path class="st35" d="M391.28,218.58v99.45c0.08,0,0.15,0.02,0.23,0.02c2.33,0,4.22-1.89,4.22-4.22v-95.26H391.28z"/>
			</g>
			<g>
				<path class="st36" d="M303.25,264.98L303.25,264.98c-2.33,0-4.22-1.89-4.22-4.22v-95.26h8.43v95.26
					C307.47,263.1,305.58,264.98,303.25,264.98z"/>
				<path class="st37" d="M303.02,165.51v99.45c0.08,0,0.15,0.02,0.23,0.02c2.33,0,4.22-1.89,4.22-4.22v-95.26H303.02z"/>
			</g>
			<g>
				<polygon class="st38" points="404,215.83 219.11,322.58 120.48,265.64 305.37,158.89 				"/>
				<polygon class="st39" points="219.08,329.6 219.08,322.56 120.45,265.61 120.45,272.66 				"/>
				<polygon class="st40" points="403.96,222.9 403.96,215.86 219.07,322.61 219.07,329.65 				"/>
			</g>
		</g>
		<g>
			<polygon class="st41" points="308.02,220.96 245.31,257.8 218.93,243.99 219.54,249.51 245.64,261.02 308.24,224.75 			"/>
			<polygon class="st42" points="218.93,242.99 219.54,248.51 245.64,260.02 245.31,256.8 			"/>
			<polygon class="st7" points="283.63,206.33 308.04,220.07 245.31,256.8 218.93,242.99 			"/>
			<polygon class="st43" points="308.02,219.96 245.31,256.8 245.64,260.02 308.24,223.75 			"/>
			<g>
				<polygon class="st44" points="227.9,243.49 225.51,242.12 228.01,240.68 230.4,242.05 				"/>
				<polygon class="st44" points="232.77,240.68 230.38,239.3 232.87,237.86 235.26,239.23 				"/>
				<polygon class="st44" points="235.88,238.87 233.5,237.5 235.99,236.05 238.38,237.42 				"/>
				<polygon class="st44" points="239,237.06 236.62,235.69 239.11,234.25 241.5,235.62 				"/>
				<polygon class="st44" points="243.87,234.24 241.48,232.87 243.98,231.43 246.36,232.8 				"/>
				<polygon class="st44" points="246.99,232.44 244.6,231.07 247.09,229.62 249.48,230.99 				"/>
				<polygon class="st44" points="250.1,230.63 247.72,229.26 250.21,227.81 252.6,229.19 				"/>
				<polygon class="st44" points="254.97,227.81 252.58,226.44 255.08,225 257.46,226.37 				"/>
				<polygon class="st44" points="258.09,226.01 255.7,224.63 258.2,223.19 260.58,224.56 				"/>
				<polygon class="st44" points="261.21,224.2 258.82,222.83 261.31,221.38 263.7,222.75 				"/>
				<polygon class="st44" points="266.2,221.31 263.81,219.94 266.3,218.49 268.69,219.86 				"/>
				<polygon class="st44" points="269.17,219.51 266.82,218.1 269.38,216.68 271.73,218.09 				"/>
				<polygon class="st44" points="272.43,217.69 270.05,216.32 272.54,214.88 274.93,216.25 				"/>
				<polygon class="st44" points="276.42,215.38 274.04,214.01 276.53,212.57 278.92,213.94 				"/>
				<polygon class="st44" points="279.54,213.58 277.16,212.2 279.65,210.76 282.04,212.13 				"/>
				<polygon class="st44" points="282.66,211.77 280.28,210.4 282.77,208.95 285.16,210.32 				"/>
				<polygon class="st44" points="287.08,214.31 284.69,212.93 287.19,211.49 289.57,212.86 				"/>
				<polygon class="st44" points="290.06,216.02 287.67,214.65 290.17,213.2 292.56,214.57 				"/>
				<polygon class="st44" points="283.96,216.11 281.57,214.74 284.07,213.3 286.45,214.67 				"/>
				<polygon class="st44" points="286.94,217.83 284.56,216.46 287.05,215.01 289.44,216.38 				"/>
				<polygon class="st44" points="280.84,217.92 278.45,216.55 280.95,215.1 283.34,216.47 				"/>
				<polygon class="st44" points="283.82,219.63 281.44,218.26 283.93,216.82 286.32,218.19 				"/>
				<polygon class="st44" points="298.89,221.09 296.51,219.72 299,218.28 301.39,219.65 				"/>
				<polygon class="st44" points="295.77,222.9 293.39,221.53 295.88,220.08 298.27,221.46 				"/>
				<polygon class="st44" points="292.65,224.71 290.27,223.34 292.76,221.89 295.15,223.26 				"/>
				<polygon class="st44" points="292.79,221.19 290.4,219.82 292.9,218.37 295.28,219.74 				"/>
				<polygon class="st44" points="272.73,222.62 270.35,221.25 272.84,219.8 275.23,221.17 				"/>
				<polygon class="st44" points="269.61,224.42 267.23,223.05 269.72,221.61 272.11,222.98 				"/>
				<polygon class="st44" points="266.5,226.23 264.11,224.86 266.6,223.41 268.99,224.78 				"/>
				<polygon class="st44" points="263.38,228.04 260.99,226.67 263.48,225.22 265.87,226.59 				"/>
				<polygon class="st44" points="260.26,229.84 257.87,228.47 260.37,227.03 262.75,228.4 				"/>
				<polygon class="st44" points="257.14,231.65 254.75,230.28 257.25,228.83 259.63,230.2 				"/>
				<polygon class="st44" points="254.02,233.46 251.63,232.09 254.13,230.64 256.52,232.01 				"/>
				<polygon class="st44" points="250.9,235.26 248.52,233.89 251.01,232.45 253.4,233.82 				"/>
				<polygon class="st44" points="247.78,237.07 245.4,235.7 247.89,234.25 250.28,235.62 				"/>
				<polygon class="st44" points="244.67,238.88 242.28,237.51 244.9,235.99 247.29,237.36 				"/>
				<polygon class="st44" points="241.55,240.68 239.16,239.31 241.78,237.79 244.17,239.17 				"/>
				<polygon class="st44" points="238.43,242.49 236.04,241.12 238.66,239.6 241.05,240.97 				"/>
				<polygon class="st44" points="235.44,244.23 233.05,242.85 235.54,241.41 237.93,242.78 				"/>
				<polygon class="st44" points="232.32,246.03 229.93,244.66 232.42,243.21 234.81,244.59 				"/>
				<polygon class="st44" points="239.92,245.07 237.53,243.7 240.02,242.26 242.41,243.63 				"/>
				<polygon class="st44" points="243.03,243.27 240.65,241.89 243.14,240.45 245.53,241.82 				"/>
				<polygon class="st44" points="246.15,241.46 243.77,240.09 246.26,238.64 248.65,240.01 				"/>
				<polygon class="st44" points="249.27,239.65 246.88,238.28 249.38,236.84 251.77,238.21 				"/>
				<polygon class="st44" points="252.39,237.85 250,236.47 252.5,235.03 254.88,236.4 				"/>
				<polygon class="st44" points="255.51,236.04 253.12,234.67 255.62,233.22 258,234.59 				"/>
				<polygon class="st44" points="258.63,234.23 256.24,232.86 258.73,231.42 261.12,232.79 				"/>
				<polygon class="st44" points="261.62,232.5 259.23,231.13 261.85,229.61 264.24,230.98 				"/>
				<polygon class="st44" points="264.74,230.69 262.35,229.32 264.97,227.8 267.36,229.17 				"/>
				<polygon class="st44" points="267.86,228.88 265.47,227.51 268.09,225.99 270.48,227.37 				"/>
				<polygon class="st44" points="270.98,227.08 268.59,225.71 271.08,224.26 273.47,225.63 				"/>
				<polygon class="st44" points="274.09,225.27 271.71,223.9 274.2,222.45 276.59,223.83 				"/>
				<polygon class="st44" points="274.96,228.21 272.45,226.77 274.95,225.33 277.45,226.77 				"/>
				<polygon class="st44" points="271.84,230.02 269.33,228.58 271.83,227.13 274.33,228.57 				"/>
				<polygon class="st44" points="268.72,231.83 266.21,230.39 268.71,228.94 271.21,230.38 				"/>
				<polygon class="st44" points="265.6,233.63 263.1,232.19 265.59,230.75 268.1,232.19 				"/>
				<polygon class="st44" points="262.48,235.44 259.98,234 262.47,232.55 264.98,233.99 				"/>
				<polygon class="st44" points="259.36,237.25 256.86,235.81 259.35,234.36 261.86,235.8 				"/>
				<polygon class="st44" points="256.25,239.05 253.74,237.61 256.23,236.17 258.74,237.61 				"/>
				<polygon class="st44" points="253.13,240.86 250.62,239.42 253.12,237.98 255.62,239.42 				"/>
				<polygon class="st44" points="250.01,242.67 247.5,241.23 250.12,239.71 252.63,241.15 				"/>
				<polygon class="st44" points="246.89,244.47 244.38,243.03 247,241.52 249.51,242.96 				"/>
				<polygon class="st44" points="243.77,246.28 241.27,244.84 243.89,243.32 246.39,244.76 				"/>
				<polygon class="st44" points="248.26,246.99 245.87,245.62 248.37,244.17 250.75,245.54 				"/>
				<polygon class="st44" points="251.38,245.18 248.99,243.81 251.48,242.36 253.87,243.73 				"/>
				<polygon class="st44" points="254.49,243.37 252.11,242 254.6,240.56 256.99,241.93 				"/>
				<polygon class="st44" points="257.61,241.57 255.23,240.2 257.72,238.75 260.11,240.12 				"/>
				<polygon class="st44" points="260.73,239.76 258.34,238.39 260.84,236.94 263.23,238.31 				"/>
				<polygon class="st44" points="263.85,237.95 261.46,236.58 263.96,235.14 266.34,236.51 				"/>
				<polygon class="st44" points="266.97,236.15 264.58,234.78 267.08,233.33 269.46,234.7 				"/>
				<polygon class="st44" points="270.09,234.34 267.7,232.97 270.2,231.52 272.58,232.89 				"/>
				<polygon class="st44" points="273.21,232.53 270.82,231.16 273.31,229.72 275.7,231.09 				"/>
				<polygon class="st44" points="276.32,230.73 273.94,229.36 276.43,227.91 278.82,229.28 				"/>
				<polygon class="st44" points="285.68,225.31 283.29,223.93 285.79,222.49 288.17,223.86 				"/>
				<polygon class="st44" points="287.04,227.96 284.65,226.59 288.77,224.2 291.16,225.58 				"/>
				<polygon class="st44" points="282.43,230.63 280.04,229.26 284.03,226.95 286.42,228.32 				"/>
				<polygon class="st44" points="277.81,233.31 275.42,231.94 279.42,229.62 281.8,231 				"/>
				<polygon class="st44" points="253.36,247.47 250.97,246.1 254.97,243.79 257.35,245.16 				"/>
				<polygon class="st44" points="248.75,250.15 246.36,248.78 250.35,246.46 252.74,247.83 				"/>
				<polygon class="st44" points="244.13,252.82 241.74,251.45 245.74,249.14 248.12,250.51 				"/>
				<polygon class="st44" points="279.44,228.92 277.06,227.55 282.54,224.37 284.93,225.74 				"/>
				<polygon class="st44" points="275.85,220.81 273.46,219.44 276.96,217.42 279.34,218.79 				"/>
				<polygon class="st44" points="235.3,247.75 232.91,246.37 236.9,244.06 239.29,245.43 				"/>
				<polygon class="st44" points="241.15,251.11 238.76,249.73 245.25,245.98 247.63,247.35 				"/>
				<polygon class="st44" points="238.28,249.46 235.78,248.02 240.77,245.13 243.27,246.57 				"/>
				<polygon class="st44" points="257.98,244.8 255.59,243.43 274.8,232.3 277.19,233.67 				"/>
				<path class="st44" d="M277.96,226.34l-2.39-1.37l1.7-0.99c0.16-0.09,0.13-0.18,0.1-0.29c-0.01-0.02-0.12-0.02-0.12-0.02l0-0.01
					c0-0.05,0.07-0.09,0-0.13l-2.46-1.45l5.12-2.95l5.27,3.02L277.96,226.34z"/>
			</g>
		</g>
		<g>
			<path class="st41" d="M233.42,243.16c0,0,3,1.45,3.62,3.1c0.62,1.66,2.28,4.24,4.86,5.59c2.59,1.34,4.86,1.66,4.86,1.66
				s2.48,2.17,4.34,3.52c1.86,1.34,23.59,13.76,27.52,15.1c3.93,1.34,14.17,1.45,20.48,0.21c6.31-1.24,12.21-3.31,12.21-3.31
				s-0.1-5.17-6.31-7.24s-25.14-3.21-27.72-4.86c-2.59-1.66-25.14-10.76-25.14-10.76s-14.9-9.31-16.55-8.07
				C233.93,239.33,233.42,243.16,233.42,243.16z"/>
			<path class="st41" d="M277.07,216.26c0,0,0.93,1.14,3.21,1.86c2.28,0.72,3.41,0.83,3.72,2.07c0.31,1.24-6.21,0.83-6.21,0.83
				s0.52,1.34,2.07,1.76s2.38,1.34,3.62,2.28c1.24,0.93,4.24,1.66,5.59,1.55c1.34-0.1,2.41,0.31,2.41,0.31l0.34,1.86l26.41,12.41
				l5.28-3.93c0,0-14.79-12.31-20.38-13.45c-5.59-1.14-15-6-15.52-6.21c-0.52-0.21-7.57-4.44-8.08-4.03
				C279.04,213.99,277.07,216.26,277.07,216.26z"/>
			<path class="st45" d="M340.32,309.89c-3.93-6.74-3.37-15.16,0.56-20.77c8.42-10.66,21.89-11.79,33.12-19.08
				c2.37-1.42,6.33-2.03,8.18-0.17c-0.97-4.68-3.39-5.55-5-5.63c-3.55-0.19-6.29,2.19-19.27,8.61c-15.53,7.67-18.15,6.92-21.7,9.92
				c-3.56,2.99-5.61,10.1-5.05,17.77c0.56,7.67,6.17,13.85,10.66,13.66c1.08-0.04,2.03-0.21,3.05-0.52
				C342.84,312.96,341.16,311.57,340.32,309.89z"/>
			<path class="st46" d="M374,270.03c-11.23,7.3-24.7,8.42-33.12,19.08c-3.93,5.61-4.49,14.03-0.56,20.77
				c0.84,1.68,2.52,3.08,4.55,3.78c3.24-0.98,7.23-3.44,18.47-8.27c8.62-3.71,13.19-6.92,15.72-11.6c1.8-3.35,2.48-7.35,3.18-13.28
				c0.57-4.83,0.45-8.24-0.05-10.64C380.33,268,376.37,268.61,374,270.03z"/>
			<g>
				<path class="st47" d="M296.37,222.55c0,0-3.71-7.87-5.33-8.98c-1.62-1.11-5.53-1.1-8.19-1.36c-2-0.19-6.17,0.7-6.44,2.48
					c-0.27,1.78,1.07,2.08,2.84,2.67c1.78,0.6,4.26,1.12,5.05,1.76c0.78,0.64,0.68,1.76-0.71,1.48c-1.38-0.27-3.36-1.74-4.95-1.33
					c-1.25,0.32-1.54,2.22,1.13,2.93c2.66,0.71,1.99,1.32,3.61,2.04c1.62,0.72,3.63,1.98,5.46,1.8c2.14-0.22,6.36,2.73,6.36,2.73
					l5.2-4.15L296.37,222.55z"/>
				<path class="st12" d="M352.88,220.72l-21.66,5.27l-27.94-6.85c0,0-5.61-2.29-9.82,2.48c-3.34,4.84-1.82,6.48-1.82,6.48
					l36.53,16.3c0,0,5.18,3.01,13.83,1.61c7.96-1.29,31.5,4.68,31.5,4.68s3.02-9.47-1.64-19.91
					C366.93,219.78,356.24,219.22,352.88,220.72z"/>
				<path class="st48" d="M347.25,220.84c0,0-14.99,3.4-24.12,10.42c-7.97,6.13-12.71,20.38-11.94,45.67
					c0.53,17.61-0.39,18.1,0.7,23.89c0.67,3.56,3.96,8.81,9.13,11.48c6.14,3.16,11.77,5.61,20.38,3.75
					c8.67-1.87,28.1-11.71,28.1-11.71s5.93-13.25,5.93-19.98c0-6.74,0.99-31.2-1.72-43.25
					C369.15,220.72,353.34,219.49,347.25,220.84z"/>
				<path class="st47" d="M349.21,212.84l1.52,13.92c0,0-0.51,5.69-8.55,7.11c-8.24,1.45-9.77-4.14-9.77-4.14l0.21-3.33l-1.06-7.66
					L349.21,212.84z"/>
				<path class="st47" d="M317.77,187.46c0,0-1.51,14.46-1.26,19.28c0.23,4.39,2.24,13.23,8.37,15.47
					c5.09,1.86,11.12-1.31,17.41-5.74c6.3-4.43,8.31-5.51,9.24-9.24c0.93-3.73,7.34-21.64,7.34-21.64L317.77,187.46z"/>
				<path class="st6" d="M359.51,182.91c-1.17-6.03-4.94-10.13-8.95-12.26c-7.93-4.2-15.86-3.99-23.06-1.75
					c-6.78,2.11-10.01,5.24-11.38,7.98c-0.75,1.5-1.14,2.88-1.29,4.13c-0.03,1.76,0.33,3.51,1.15,5.12
					c1.16,2.26,3.35,3.75,4.96,5.66c1.31,1.55,2.11,3.29,2.31,5.31c0.18,1.8,0.32,3.81,0.2,5.74l2.16,0.79c0,0-0.41-5.18,2.57-5.56
					c4.55-0.58,4.88,5.99,4.2,7.93c-2.91,8.28,1.55,9.79,1.55,9.79c5.18,2.13,10.7,2.68,15.4-0.79c3.9-2.88,6.61-7.18,8.19-11.72
					C359.68,197.06,360.76,189.38,359.51,182.91z"/>
				<path class="st47" d="M252.23,254.88l-5.11-2.73c0,0-1.52,1.04-4.74-0.78c-3.87-2.19-3.68-4.32-5.19-5.61
					c-1.96-1.68-3.06-2.07-5.05-3.51c-2.3-1.66,0.14-5.89,3.65-6.03c1.14-0.05,2.78,0.05,6.17,1.4c2.1,0.84,4.87,3.84,4.87,3.84
					s-1.58-2.53-2.34-3.28c-0.76-0.74,0.29-2.35,1.83-1.07c1.53,1.28,3.88,4.3,3.96,5.37s1.28,4.22,1.28,4.22l4.86,2.81
					L252.23,254.88z"/>
				<path class="st12" d="M316.93,238.05l-31.61,16.83l-27.76-10.97c0,0-5.43-2.84-9.43,3.53c-2.05,3.26-0.29,6.65-0.29,6.65
					s23.88,14.63,32.24,17.25c4.13,1.3,8.57,1.76,17.3,1.02c9.72-0.82,17.55-4.34,24.01-7.61c4.46-2.26,10.21-9.38,8.47-18.1
					C328.05,237.7,322.54,235.81,316.93,238.05z"/>
			</g>
			<path class="st33" d="M354.35,268.72c-8.51,3.27-17.4,6.74-20.77,7.67c-3.37,0.94-7.48,7.86-7.11,15.72s1.68,14.78,4.68,17.59
				c2.99,2.81,8.42,5.8,17.03,1.68c8.61-4.12,20.39-9.17,23.76-11.6c3.37-2.43,6.47-5.39,7.67-8.98c1.31-3.93,2.62-11.97,2.25-19.65
				c-0.34-6.98-4.3-13.47-10.85-10.48C364.46,263.67,361.65,265.92,354.35,268.72z"/>
			<path class="st6" d="M336.2,282.76c3.55-2.99,6.17-2.25,21.7-9.92c12.98-6.41,15.72-8.79,19.27-8.61
				c2.44,0.13,6.74,2.06,5.05,16.28c-0.7,5.93-1.38,9.93-3.18,13.28c-2.52,4.68-7.1,7.89-15.72,11.6
				c-14.78,6.36-17.03,8.61-21.52,8.79c-4.49,0.19-10.1-5.99-10.66-13.66C330.59,292.86,332.65,285.75,336.2,282.76z"/>
			<g>
				<path class="st49" d="M357.53,290.15l9.02-4.57c0,0,2.43-1.48,4.63,5.99c0.85,2.87,0.59,11.42,0.61,20.4
					c0.03,14.36-0.06,30.42-0.06,30.42l-9.02,4.57c0,0-0.62-5.87-0.67-13.42C361.94,318.04,361.82,294.13,357.53,290.15z"/>
				<path class="st5" d="M357.53,290.15l-0.04,47.62l-4.81-1.5v5.99l10.03,4.7v-46.78c0,0-0.22-4.59-2.08-7.55
					C357.52,287.66,357.53,290.15,357.53,290.15z"/>
			</g>
		</g>
	</g>
	<g class="st4">
		<polygon class="st10" points="178.53,214.86 108.54,256.17 107.69,255.75 107.69,204.63 178.53,163.74 179.35,164.16 		"/>
		<g>
			<g>
				<polygon class="st7" points="179.37,215.27 108.53,256.17 108.53,205.04 179.37,164.15 				"/>
				<polygon class="st12" points="179.37,169.08 108.53,209.97 108.53,205.04 179.37,164.15 				"/>
			</g>
			<polygon class="st50" points="142.6,198.3 115.01,214.23 115.01,213.13 142.6,197.2 			"/>
			<polygon class="st50" points="142.6,203.04 115.01,218.97 115.01,217.87 142.6,201.94 			"/>
			<polygon class="st50" points="142.6,207.79 115.01,223.71 115.01,222.61 142.6,206.69 			"/>
			<polygon class="st50" points="142.6,212.53 115.01,228.45 115.01,227.35 142.6,211.43 			"/>
			<polygon class="st50" points="142.6,217.27 115.01,233.2 115.01,232.1 142.6,216.17 			"/>
			<polygon class="st51" points="173.22,210.69 150.07,224.06 150.07,191.64 173.22,178.27 			"/>
			<polygon class="st50" points="142.6,222.01 115.01,237.94 115.01,236.84 142.6,220.91 			"/>
		</g>
	</g>
	<g>
		<path class="st41" d="M207.18,223.59l0,0.11l0.02,0.01c0.08,0.33,0.34,0.66,0.78,0.92l13.94,8.05c0.57,0.33,1.33,0.49,2.09,0.47
			l0,0c0,0,0,0,0,0c0.34-0.01,0.68-0.05,1-0.13c0.03-0.01,0.07-0.02,0.1-0.03c0.12-0.03,0.25-0.07,0.36-0.11
			c0.15-0.06,0.29-0.12,0.43-0.2l37.88-21.87c0.27-0.16,0.47-0.34,0.6-0.53c0.02-0.02,0.03-0.04,0.04-0.07
			c0.07-0.11,0.13-0.22,0.15-0.34c0-0.02,0-0.04,0-0.05c0.02-0.09,0.02-0.17,0.02-0.23c0-0.24-0.04-2.88-0.04-2.88l-2.14,1.02
			l-12.58-7.26c-1.1-0.63-2.88-0.63-3.97,0l-27.98,16.16l0,0l-7.98,4.61c-0.01-0.02-0.03-0.03-0.04-0.05
			c-0.75-0.75-2.7-0.22-2.7-0.22l0.02,2.42C207.17,223.45,207.17,223.52,207.18,223.59z"/>
		<g>
			<path class="st42" d="M272.11,110.35c0,0-1.05-0.88-1.76-1.29c-0.45-0.26-0.76-0.42-0.97-0.52c-0.05-0.03-0.1-0.05-0.15-0.07
				c-0.13-0.06-0.2-0.08-0.2-0.08l0,0.01c-0.38-0.09-0.83,0-1.32,0.28l-80.83,46.67c-1.28,0.74-2.32,2.54-2.32,4.02l0,59.2
				c0,0.73,0.25,1.24,0.66,1.49l0,0c0,0,2.25,1.81,2.93,1.79c0.67-0.03,0.67-2.34,0.67-2.34l-0.19-0.61l79.08-45.65
				c1.28-0.74,2.32-2.54,2.32-4.02l0-53.55c0.06-0.04,0.12-0.08,0.18-0.13C271.29,114.57,272.11,110.35,272.11,110.35z"/>
			<path class="st52" d="M270.03,122.31l0-6.65c0.06-0.04,0.12-0.08,0.18-0.13c1.08-0.97,1.9-5.18,1.9-5.18s-1.05-0.88-1.76-1.29
				c-0.45-0.26-0.76-0.42-0.97-0.52c-0.05-0.03-0.1-0.05-0.15-0.07c-0.13-0.06-0.2-0.08-0.2-0.08l0,0.01
				c-0.38-0.09-0.83,0-1.32,0.28l-80.83,46.67c-0.63,0.36-1.2,0.98-1.62,1.7l9.53,6.3l75.18-40.98
				C269.97,122.36,269.99,122.34,270.03,122.31z"/>
			<path class="st40" d="M264.57,208.87c0-0.02,0-0.04,0-0.05c0.02-0.09,0.02-0.17,0.02-0.23c0-0.24-0.04-2.88-0.04-2.88l-2.14,1.02
				l-12.58-7.26c-1.1-0.63-2.88-0.63-3.98,0l-35.96,20.77c-0.01-0.02-0.03-0.03-0.04-0.05c-0.75-0.75-2.7-0.22-2.7-0.22l0.02,2.42
				c-0.01,0.07-0.01,0.14,0,0.21l0,0.11l0.02,0.01c0.08,0.33,0.34,0.66,0.78,0.92l13.94,8.05c1.1,0.63,2.88,0.63,3.97,0l37.88-21.87
				c0.27-0.16,0.47-0.34,0.6-0.53c0.02-0.02,0.03-0.04,0.04-0.07C264.49,209.1,264.55,208.99,264.57,208.87z"/>
			<path class="st53" d="M264.55,205.71l-2.14,1.02l-12.58-7.26c-1.1-0.63-2.88-0.63-3.98,0l-27.98,16.16l6.13,8.5v8.03
				c0.69-0.01,1.37-0.17,1.89-0.47l37.88-21.87c0.27-0.16,0.47-0.34,0.6-0.53c0.02-0.02,0.03-0.04,0.04-0.07
				c0.07-0.11,0.13-0.22,0.15-0.34c0-0.02,0-0.04,0-0.05c0.02-0.09,0.02-0.17,0.02-0.23C264.6,208.34,264.55,205.71,264.55,205.71z"
				/>
			<path class="st54" d="M263.78,207.26l-37.88,21.87c-1.1,0.63-2.88,0.63-3.97,0l-13.94-8.05c-1.1-0.63-1.1-1.66,0-2.3l37.88-21.87
				c1.1-0.63,2.88-0.63,3.98,0l13.94,8.05C264.87,205.6,264.87,206.62,263.78,207.26z"/>
			<g>
				<polygon class="st53" points="241,210.27 230.91,216.09 230.91,194.43 241,188.6 				"/>
				<polygon class="st40" points="230.92,215.87 227.41,213.84 227.41,192.18 230.92,194.2 				"/>
			</g>
			<g>
				<g>
					<linearGradient id="SVGID_5_" gradientUnits="userSpaceOnUse" x1="219.2844" y1="101.5459" x2="235.0086" y2="197.5458">
						<stop  offset="0" style="stop-color:#3FA9F5"/>
						<stop  offset="1" style="stop-color:#65D8FF"/>
					</linearGradient>
					<polygon class="st55" points="269.26,171.68 190.42,217.2 190.42,160.29 269.26,114.78 					"/>
					<text transform="matrix(0.866 -0.5 4.000000e-05 1 204.754 185.272)" class="st7 st21 st56 st57">{.CODE};</text>
				</g>
				<polygon class="st52" points="269.33,171.63 190.48,217.16 189.82,216.77 268.66,171.25 				"/>
				<polygon class="st58" points="269.48,171.73 268.65,171.25 268.65,114.35 269.48,114.83 				"/>
				<path class="st37" d="M272.57,111.72c0-1.48-1.04-2.08-2.32-1.34l-80.83,46.67c-1.28,0.74-2.32,2.54-2.32,4.02l0,59.2
					c0,1.48,1.04,2.08,2.32,1.34l80.83-46.67c1.28-0.74,2.32-2.54,2.32-4.02L272.57,111.72z M190.42,217.2l0-56.9l78.85-45.52
					l0,56.9L190.42,217.2z"/>
			</g>
		</g>
	</g>
	<g class="st4">
		<polygon class="st5" points="327.96,161.47 257.96,202.78 257.12,202.36 257.12,151.24 327.96,110.35 328.78,110.77 		"/>
		<g>
			<polygon class="st6" points="328.8,161.89 257.96,202.79 257.96,151.66 328.8,110.77 			"/>
			<g>
				<polygon class="st7" points="264.61,157.26 262.64,158.39 262.64,156.78 264.61,155.65 				"/>
				<polygon class="st12" points="293.43,140.62 266.81,155.99 266.81,154.38 293.43,139.01 				"/>
				<polygon class="st7" points="264.61,161.04 262.64,162.18 262.64,160.56 264.61,159.43 				"/>
				<polygon class="st12" points="279.1,152.67 266.81,159.77 266.81,158.16 279.1,151.06 				"/>
				<polygon class="st7" points="264.61,164.82 262.64,165.96 262.64,164.34 264.61,163.21 				"/>
				<polygon class="st12" points="285.47,152.78 266.81,163.55 266.81,161.94 285.47,151.17 				"/>
				<polygon class="st7" points="264.61,168.6 262.64,169.74 262.64,168.12 264.61,166.99 				"/>
				<polygon class="st12" points="289.08,154.47 266.81,167.33 266.81,165.72 289.08,152.86 				"/>
			</g>
			<g>
				<polygon class="st7" points="264.61,174.1 262.64,175.23 262.64,173.62 264.61,172.48 				"/>
				<polygon class="st8" points="280.91,164.69 266.81,172.83 266.81,171.22 280.91,163.08 				"/>
				<polygon class="st7" points="264.61,177.88 262.64,179.01 262.64,177.4 264.61,176.26 				"/>
				<polygon class="st8" points="292.69,161.67 266.81,176.61 266.81,175 292.69,160.05 				"/>
				<polygon class="st7" points="264.61,181.66 262.64,182.79 262.64,181.18 264.61,180.05 				"/>
				<polygon class="st8" points="277.01,174.5 266.81,180.39 266.81,178.78 277.01,172.89 				"/>
				<polygon class="st7" points="264.61,185.44 262.64,186.57 262.64,184.96 264.61,183.83 				"/>
				<polygon class="st8" points="285.06,173.64 266.81,184.17 266.81,182.56 285.06,172.02 				"/>
			</g>
			<g>
				<polygon class="st7" points="306.57,132.65 308.07,131.79 308.07,130.56 306.57,131.43 				"/>
				<polygon class="st7" points="320.2,123.56 309.74,129.59 309.74,130.82 320.2,124.79 				"/>
				<polygon class="st7" points="306.57,135.54 308.07,134.67 308.07,133.44 306.57,134.31 				"/>
				<polygon class="st7" points="314.57,129.69 309.74,132.47 309.74,133.7 314.57,130.92 				"/>
				<polygon class="st7" points="306.57,138.42 308.07,137.55 308.07,136.32 306.57,137.19 				"/>
				<polygon class="st7" points="317.07,131.13 309.74,135.36 309.74,136.59 317.07,132.36 				"/>
				<polygon class="st7" points="306.57,141.3 308.07,140.44 308.07,139.21 306.57,140.07 				"/>
				<polygon class="st7" points="318.49,133.19 309.74,138.24 309.74,139.47 318.49,134.42 				"/>
				<polygon class="st7" points="306.57,145.5 308.07,144.63 308.07,143.4 306.57,144.27 				"/>
				<polygon class="st7" points="316.56,138.5 309.74,142.43 309.74,143.66 316.56,139.73 				"/>
				<polygon class="st7" points="306.57,148.38 308.07,147.51 308.07,146.28 306.57,147.15 				"/>
				<polygon class="st7" points="309.74,145.32 309.74,146.55 322.25,139.33 322.25,138.1 				"/>
				<polygon class="st7" points="306.57,151.26 308.07,150.4 308.07,149.17 306.57,150.03 				"/>
				<polygon class="st7" points="314.67,145.35 309.74,148.2 309.74,149.43 314.67,146.58 				"/>
				<polygon class="st7" points="306.57,154.15 308.07,153.28 308.07,152.05 306.57,152.92 				"/>
				<polygon class="st7" points="309.75,152.31 318.56,147.22 318.56,145.99 309.75,151.08 				"/>
			</g>
		</g>
	</g>
	<g>
		<path class="st59" d="M240.76,272.88l-36.33-20.09c-1.34-0.77-3.51-0.77-4.85,0l-23.81,12.91c-1.34,0.77-1.12,2.74,0.22,3.51
			l36.05,20.82c1.34,0.77,3.51,0.77,4.85,0l23.59-13.62C241.82,275.64,242.1,273.65,240.76,272.88z"/>
		<g>
			<path class="st60" d="M240.48,275.41l-23.59,13.62c-1.34,0.77-3.51,0.77-4.85,0l-36.05-20.82c-1.34-0.77-1.56-2.74-0.22-3.51
				l23.81-12.91c1.34-0.77,3.51-0.77,4.85,0l36.33,20.09C242.1,272.65,241.82,274.64,240.48,275.41z"/>
			<g>
				<path class="st61" d="M240.48,274.41l-23.59,13.62c-1.34,0.77-3.51,0.77-4.85,0l-36.05-20.82c-1.34-0.77-1.34-2.03,0-2.8
					l23.59-13.62c1.34-0.77,3.51-0.77,4.85,0l36.05,20.82C241.82,272.38,241.82,273.64,240.48,274.41z"/>
				<polygon class="st62" points="212.96,285.76 178.41,265.81 202,252.19 236.55,272.14 				"/>
				
					<linearGradient id="SVGID_6_" gradientUnits="userSpaceOnUse" x1="499.019" y1="124.8084" x2="530.9364" y2="214.4227" gradientTransform="matrix(0.7071 -0.7071 0.7071 0.7071 -294.6273 504.0703)">
					<stop  offset="0" style="stop-color:#30384F;stop-opacity:0"/>
					<stop  offset="1" style="stop-color:#EDFAFF"/>
				</linearGradient>
				<path class="st63" d="M217.14,260.93L202,252.19l-23.59,13.62l23.79,13.73c0.04-0.21,0.08-0.42,0.14-0.63
					C204.18,272.25,208.85,265.38,217.14,260.93z"/>
				<path class="st64" d="M227.68,279.48c0.55,0.32,0.55,0.84,0,1.16c-0.55,0.32-1.45,0.32-2.01,0c-0.55-0.32-0.55-0.84,0-1.16
					C226.23,279.16,227.13,279.16,227.68,279.48z"/>
			</g>
		</g>
	</g>
	<g>
		<path class="st41" d="M312.07,210.5L312.07,210.5C312.07,210.5,312.07,210.5,312.07,210.5c-0.1-0.47-0.25-0.98-0.44-1.52
			c-0.02-0.07-0.05-0.13-0.07-0.2c-0.05-0.13-0.1-0.26-0.16-0.4c-0.04-0.09-0.07-0.17-0.11-0.26c-0.05-0.13-0.11-0.25-0.17-0.38
			c-0.05-0.1-0.09-0.2-0.14-0.3c-0.06-0.12-0.12-0.24-0.18-0.36c-0.06-0.11-0.12-0.22-0.18-0.33c-0.06-0.11-0.12-0.23-0.19-0.34
			c-0.07-0.13-0.15-0.26-0.23-0.39c-0.06-0.09-0.11-0.19-0.17-0.28c-0.14-0.22-0.28-0.43-0.43-0.65c-0.05-0.07-0.1-0.13-0.14-0.19
			c-0.11-0.15-0.22-0.3-0.34-0.45c-0.06-0.08-0.13-0.16-0.19-0.24c-0.11-0.13-0.21-0.26-0.32-0.38c-0.07-0.08-0.14-0.16-0.21-0.24
			c-0.11-0.12-0.22-0.24-0.34-0.35c-0.07-0.08-0.15-0.15-0.23-0.22c-0.12-0.11-0.24-0.22-0.36-0.33c-0.08-0.07-0.15-0.13-0.23-0.2
			c-0.14-0.11-0.27-0.22-0.41-0.32c-0.07-0.05-0.13-0.1-0.2-0.15c-0.21-0.15-0.42-0.29-0.64-0.42c-0.83-0.49-1.6-0.88-2.32-1.2
			c0,0-0.01-0.01-0.01-0.01c-0.03-0.01-0.05-0.02-0.08-0.03c-0.16-0.07-0.31-0.13-0.47-0.19c-0.2-0.08-0.4-0.15-0.6-0.22
			c-0.08-0.03-0.17-0.07-0.25-0.09c-0.07-0.02-0.13-0.03-0.19-0.05c-0.21-0.06-0.41-0.1-0.62-0.15c-0.12-0.02-0.24-0.06-0.36-0.07
			c-0.31-0.05-0.61-0.07-0.91-0.07c-0.02,0-0.04-0.01-0.06-0.01c-0.07,0-0.14,0.02-0.21,0.02c-0.22,0.01-0.44,0.03-0.67,0.06
			c-0.11,0.02-0.22,0.04-0.33,0.06c-0.21,0.05-0.43,0.11-0.64,0.18c-0.1,0.03-0.2,0.06-0.3,0.1c-0.31,0.12-0.62,0.26-0.93,0.43
			c-0.24,0.14-0.48,0.28-0.7,0.44c-0.05,0.03-0.1,0.07-0.15,0.1c-0.02,0.01-0.04,0.03-0.06,0.04c-0.01,0.01-0.03,0.02-0.04,0.03
			c-0.19,0.14-0.37,0.28-0.55,0.43c-0.01,0.01-0.03,0.03-0.04,0.04c-0.08,0.07-0.15,0.13-0.22,0.2c0,0-0.01,0.01-0.01,0.01
			c-0.12,0.11-0.23,0.22-0.34,0.34c-0.02,0.02-0.04,0.04-0.06,0.06c-0.19,0.21-0.37,0.42-0.53,0.65c-0.01,0.01-0.01,0.02-0.02,0.02
			c-1.04,1.47-1.28,3.21-0.53,5.27c0,0,6.65,5.31,10.67,6.55c4.02,1.24,7.77-0.43,7.77-2.9
			C312.21,211.31,312.16,210.92,312.07,210.5z"/>
		<g>
			<path class="st65" d="M293.32,207.53c0,0,6.8,5.22,10.82,6.45c4.02,1.24,7.77-0.43,7.77-2.9s-2.51-7.88-6.22-10.05
				s-6.18-2.78-8.96-1.24C293.93,201.34,292.08,204.13,293.32,207.53z"/>
			<path class="st66" d="M296.72,199.8c-2.18,1.21-3.78,3.18-3.78,5.61c0.02,0.05,0.03,0.09,0.04,0.14c0,0,6.92,5.31,11.02,6.57
				c3.65,1.12,7.08-0.11,7.77-2.18c-0.56-2.73-2.87-7.03-6.09-8.91C301.97,198.87,299.5,198.25,296.72,199.8z"/>
			<path class="st7" d="M296.72,199.8c-1.31,0.73-2.4,1.73-3.07,2.93c0.88,0.44,1.72,0.81,2.47,1.04c3.65,1.12,7.08-0.11,7.77-2.18
				c0.25-0.95,0.02-1.18-0.54-1.77C300.84,198.71,298.87,198.6,296.72,199.8z"/>
			<path class="st67" d="M299.81,200.03c1.06,0.63,1.68,1.87,1.42,2.02c-0.26,0.16-1.33-0.23-2.39-0.86
				c-1.06-0.63-1.7-1.27-1.43-1.43C297.66,199.61,298.75,199.4,299.81,200.03z"/>
		</g>
	</g>
	<g>
		<path class="st24" d="M153.21,234.03l-18.87,13.71c-2.41,1.39-8.14-2.53-8.14-5.32l0-23.83c0-2.79,1.96-6.17,4.37-7.57
			l20.64-11.91c2.41-1.39,8.43,1.47,8.46,3.94l-2.09,23.41C157.58,229.25,155.63,232.64,153.21,234.03z"/>
		<path class="st9" d="M127.48,214.3c-0.79,1.37-1.27,2.9-1.27,4.29l0,23.83c0,2.79,5.73,6.71,8.14,5.32l18.87-13.71
			c1.23-0.71,2.34-1.94,3.14-3.35C147.43,225.63,136.9,218.59,127.48,214.3z"/>
		<path class="st25" d="M127.48,214.3c-0.79,1.37-1.27,2.9-1.27,4.29l0,23.83c0,2.79,5.73,6.71,8.14,5.32l18.87-13.71
			c1.23-0.71,2.34-1.94,3.14-3.35C147.43,225.63,136.9,218.59,127.48,214.3z"/>
		<path class="st26" d="M155.53,235.57l-20.64,11.91c-2.41,1.39-4.37,0.26-4.37-2.52l0-23.83c0-2.79,1.96-6.17,4.37-7.57
			l20.64-11.91c2.41-1.39,4.37-0.26,4.37,2.52l0,23.83C159.9,230.79,157.94,234.18,155.53,235.57z"/>
		<g>
			<text transform="matrix(0.866 -0.5 4.000000e-05 1 134.9437 235.2152)" class="st7 st21 st17">C++</text>
		</g>
		<linearGradient id="SVGID_7_" gradientUnits="userSpaceOnUse" x1="151.7446" y1="240.4213" x2="134.0707" y2="187.0009">
			<stop  offset="0" style="stop-color:#EDFAFF"/>
			<stop  offset="1" style="stop-color:#30384F;stop-opacity:0"/>
		</linearGradient>
		<path class="st68" d="M159.9,210.54l0-6.36c0-2.79-1.96-3.91-4.37-2.52l-20.64,11.91c-2.41,1.39-4.37,4.78-4.37,7.57l0,16.83
			C138.81,225.76,149.07,215.87,159.9,210.54z"/>
	</g>
	<g>
		<path class="st19" d="M314.59,132.51l-18.87,13.71c-2.41,1.39-8.14-2.53-8.14-5.32l0-23.83c0-2.79,1.96-6.17,4.37-7.57
			l20.64-11.91c2.41-1.39,8.43,1.47,8.46,3.94l-2.09,23.41C318.96,127.73,317.01,131.12,314.59,132.51z"/>
		<path class="st12" d="M288.86,112.78c-0.79,1.37-1.27,2.9-1.27,4.29l0,23.83c0,2.79,5.73,6.71,8.14,5.32l18.87-13.71
			c1.23-0.71,2.34-1.94,3.14-3.35C308.81,124.11,298.28,117.07,288.86,112.78z"/>
		<path class="st12" d="M288.86,112.78c-0.79,1.37-1.27,2.9-1.27,4.29l0,23.83c0,2.79,5.73,6.71,8.14,5.32l18.87-13.71
			c1.23-0.71,2.34-1.94,3.14-3.35C308.81,124.11,298.28,117.07,288.86,112.78z"/>
		<path class="st20" d="M288.86,112.78c-0.79,1.37-1.27,2.9-1.27,4.29l0,23.83c0,2.79,5.73,6.71,8.14,5.32l18.87-13.71
			c1.23-0.71,2.34-1.94,3.14-3.35C308.81,124.11,298.28,117.07,288.86,112.78z"/>
		<path class="st12" d="M316.91,134.06l-20.64,11.91c-2.41,1.39-4.37,0.26-4.37-2.52l0-23.83c0-2.79,1.96-6.17,4.37-7.57
			l20.64-11.91c2.41-1.39,4.37-0.26,4.37,2.52l0,23.83C321.28,129.28,319.32,132.66,316.91,134.06z"/>
		<text transform="matrix(0.866 -0.5 4.000000e-05 1 297.0127 134.0428)" class="st7 st21 st17">PHP</text>
		<linearGradient id="SVGID_8_" gradientUnits="userSpaceOnUse" x1="313.1239" y1="138.904" x2="295.45" y2="85.4838">
			<stop  offset="0" style="stop-color:#EDFAFF"/>
			<stop  offset="1" style="stop-color:#30384F;stop-opacity:0"/>
		</linearGradient>
		<path class="st69" d="M321.28,109.02l0-6.36c0-2.79-1.96-3.91-4.37-2.52l-20.64,11.91c-2.41,1.39-4.37,4.78-4.37,7.57l0,16.83
			C300.19,124.24,310.45,114.35,321.28,109.02z"/>
	</g>
</g>
<g id="DESIGNED_BY_FREEPIK">
</g>
</svg>
