<svg xmlns="http://www.w3.org/2000/svg" xmlns:xlink="http://www.w3.org/1999/xlink" width="70" height="70" viewBox="0 0 70 70">
  <defs>
    <clipPath id="clip-path">
      <path id="path4155" d="M0-682.665H70v70H0Z" transform="translate(0 682.665)" fill="#0010f1" stroke="#0010f1" stroke-width="0.2"/>
    </clipPath>
  </defs>
  <g id="g4149" transform="translate(0 682.665)">
    <g id="g4151" transform="translate(0 -682.665)">
      <g id="g4153" clip-path="url(#clip-path)">
        <g id="g4159" transform="translate(6.53 53.917)">
          <path id="path4161" d="M28.536,6.082A11.276,11.276,0,0,1,18.47.41,11.277,11.277,0,0,1,8.4,6.082c-6.116,0-11.092-4.393-11.092-9.793,0-.093,0-.187.006-.282A11.116,11.116,0,0,1-9.811-8.382a1.025,1.025,0,0,1,.243-1.43,1.025,1.025,0,0,1,1.43.243A9.347,9.347,0,0,0-1.463-5.89,1.025,1.025,0,0,1-.755-5.5a1.025,1.025,0,0,1,.2.783,6.616,6.616,0,0,0-.086,1C-.638.558,3.418,4.031,8.4,4.031A9.18,9.18,0,0,0,16.727-.687a1.973,1.973,0,0,1,3.485,0,9.181,9.181,0,0,0,8.324,4.718c4.985,0,9.041-3.473,9.041-7.742a6.616,6.616,0,0,0-.086-1,1.025,1.025,0,0,1,.2-.783A1.025,1.025,0,0,1,38.4-5.89a9.96,9.96,0,0,0,3.649-1.08,1.025,1.025,0,0,1,1.384.433A1.025,1.025,0,0,1,43-5.154a11.879,11.879,0,0,1-3.381,1.161c0,.1.006.189.006.282C39.628,1.689,34.652,6.082,28.536,6.082Z" transform="translate(10.001 10.001)" fill="aliceblue"/>
          <path id="path4161_-_Outline" data-name="path4161 - Outline" d="M28.536,6.182a12.278,12.278,0,0,1-6.025-1.554A10.394,10.394,0,0,1,18.47.621a10.394,10.394,0,0,1-4.041,4.007A12.278,12.278,0,0,1,8.4,6.182c-6.171,0-11.192-4.438-11.192-9.893,0-.066,0-.133,0-.2A11.15,11.15,0,0,1-9.893-8.324a1.118,1.118,0,0,1-.192-.84,1.118,1.118,0,0,1,.458-.729,1.118,1.118,0,0,1,.651-.208,1.128,1.128,0,0,1,.919.474,9.246,9.246,0,0,0,6.6,3.637,1.13,1.13,0,0,1,.777.43A1.13,1.13,0,0,1-.453-4.7a6.52,6.52,0,0,0-.085.99C-.538.5,3.473,3.931,8.4,3.931A9.08,9.08,0,0,0,16.637-.731a2.073,2.073,0,0,1,3.664,0,9.08,9.08,0,0,0,8.234,4.662c4.93,0,8.941-3.428,8.941-7.642a6.521,6.521,0,0,0-.085-.99,1.13,1.13,0,0,1,.224-.859,1.13,1.13,0,0,1,.777-.43,9.86,9.86,0,0,0,3.613-1.069,1.128,1.128,0,0,1,.521-.129,1.123,1.123,0,0,1,1,.6,1.118,1.118,0,0,1,.077.858,1.118,1.118,0,0,1-.552.661,11.992,11.992,0,0,1-3.325,1.154c0,.067,0,.134,0,.2C39.728,1.744,34.707,6.182,28.536,6.182ZM18.47.194l.089.169a11.21,11.21,0,0,0,9.978,5.619c6.061,0,10.992-4.348,10.992-9.693,0-.092,0-.185-.006-.278l0-.087.085-.016a11.8,11.8,0,0,0,3.353-1.151.919.919,0,0,0,.454-.544.919.919,0,0,0-.064-.705.924.924,0,0,0-.821-.5.927.927,0,0,0-.429.106,10.059,10.059,0,0,1-3.686,1.091.929.929,0,0,0-.639.353.929.929,0,0,0-.184.707,6.712,6.712,0,0,1,.088,1.02c0,4.324-4.1,7.842-9.141,7.842A9.281,9.281,0,0,1,20.123-.642a1.873,1.873,0,0,0-3.306,0A9.281,9.281,0,0,1,8.4,4.131C3.363,4.131-.738.613-.738-3.711a6.711,6.711,0,0,1,.088-1.02.929.929,0,0,0-.184-.707.929.929,0,0,0-.639-.353,9.448,9.448,0,0,1-6.747-3.72.928.928,0,0,0-.755-.39.919.919,0,0,0-.535.171.919.919,0,0,0-.377.6.919.919,0,0,0,.158.69A10.965,10.965,0,0,0-2.665-4.091l.085.016,0,.087c0,.093-.006.186-.006.278,0,5.345,4.931,9.693,10.992,9.693A11.21,11.21,0,0,0,18.381.363Z" transform="translate(10.001 10.001)" fill="aliceblue"/>
        </g>
        <g id="g4163" transform="translate(0 9.062)">
          <path id="path4165" d="M-105.922,32.306a1.025,1.025,0,0,1-1.025-1.025,9.24,9.24,0,0,1,1.687-5.261,9.84,9.84,0,0,1-6.72-8.987,9.464,9.464,0,0,1,2.788-6.626,7,7,0,0,1-1.53-4.334c0-3.656,2.859-6.688,6.748-7.423a6.8,6.8,0,0,1-.457-2.44,7.287,7.287,0,0,1,3.356-6.034,1.025,1.025,0,0,1,1.425.271,1.025,1.025,0,0,1-.271,1.425A5.269,5.269,0,0,0-102.38-3.79a4.912,4.912,0,0,0,.853,2.728A1.025,1.025,0,0,1-101.47-.02a1.025,1.025,0,0,1-.883.554c-3.543.094-6.319,2.528-6.319,5.54a5.1,5.1,0,0,0,1.624,3.657,1.025,1.025,0,0,1,.311.767,1.025,1.025,0,0,1-.357.747,7.624,7.624,0,0,0-2.837,5.788c0,3.477,2.746,6.544,6.677,7.457a1.025,1.025,0,0,1,.753.715,1.025,1.025,0,0,1-.258,1.006,7.267,7.267,0,0,0-2.138,5.069A1.025,1.025,0,0,1-105.922,32.306Z" transform="translate(111.981 10.001)" fill="aliceblue"/>
          <path id="path4165_-_Outline" data-name="path4165 - Outline" d="M-105.922,32.406a1.127,1.127,0,0,1-1.125-1.125,9.378,9.378,0,0,1,1.633-5.213,9.9,9.9,0,0,1-6.666-9.035,9.487,9.487,0,0,1,2.756-6.633,7.066,7.066,0,0,1-1.5-4.326A7.209,7.209,0,0,1-108.88,1.2a8.876,8.876,0,0,1,4.771-2.624,6.87,6.87,0,0,1-.422-2.365,7.386,7.386,0,0,1,3.4-6.116,1.12,1.12,0,0,1,.632-.195,1.125,1.125,0,0,1,.931.493,1.127,1.127,0,0,1-.3,1.563A5.171,5.171,0,0,0-102.28-3.79a4.812,4.812,0,0,0,.836,2.673,1.126,1.126,0,0,1,.064,1.142,1.126,1.126,0,0,1-.969.608c-3.489.093-6.221,2.483-6.221,5.44a5,5,0,0,0,1.594,3.585,1.128,1.128,0,0,1,.342.842,1.128,1.128,0,0,1-.392.82,7.526,7.526,0,0,0-2.8,5.712c0,3.431,2.714,6.457,6.6,7.359a1.126,1.126,0,0,1,.827.785,1.126,1.126,0,0,1-.284,1.1,7.166,7.166,0,0,0-2.109,5A1.127,1.127,0,0,1-105.922,32.406ZM-100.5-9.9a.92.92,0,0,0-.52.16,7.189,7.189,0,0,0-3.312,5.951,6.682,6.682,0,0,0,.45,2.4l.043.112-.118.022c-3.925.743-6.667,3.755-6.667,7.325a6.878,6.878,0,0,0,1.508,4.272l.054.069-.061.063a9.305,9.305,0,0,0-2.76,6.556,9.717,9.717,0,0,0,6.656,8.893l.12.045-.074.105a9.184,9.184,0,0,0-1.669,5.2.926.926,0,0,0,.925.925.926.926,0,0,0,.925-.925,7.368,7.368,0,0,1,2.168-5.139.926.926,0,0,0,.233-.908.926.926,0,0,0-.68-.646c-3.977-.924-6.754-4.03-6.754-7.554a7.722,7.722,0,0,1,2.872-5.864.927.927,0,0,0,.322-.674.927.927,0,0,0-.281-.693,5.2,5.2,0,0,1-1.655-3.729c0-3.067,2.818-5.544,6.416-5.64a.926.926,0,0,0,.8-.5.925.925,0,0,0-.052-.939,5.011,5.011,0,0,1-.87-2.784,5.368,5.368,0,0,1,2.5-4.421A.926.926,0,0,0-99.733-9.5.926.926,0,0,0-100.5-9.9Z" transform="translate(111.981 10.001)" fill="aliceblue"/>
        </g>
        <g id="g4167" transform="translate(15.1 0)">
          <path id="path4169" d="M-416.361-476.922a1.021,1.021,0,0,1-.552-.162,1.025,1.025,0,0,1-.31-1.417,6.874,6.874,0,0,0,1.108-3.711,7.269,7.269,0,0,0-2.139-5.069,1.025,1.025,0,0,1-.258-1.006,1.025,1.025,0,0,1,.753-.715c3.931-.913,6.677-3.979,6.677-7.457a7.624,7.624,0,0,0-2.837-5.788,1.025,1.025,0,0,1-.357-.747,1.025,1.025,0,0,1,.311-.768,5.1,5.1,0,0,0,1.624-3.657c0-3.012-2.776-5.446-6.319-5.54a1.026,1.026,0,0,1-.883-.554,1.025,1.025,0,0,1,.058-1.041,4.913,4.913,0,0,0,.853-2.729c0-3.06-2.927-5.55-6.525-5.55a9.523,9.523,0,0,0-1.139.083,1.025,1.025,0,0,1-.841-.273,1.025,1.025,0,0,1-.316-.826l1-.082v0l-.989-.036c-.062-3.486-3.574-6.482-7.667-6.532a7.982,7.982,0,0,0-7.2,3.9,1.932,1.932,0,0,1-1.72,1,1.931,1.931,0,0,1-1.72-1,7.983,7.983,0,0,0-7.2-3.9c-4.094.05-7.605,3.046-7.667,6.542,0,0,.01.111.011.115a1.025,1.025,0,0,1-.316.824,1.025,1.025,0,0,1-.84.273,9.518,9.518,0,0,0-1.139-.083,1.025,1.025,0,0,1-1.025-1.025,1.025,1.025,0,0,1,1.025-1.025c.094,0,.2,0,.3.006.574-4.249,4.7-7.616,9.626-7.677a10.079,10.079,0,0,1,8.948,4.822,10.079,10.079,0,0,1,8.948-4.822c4.926.06,9.052,3.429,9.626,7.677.106,0,.207-.006.3-.006,4.728,0,8.575,3.41,8.575,7.6a6.8,6.8,0,0,1-.457,2.44c3.889.736,6.748,3.767,6.748,7.423a7,7,0,0,1-1.53,4.333,9.463,9.463,0,0,1,2.788,6.626,9.84,9.84,0,0,1-6.72,8.987,9.241,9.241,0,0,1,1.687,5.261,8.921,8.921,0,0,1-1.432,4.818A1.025,1.025,0,0,1-416.361-476.922Z" transform="translate(463.931 532.555)" fill="aliceblue"/>
          <path id="path4169_-_Outline" data-name="path4169 - Outline" d="M-416.361-476.822a1.122,1.122,0,0,1-.606-.178,1.127,1.127,0,0,1-.34-1.555,6.774,6.774,0,0,0,1.092-3.657,7.168,7.168,0,0,0-2.109-5,1.126,1.126,0,0,1-.283-1.1,1.126,1.126,0,0,1,.827-.785c3.885-.9,6.6-3.928,6.6-7.359a7.525,7.525,0,0,0-2.8-5.712,1.128,1.128,0,0,1-.392-.82,1.128,1.128,0,0,1,.342-.842,5,5,0,0,0,1.594-3.585c0-2.958-2.733-5.348-6.221-5.44a1.126,1.126,0,0,1-.969-.608,1.126,1.126,0,0,1,.064-1.142,4.813,4.813,0,0,0,.836-2.673c0-3.005-2.882-5.45-6.425-5.45a9.422,9.422,0,0,0-1.126.082,1.13,1.13,0,0,1-.147.01,1.121,1.121,0,0,1-.775-.31,1.12,1.12,0,0,1-.346-.906l.007-.085h0v-.028c-.062-3.438-3.528-6.385-7.569-6.434h-.11a7.881,7.881,0,0,0-7,3.848,2.031,2.031,0,0,1-1.808,1.056,2.031,2.031,0,0,1-1.808-1.056,7.9,7.9,0,0,0-7.113-3.848c-4.039.049-7.5,3-7.569,6.438v.012c0,.032.009.1.009.1a1.119,1.119,0,0,1-.347.9,1.121,1.121,0,0,1-.775.309,1.13,1.13,0,0,1-.147-.01,9.417,9.417,0,0,0-1.126-.082,1.127,1.127,0,0,1-1.125-1.125,1.127,1.127,0,0,1,1.125-1.125l.215,0a8.555,8.555,0,0,1,3.2-5.384,10.624,10.624,0,0,1,6.506-2.29,10.9,10.9,0,0,1,5.368,1.318,9.317,9.317,0,0,1,3.581,3.4,9.319,9.319,0,0,1,3.581-3.4,10.911,10.911,0,0,1,5.23-1.319h.139a10.625,10.625,0,0,1,6.506,2.29,8.554,8.554,0,0,1,3.2,5.384l.215,0c4.784,0,8.675,3.455,8.675,7.7a6.871,6.871,0,0,1-.422,2.365,8.875,8.875,0,0,1,4.771,2.624,7.21,7.21,0,0,1,1.942,4.875,7.067,7.067,0,0,1-1.5,4.326,9.486,9.486,0,0,1,2.756,6.633,9.9,9.9,0,0,1-6.666,9.035,9.379,9.379,0,0,1,1.633,5.213,9.021,9.021,0,0,1-1.448,4.872A1.122,1.122,0,0,1-416.361-476.822Zm-8.8-46.111c3.653,0,6.625,2.535,6.625,5.65a5.012,5.012,0,0,1-.87,2.784.926.926,0,0,0-.052.939.926.926,0,0,0,.8.5c3.6.1,6.416,2.573,6.416,5.64a5.194,5.194,0,0,1-1.655,3.729.927.927,0,0,0-.281.693.928.928,0,0,0,.323.674,7.722,7.722,0,0,1,2.872,5.864c0,3.524-2.777,6.63-6.754,7.554a.926.926,0,0,0-.68.646.926.926,0,0,0,.233.908,7.369,7.369,0,0,1,2.168,5.14,6.973,6.973,0,0,1-1.124,3.765.927.927,0,0,0,.28,1.279.922.922,0,0,0,.5.147.922.922,0,0,0,.78-.426,8.821,8.821,0,0,0,1.417-4.764,9.185,9.185,0,0,0-1.669-5.2l-.074-.105.12-.045a9.717,9.717,0,0,0,6.656-8.893,9.3,9.3,0,0,0-2.76-6.557l-.061-.063.054-.069a6.879,6.879,0,0,0,1.508-4.272c0-3.57-2.741-6.583-6.667-7.325l-.118-.022.043-.112a6.683,6.683,0,0,0,.45-2.4c0-4.136-3.8-7.5-8.475-7.5-.094,0-.195,0-.3.006l-.091,0-.012-.09c-.577-4.268-4.673-7.531-9.528-7.59h-.136a10.013,10.013,0,0,0-8.723,4.772l-.087.155-.087-.155a10.013,10.013,0,0,0-8.724-4.772h-.135c-4.855.059-8.951,3.323-9.528,7.59l-.012.09-.091,0c-.1,0-.2-.006-.3-.006a.926.926,0,0,0-.925.925.926.926,0,0,0,.925.925,9.622,9.622,0,0,1,1.152.084.933.933,0,0,0,.121.008A.921.921,0,0,0-461-523.1a.921.921,0,0,0,.285-.744l-.009-.1,0-.023v-.005c.063-3.548,3.62-6.589,7.766-6.64h.112a8.082,8.082,0,0,1,7.18,3.954,1.832,1.832,0,0,0,1.631.95,1.832,1.832,0,0,0,1.632-.95,8.082,8.082,0,0,1,7.179-3.954h.113c4.109.05,7.639,3.033,7.764,6.536l.98.036.025.188-.1.013-.912.075a.92.92,0,0,0,.288.661.921.921,0,0,0,.638.255.933.933,0,0,0,.121-.008A9.628,9.628,0,0,1-425.156-522.933Z" transform="translate(463.931 532.555)" fill="aliceblue"/>
        </g>
        <g id="g4171" transform="translate(8.578 17.546)">
          <path id="path4173" d="M-5.567-6.694a1.021,1.021,0,0,1-.679-.257,4.66,4.66,0,0,0-2.71-1,1.028,1.028,0,0,1-1.019-1.03A1.023,1.023,0,0,1-8.953-10,6.711,6.711,0,0,1-4.888-8.488,1.025,1.025,0,0,1-4.8-7.04,1.023,1.023,0,0,1-5.567-6.694Z" transform="translate(9.975 10)" fill="aliceblue"/>
          <path id="path4173_-_Outline" data-name="path4173 - Outline" d="M-5.567-6.594a1.124,1.124,0,0,1-.745-.282,4.576,4.576,0,0,0-2.645-.973,1.129,1.129,0,0,1-1.118-1.13A1.127,1.127,0,0,1-8.953-10.1,6.827,6.827,0,0,1-4.821-8.563a1.127,1.127,0,0,1,.1,1.589A1.126,1.126,0,0,1-5.567-6.594ZM-8.953-9.9a.926.926,0,0,0-.923.922.929.929,0,0,0,.92.929A4.775,4.775,0,0,1-6.18-7.026a.924.924,0,0,0,.613.232.926.926,0,0,0,.694-.312.926.926,0,0,0-.08-1.306A6.608,6.608,0,0,0-8.953-9.9Z" transform="translate(9.975 10)" fill="aliceblue"/>
        </g>
        <g id="g4175" transform="translate(13.939 54.595)">
          <path id="path4177" d="M-8.974-37.947a1.035,1.035,0,0,1-.134-.009,1.025,1.025,0,0,1-.884-1.15,7.5,7.5,0,0,1,2.027-4.032,1.025,1.025,0,0,1,1.45.026,1.025,1.025,0,0,1-.026,1.45,5.464,5.464,0,0,0-1.417,2.823A1.026,1.026,0,0,1-8.974-37.947Z" transform="translate(10.001 43.425)" fill="aliceblue"/>
          <path id="path4177_-_Outline" data-name="path4177 - Outline" d="M-8.974-37.847a1.142,1.142,0,0,1-.147-.01,1.127,1.127,0,0,1-.97-1.262A7.609,7.609,0,0,1-8.035-43.21a1.12,1.12,0,0,1,.781-.315,1.116,1.116,0,0,1,.81.344,1.118,1.118,0,0,1,.315.8,1.118,1.118,0,0,1-.344.79A5.347,5.347,0,0,0-7.86-38.826,1.128,1.128,0,0,1-8.974-37.847Zm1.721-5.478a.921.921,0,0,0-.642.259,7.39,7.39,0,0,0-2,3.973.926.926,0,0,0,.8,1.038.941.941,0,0,0,.121.008.927.927,0,0,0,.916-.805,5.576,5.576,0,0,1,1.447-2.882.919.919,0,0,0,.283-.649.919.919,0,0,0-.259-.659A.918.918,0,0,0-7.254-43.325Z" transform="translate(10.001 43.425)" fill="aliceblue"/>
        </g>
        <g id="g4179" transform="translate(61.585 28.507)">
          <path id="path4181" d="M-39.888-6.422a1.025,1.025,0,0,1-1.021-.944,1.025,1.025,0,0,1,.941-1.1,4.506,4.506,0,0,0,2.519-1.2A1.028,1.028,0,0,1-36-9.679a1.023,1.023,0,0,1,.02,1.444,6.558,6.558,0,0,1-3.824,1.81Q-39.847-6.422-39.888-6.422Z" transform="translate(40.912 9.972)" fill="aliceblue"/>
          <path id="path4181_-_Outline" data-name="path4181 - Outline" d="M-39.888-6.322a1.131,1.131,0,0,1-1.121-1.036,1.127,1.127,0,0,1,1.033-1.211,4.422,4.422,0,0,0,2.456-1.168,1.121,1.121,0,0,1,.8-.334,1.117,1.117,0,0,1,.787.321,1.127,1.127,0,0,1,.022,1.585A6.668,6.668,0,0,1-39.8-6.326C-39.828-6.323-39.858-6.322-39.888-6.322Zm3.17-3.549a.923.923,0,0,0-.66.275A4.618,4.618,0,0,1-39.96-8.37a.926.926,0,0,0-.849,1,.929.929,0,0,0,1,.849A6.45,6.45,0,0,0-36.053-8.3a.926.926,0,0,0-.018-1.3A.918.918,0,0,0-36.718-9.872Z" transform="translate(40.912 9.972)" fill="aliceblue"/>
        </g>
        <g id="g4183" transform="translate(50.22 7.551)">
          <path id="path4185" d="M-22.339-3.9A1.021,1.021,0,0,1-23-4.135a1.025,1.025,0,0,1-.128-1.444,6.066,6.066,0,0,0,1.131-3.384,1.027,1.027,0,0,1,1.028-1.022,1.024,1.024,0,0,1,1.023,1.023,8.1,8.1,0,0,1-1.609,4.7A1.023,1.023,0,0,1-22.339-3.9Z" transform="translate(23.364 9.984)" fill="aliceblue"/>
          <path id="path4185_-_Outline" data-name="path4185 - Outline" d="M-22.339-3.8a1.127,1.127,0,0,1-.722-.262,1.118,1.118,0,0,1-.4-.763,1.118,1.118,0,0,1,.258-.822,5.978,5.978,0,0,0,1.108-3.32,1.129,1.129,0,0,1,1.126-1.121,1.127,1.127,0,0,1,1.125,1.123A8.2,8.2,0,0,1-21.476-4.2,1.123,1.123,0,0,1-22.339-3.8Zm1.373-6.089a.929.929,0,0,0-.927.922,6.179,6.179,0,0,1-1.155,3.447.919.919,0,0,0-.212.676.919.919,0,0,0,.328.628A.926.926,0,0,0-22.339-4a.924.924,0,0,0,.71-.332,7.987,7.987,0,0,0,1.586-4.634A.926.926,0,0,0-20.966-9.884Z" transform="translate(23.364 9.984)" fill="aliceblue"/>
        </g>
        <g id="g4187" transform="translate(33.975 16.734)">
          <path id="path4189" d="M-8.975,37.5A1.025,1.025,0,0,1-10,36.475V-8.975A1.025,1.025,0,0,1-8.975-10,1.025,1.025,0,0,1-7.949-8.975v45.45A1.025,1.025,0,0,1-8.975,37.5Z" transform="translate(10 10)" fill="aliceblue"/>
          <path id="path4189_-_Outline" data-name="path4189 - Outline" d="M-8.975,37.6A1.127,1.127,0,0,1-10.1,36.475V-8.975A1.127,1.127,0,0,1-8.975-10.1,1.127,1.127,0,0,1-7.849-8.975v45.45A1.127,1.127,0,0,1-8.975,37.6Zm0-47.5a.926.926,0,0,0-.925.925v45.45a.926.926,0,0,0,.925.925.926.926,0,0,0,.925-.925V-8.975A.926.926,0,0,0-8.975-9.9Z" transform="translate(10 10)" fill="aliceblue"/>
        </g>
        <g id="g4191" transform="translate(33.975 4.904)">
          <path id="path4193" d="M-8.975-.853A1.025,1.025,0,0,1-10-1.879v-7.1A1.025,1.025,0,0,1-8.975-10,1.025,1.025,0,0,1-7.949-8.975v7.1A1.025,1.025,0,0,1-8.975-.853Z" transform="translate(10 10)" fill="aliceblue"/>
          <path id="path4193_-_Outline" data-name="path4193 - Outline" d="M-8.975-.754A1.127,1.127,0,0,1-10.1-1.879v-7.1A1.127,1.127,0,0,1-8.975-10.1,1.127,1.127,0,0,1-7.849-8.975v7.1A1.127,1.127,0,0,1-8.975-.754Zm0-9.146a.926.926,0,0,0-.925.925v7.1a.926.926,0,0,0,.925.925.926.926,0,0,0,.925-.925v-7.1A.926.926,0,0,0-8.975-9.9Z" transform="translate(10 10)" fill="aliceblue"/>
        </g>
        <g id="g4195" transform="translate(41.369 53.691)">
          <path id="path4197" d="M-26.948-10a3.081,3.081,0,0,1,3.079,3.076,3.081,3.081,0,0,1-3.079,3.076,3.081,3.081,0,0,1-3.079-3.076A3.081,3.081,0,0,1-26.948-10Zm0,4.1A1.028,1.028,0,0,0-25.92-6.924a1.028,1.028,0,0,0-1.028-1.025,1.028,1.028,0,0,0-1.028,1.025A1.028,1.028,0,0,0-26.948-5.9Z" transform="translate(30.027 10)" fill="aliceblue"/>
          <path id="path4197_-_Outline" data-name="path4197 - Outline" d="M-26.948-10.1a3.181,3.181,0,0,1,3.179,3.176,3.181,3.181,0,0,1-3.179,3.176,3.181,3.181,0,0,1-3.179-3.176A3.181,3.181,0,0,1-26.948-10.1Zm0,6.152a2.981,2.981,0,0,0,2.979-2.976A2.981,2.981,0,0,0-26.948-9.9a2.981,2.981,0,0,0-2.979,2.976A2.981,2.981,0,0,0-26.948-3.948Zm0-4.1A1.128,1.128,0,0,1-25.82-6.924,1.128,1.128,0,0,1-26.948-5.8a1.128,1.128,0,0,1-1.128-1.125A1.128,1.128,0,0,1-26.948-8.049Zm0,2.05a.928.928,0,0,0,.928-.925.928.928,0,0,0-.928-.925.928.928,0,0,0-.928.925A.928.928,0,0,0-26.948-6Z" transform="translate(30.027 10)" fill="aliceblue"/>
        </g>
        <g id="g4199" transform="translate(35 47.411)">
          <path id="path4201" d="M-81.666-63.938h-2.051a5.455,5.455,0,0,0-1.277-4.041c-1.389-1.34-3.881-1.251-5.884-1.179-.448.016-.872.031-1.261.031v-2.051c.366,0,.766-.015,1.187-.03,2.265-.081,5.366-.192,7.382,1.753A7.365,7.365,0,0,1-81.666-63.938Z" transform="translate(92.14 71.243)" fill="aliceblue"/>
          <path id="path4201_-_Outline" data-name="path4201 - Outline" d="M-81.566-63.838h-2.251v-.1a5.364,5.364,0,0,0-1.247-3.969c-1.089-1.051-2.893-1.186-4.343-1.186-.5,0-.993.018-1.468.035-.426.015-.867.031-1.265.031h-.1v-2.251h.1c.357,0,.748-.014,1.161-.029h.023c.491-.018,1-.036,1.537-.036,1.879,0,4.249.206,5.917,1.816a7.459,7.459,0,0,1,1.935,5.589Zm-2.051-.2h1.851a7.211,7.211,0,0,0-1.873-5.345c-1.617-1.56-3.938-1.76-5.778-1.76-.535,0-1.041.018-1.53.036h-.023c-.377.013-.735.026-1.068.029v1.851c.368,0,.768-.017,1.157-.031.477-.017.97-.035,1.475-.035,1.488,0,3.341.141,4.482,1.242A5.473,5.473,0,0,1-83.618-64.038Z" transform="translate(92.14 71.243)" fill="aliceblue"/>
        </g>
        <g id="g4203" transform="translate(41.369 11.864)">
          <path id="path4205" d="M-26.948-43.842a3.081,3.081,0,0,1-3.079-3.076,3.081,3.081,0,0,1,3.079-3.076,3.081,3.081,0,0,1,3.079,3.076A3.081,3.081,0,0,1-26.948-43.842Zm0-4.1a1.028,1.028,0,0,0-1.028,1.025,1.028,1.028,0,0,0,1.028,1.025,1.028,1.028,0,0,0,1.028-1.025A1.028,1.028,0,0,0-26.948-47.942Z" transform="translate(30.027 49.993)" fill="aliceblue"/>
          <path id="path4205_-_Outline" data-name="path4205 - Outline" d="M-26.948-43.742a3.181,3.181,0,0,1-3.179-3.176,3.181,3.181,0,0,1,3.179-3.176,3.181,3.181,0,0,1,3.179,3.176A3.181,3.181,0,0,1-26.948-43.742Zm0-6.152a2.981,2.981,0,0,0-2.979,2.976,2.981,2.981,0,0,0,2.979,2.976,2.981,2.981,0,0,0,2.979-2.976A2.981,2.981,0,0,0-26.948-49.893Zm0,4.1a1.128,1.128,0,0,1-1.128-1.125,1.128,1.128,0,0,1,1.128-1.125,1.128,1.128,0,0,1,1.128,1.125A1.128,1.128,0,0,1-26.948-45.792Zm0-2.05a.928.928,0,0,0-.928.925.928.928,0,0,0,.928.925.928.928,0,0,0,.928-.925A.928.928,0,0,0-26.948-47.842Z" transform="translate(30.027 49.993)" fill="aliceblue"/>
        </g>
        <g id="g4207" transform="translate(35 16.99)">
          <path id="path4209" d="M-89.419,7.305c-.537,0-1.054-.018-1.534-.036-.422-.015-.822-.03-1.187-.03V5.189c.388,0,.813.015,1.261.031,2,.072,4.5.161,5.884-1.179A5.455,5.455,0,0,0-83.717,0h2.051a7.365,7.365,0,0,1-1.9,5.517C-85.159,7.049-87.422,7.305-89.419,7.305Z" transform="translate(92.14 0)" fill="aliceblue"/>
          <path id="path4209_-_Outline" data-name="path4209 - Outline" d="M-89.419,7.405c-.539,0-1.069-.019-1.537-.036h-.023c-.413-.015-.8-.029-1.161-.029h-.1V5.089h.1c.4,0,.838.016,1.264.031.475.017.966.035,1.468.035,1.45,0,3.254-.135,4.343-1.186A5.364,5.364,0,0,0-83.817,0V-.1h2.251V0A7.459,7.459,0,0,1-83.5,5.589C-85.17,7.2-87.54,7.405-89.419,7.405ZM-92.04,7.14c.333,0,.691.015,1.068.028h.023c.489.017.995.036,1.53.036,1.841,0,4.161-.2,5.778-1.76A7.211,7.211,0,0,0-81.767.1h-1.851a5.472,5.472,0,0,1-1.308,4.013c-1.141,1.1-2.994,1.242-4.482,1.242-.506,0-1-.018-1.475-.035-.389-.014-.79-.028-1.157-.031Z" transform="translate(92.14 0)" fill="aliceblue"/>
        </g>
        <g id="g4211" transform="translate(50.202 46.904)">
          <path id="path4213" d="M-26.948-10a3.081,3.081,0,0,1,3.079,3.076,3.081,3.081,0,0,1-3.079,3.076,3.081,3.081,0,0,1-3.079-3.076A3.081,3.081,0,0,1-26.948-10Zm0,4.1A1.028,1.028,0,0,0-25.92-6.924a1.028,1.028,0,0,0-1.028-1.025,1.028,1.028,0,0,0-1.028,1.025A1.028,1.028,0,0,0-26.948-5.9Z" transform="translate(30.027 10)" fill="aliceblue"/>
          <path id="path4213_-_Outline" data-name="path4213 - Outline" d="M-26.948-10.1a3.181,3.181,0,0,1,3.179,3.176,3.181,3.181,0,0,1-3.179,3.176,3.181,3.181,0,0,1-3.179-3.176A3.181,3.181,0,0,1-26.948-10.1Zm0,6.152a2.981,2.981,0,0,0,2.979-2.976A2.981,2.981,0,0,0-26.948-9.9a2.981,2.981,0,0,0-2.979,2.976A2.981,2.981,0,0,0-26.948-3.948Zm0-4.1A1.128,1.128,0,0,1-25.82-6.924,1.128,1.128,0,0,1-26.948-5.8a1.128,1.128,0,0,1-1.128-1.125A1.128,1.128,0,0,1-26.948-8.049Zm0,2.05a.928.928,0,0,0,.928-.925.928.928,0,0,0-.928-.925.928.928,0,0,0-.928.925A.928.928,0,0,0-26.948-6Z" transform="translate(30.027 10)" fill="aliceblue"/>
        </g>
        <g id="g4215" transform="translate(35 38.954)">
          <path id="path4217" d="M-158.972-78.555h-2.051c0-6.63-5.6-6.925-17.255-6.925V-87.53C-167.492-87.53-158.972-87.53-158.972-78.555Z" transform="translate(178.278 87.53)" fill="aliceblue"/>
          <path id="path4217_-_Outline" data-name="path4217 - Outline" d="M-158.872-78.455h-2.251v-.1c0-6.535-5.569-6.825-17.155-6.825h-.1V-87.63h.1c5.492,0,10.235,0,13.729,1.127,3.873,1.249,5.677,3.775,5.677,7.949Zm-2.051-.2h1.851c-.029-4.015-1.791-6.449-5.538-7.658-3.442-1.11-8.134-1.117-13.567-1.117v1.851c5.76,0,10.062.076,12.928.981A6.142,6.142,0,0,1-162-82.494,6.372,6.372,0,0,1-160.924-78.655Z" transform="translate(178.278 87.53)" fill="aliceblue"/>
        </g>
        <g id="g4219" transform="translate(50.202 18.447)">
          <path id="path4221" d="M-26.948-43.842a3.081,3.081,0,0,1-3.079-3.076,3.081,3.081,0,0,1,3.079-3.076,3.081,3.081,0,0,1,3.079,3.076A3.081,3.081,0,0,1-26.948-43.842Zm0-4.1a1.028,1.028,0,0,0-1.028,1.025,1.028,1.028,0,0,0,1.028,1.025,1.028,1.028,0,0,0,1.028-1.025A1.028,1.028,0,0,0-26.948-47.942Z" transform="translate(30.027 49.993)" fill="aliceblue"/>
          <path id="path4221_-_Outline" data-name="path4221 - Outline" d="M-26.948-43.742a3.181,3.181,0,0,1-3.179-3.176,3.181,3.181,0,0,1,3.179-3.176,3.181,3.181,0,0,1,3.179,3.176A3.181,3.181,0,0,1-26.948-43.742Zm0-6.152a2.981,2.981,0,0,0-2.979,2.976,2.981,2.981,0,0,0,2.979,2.976,2.981,2.981,0,0,0,2.979-2.976A2.981,2.981,0,0,0-26.948-49.893Zm0,4.1a1.128,1.128,0,0,1-1.128-1.125,1.128,1.128,0,0,1,1.128-1.125,1.128,1.128,0,0,1,1.128,1.125A1.128,1.128,0,0,1-26.948-45.792Zm0-2.05a.928.928,0,0,0-.928.925.928.928,0,0,0,.928.925.928.928,0,0,0,.928-.925A.928.928,0,0,0-26.948-47.842Z" transform="translate(30.027 49.993)" fill="aliceblue"/>
        </g>
        <g id="g4223" transform="translate(35 23.573)">
          <path id="path4225" d="M-178.278,8.975V6.925c11.653,0,17.255-.294,17.255-6.925h2.051C-158.972,8.975-167.492,8.975-178.278,8.975Z" transform="translate(178.278 0)" fill="aliceblue"/>
          <path id="path4225_-_Outline" data-name="path4225 - Outline" d="M-178.278,9.075h-.1V6.825h.1c11.586,0,17.155-.29,17.155-6.825V-.1h2.251V0c0,4.173-1.8,6.7-5.677,7.949C-168.043,9.075-172.786,9.075-178.278,9.075Zm.1-2.051V8.875c5.433,0,10.125-.007,13.567-1.117,3.748-1.209,5.51-3.644,5.538-7.658h-1.851A6.372,6.372,0,0,1-162,3.938a6.142,6.142,0,0,1-3.251,2.106C-168.116,6.949-172.418,7.024-178.178,7.025Z" transform="translate(178.278 0)" fill="aliceblue"/>
        </g>
        <g id="g4227" transform="translate(56.579 35.853)">
          <path id="path4229" transform="translate(0 0)" fill="aliceblue"/>
          <path id="path4229_-_Outline" data-name="path4229 - Outline" transform="translate(0 0)" fill="aliceblue"/>
        </g>
        <g id="g4231" transform="translate(49.606 35.853)">
          <path id="path4233" transform="translate(0 0)" fill="aliceblue"/>
          <path id="path4233_-_Outline" data-name="path4233 - Outline" transform="translate(0 0)" fill="aliceblue"/>
        </g>
        <g id="g4235" transform="translate(44.448 7.621)">
          <path id="path4237" transform="translate(0)" fill="aliceblue"/>
          <path id="path4237_-_Outline" data-name="path4237 - Outline" transform="translate(0)" fill="aliceblue"/>
        </g>
        <g id="g4239" transform="translate(44.448 64.085)">
          <path id="path4241" transform="translate(0)" fill="aliceblue"/>
          <path id="path4241_-_Outline" data-name="path4241 - Outline" transform="translate(0)" fill="aliceblue"/>
        </g>
        <g id="g4243" transform="translate(11.58 26.753)">
          <path id="path4245" d="M-8.974-72.359l-.058,0A1.025,1.025,0,0,1-10-73.442a9.271,9.271,0,0,1,7.084-8.3,1.025,1.025,0,0,1,1.239.754,1.025,1.025,0,0,1-.754,1.239,7.3,7.3,0,0,0-5.521,6.42A1.025,1.025,0,0,1-8.974-72.359Z" transform="translate(10 81.769)" fill="aliceblue"/>
          <path id="path4245_-_Outline" data-name="path4245 - Outline" d="M-8.974-72.259l-.064,0A1.127,1.127,0,0,1-10.1-73.447a9.373,9.373,0,0,1,7.16-8.389,1.131,1.131,0,0,1,.267-.032,1.122,1.122,0,0,1,1.093.86,1.127,1.127,0,0,1-.828,1.36,7.206,7.206,0,0,0-5.445,6.328A1.125,1.125,0,0,1-8.974-72.259Zm6.3-9.41a.93.93,0,0,0-.22.026A9.17,9.17,0,0,0-9.9-73.436a.926.926,0,0,0,.872.976.926.926,0,0,0,.976-.872,7.4,7.4,0,0,1,5.6-6.512.926.926,0,0,0,.68-1.118A.923.923,0,0,0-2.672-81.669Z" transform="translate(10 81.769)" fill="aliceblue"/>
        </g>
        <g id="g4247" transform="translate(21.878 11.36)">
          <path id="path4249" d="M-8.977-54.98a1.026,1.026,0,0,1-.968-.687,1.025,1.025,0,0,1,.625-1.306c.146-.053,3.479-1.285,3.782-4.5A1.025,1.025,0,0,1-4.42-62.4,1.025,1.025,0,0,1-3.5-61.283c-.429,4.542-4.95,6.177-5.143,6.245A1.024,1.024,0,0,1-8.977-54.98Z" transform="translate(10.003 62.405)" fill="aliceblue"/>
          <path id="path4249_-_Outline" data-name="path4249 - Outline" d="M-8.977-54.88a1.127,1.127,0,0,1-1.062-.753,1.127,1.127,0,0,1,.686-1.433c.139-.05,3.418-1.262,3.716-4.418A1.12,1.12,0,0,1-4.517-62.5c.035,0,.071,0,.107.005a1.118,1.118,0,0,1,.761.4,1.118,1.118,0,0,1,.253.823c-.434,4.605-5.014,6.262-5.209,6.33A1.122,1.122,0,0,1-8.977-54.88Zm4.46-7.425a.921.921,0,0,0-.92.839c-.31,3.282-3.7,4.536-3.848,4.588A.927.927,0,0,0-9.85-55.7a.927.927,0,0,0,.873.62.923.923,0,0,0,.306-.052c.19-.067,4.654-1.681,5.076-6.16a.919.919,0,0,0-.208-.677.919.919,0,0,0-.626-.331C-4.458-62.3-4.488-62.3-4.517-62.3Z" transform="translate(10.003 62.405)" fill="aliceblue"/>
        </g>
        <g id="g4251" transform="translate(21.861 47.554)">
          <path id="path4253" d="M-4.949-.4a1.021,1.021,0,0,1-.44-.1c-5.258-2.5-4.776-8.328-4.753-8.574A1.025,1.025,0,0,1-9.025-10,1.025,1.025,0,0,1-8.1-8.883c-.017.192-.355,4.657,3.592,6.535A1.025,1.025,0,0,1-4.022-.982,1.026,1.026,0,0,1-4.949-.4Z" transform="translate(10.163 10.001)" fill="aliceblue"/>
          <path id="path4253_-_Outline" data-name="path4253 - Outline" d="M-4.949-.3v0a1.115,1.115,0,0,1-.483-.109c-5.321-2.532-4.833-8.424-4.809-8.674A1.12,1.12,0,0,1-9.122-10.1c.035,0,.071,0,.106,0A1.127,1.127,0,0,1-8-8.874c-.016.186-.35,4.587,3.535,6.435a1.127,1.127,0,0,1,.533,1.5A1.131,1.131,0,0,1-4.949-.3ZM-9.122-9.9a.921.921,0,0,0-.92.839c-.023.244-.5,6,4.7,8.475a.917.917,0,0,0,.4.09.93.93,0,0,0,.836-.528.919.919,0,0,0,.036-.707.919.919,0,0,0-.474-.526C-8.56-4.166-8.216-8.7-8.2-8.891A.927.927,0,0,0-9.034-9.9C-9.063-9.9-9.093-9.9-9.122-9.9Z" transform="translate(10.163 10.001)" fill="aliceblue"/>
        </g>
        <g id="g4255" transform="translate(23.62 33.544)">
          <path id="path4257" d="M-32.585-3.567a1.025,1.025,0,0,1-.927-.585,1.025,1.025,0,0,1,.485-1.366A3.519,3.519,0,0,0-31.186-8.88,1.025,1.025,0,0,1-30.261-10a1.025,1.025,0,0,1,1.117.925,5.559,5.559,0,0,1-3,5.4A1.021,1.021,0,0,1-32.585-3.567Z" transform="translate(33.612 10.001)" fill="aliceblue"/>
          <path id="path4257_-_Outline" data-name="path4257 - Outline" d="M-32.585-3.467A1.131,1.131,0,0,1-33.6-4.109a1.118,1.118,0,0,1-.044-.86,1.118,1.118,0,0,1,.577-.64A3.432,3.432,0,0,0-31.286-8.87a1.118,1.118,0,0,1,.254-.823,1.118,1.118,0,0,1,.762-.4c.035,0,.071,0,.106,0A1.12,1.12,0,0,1-29.045-9.08a5.661,5.661,0,0,1-3.058,5.5A1.115,1.115,0,0,1-32.585-3.467ZM-30.164-9.9c-.029,0-.058,0-.087,0a.926.926,0,0,0-.835,1.008,3.625,3.625,0,0,1-1.9,3.461.919.919,0,0,0-.474.526.919.919,0,0,0,.036.707.93.93,0,0,0,.836.528.917.917,0,0,0,.4-.09,5.456,5.456,0,0,0,2.945-5.3A.921.921,0,0,0-30.164-9.9Z" transform="translate(33.612 10.001)" fill="aliceblue"/>
        </g>
      </g>
    </g>
  </g>
</svg>