<?xml version="1.0" encoding="UTF-8"?>
<svg preserveAspectRatio="xMidYMid" viewBox="0 0 256 351" xmlns="http://www.w3.org/2000/svg" xmlns:xlink="http://www.w3.org/1999/xlink">
<defs>
<filter id="h" x="-50%" y="-50%" width="200%" height="200%">
<feGaussianBlur in="SourceAlpha" result="shadowBlurInner1" stdDeviation="17.5"/>
<feOffset in="shadowBlurInner1" result="shadowOffsetInner1"/>
<feComposite in="shadowOffsetInner1" in2="SourceAlpha" k2="-1" k3="1" operator="arithmetic" result="shadowInnerInner1"/>
<feColorMatrix in="shadowInnerInner1" values="0 0 0 0 0 0 0 0 0 0 0 0 0 0 0 0 0 0 0.06 0"/>
</filter>
<filter id="g" x="-50%" y="-50%" width="200%" height="200%">
<feGaussianBlur in="SourceAlpha" result="shadowBlurInner1" stdDeviation="3.5"/>
<feOffset dx="1" dy="-9" in="shadowBlurInner1" result="shadowOffsetInner1"/>
<feComposite in="shadowOffsetInner1" in2="SourceAlpha" k2="-1" k3="1" operator="arithmetic" result="shadowInnerInner1"/>
<feColorMatrix in="shadowInnerInner1" values="0 0 0 0 0 0 0 0 0 0 0 0 0 0 0 0 0 0 0.09 0"/>
</filter>
<path id="f" d="m1.253 280.732 1.605-3.131 99.353-188.518-44.15-83.475C54.392-1.283 45.074.474 43.87 8.188L1.253 280.732Z"/>
<path id="e" d="m134.42 148.97 32.039-32.812-32.039-61.007c-3.042-5.791-10.433-6.398-13.443-0.59l-17.705 34.109-0.53 1.744 31.678 58.556z"/>
</defs>
<path d="m0 282.998 2.123-2.972L102.527 89.512l.212-2.017L58.48 4.358C54.77-2.606 44.33-.845 43.114 6.951L0 282.998Z" fill="#FFC24A"/>
<use fill="#FFA712" fill-rule="evenodd" xlink:href="#f"/>
<use filter="url(#h)" xlink:href="#f"/>
<path d="m135 150.38 32.955-33.75-32.965-62.93c-3.129-5.957-11.866-5.975-14.962 0l-17.613 33.587v2.86l32.584 60.233z" fill="#F4BD62"/>
<use fill="#FFA50E" fill-rule="evenodd" xlink:href="#e"/>
<use filter="url(#g)" xlink:href="#e"/>
<path d="m0 283 0.962-0.968 3.496-1.42 128.48-128 1.628-4.431-32.05-61.074z" fill="#F6820C"/>
<path d="m139.12 347.55 116.28-64.847-33.204-204.5c-1.039-6.398-8.888-8.927-13.468-4.34l-208.72 209.13 115.61 64.548a24.126 24.126 0 0 0 23.513 5e-3" fill="#FDE068"/>
<path d="M254.354 282.16 221.402 79.218c-1.03-6.35-7.558-8.977-12.103-4.424L1.29 282.6l114.339 63.908a23.943 23.943 0 0 0 23.334.006l115.392-64.355Z" fill="#FCCA3F"/>
<path d="M139.12 345.64a24.126 24.126 0 0 1-23.512-.005L.931 282.015l-.93.983 115.607 64.548a24.126 24.126 0 0 0 23.513.005l116.275-64.847-.285-1.752-115.99 64.689Z" fill="#EEAB37"/>
</svg>
