<svg width="137" height="102" viewBox="0 0 137 102" fill="none" xmlns="http://www.w3.org/2000/svg">
<path d="M123.273 94.1309H114.197V94.1994H123.273V94.1309Z" fill="#EBEBEB"/>
<path d="M90.7549 94.873H88.373V94.9415H90.7549V94.873Z" fill="#EBEBEB"/>
<path d="M113.923 91.5859H108.664V91.6544H113.923V91.5859Z" fill="#EBEBEB"/>
<path d="M26.2079 92.0469H14.373V92.1154H26.2079V92.0469Z" fill="#EBEBEB"/>
<path d="M30.3837 92.0469H28.6484V92.1154H30.3837V92.0469Z" fill="#EBEBEB"/>
<path d="M61.6907 93.2031H36.0234V93.2716H61.6907V93.2031Z" fill="#EBEBEB"/>
<path d="M65.3208 77.5004H12.4116C11.5494 77.5004 10.8477 76.7986 10.8477 75.9364V1.56399C10.8477 0.701714 11.5494 0 12.4116 0H65.3208C66.1828 0 66.8845 0.701714 66.8845 1.56399V75.9364C66.8845 76.7986 66.1828 77.5004 65.3208 77.5004ZM12.4116 0.0687739C11.5869 0.0687739 10.9162 0.739526 10.9162 1.56427V75.9366C10.9162 76.7614 11.5869 77.4321 12.4116 77.4321H65.3208C66.1452 77.4321 66.816 76.7614 66.816 75.9366V1.56399C66.816 0.739526 66.1452 0.0685 65.3208 0.0685L12.4116 0.0687739Z" fill="#EBEBEB"/>
<path d="M124.586 77.5004H71.677C70.815 77.5004 70.1133 76.7986 70.1133 75.9364V1.56399C70.1133 0.701714 70.815 0 71.677 0H124.586C125.449 0 126.15 0.701714 126.15 1.56399V75.9364C126.15 76.7986 125.448 77.5004 124.586 77.5004ZM71.677 0.0687739C70.8525 0.0687739 70.1818 0.739526 70.1818 1.56427V75.9366C70.1818 76.7614 70.8525 77.4321 71.677 77.4321H124.586C125.411 77.4321 126.082 76.7614 126.082 75.9366V1.56399C126.082 0.739526 125.411 0.0685 124.586 0.0685L71.677 0.0687739Z" fill="#EBEBEB"/>
<path d="M137 89.7207H0V89.7892H137V89.7207Z" fill="#EBEBEB"/>
<path d="M118.369 19.4648H88.8066V89.6319H118.369V19.4648Z" fill="#EBEBEB"/>
<path d="M117.111 20.7344H90.0625V89.6303H117.111V20.7344Z" fill="#F0F0F0"/>
<path d="M102.953 23.5391H92.1094V52.5987H102.953V23.5391Z" fill="#9BD6F6"/>
<path d="M115.209 23.5391H104.365V52.5987H115.209V23.5391Z" fill="#9BD6F6"/>
<path d="M115.208 62.6855H92.1094V87.9174H115.208V62.6855Z" fill="#9BD6F6"/>
<path d="M95.0167 54.1719H92.457V60.8421H95.0167V54.1719Z" fill="#EBEBEB"/>
<path d="M95.0167 60.8418H95.5195V54.1715H95.0167V60.8418Z" fill="#D8DADB"/>
<path d="M94.1728 56.7925C94.1728 57.3887 93.6895 57.872 93.0932 57.872C92.497 57.872 92.0137 57.3887 92.0137 56.7925C92.0137 56.1962 92.497 55.7129 93.0932 55.7129C93.6895 55.7132 94.1728 56.1965 94.1728 56.7925Z" fill="#D8DADB"/>
<path d="M93.9664 58.6582H93.4102V60.0082H93.9664V58.6582Z" fill="#D8DADB"/>
<path d="M96.5905 56.7903C96.5905 57.1567 93.4047 57.4537 93.0384 57.4537C92.672 57.4537 92.375 57.1567 92.375 56.7903C92.375 56.424 92.672 56.127 93.0384 56.127C93.4044 56.1272 96.5905 56.424 96.5905 56.7903Z" fill="#F0F0F0"/>
<path d="M23.47 10.4414L20.1855 15.1156V48.4526H45.8073V10.4414H23.47Z" fill="#F5F5F5"/>
<path d="M23.4695 10.4414L20.1851 15.1153C20.1851 15.1153 20.0445 16.1428 22.5105 16.8963C22.5105 16.8963 21.4145 12.7181 23.4695 10.4414Z" fill="#80BEE0"/>
<path d="M43.7012 8.83008L42.4453 10.0859L46.0296 13.6702L47.2855 12.4144L43.7012 8.83008Z" fill="#80BEE0"/>
<path d="M19.8848 45.1641L18.6289 46.4199L22.2132 50.0042L23.4691 48.7484L19.8848 45.1641Z" fill="#80BEE0"/>
<path d="M42.4434 48.748L43.6992 50.0039L47.2835 46.4196L46.0276 45.1638L42.4434 48.748Z" fill="#80BEE0"/>
<path d="M26.5538 16.8906H25.5469V17.8976H26.5538V16.8906Z" fill="#D8DADB"/>
<path d="M26.5552 17.8984H26.5522H25.548H24.541V18.9054H25.548H26.5522H26.5552H27.5591V17.8984H26.5552Z" fill="#D8DADB"/>
<path d="M29.5714 16.8906H28.5645V17.8976H29.5714V16.8906Z" fill="#80BEE0"/>
<path d="M29.5728 17.8984H29.5698H28.5655H27.5586V18.9054H28.5655H29.5698H29.5728H30.5767V17.8984H29.5728Z" fill="#80BEE0"/>
<path d="M26.5546 18.9043H26.5516H25.5474H24.5404H23.5332V19.9115H24.5404H25.5474H26.5516H26.5546H27.5585V18.9043H26.5546Z" fill="#D8DADB"/>
<path d="M26.5552 19.9102H26.5522H25.548H24.541V20.9171H25.548H26.5522H26.5552H27.5591V19.9102H26.5552Z" fill="#D8DADB"/>
<path d="M29.5728 19.9102H29.5698H28.5655H27.5586V20.9171H28.5655H29.5698H29.5728H30.5767V19.9102H29.5728Z" fill="#80BEE0"/>
<path d="M26.5541 20.918H26.5511H25.5469V21.9249H26.5511H26.5541H27.558V20.918H26.5541Z" fill="#D8DADB"/>
<path d="M28.5655 20.918H27.5586V21.9249H28.5655H29.5728V20.918H28.5655Z" fill="#80BEE0"/>
<path d="M27.5597 21.9258H26.5527V22.9327H27.5597V21.9258Z" fill="#D8DADB"/>
<path d="M28.5655 21.9258H27.5586V22.9327H28.5655V21.9258Z" fill="#80BEE0"/>
<path d="M30.5767 18.9043H29.5728H29.5698H28.5655H27.5586V19.9115H28.5655H29.5698H29.5728H30.5767H31.5839V18.9043H30.5767Z" fill="#80BEE0"/>
<path d="M23.5329 23.4043H23.0293V23.9079H23.5329V23.4043Z" fill="#D8DADB"/>
<path d="M23.5307 23.9062H23.529H23.027H22.5234V24.4099H23.027H23.529H23.5307H24.0326V23.9062H23.5307Z" fill="#D8DADB"/>
<path d="M25.0407 23.4043H24.5371V23.9079H25.0407V23.4043Z" fill="#80BEE0"/>
<path d="M25.0424 23.9062H25.0407H24.5388H24.0352V24.4099H24.5388H25.0407H25.0424H25.5443V23.9062H25.0424Z" fill="#80BEE0"/>
<path d="M23.532 24.4121H23.5304H23.0284H22.5248H22.0215V24.9157H22.5248H23.0284H23.5304H23.532H24.034V24.4121H23.532Z" fill="#D8DADB"/>
<path d="M23.5307 24.9141H23.529H23.027H22.5234V25.4174H23.027H23.529H23.5307H24.0326V24.9141H23.5307Z" fill="#D8DADB"/>
<path d="M25.0424 24.9141H25.0407H24.5388H24.0352V25.4174H24.5388H25.0407H25.0424H25.5443V24.9141H25.0424Z" fill="#80BEE0"/>
<path d="M23.5329 25.418H23.5313H23.0293V25.9216H23.5313H23.5329H24.0349V25.418H23.5329Z" fill="#D8DADB"/>
<path d="M24.5388 25.418H24.0352V25.9216H24.5388H25.0424V25.418H24.5388Z" fill="#80BEE0"/>
<path d="M24.0329 25.9219H23.5293V26.4255H24.0329V25.9219Z" fill="#D8DADB"/>
<path d="M24.5388 25.9219H24.0352V26.4255H24.5388V25.9219Z" fill="#80BEE0"/>
<path d="M25.5443 24.4121H25.0424H25.0407H24.5388H24.0352V24.9157H24.5388H25.0407H25.0424H25.5443H26.0477V24.4121H25.5443Z" fill="#80BEE0"/>
<path d="M28.9027 25.4199H28.5879V25.7347H28.9027V25.4199Z" fill="#D8DADB"/>
<path d="M28.9031 25.7344H28.9023H28.5883H28.2734V26.0492H28.5883H28.9023H28.9031H29.2168V25.7344H28.9031Z" fill="#D8DADB"/>
<path d="M29.8461 25.4199H29.5312V25.7347H29.8461V25.4199Z" fill="#80BEE0"/>
<path d="M29.8464 25.7344H29.8454H29.5316H29.2168V26.0492H29.5316H29.8454H29.8464H30.1602V25.7344H29.8464Z" fill="#80BEE0"/>
<path d="M28.9032 26.0508H28.9024H28.5884H28.2735H27.959V26.3653H28.2735H28.5884H28.9024H28.9032H29.2169V26.0508H28.9032Z" fill="#D8DADB"/>
<path d="M28.9031 26.3633H28.9023H28.5883H28.2734V26.6781H28.5883H28.9023H28.9031H29.2168V26.3633H28.9031Z" fill="#D8DADB"/>
<path d="M29.8464 26.3633H29.8454H29.5316H29.2168V26.6781H29.5316H29.8454H29.8464H30.1602V26.3633H29.8464Z" fill="#80BEE0"/>
<path d="M28.9027 26.6797H28.9019H28.5879V26.9945H28.9019H28.9027H29.2164V26.6797H28.9027Z" fill="#D8DADB"/>
<path d="M29.5316 26.6797H29.2168V26.9945H29.5316H29.8465V26.6797H29.5316Z" fill="#80BEE0"/>
<path d="M29.2172 26.9922H28.9023V27.307H29.2172V26.9922Z" fill="#D8DADB"/>
<path d="M29.5316 26.9922H29.2168V27.307H29.5316V26.9922Z" fill="#80BEE0"/>
<path d="M30.1602 26.0508H29.8464H29.8454H29.5316H29.2168V26.3653H29.5316H29.8454H29.8464H30.1602H30.475V26.0508H30.1602Z" fill="#80BEE0"/>
<path d="M38.2084 22.2126C38.2084 23.5845 37.0962 23.2938 35.7243 23.2938C34.3524 23.2938 33.2402 23.5845 33.2402 22.2126C33.2402 20.8407 34.3524 19.7285 35.7243 19.7285C37.0962 19.7285 38.2084 20.8407 38.2084 22.2126Z" fill="#80BEE0"/>
<path d="M36.6866 22.5487C36.6866 22.4095 36.2561 22.2969 35.7254 22.2969C35.1944 22.2969 34.7642 22.4095 34.7642 22.5487L34.5176 24.419C34.5176 24.5938 35.0585 24.7355 35.7256 24.7355C36.3928 24.7355 36.9334 24.5938 36.9334 24.419L36.6866 22.5487Z" fill="#D8DADB"/>
<path d="M33.291 21.7117C33.4705 21.8402 33.6889 21.918 33.9267 21.918C34.5317 21.918 35.0219 21.4276 35.0219 20.8229C35.0219 20.4853 34.866 20.1872 34.6259 19.9863C33.9497 20.3212 33.4461 20.9522 33.291 21.7117Z" fill="#F5F5F5"/>
<path d="M38.2038 22.1349C38.1805 21.3795 37.8213 20.7096 37.2687 20.2695C37.0615 20.4687 36.9316 20.7474 36.9316 21.0576C36.9316 21.6623 37.4218 22.1527 38.0268 22.1527C38.0876 22.1527 38.146 22.1445 38.2038 22.1349Z" fill="#F5F5F5"/>
<path d="M41.759 19.667C41.4236 20.6175 40.7241 20.1443 39.7739 19.809C38.8234 19.4736 37.9819 19.4032 38.3173 18.4527C38.6527 17.5022 39.695 17.0035 40.6455 17.3389C41.5957 17.6742 42.0941 18.7165 41.759 19.667Z" fill="#80BEE0"/>
<path d="M40.6237 19.5277C40.6577 19.4312 40.387 19.2479 40.0193 19.1183C39.6516 18.9884 39.3258 18.9613 39.2918 19.0578L38.6638 20.2932C38.621 20.4143 38.9611 20.6445 39.4233 20.8078C39.8855 20.9708 40.2946 21.0048 40.3374 20.884L40.6237 19.5277Z" fill="#D8DADB"/>
<path d="M38.4746 18.1189C38.5675 18.2517 38.6998 18.3592 38.8645 18.4172C39.2835 18.5652 39.743 18.3452 39.8909 17.9262C39.9734 17.6925 39.9383 17.4478 39.821 17.25C39.2709 17.3166 38.7681 17.6306 38.4746 18.1189Z" fill="#F5F5F5"/>
<path d="M41.7753 19.6125C41.9438 19.0834 41.8586 18.5316 41.5835 18.0918C41.3914 18.1792 41.2331 18.3406 41.1574 18.5551C41.0095 18.9741 41.2295 19.4336 41.6484 19.5815C41.6904 19.5966 41.7328 19.6051 41.7753 19.6125Z" fill="#F5F5F5"/>
<path d="M38.9172 26.8477C37.4313 26.8477 36.1478 27.7014 35.5215 28.9432L35.9015 29.5183H36.6646L37.1803 30.0891H37.799L38.242 30.5913L38.9172 30.6516L37.968 30.8196L37.754 31.2369L36.9748 31.3221L36.6095 31.8131H35.936L35.5218 32.3605C36.1481 33.6026 37.4315 34.4561 38.9174 34.4561C41.0185 34.4561 42.7219 32.7529 42.7219 30.6516C42.7219 28.5503 41.0182 26.8477 38.9172 26.8477Z" fill="#FAFAFA"/>
<path d="M39.3213 28.4629C39.4142 28.7846 39.2284 29.1205 38.9067 29.2134C38.5851 29.3063 38.2491 29.1205 38.1562 28.7988L39.3213 28.4629Z" fill="#D8DADB"/>
<path d="M38.1235 28.6787C38.0307 28.357 38.2164 28.0211 38.5381 27.9282C38.8598 27.8353 39.1957 28.0211 39.2886 28.3428L38.1235 28.6787Z" fill="#D8DADB"/>
<path d="M34.6397 30.5074H34.2848V30.1525C34.2848 30.0155 34.1739 29.9043 34.0369 29.9043C33.8999 29.9043 33.7886 30.0153 33.7886 30.1525V30.5074H33.4338C33.2968 30.5074 33.1855 30.6183 33.1855 30.7556C33.1855 30.8926 33.2965 31.0039 33.4338 31.0039H33.7886V31.3587C33.7886 31.4957 33.8996 31.6069 34.0369 31.6069C34.1739 31.6069 34.2848 31.496 34.2848 31.3587V31.0039H34.6397C34.7767 31.0039 34.8879 30.8929 34.8879 30.7556C34.8879 30.6183 34.7767 30.5074 34.6397 30.5074Z" fill="#D8DADB"/>
<path d="M31.2041 30.5074H30.8493V30.1525C30.8493 30.0155 30.7383 29.9043 30.601 29.9043C30.464 29.9043 30.3531 30.0153 30.3531 30.1525V30.5074H29.9982C29.8612 30.5074 29.75 30.6183 29.75 30.7556C29.75 30.8926 29.861 31.0039 29.9982 31.0039H30.3531V31.3587C30.3531 31.4957 30.464 31.6069 30.601 31.6069C30.738 31.6069 30.8493 31.496 30.8493 31.3587V31.0039H31.2041C31.3411 31.0039 31.4524 30.8929 31.4524 30.7556C31.4524 30.6183 31.3411 30.5074 31.2041 30.5074Z" fill="#D8DADB"/>
<path d="M27.7666 30.5074H27.4118V30.1525C27.4118 30.0155 27.3008 29.9043 27.1635 29.9043C27.0265 29.9043 26.9156 30.0153 26.9156 30.1525V30.5074H26.5607C26.4237 30.5074 26.3125 30.6183 26.3125 30.7556C26.3125 30.8926 26.4235 31.0039 26.5607 31.0039H26.9156V31.3587C26.9156 31.4957 27.0265 31.6069 27.1635 31.6069C27.3005 31.6069 27.4118 31.496 27.4118 31.3587V31.0039H27.7666C27.9036 31.0039 28.0149 30.8929 28.0149 30.7556C28.0149 30.6183 27.9039 30.5074 27.7666 30.5074Z" fill="#D8DADB"/>
<path d="M31.8961 35.3086H30.1387V45.914H31.8961V35.3086Z" fill="#80BEE0"/>
<path d="M32.5217 45.9872H29.3965L30.1396 45.4277H31.897L32.5217 45.9872Z" fill="#80BEE0"/>
<path d="M36.5946 45.9961H36.0312L36.037 45.5098L36.5946 45.9961Z" fill="#D8DADB"/>
<path d="M36.0377 35.4123L36.032 45.998L32.5212 45.9882L31.8965 45.4286V35.3926L36.0377 35.4123Z" fill="#D8DADB"/>
<path d="M67.1783 101.043C96.5188 101.043 120.304 99.6539 120.304 97.9404C120.304 96.2269 96.5188 94.8379 67.1783 94.8379C37.8379 94.8379 14.0527 96.2269 14.0527 97.9404C14.0527 99.6539 37.8379 101.043 67.1783 101.043Z" fill="#F5F5F5"/>
<path d="M79.7294 10.248H55.75V35.9388H79.7294V10.248Z" fill="#027DC0"/>
<path opacity="0.9" d="M78.839 11.1406H56.6426V35.0485H78.839V11.1406Z" fill="white"/>
<path d="M59.1229 9.72656C59.0626 9.72656 58.8308 9.72656 58.7705 9.72656C58.2371 9.72656 57.8047 10.1589 57.8047 10.6924C57.8047 11.2259 58.2371 11.6583 58.7705 11.6583C58.8308 11.6583 59.0626 11.6583 59.1229 11.6583C59.6564 11.6583 60.0888 11.2259 60.0888 10.6924C60.0885 10.1589 59.6561 9.72656 59.1229 9.72656Z" fill="#027DC0"/>
<path opacity="0.3" d="M59.1229 9.72656C59.0626 9.72656 58.8308 9.72656 58.7705 9.72656C58.2371 9.72656 57.8047 10.1589 57.8047 10.6924C57.8047 11.2259 58.2371 11.6583 58.7705 11.6583C58.8308 11.6583 59.0626 11.6583 59.1229 11.6583C59.6564 11.6583 60.0888 11.2259 60.0888 10.6924C60.0885 10.1589 59.6561 9.72656 59.1229 9.72656Z" fill="white"/>
<path opacity="0.2" d="M59.7364 10.6924C59.7364 11.2259 59.304 11.6583 58.7705 11.6583C58.2371 11.6583 57.8047 11.2259 57.8047 10.6924C57.8047 10.1589 58.2371 9.72656 58.7705 9.72656C59.304 9.72656 59.7364 10.1589 59.7364 10.6924Z" fill="black"/>
<path d="M79.6073 16.6758C79.547 16.6758 79.3152 16.6758 79.2549 16.6758C78.7217 16.6758 78.2891 17.1082 78.2891 17.6416C78.2891 18.1751 78.7214 18.6075 79.2549 18.6075C79.3152 18.6075 79.547 18.6075 79.6073 18.6075C80.1408 18.6075 80.5731 18.1751 80.5731 17.6416C80.5729 17.1082 80.1405 16.6758 79.6073 16.6758Z" fill="#027DC0"/>
<path opacity="0.3" d="M79.6073 16.6758C79.547 16.6758 79.3152 16.6758 79.2549 16.6758C78.7217 16.6758 78.2891 17.1082 78.2891 17.6416C78.2891 18.1751 78.7214 18.6075 79.2549 18.6075C79.3152 18.6075 79.547 18.6075 79.6073 18.6075C80.1408 18.6075 80.5731 18.1751 80.5731 17.6416C80.5729 17.1082 80.1405 16.6758 79.6073 16.6758Z" fill="white"/>
<path opacity="0.2" d="M80.2208 17.6416C80.2208 18.1751 79.7884 18.6075 79.2549 18.6075C78.7214 18.6075 78.2891 18.1751 78.2891 17.6416C78.2891 17.1082 78.7214 16.6758 79.2549 16.6758C79.7884 16.6761 80.2208 17.1084 80.2208 17.6416Z" fill="black"/>
<path d="M57.2988 12.3867V34.4388H69.4041V12.3867H57.2988ZM67.0127 12.5352H69.2554V14.7779H67.0127V12.5352ZM67.0127 14.9744H69.2554V17.2173H67.0127V14.9744ZM67.0127 17.4132H69.2554V19.6562H67.0127V17.4132ZM67.0127 19.8524H69.2554V22.0954H67.0127V19.8524ZM67.0127 22.2915H69.2554V24.5342H67.0127V22.2915ZM67.0127 24.7304H69.2554V26.9731H67.0127V24.7304ZM67.0127 27.1696H69.2554V29.4123H67.0127V27.1696ZM67.0127 29.6084H69.2554V31.8514H67.0127V29.6084ZM59.69 31.8511H57.4473V29.6082H59.69V31.8511ZM59.69 29.4123H57.4473V27.1696H59.69V29.4123ZM59.69 26.9731H57.4473V24.7304H59.69V26.9731ZM59.69 24.5342H57.4473V22.2915H59.69V24.5342ZM59.69 22.0951H57.4473V19.8521H59.69V22.0951ZM59.69 19.6562H57.4473V17.4132H59.69V19.6562ZM59.69 17.2171H57.4473V14.9741H59.69V17.2171ZM62.0815 31.8511H59.8388V29.6082H62.0815V31.8511ZM64.4727 17.4132V19.6562H62.23V17.4132H64.4727ZM64.4727 19.8524V22.0954H62.23V19.8524H64.4727ZM64.4727 22.2915V24.5342H62.23V22.2915H64.4727ZM64.4727 24.7304V26.9731H62.23V24.7304H64.4727ZM64.4727 27.1696V29.4123H62.23V27.1696H64.4727ZM64.4727 17.2171H62.23V14.9741H64.4727V17.2171ZM62.0815 17.2171H59.8388V14.9741H62.0815V17.2171ZM62.0815 19.6562H59.8388V17.4132H62.0815V19.6562ZM62.0815 22.0951H59.8388V19.8521H62.0815V22.0951ZM62.0815 24.5342H59.8388V22.2915H62.0815V24.5342ZM62.0815 26.9731H59.8388V24.7304H62.0815V26.9731ZM62.0815 29.4123H59.8388V27.1696H62.0815V29.4123ZM62.23 29.6084H64.4727V31.8514H62.23V29.6084ZM64.6212 29.6084H66.8642V31.8514H64.6212V29.6084ZM64.6212 27.1696H66.8642V29.4123H64.6212V27.1696ZM64.6212 24.7304H66.8642V26.9731H64.6212V24.7304ZM64.6212 22.2915H66.8642V24.5342H64.6212V22.2915ZM64.6212 19.8524H66.8642V22.0954H64.6212V19.8524ZM64.6212 17.4132H66.8642V19.6562H64.6212V17.4132ZM64.6212 14.9744H66.8642V17.2173H64.6212V14.9744ZM64.6212 12.5352H66.8642V14.7779H64.6212V12.5352ZM62.23 12.5352H64.4727V14.7779H62.23V12.5352ZM59.8385 12.5352H62.0812V14.7779H59.8385V12.5352ZM57.4473 12.5352H59.69V14.7779H57.4473V12.5352ZM59.69 34.2903H57.4473V32.0476H59.69V34.2903ZM62.0815 34.2903H59.8388V32.0476H62.0815V34.2903ZM64.4727 34.2903H62.23V32.0476H64.4727V34.2903ZM66.8642 34.2903H64.6212V32.0476H66.8642V34.2903ZM69.2554 34.2903H67.0127V32.0476H69.2554V34.2903Z" fill="#027DC0"/>
<path opacity="0.5" d="M57.2988 12.3867V34.4388H69.4041V12.3867H57.2988ZM67.0127 12.5352H69.2554V14.7779H67.0127V12.5352ZM67.0127 14.9744H69.2554V17.2173H67.0127V14.9744ZM67.0127 17.4132H69.2554V19.6562H67.0127V17.4132ZM67.0127 19.8524H69.2554V22.0954H67.0127V19.8524ZM67.0127 22.2915H69.2554V24.5342H67.0127V22.2915ZM67.0127 24.7304H69.2554V26.9731H67.0127V24.7304ZM67.0127 27.1696H69.2554V29.4123H67.0127V27.1696ZM67.0127 29.6084H69.2554V31.8514H67.0127V29.6084ZM59.69 31.8511H57.4473V29.6082H59.69V31.8511ZM59.69 29.4123H57.4473V27.1696H59.69V29.4123ZM59.69 26.9731H57.4473V24.7304H59.69V26.9731ZM59.69 24.5342H57.4473V22.2915H59.69V24.5342ZM59.69 22.0951H57.4473V19.8521H59.69V22.0951ZM59.69 19.6562H57.4473V17.4132H59.69V19.6562ZM59.69 17.2171H57.4473V14.9741H59.69V17.2171ZM62.0815 31.8511H59.8388V29.6082H62.0815V31.8511ZM64.4727 17.4132V19.6562H62.23V17.4132H64.4727ZM64.4727 19.8524V22.0954H62.23V19.8524H64.4727ZM64.4727 22.2915V24.5342H62.23V22.2915H64.4727ZM64.4727 24.7304V26.9731H62.23V24.7304H64.4727ZM64.4727 27.1696V29.4123H62.23V27.1696H64.4727ZM64.4727 17.2171H62.23V14.9741H64.4727V17.2171ZM62.0815 17.2171H59.8388V14.9741H62.0815V17.2171ZM62.0815 19.6562H59.8388V17.4132H62.0815V19.6562ZM62.0815 22.0951H59.8388V19.8521H62.0815V22.0951ZM62.0815 24.5342H59.8388V22.2915H62.0815V24.5342ZM62.0815 26.9731H59.8388V24.7304H62.0815V26.9731ZM62.0815 29.4123H59.8388V27.1696H62.0815V29.4123ZM62.23 29.6084H64.4727V31.8514H62.23V29.6084ZM64.6212 29.6084H66.8642V31.8514H64.6212V29.6084ZM64.6212 27.1696H66.8642V29.4123H64.6212V27.1696ZM64.6212 24.7304H66.8642V26.9731H64.6212V24.7304ZM64.6212 22.2915H66.8642V24.5342H64.6212V22.2915ZM64.6212 19.8524H66.8642V22.0954H64.6212V19.8524ZM64.6212 17.4132H66.8642V19.6562H64.6212V17.4132ZM64.6212 14.9744H66.8642V17.2173H64.6212V14.9744ZM64.6212 12.5352H66.8642V14.7779H64.6212V12.5352ZM62.23 12.5352H64.4727V14.7779H62.23V12.5352ZM59.8385 12.5352H62.0812V14.7779H59.8385V12.5352ZM57.4473 12.5352H59.69V14.7779H57.4473V12.5352ZM59.69 34.2903H57.4473V32.0476H59.69V34.2903ZM62.0815 34.2903H59.8388V32.0476H62.0815V34.2903ZM64.4727 34.2903H62.23V32.0476H64.4727V34.2903ZM66.8642 34.2903H64.6212V32.0476H66.8642V34.2903ZM69.2554 34.2903H67.0127V32.0476H69.2554V34.2903Z" fill="white"/>
<path d="M63.9647 16.0573H62.8457L63.02 14.0078H63.7905L63.9647 16.0573Z" fill="#263238"/>
<path opacity="0.5" d="M63.9647 16.0573H62.8457L63.02 14.0078H63.7905L63.9647 16.0573Z" fill="white"/>
<path d="M63.8405 15.3855H62.9703L62.6562 13.5801H64.1545L63.8405 15.3855Z" fill="#027DC0"/>
<path opacity="0.5" d="M63.8405 15.3855H62.9703L62.6562 13.5801H64.1545L63.8405 15.3855Z" fill="white"/>
<path d="M62.8133 12.7168H63.9975L64.1545 13.5802H62.6562L62.8133 12.7168Z" fill="#027DC0"/>
<path opacity="0.3" d="M62.8133 12.7168H63.9975L64.1545 13.5802H62.6562L62.8133 12.7168Z" fill="white"/>
<path d="M61.8991 20.125H64.9104L65.0416 22.0729H61.7676L61.8991 20.125Z" fill="#027DC0"/>
<path opacity="0.3" d="M61.8991 20.125H64.9104L65.0416 22.0729H61.7676L61.8991 20.125Z" fill="white"/>
<path d="M62.8812 26.5605H61.6803L61.5156 28.6706L61.6828 32.7697H62.3604L63.0456 28.3218L62.8812 26.5605Z" fill="#027DC0"/>
<path opacity="0.3" d="M62.8812 26.5605H61.6803L61.5156 28.6706L61.6828 32.7697H62.3604L63.0456 28.3218L62.8812 26.5605Z" fill="white"/>
<path d="M61.7674 22.0762L61.6797 26.5626H62.8806L63.4045 22.0762H61.7674Z" fill="#027DC0"/>
<path opacity="0.5" d="M61.7674 22.0762L61.6797 26.5626H62.8806L63.4045 22.0762H61.7674Z" fill="white"/>
<path d="M63.9498 26.5605H65.1508L65.3152 28.6706L65.1483 32.7697H64.4704L63.7852 28.3218L63.9498 26.5605Z" fill="#027DC0"/>
<path opacity="0.3" d="M63.9498 26.5605H65.1508L65.3152 28.6706L65.1483 32.7697H64.4704L63.7852 28.3218L63.9498 26.5605Z" fill="white"/>
<path d="M65.0627 22.0762L65.1506 26.5626H63.9497L63.4258 22.0762H65.0627Z" fill="#027DC0"/>
<path opacity="0.5" d="M65.0627 22.0762L65.1506 26.5626H63.9497L63.4258 22.0762H65.0627Z" fill="white"/>
<path d="M64.9108 20.1261H61.8995L61.5938 15.7363H65.2166L64.9108 20.1261Z" fill="#027DC0"/>
<path opacity="0.3" d="M64.9108 20.1261H61.8995L61.5938 15.7363H65.2166L64.9108 20.1261Z" fill="white"/>
<path opacity="0.3" d="M61.9004 20.1264L63.406 17.9316L64.9116 20.1264H61.9004Z" fill="white"/>
<path d="M60.5195 33.6149L61.681 32.7715H62.3586L61.9663 34.1116L60.5195 33.6149Z" fill="#263238"/>
<path opacity="0.5" d="M60.5195 33.6149L61.681 32.7715H62.3586L61.9663 34.1116L60.5195 33.6149Z" fill="white"/>
<path d="M61.966 33.6133H60.5195V34.11H61.966V33.6133Z" fill="#263238"/>
<path opacity="0.3" d="M61.966 33.6133H60.5195V34.11H61.966V33.6133Z" fill="white"/>
<path d="M66.3078 33.6149L65.1466 32.7715H64.4688L64.8614 34.1116L66.3078 33.6149Z" fill="#263238"/>
<path opacity="0.5" d="M66.3078 33.6149L65.1466 32.7715H64.4688L64.8614 34.1116L66.3078 33.6149Z" fill="white"/>
<path d="M64.8622 34.1113H66.3086V33.6146H64.8622V34.1113Z" fill="#263238"/>
<path opacity="0.3" d="M64.8622 34.1113H66.3086V33.6146H64.8622V34.1113Z" fill="white"/>
<path d="M61.0958 19.1578H60.2344L60.932 15.7363H61.968L61.0958 19.1578Z" fill="#027DC0"/>
<path d="M61.0942 19.1582H60.2327L60.0113 20.3011L59.9453 22.4758H60.698L61.0742 20.3011L61.0942 19.1582Z" fill="#263238"/>
<path d="M60.6984 22.4746H59.9457L59.832 23.2996L60.0874 23.7016L60.5677 23.4958L60.8206 23.1193L60.6984 22.4746Z" fill="#263238"/>
<path opacity="0.5" d="M61.0958 19.1578H60.2344L60.932 15.7363H61.968L61.0958 19.1578Z" fill="white"/>
<path opacity="0.6" d="M61.0942 19.1582H60.2327L60.0113 20.3011L59.9453 22.4758H60.698L61.0742 20.3011L61.0942 19.1582Z" fill="white"/>
<path opacity="0.5" d="M60.6984 22.4746H59.9457L59.832 23.2996L60.0874 23.7016L60.5677 23.4958L60.8206 23.1193L60.6984 22.4746Z" fill="white"/>
<path d="M62.0606 16.8847H60.8832L60.709 15.5547H62.2352L62.0606 16.8847Z" fill="#263238"/>
<path d="M60.7092 15.5547L59.9453 16.8847L60.5196 17.1464L60.8835 16.8847L60.7092 15.5547Z" fill="#263238"/>
<path opacity="0.5" d="M62.0606 16.8847H60.8832L60.709 15.5547H62.2352L62.0606 16.8847Z" fill="white"/>
<path opacity="0.6" d="M60.7092 15.5547L59.9453 16.8847L60.5196 17.1464L60.8835 16.8847L60.7092 15.5547Z" fill="white"/>
<path d="M65.6085 19.1578H66.4699L65.7723 15.7363H64.7363L65.6085 19.1578Z" fill="#027DC0"/>
<path opacity="0.5" d="M65.6085 19.1578H66.4699L65.7723 15.7363H64.7363L65.6085 19.1578Z" fill="white"/>
<path d="M65.6074 19.1582H66.4689L66.69 20.3011L66.756 22.4758H66.0036L65.6272 20.3011L65.6074 19.1582Z" fill="#263238"/>
<path opacity="0.6" d="M65.6074 19.1582H66.4689L66.69 20.3011L66.756 22.4758H66.0036L65.6272 20.3011L65.6074 19.1582Z" fill="white"/>
<path d="M66.0053 22.4746H66.7577L66.8717 23.2996L66.6163 23.7016L66.1357 23.4958L65.8828 23.1193L66.0053 22.4746Z" fill="#263238"/>
<path opacity="0.5" d="M66.0053 22.4746H66.7577L66.8717 23.2996L66.6163 23.7016L66.1357 23.4958L65.8828 23.1193L66.0053 22.4746Z" fill="white"/>
<path d="M64.6391 16.8847H65.8168L65.991 15.5547H64.4648L64.6391 16.8847Z" fill="#263238"/>
<path opacity="0.5" d="M64.6391 16.8847H65.8168L65.991 15.5547H64.4648L64.6391 16.8847Z" fill="white"/>
<path d="M65.9907 15.5547L66.7546 16.8847L66.18 17.1464L65.8164 16.8847L65.9907 15.5547Z" fill="#263238"/>
<path opacity="0.6" d="M65.9907 15.5547L66.7546 16.8847L66.18 17.1464L65.8164 16.8847L65.9907 15.5547Z" fill="white"/>
<g opacity="0.9">
<path d="M77.1787 15.7285H75.8574V16.1033H77.1787V15.7285Z" fill="#263238"/>
<path d="M72.3913 15.7285H71.1914V16.1033H72.3913V15.7285Z" fill="#263238"/>
<path d="M74.518 15.7285H73.1074V16.1033H74.518V15.7285Z" fill="#263238"/>
<path d="M75.6227 15.7285H74.7324V16.1033H75.6227V15.7285Z" fill="#263238"/>
</g>
<g opacity="0.9">
<path d="M72.3913 14.9043H71.1914V15.2791H72.3913V14.9043Z" fill="#263238"/>
<path d="M73.8039 14.9043H73.1074V15.2791H73.8039V14.9043Z" fill="#263238"/>
<path d="M76.6276 14.9043H75.4277V15.2791H76.6276V14.9043Z" fill="#263238"/>
<path d="M75.2155 14.9043H74.0156V15.2791H75.2155V14.9043Z" fill="#263238"/>
<path d="M74.0681 16.5547H73.1074V16.9298H74.0681V16.5547Z" fill="#263238"/>
<path d="M75.624 16.5547H74.3027V16.9298H75.624V16.5547Z" fill="#263238"/>
<path d="M76.8038 16.5547H75.8574V16.9298H76.8038V16.5547Z" fill="#263238"/>
<path d="M72.3913 16.5547H71.1914V16.9298H72.3913V16.5547Z" fill="#263238"/>
</g>
<g opacity="0.3">
<g opacity="0.9">
<path d="M77.1787 15.7285H75.8574V16.1033H77.1787V15.7285Z" fill="white"/>
<path d="M72.3913 15.7285H71.1914V16.1033H72.3913V15.7285Z" fill="white"/>
<path d="M74.518 15.7285H73.1074V16.1033H74.518V15.7285Z" fill="white"/>
<path d="M75.6227 15.7285H74.7324V16.1033H75.6227V15.7285Z" fill="white"/>
</g>
<g opacity="0.9">
<path d="M72.3913 14.9043H71.1914V15.2791H72.3913V14.9043Z" fill="white"/>
<path d="M73.8039 14.9043H73.1074V15.2791H73.8039V14.9043Z" fill="white"/>
<path d="M76.6276 14.9043H75.4277V15.2791H76.6276V14.9043Z" fill="white"/>
<path d="M75.2155 14.9043H74.0156V15.2791H75.2155V14.9043Z" fill="white"/>
<path d="M74.0681 16.5547H73.1074V16.9298H74.0681V16.5547Z" fill="white"/>
<path d="M75.624 16.5547H74.3027V16.9298H75.624V16.5547Z" fill="white"/>
<path d="M76.8038 16.5547H75.8574V16.9298H76.8038V16.5547Z" fill="white"/>
<path d="M72.3913 16.5547H71.1914V16.9298H72.3913V16.5547Z" fill="white"/>
</g>
</g>
<path d="M90.2697 21.1035H72.166V32.4827H90.2697V21.1035Z" fill="#027DC0"/>
<path opacity="0.9" d="M89.4443 21.9297H72.9941V31.6553H89.4443V21.9297Z" fill="white"/>
<path d="M84.3082 28.4063H81.7564C81.244 28.4063 80.7774 28.0841 80.5957 27.6049L80.0645 26.2017L80.5456 26.0195L81.0769 27.4224C81.1832 27.703 81.4561 27.8915 81.7561 27.8915H84.3079L84.3082 28.4063Z" fill="#263238"/>
<path d="M82.5677 26.1094L82.2891 27.2383H82.7609L83.4081 26.1094H82.5677Z" fill="#263238"/>
<g opacity="0.2">
<path d="M84.3082 28.4063H81.7564C81.244 28.4063 80.7774 28.0841 80.5957 27.6049L80.0645 26.2017L80.5456 26.0195L81.0769 27.4224C81.1832 27.703 81.4561 27.8915 81.7561 27.8915H84.3079L84.3082 28.4063Z" fill="white"/>
<path d="M82.5677 26.1094L82.2891 27.2383H82.7609L83.4081 26.1094H82.5677Z" fill="white"/>
</g>
<path d="M86.8332 30.1879H84.6927L83.4062 26.1113H85.5465L86.8332 30.1879Z" fill="#263238"/>
<path opacity="0.4" d="M86.8332 30.1879H84.6927L83.4062 26.1113H85.5465L86.8332 30.1879Z" fill="white"/>
<path d="M85.3615 29.7572C85.2347 29.7572 85.1226 29.675 85.0842 29.5539L84.4727 27.6164C84.4135 27.429 84.5535 27.2383 84.75 27.2383C84.8768 27.2383 84.9892 27.3205 85.0273 27.4416L85.6386 29.3788C85.698 29.5662 85.558 29.7572 85.3615 29.7572Z" fill="#027DC0"/>
<path d="M87.0906 30.9273H84.4355L84.6928 30.1875H86.8333L87.0906 30.9273Z" fill="#263238"/>
<path opacity="0.7" d="M87.0906 30.9273H84.4355L84.6928 30.1875H86.8333L87.0906 30.9273Z" fill="white"/>
<path d="M75.9061 23.9062H75.3184V25.8577H75.9061V23.9062Z" fill="#263238"/>
<path opacity="0.2" d="M75.9061 23.9062H75.3184V25.8577H75.9061V23.9062Z" fill="white"/>
<path d="M75.9062 22.6621V23.5241H77.2834V23.1254L76.4564 22.6621H75.9062Z" fill="#263238"/>
<path opacity="0.7" d="M75.9062 22.6621V23.5241H77.2834V23.1254L76.4564 22.6621H75.9062Z" fill="white"/>
<path d="M85.1959 23.5234H75.9062V25.4658H85.1959V23.5234Z" fill="#263238"/>
<path opacity="0.6" d="M85.1959 23.5234H75.9062V25.4658H85.1959V23.5234Z" fill="white"/>
<path d="M86.5733 25.4648H75.9062V26.4362H86.5733V25.4648Z" fill="#263238"/>
<path opacity="0.4" d="M86.5733 25.4648H75.9062V26.4362H86.5733V25.4648Z" fill="white"/>
<path d="M86.5724 25.4658H85.1953V23.5234L86.5724 24.2953V25.4658Z" fill="#263238"/>
<path opacity="0.7" d="M86.5724 25.4658H85.1953V23.5234L86.5724 24.2953V25.4658Z" fill="white"/>
<path d="M77.3974 25.0204H76.9473L77.2046 24.0762H77.655L77.3974 25.0204Z" fill="#027DC0"/>
<path d="M78.1045 25.0204H77.6543L77.9116 24.0762H78.3618L78.1045 25.0204Z" fill="#027DC0"/>
<path d="M78.8135 25.0204H78.3633L78.6206 24.0762H79.071L78.8135 25.0204Z" fill="#027DC0"/>
<path d="M79.5205 25.0204H79.0703L79.3276 24.0762H79.7778L79.5205 25.0204Z" fill="#027DC0"/>
<path d="M86.045 25.4649C86.045 26.2373 85.4189 26.8634 84.6465 26.8634C83.8741 26.8634 83.248 26.2373 83.248 25.4649C83.248 24.6925 83.8741 24.0664 84.6465 24.0664C85.4189 24.0664 86.045 24.6925 86.045 25.4649Z" fill="#027DC0"/>
<path opacity="0.5" d="M86.045 25.4649C86.045 26.2373 85.4189 26.8634 84.6465 26.8634C83.8741 26.8634 83.248 26.2373 83.248 25.4649C83.248 24.6925 83.8741 24.0664 84.6465 24.0664C85.4189 24.0664 86.045 24.6925 86.045 25.4649Z" fill="white"/>
<path d="M85.4085 25.464C85.4085 25.8854 85.0668 26.2268 84.6456 26.2268C84.2242 26.2268 83.8828 25.8854 83.8828 25.464C83.8828 25.0426 84.2245 24.7012 84.6456 24.7012C85.067 24.7012 85.4085 25.0426 85.4085 25.464Z" fill="#027DC0"/>
<path opacity="0.9" d="M85.0681 25.2849L84.8223 25.0391L84.2126 25.6488L84.4584 25.8946L85.0681 25.2849Z" fill="white"/>
<path d="M75.494 20.5469C75.4337 20.5469 75.2019 20.5469 75.1416 20.5469C74.6082 20.5469 74.1758 20.9792 74.1758 21.5127C74.1758 22.0462 74.6082 22.4786 75.1416 22.4786C75.2019 22.4786 75.4337 22.4786 75.494 22.4786C76.0275 22.4786 76.4598 22.0462 76.4598 21.5127C76.4598 20.9792 76.0275 20.5469 75.494 20.5469Z" fill="#027DC0"/>
<path opacity="0.3" d="M75.494 20.5469C75.4337 20.5469 75.2019 20.5469 75.1416 20.5469C74.6082 20.5469 74.1758 20.9792 74.1758 21.5127C74.1758 22.0462 74.6082 22.4786 75.1416 22.4786C75.2019 22.4786 75.4337 22.4786 75.494 22.4786C76.0275 22.4786 76.4598 22.0462 76.4598 21.5127C76.4598 20.9792 76.0275 20.5469 75.494 20.5469Z" fill="white"/>
<path opacity="0.2" d="M76.1075 21.5127C76.1075 22.0462 75.6751 22.4786 75.1416 22.4786C74.6082 22.4786 74.1758 22.0462 74.1758 21.5127C74.1758 20.9792 74.6082 20.5469 75.1416 20.5469C75.6751 20.5469 76.1075 20.9792 76.1075 21.5127Z" fill="black"/>
<path d="M88.1502 20.5469C88.09 20.5469 87.8582 20.5469 87.7979 20.5469C87.2644 20.5469 86.832 20.9792 86.832 21.5127C86.832 22.0462 87.2644 22.4786 87.7979 22.4786C87.8582 22.4786 88.09 22.4786 88.1502 22.4786C88.6837 22.4786 89.1161 22.0462 89.1161 21.5127C89.1161 20.9792 88.6835 20.5469 88.1502 20.5469Z" fill="#027DC0"/>
<path opacity="0.3" d="M88.1502 20.5469C88.09 20.5469 87.8582 20.5469 87.7979 20.5469C87.2644 20.5469 86.832 20.9792 86.832 21.5127C86.832 22.0462 87.2644 22.4786 87.7979 22.4786C87.8582 22.4786 88.09 22.4786 88.1502 22.4786C88.6837 22.4786 89.1161 22.0462 89.1161 21.5127C89.1161 20.9792 88.6835 20.5469 88.1502 20.5469Z" fill="white"/>
<path opacity="0.2" d="M88.7637 21.5127C88.7637 22.0462 88.3314 22.4786 87.7979 22.4786C87.2644 22.4786 86.832 22.0462 86.832 21.5127C86.832 20.9792 87.2644 20.5469 87.7979 20.5469C88.3314 20.5469 88.7637 20.9792 88.7637 21.5127Z" fill="black"/>
<path d="M107.881 98.6276H108.248C108.529 98.6276 108.758 98.399 108.758 98.1174V63.6641H107.371V98.1174C107.371 98.399 107.6 98.6276 107.881 98.6276Z" fill="#027DC0"/>
<path opacity="0.3" d="M107.881 98.6276H108.248C108.529 98.6276 108.758 98.399 108.758 98.1174V63.6641H107.371V98.1174C107.371 98.399 107.6 98.6276 107.881 98.6276Z" fill="white"/>
<path d="M107.768 92.9705V92.4201C107.768 92.1891 107.581 92.002 107.35 92.002H83.25V93.3887H107.35C107.581 93.3887 107.768 93.2015 107.768 92.9705Z" fill="#027DC0"/>
<path opacity="0.4" d="M107.768 92.9705V92.4201C107.768 92.1891 107.581 92.002 107.35 92.002H83.25V93.3887H107.35C107.581 93.3887 107.768 93.2015 107.768 92.9705Z" fill="white"/>
<path d="M83.3676 98.6276H83.7339C84.0156 98.6276 84.2441 98.399 84.2441 98.1174V63.6641H82.8574V98.1174C82.8574 98.399 83.0859 98.6276 83.3676 98.6276Z" fill="#027DC0"/>
<path opacity="0.2" d="M108.758 63.6641H107.371V64.9135H108.758V63.6641Z" fill="black"/>
<path opacity="0.2" d="M84.2441 63.6641H82.8574V64.9135H84.2441V63.6641Z" fill="black"/>
<path d="M51.4165 63.6641L108.762 63.6641V61.2868L51.4165 61.2868V63.6641Z" fill="#027DC0"/>
<path opacity="0.3" d="M51.4165 63.6641L108.762 63.6641V61.2868L51.4165 61.2868V63.6641Z" fill="white"/>
<path opacity="0.1" d="M82.6624 63.6641H108.762V61.2868H82.6624V63.6641Z" fill="black"/>
<path d="M48.4459 61.459L111.734 61.459V59.9731L48.4459 59.9731V61.459Z" fill="#027DC0"/>
<path opacity="0.5" d="M48.4459 61.459L111.734 61.459V59.9731L48.4459 59.9731V61.459Z" fill="white"/>
<path opacity="0.2" d="M82.6632 61.459L111.734 61.459V59.9731H82.6632V61.459Z" fill="black"/>
<path opacity="0.3" d="M84.2461 63.6641H82.8594V98.0743C82.8594 98.3799 83.1071 98.6276 83.4126 98.6276H83.6929C83.9984 98.6276 84.2461 98.3799 84.2461 98.0743" fill="white"/>
<path d="M76.6 98.6276H76.9664C77.248 98.6276 77.4766 98.399 77.4766 98.1174V63.6641H76.0898V98.1174C76.0898 98.399 76.3181 98.6276 76.6 98.6276Z" fill="#027DC0"/>
<path opacity="0.3" d="M76.6 98.6276H76.9664C77.248 98.6276 77.4766 98.399 77.4766 98.1174V63.6641H76.0898V98.1174C76.0898 98.399 76.3181 98.6276 76.6 98.6276Z" fill="white"/>
<path d="M76.4871 92.9705V92.4201C76.4871 92.1891 76.3 92.002 76.069 92.002H51.9688V93.3887H76.069C76.3 93.3887 76.4871 93.2015 76.4871 92.9705Z" fill="#027DC0"/>
<path opacity="0.4" d="M76.4871 92.9705V92.4201C76.4871 92.1891 76.3 92.002 76.069 92.002H51.9688V93.3887H76.069C76.3 93.3887 76.4871 93.2015 76.4871 92.9705Z" fill="white"/>
<path d="M52.0861 98.6276H52.4527C52.7344 98.6276 52.9629 98.399 52.9629 98.1174V63.6641H51.5762V98.1174C51.5759 98.399 51.8044 98.6276 52.0861 98.6276Z" fill="#027DC0"/>
<path opacity="0.2" d="M77.4766 63.6641H76.0898V64.9135H77.4766V63.6641Z" fill="black"/>
<path opacity="0.2" d="M52.9629 63.6641H51.5762V64.9135H52.9629V63.6641Z" fill="black"/>
<path opacity="0.3" d="M52.9629 63.6641H51.5762V98.0743C51.5762 98.3799 51.8239 98.6276 52.1294 98.6276H52.4097C52.7152 98.6276 52.9629 98.3799 52.9629 98.0743" fill="white"/>
<path d="M65.3312 58.4062H74.5472V60.2018H56.1152V59.2888L65.3312 58.4062Z" fill="#263238"/>
<path opacity="0.7" d="M65.3312 58.4062H74.5472V60.2018H56.1152V59.2888L65.3312 58.4062Z" fill="white"/>
<path opacity="0.5" d="M65.332 60.2018H74.548V58.4062L65.332 59.2888V60.2018Z" fill="black"/>
<path d="M105.801 74.25H94.9883V98.627H105.801V74.25Z" fill="#263238"/>
<path opacity="0.3" d="M105.801 74.25H94.9883V98.627H105.801V74.25Z" fill="white"/>
<path d="M96.8268 74.25H86.0137V98.627H96.8268V74.25Z" fill="#263238"/>
<path opacity="0.7" d="M96.8268 74.25H86.0137V98.627H96.8268V74.25Z" fill="white"/>
<path opacity="0.4" d="M92.7798 81.28H90.0604L86.0137 74.25H96.8268L92.7798 81.28Z" fill="white"/>
<path opacity="0.4" d="M92.7798 84.4375H90.0604L86.0137 98.6258H96.8268L92.7798 84.4375Z" fill="white"/>
<path opacity="0.7" d="M92.78 81.2793H90.0605V84.438H92.78V81.2793Z" fill="white"/>
<path d="M91.4196 83.8944C91.1582 83.8944 90.9127 83.7924 90.728 83.6078C90.5433 83.4231 90.4414 83.1776 90.4414 82.9162C90.4414 82.6551 90.5431 82.4093 90.728 82.2246L90.9905 82.4871C90.876 82.6019 90.8127 82.7542 90.8127 82.9162C90.8127 83.0784 90.8757 83.2307 90.9905 83.345C91.2196 83.5746 91.6191 83.5746 91.8484 83.3453C91.9632 83.2307 92.0262 83.0784 92.0262 82.9162C92.0262 82.7542 91.9632 82.6019 91.8484 82.4871L92.1109 82.2246C92.2958 82.4093 92.3975 82.6551 92.3975 82.9162C92.3975 83.1776 92.2956 83.4231 92.1109 83.608C91.9265 83.7924 91.681 83.8944 91.4196 83.8944Z" fill="#027DC0"/>
<path d="M91.6079 81.8281H91.2363V82.7364H91.6079V81.8281Z" fill="#027DC0"/>
<path d="M59.8984 54.3574H58.6484V59.1612H59.8984V54.3574Z" fill="#263238"/>
<path opacity="0.3" d="M59.8984 54.3574H58.6484V59.1612H59.8984V54.3574Z" fill="white"/>
<path d="M60.7437 58.1953H57.807C57.6801 58.1953 57.5543 58.22 57.4365 58.2679L55.0993 59.2203C54.73 59.3708 54.4883 59.7303 54.4883 60.1292H64.0621C64.0621 59.7303 63.8205 59.371 63.4511 59.2203L61.1139 58.2679C60.9966 58.22 60.8708 58.1953 60.7437 58.1953Z" fill="#263238"/>
<path opacity="0.5" d="M60.7437 58.1953H57.807C57.6801 58.1953 57.5543 58.22 57.4365 58.2679L55.0993 59.2203C54.73 59.3708 54.4883 59.7303 54.4883 60.1292H64.0621C64.0621 59.7303 63.8205 59.371 63.4511 59.2203L61.1139 58.2679C60.9966 58.22 60.8708 58.1953 60.7437 58.1953Z" fill="white"/>
<path opacity="0.1" d="M59.8984 54.3574H58.6484V56.119H59.8984V54.3574Z" fill="black"/>
<path d="M68.4093 41.5059H50.1387V54.9962H68.4093V41.5059Z" fill="#263238"/>
<path opacity="0.5" d="M68.4093 41.5059H50.1387V54.9962H68.4093V41.5059Z" fill="white"/>
<path d="M68.4102 54.9965L69.0735 54.4019V42.1002L68.4102 41.5059V54.9965Z" fill="#263238"/>
<path opacity="0.3" d="M68.4102 54.9965L69.0735 54.4019V42.1002L68.4102 41.5059V54.9965Z" fill="white"/>
<path d="M67.6656 42.25H50.8809V53.9575H67.6656V42.25Z" fill="#027DC0"/>
<path opacity="0.4" d="M67.6656 42.25H50.8809V53.9575H67.6656V42.25Z" fill="white"/>
<path d="M60.7378 49.1617C60.4139 49.5001 59.8456 49.2995 59.8015 48.8331C59.704 47.7996 59.5579 47.1823 59.7744 46.6466C60.0857 45.8759 60.963 45.5038 61.7335 45.815C62.5043 46.1263 62.8766 47.0037 62.5651 47.7741L60.7378 49.1617Z" fill="#027DC0"/>
<path d="M60.7378 48.9098C60.4139 49.2482 59.8456 49.0477 59.8015 48.5813C59.704 47.5478 59.5579 46.9305 59.7744 46.3948C60.0857 45.624 60.963 45.2517 61.7335 45.5632C62.5043 45.8745 62.8766 46.7518 62.5651 47.5223L60.7378 48.9098Z" fill="#027DC0"/>
<path opacity="0.3" d="M60.7378 48.9098C60.4139 49.2482 59.8456 49.0477 59.8015 48.5813C59.704 47.5478 59.5579 46.9305 59.7744 46.3948C60.0857 45.624 60.963 45.2517 61.7335 45.5632C62.5043 45.8745 62.8766 46.7518 62.5651 47.5223L60.7378 48.9098Z" fill="white"/>
<path d="M66.2557 49.1617C66.5796 49.5001 67.1482 49.2995 67.192 48.8331C67.2893 47.7996 67.4356 47.1823 67.2191 46.6466C66.9079 45.8759 66.0305 45.5038 65.26 45.815C64.4893 46.1263 64.1169 47.0037 64.4284 47.7741L66.2557 49.1617Z" fill="#027DC0"/>
<path opacity="0.3" d="M66.1971 48.9098C66.521 49.2482 67.0896 49.0477 67.1334 48.5813C67.2307 47.5478 67.377 46.9305 67.1605 46.3948C66.8493 45.624 65.9719 45.2517 65.2014 45.5632C64.4307 45.8745 64.0583 46.7518 64.3698 47.5223L66.1971 48.9098Z" fill="white"/>
<path d="M65.7337 47.1191H61.1719V48.3869H65.7337V47.1191Z" fill="#027DC0"/>
<path opacity="0.3" d="M65.7337 47.1191H61.1719V48.3869H65.7337V47.1191Z" fill="white"/>
<path d="M65.7337 45.5391H61.1719V47.716H65.7337V45.5391Z" fill="#027DC0"/>
<path opacity="0.6" d="M65.7337 45.5391H61.1719V47.716H65.7337V45.5391Z" fill="white"/>
<path d="M62.5647 47.5223C62.2535 48.2931 61.3761 48.6652 60.6056 48.3539C59.8349 48.0426 59.4628 47.1653 59.774 46.3948C60.0853 45.624 60.9626 45.2517 61.7331 45.5632C62.5039 45.8745 62.8763 46.7518 62.5647 47.5223Z" fill="#027DC0"/>
<path opacity="0.7" d="M62.5647 47.5223C62.2535 48.2931 61.3761 48.6652 60.6056 48.3539C59.8349 48.0426 59.4628 47.1653 59.774 46.3948C60.0853 45.624 60.9626 45.2517 61.7331 45.5632C62.5039 45.8745 62.8763 46.7518 62.5647 47.5223Z" fill="white"/>
<path d="M62.0511 46.9396C62.0511 47.4317 61.6521 47.8304 61.1603 47.8304C60.6682 47.8304 60.2695 47.4314 60.2695 46.9396C60.2695 46.4478 60.6685 46.0488 61.1603 46.0488C61.6524 46.0488 62.0511 46.4478 62.0511 46.9396Z" fill="#027DC0"/>
<path opacity="0.3" d="M62.0511 46.9396C62.0511 47.4317 61.6521 47.8304 61.1603 47.8304C60.6682 47.8304 60.2695 47.4314 60.2695 46.9396C60.2695 46.4478 60.6685 46.0488 61.1603 46.0488C61.6524 46.0488 62.0511 46.4478 62.0511 46.9396Z" fill="black"/>
<path d="M64.3424 47.5223C64.6536 48.2931 65.531 48.6652 66.3015 48.3539C67.0722 48.0426 67.4443 47.1653 67.1331 46.3948C66.8218 45.624 65.9445 45.2517 65.174 45.5632C64.4032 45.8745 64.0311 46.7518 64.3424 47.5223Z" fill="#027DC0"/>
<path opacity="0.7" d="M64.3424 47.5223C64.6536 48.2931 65.531 48.6652 66.3015 48.3539C67.0722 48.0426 67.4443 47.1653 67.1331 46.3948C66.8218 45.624 65.9445 45.2517 65.174 45.5632C64.4032 45.8745 64.0311 46.7518 64.3424 47.5223Z" fill="white"/>
<path d="M63.8471 46.293H63.0547V46.527H63.8471V46.293Z" fill="#027DC0"/>
<path d="M65.3204 46.6223C65.3456 46.7527 65.2606 46.8788 65.1302 46.9043C64.9998 46.9295 64.8737 46.8445 64.8483 46.7141C64.8228 46.5837 64.908 46.4576 65.0384 46.4322C65.1688 46.4069 65.2949 46.4922 65.3204 46.6223Z" fill="#027DC0"/>
<path d="M65.8906 46.4857C65.9158 46.6161 65.8309 46.7421 65.7004 46.7676C65.57 46.7928 65.444 46.7079 65.4185 46.5775C65.3933 46.447 65.4782 46.321 65.6086 46.2955C65.7388 46.27 65.8651 46.3553 65.8906 46.4857Z" fill="#027DC0"/>
<path d="M65.4668 47.3762C65.492 47.5066 65.407 47.6327 65.2766 47.6582C65.1462 47.6834 65.0201 47.5984 64.9947 47.468C64.9695 47.3376 65.0544 47.2115 65.1848 47.1861C65.3152 47.1609 65.4416 47.2461 65.4668 47.3762Z" fill="#027DC0"/>
<path d="M66.0371 47.2414C66.0623 47.3719 65.9773 47.4979 65.8469 47.5234C65.7165 47.5486 65.5905 47.4637 65.565 47.3332C65.5398 47.2028 65.6247 47.0768 65.7551 47.0513C65.8856 47.0261 66.0119 47.1113 66.0371 47.2414Z" fill="#027DC0"/>
<path d="M66.4687 46.3646C66.4942 46.495 66.409 46.621 66.2786 46.6465C66.1481 46.6717 66.0221 46.5868 65.9966 46.4564C65.9714 46.3259 66.0563 46.1999 66.1868 46.1744C66.3172 46.1489 66.4435 46.2342 66.4687 46.3646Z" fill="#027DC0"/>
<path d="M66.6152 47.1185C66.6404 47.2489 66.5555 47.375 66.425 47.4004C66.2946 47.4256 66.1686 47.3407 66.1431 47.2103C66.1179 47.0799 66.2028 46.9538 66.3333 46.9283C66.4637 46.9029 66.59 46.9881 66.6152 47.1185Z" fill="#027DC0"/>
<path opacity="0.3" d="M61.6894 46.9384C61.6894 47.2302 61.4529 47.4667 61.1611 47.4667C60.8693 47.4667 60.6328 47.2302 60.6328 46.9384C60.6328 46.6466 60.8693 46.4102 61.1611 46.4102C61.4529 46.4102 61.6894 46.6466 61.6894 46.9384Z" fill="#027DC0"/>
<path d="M59.2711 43.7383H51.6191V52.6044H59.2711V43.7383Z" fill="#263238"/>
<path opacity="0.5" d="M59.2711 43.7383H51.6191V52.6044H59.2711V43.7383Z" fill="white"/>
<path d="M59.0491 44.3848H51.8398V52.293H59.0491V44.3848Z" fill="black"/>
<path d="M53.8451 45.2363H52.7754V45.5706H53.8451V45.2363Z" fill="#027DC0"/>
<path d="M55.1048 45.2363H54.0352V45.5706H55.1048V45.2363Z" fill="#027DC0"/>
<path d="M57.6244 45.2363H56.5547V45.5706H57.6244V45.2363Z" fill="#027DC0"/>
<path d="M58.1135 45.9707H56.9355V46.305H58.1135V45.9707Z" fill="#027DC0"/>
<path d="M55.3408 46.707H54.5703V47.0413H55.3408V46.707Z" fill="#027DC0"/>
<path d="M56.7287 46.707H55.5508V47.0413H56.7287V46.707Z" fill="#027DC0"/>
<path d="M57.7792 46.707H56.9355V47.0413H57.7792V46.707Z" fill="#027DC0"/>
<path d="M55.6203 48.1777H54.1621V48.512H55.6203V48.1777Z" fill="#027DC0"/>
<path d="M56.728 48.1777H55.8301V48.512H56.728V48.1777Z" fill="#027DC0"/>
<path d="M56.9963 49.6504H55.8184V49.9847H56.9963V49.6504Z" fill="#027DC0"/>
<path d="M58.1136 49.6504H57.2031V49.9847H58.1136V49.6504Z" fill="#027DC0"/>
<path d="M53.9533 51.1191H52.7754V51.4534H53.9533V51.1191Z" fill="#027DC0"/>
<path d="M55.7251 45.9746H53.8457V46.3089H55.7251V45.9746Z" fill="#027DC0"/>
<path d="M55.3417 47.4453H53.9512V47.7796H55.3417V47.4453Z" fill="#027DC0"/>
<path d="M58.1135 48.1816H56.9355V48.5159H58.1135V48.1816Z" fill="#027DC0"/>
<path d="M55.0725 48.916H53.8945V49.2503H55.0725V48.916Z" fill="#027DC0"/>
<path d="M56.4592 48.916H55.2812V49.2503H56.4592V48.916Z" fill="#027DC0"/>
<path d="M53.9533 49.6523H52.7754V49.9866H53.9533V49.6523Z" fill="#027DC0"/>
<path d="M56.4593 50.3887H55.5488V50.723H56.4593V50.3887Z" fill="#027DC0"/>
<path d="M58.1133 50.3887H56.668V50.723H58.1133V50.3887Z" fill="#027DC0"/>
<path d="M55.6075 51.123H54.1621V51.4573H55.6075V51.123Z" fill="#027DC0"/>
<g opacity="0.5">
<path d="M55.7251 45.9746H53.8457V46.3089H55.7251V45.9746Z" fill="white"/>
<path d="M55.3417 47.4453H53.9512V47.7796H55.3417V47.4453Z" fill="white"/>
<path d="M58.1135 48.1816H56.9355V48.5159H58.1135V48.1816Z" fill="white"/>
<path d="M55.0725 48.916H53.8945V49.2503H55.0725V48.916Z" fill="white"/>
<path d="M56.4592 48.916H55.2812V49.2503H56.4592V48.916Z" fill="white"/>
<path d="M53.9533 49.6523H52.7754V49.9866H53.9533V49.6523Z" fill="white"/>
<path d="M56.4593 50.3887H55.5488V50.723H56.4593V50.3887Z" fill="white"/>
<path d="M58.1133 50.3887H56.668V50.723H58.1133V50.3887Z" fill="white"/>
<path d="M55.6075 51.123H54.1621V51.4573H55.6075V51.123Z" fill="white"/>
</g>
<path d="M56.3646 45.2383H55.2949V45.5726H56.3646V45.2383Z" fill="#027DC0"/>
<path d="M56.7251 45.9727H55.9316V46.3069H56.7251V45.9727Z" fill="#027DC0"/>
<path d="M54.361 46.7109H52.7754V47.0452H54.361V46.7109Z" fill="#027DC0"/>
<path d="M56.984 47.4453H55.5488V47.7796H56.984V47.4453Z" fill="#027DC0"/>
<path d="M58.1123 47.4453H57.1914V47.7796H58.1123V47.4453Z" fill="#027DC0"/>
<path d="M53.9533 48.1797H52.7754V48.514H53.9533V48.1797Z" fill="#027DC0"/>
<path d="M57.8459 48.916H56.668V49.2503H57.8459V48.916Z" fill="#027DC0"/>
<path d="M55.6075 49.6523H54.1621V49.9866H55.6075V49.6523Z" fill="#027DC0"/>
<path d="M55.3382 50.3867H54.4277V50.721H55.3382V50.3867Z" fill="#027DC0"/>
<path d="M56.9943 51.1211H55.8164V51.4554H56.9943V51.1211Z" fill="#027DC0"/>
<g opacity="0.4">
<path d="M56.3646 45.2383H55.2949V45.5726H56.3646V45.2383Z" fill="black"/>
<path d="M56.7251 45.9727H55.9316V46.3069H56.7251V45.9727Z" fill="black"/>
<path d="M54.361 46.7109H52.7754V47.0452H54.361V46.7109Z" fill="black"/>
<path d="M56.984 47.4453H55.5488V47.7796H56.984V47.4453Z" fill="black"/>
<path d="M58.1123 47.4453H57.1914V47.7796H58.1123V47.4453Z" fill="black"/>
<path d="M53.9533 48.1797H52.7754V48.514H53.9533V48.1797Z" fill="black"/>
<path d="M57.8459 48.916H56.668V49.2503H57.8459V48.916Z" fill="black"/>
<path d="M55.6075 49.6523H54.1621V49.9866H55.6075V49.6523Z" fill="black"/>
<path d="M55.3382 50.3867H54.4277V50.721H55.3382V50.3867Z" fill="black"/>
<path d="M56.9943 51.1211H55.8164V51.4554H56.9943V51.1211Z" fill="black"/>
</g>
<path d="M57.8462 51.1191H57.2031V51.4534H57.8462V51.1191Z" fill="#027DC0"/>
<path d="M97.4883 54.3555H96.2383V59.1592H97.4883V54.3555Z" fill="#263238"/>
<path opacity="0.3" d="M97.4883 54.3555H96.2383V59.1592H97.4883V54.3555Z" fill="white"/>
<path d="M98.3333 58.1934H95.3965C95.2697 58.1934 95.1439 58.218 95.0264 58.266L92.6891 59.2184C92.3198 59.3688 92.0781 59.7283 92.0781 60.1273H101.652C101.652 59.7283 101.41 59.3691 101.041 59.2184L98.7037 58.266C98.5862 58.218 98.4604 58.1934 98.3333 58.1934Z" fill="#263238"/>
<path opacity="0.5" d="M98.3333 58.1934H95.3965C95.2697 58.1934 95.1439 58.218 95.0264 58.266L92.6891 59.2184C92.3198 59.3688 92.0781 59.7283 92.0781 60.1273H101.652C101.652 59.7283 101.41 59.3691 101.041 59.2184L98.7037 58.266C98.5862 58.218 98.4604 58.1934 98.3333 58.1934Z" fill="white"/>
<path opacity="0.1" d="M97.4883 54.3555H96.2383V56.117H97.4883V54.3555Z" fill="black"/>
<path d="M105.999 41.5039H87.7285V54.9943H105.999V41.5039Z" fill="#263238"/>
<path opacity="0.5" d="M105.999 41.5039H87.7285V54.9943H105.999V41.5039Z" fill="white"/>
<path d="M105.998 54.9946L106.661 54.4V42.0982L105.998 41.5039V54.9946Z" fill="#263238"/>
<path opacity="0.3" d="M105.998 54.9946L106.661 54.4V42.0982L105.998 41.5039V54.9946Z" fill="white"/>
<path d="M105.255 42.248H88.4707V53.9555H105.255V42.248Z" fill="#027DC0"/>
<path opacity="0.6" d="M105.255 42.248H88.4707V53.9555H105.255V42.248Z" fill="white"/>
<path d="M103.429 42.2109H103.354H101.564H101.489H99.6989H99.6246H97.834H97.7598H95.9692H95.8949H94.1043H94.0301H92.2395H92.1652H90.3747H90.3004H88.4355V44.1621V44.2363V46.1132V46.1875V48.0644V48.1386V50.0158V50.0901V51.967V52.0412V53.9921H90.3004H90.3747H92.1652H92.2395H94.0301H94.1043H95.8949H95.9692H97.7598H97.834H99.6246H99.6989H101.489H101.564H103.354H103.429H105.293V52.0412V51.967V50.0901V50.0158V48.1386V48.0644V46.1875V46.1132V44.2363V44.1621V42.2109H103.429ZM101.564 42.2855H103.354V44.1624H101.564V42.2855ZM103.354 46.1135H101.564V44.2366H103.354V46.1135ZM103.354 48.0649H101.564V46.188H103.354V48.0649ZM103.354 50.0161H101.564V48.1389H103.354V50.0161ZM103.354 51.9675H101.564V50.0906H103.354V51.9675ZM90.3738 50.0904H92.1644V51.9673H90.3738V50.0904ZM90.3738 48.1392H92.1644V50.0164H90.3738V48.1392ZM90.3738 46.1878H92.1644V48.0647H90.3738V46.1878ZM90.3738 44.2366H92.1644V46.1135H90.3738V44.2366ZM101.489 46.1135H99.6986V44.2366H101.489V46.1135ZM101.489 48.0649H99.6986V46.188H101.489V48.0649ZM101.489 50.0161H99.6986V48.1389H101.489V50.0161ZM92.2387 48.1392H94.0293V50.0164H92.2387V48.1392ZM92.2387 46.1878H94.0293V48.0647H92.2387V46.1878ZM99.6243 48.0649H97.8338V46.188H99.6243V48.0649ZM97.7592 48.0649H95.9686V46.188H97.7592V48.0649ZM95.8944 48.0649H94.1038V46.188H95.8944V48.0649ZM94.1038 48.1392H95.8944V50.0164H94.1038V48.1392ZM95.9686 48.1392H97.7592V50.0164H95.9686V48.1392ZM97.8338 48.1392H99.6243V50.0164H97.8338V48.1392ZM99.6243 46.1135H97.8338V44.2366H99.6243V46.1135ZM97.7592 46.1135H95.9686V44.2366H97.7592V46.1135ZM95.8944 46.1135H94.1038V44.2366H95.8944V46.1135ZM94.0295 46.1135H92.2389V44.2366H94.0295V46.1135ZM92.2387 50.0904H94.0293V51.9673H92.2387V50.0904ZM94.1038 50.0904H95.8944V51.9673H94.1038V50.0904ZM95.9686 50.0904H97.7592V51.9673H95.9686V50.0904ZM97.8338 50.0904H99.6243V51.9673H97.8338V50.0904ZM99.6986 50.0904H101.489V51.9673H99.6986V50.0904ZM99.6986 42.2855H101.489V44.1624H99.6986V42.2855ZM97.8338 42.2855H99.6243V44.1624H97.8338V42.2855ZM95.9686 42.2855H97.7592V44.1624H95.9686V42.2855ZM94.1038 42.2855H95.8944V44.1624H94.1038V42.2855ZM92.2387 42.2855H94.0293V44.1624H92.2387V42.2855ZM90.3738 42.2855H92.1644V44.1624H90.3738V42.2855ZM88.509 42.2855H90.2996V44.1624H88.509V42.2855ZM88.509 44.2366H90.2996V46.1135H88.509V44.2366ZM88.509 46.1878H90.2996V48.0647H88.509V46.1878ZM88.509 48.1392H90.2996V50.0164H88.509V48.1392ZM88.509 50.0904H90.2996V51.9673H88.509V50.0904ZM90.2996 53.9184H88.509V52.0418H90.2996V53.9184ZM92.1644 53.9184H90.3738V52.0418H92.1644V53.9184ZM94.0295 53.9184H92.2389V52.0418H94.0295V53.9184ZM95.8944 53.9184H94.1038V52.0418H95.8944V53.9184ZM97.7592 53.9184H95.9686V52.0418H97.7592V53.9184ZM99.6243 53.9184H97.8338V52.0418H99.6243V53.9184ZM101.489 53.9184H99.6986V52.0418H101.489V53.9184ZM103.354 53.9184H101.564V52.0418H103.354V53.9184ZM105.219 53.9184H103.429V52.0418H105.219V53.9184ZM105.219 51.9675H103.429V50.0906H105.219V51.9675ZM105.219 50.0161H103.429V48.1389H105.219V50.0161ZM105.219 48.0649H103.429V46.188H105.219V48.0649ZM105.219 46.1135H103.429V44.2366H105.219V46.1135ZM103.429 44.1624V42.2855H105.219V44.1624H103.429Z" fill="#027DC0"/>
<path d="M102.65 43.623H100.31L99.7664 44.5651H98.6199V44.0527H94.311V46.6099H92.9068C92.3078 46.6099 91.8223 47.0955 91.8223 47.6944C91.8223 48.2934 92.3078 48.7789 92.9068 48.7789H94.311V51.603H96.6512V53.3158H97.9141V53.3353H99.8595V52.0724H97.9141V51.6033H98.6199V46.7343H99.7664L100.31 47.6763H102.65L103.82 45.6498L102.65 43.623Z" fill="white"/>
<path d="M99.969 53.4467H97.8008V53.4272H96.538V51.7147H94.1977V48.8906H92.905C92.2455 48.8906 91.709 48.3541 91.709 47.6946C91.709 47.0354 92.2455 46.4986 92.905 46.4986H94.1977V43.9413H98.7294V44.4537H99.6999L100.244 43.5117H102.713L103.947 45.6497L102.713 47.7878H100.244L99.6999 46.8458H98.7294V51.7147H98.0236V51.9608H99.9687V53.4467H99.969ZM98.0239 53.2236H99.7462V52.1835H97.8011V51.4917H98.5069V46.6227H99.829L100.373 47.5647H102.585L103.69 45.6497L102.585 43.7345H100.373L99.8287 44.6768H98.5066V44.1644H94.4205V46.7216H92.9047C92.3682 46.7216 91.9317 47.1581 91.9317 47.6946C91.9317 48.2311 92.3682 48.6676 92.9047 48.6676H94.4205V51.4917H96.7607V53.2042H98.0236V53.2236H98.0239Z" fill="#263238"/>
<path d="M98.0244 50.1445H96.9473V47.459H98.0244V50.1445ZM97.17 49.9217H97.8016V47.682H97.17V49.9217Z" fill="#263238"/>
<path d="M102.102 46.3305H100.875V45.1035H102.102V46.3305ZM101.098 46.1075H101.879V45.3263H101.098V46.1075Z" fill="#263238"/>
<path d="M95.4808 45.715L95.2578 44.6133L97.0284 45.715H95.4808Z" fill="#027DC0"/>
<path opacity="0.7" d="M95.4808 45.715L95.2578 44.6133L97.0284 45.715H95.4808Z" fill="white"/>
<path d="M95.4808 45.7168L95.2578 46.8185L97.0284 45.7168H95.4808Z" fill="#027DC0"/>
<path opacity="0.3" d="M95.4808 45.7168L95.2578 46.8185L97.0284 45.7168H95.4808Z" fill="black"/>
<path d="M95.7636 50.5H89.377V53.246H95.7636V50.5Z" fill="#263238"/>
<path opacity="0.5" d="M95.7636 50.5H89.377V53.246H95.7636V50.5Z" fill="white"/>
<path d="M95.5776 51.0391H89.5605V52.9856H95.5776V51.0391Z" fill="black"/>
<path d="M91.2504 51.4922H90.3574V51.7711H91.2504V51.4922Z" fill="#027DC0"/>
<path d="M92.3013 51.4922H91.7832V51.7711H92.3013V51.4922Z" fill="#027DC0"/>
<path d="M94.4027 51.4922H93.5098V51.7711H94.4027V51.4922Z" fill="#027DC0"/>
<path d="M94.8132 52.1055H93.8301V52.3844H94.8132V52.1055Z" fill="#027DC0"/>
<path d="M91.2504 52.1055H90.3574V52.3844H91.2504V52.1055Z" fill="#027DC0"/>
<path d="M92.8329 52.1055H91.7832V52.3844H92.8329V52.1055Z" fill="#027DC0"/>
<path d="M93.352 51.4922H92.459V51.7711H93.352V51.4922Z" fill="#027DC0"/>
<path d="M93.6564 52.1055H92.9941V52.3844H93.6564V52.1055Z" fill="#027DC0"/>
<path d="M77.9739 53.3477H76.4863V59.0644H77.9739V53.3477Z" fill="#263238"/>
<path d="M77.9739 53.3477H76.4863V59.0644H77.9739V53.3477Z" fill="#263238"/>
<path d="M78.9756 57.916H75.4804C75.3294 57.916 75.1796 57.9453 75.0398 58.0023L72.2584 59.1356C71.8187 59.3148 71.5312 59.7422 71.5312 60.2171H82.925C82.925 59.7422 82.6376 59.3148 82.1978 59.1356L79.4162 58.0023C79.2761 57.9453 79.1265 57.916 78.9756 57.916Z" fill="#263238"/>
<path opacity="0.1" d="M77.9739 53.3477H76.4863V54.967H77.9739V53.3477Z" fill="black"/>
<path d="M88.1007 38.0547H66.3574V54.1092H88.1007V38.0547Z" fill="#263238"/>
<path opacity="0.2" d="M88.1007 38.0547H66.3574V54.1092H88.1007V38.0547Z" fill="white"/>
<path d="M88.0996 54.1094L88.9457 53.402V38.7622L88.0996 38.0547V54.1094Z" fill="#263238"/>
<path d="M80.8942 43.5247H73.5658L67.2988 39.1465H87.1608L80.8942 43.5247Z" fill="#027DC0"/>
<path opacity="0.3" d="M80.8942 43.5247H73.5658L67.2988 39.1465H87.1608L80.8942 43.5247Z" fill="white"/>
<path d="M80.8942 48.6426H73.5658L67.2988 53.0208H87.1608L80.8942 48.6426Z" fill="#027DC0"/>
<path opacity="0.5" d="M80.8942 48.6426H73.5658L67.2988 53.0208H87.1608L80.8942 48.6426Z" fill="white"/>
<path d="M80.8945 48.6447V43.5247L87.1612 39.1465V53.0229L80.8945 48.6447Z" fill="#027DC0"/>
<path opacity="0.2" d="M80.8945 48.6447V43.5247L87.1612 39.1465V53.0229L80.8945 48.6447Z" fill="white"/>
<path d="M73.5658 48.6447V43.5247L67.2988 39.1465V53.0229L73.5658 48.6447Z" fill="#027DC0"/>
<path opacity="0.2" d="M73.5658 48.6447V43.5247L67.2988 39.1465V53.0229L73.5658 48.6447Z" fill="white"/>
<path d="M80.8929 43.5234H73.5645V48.6434H80.8929V43.5234Z" fill="#027DC0"/>
<path opacity="0.7" d="M80.8929 43.5234H73.5645V48.6434H80.8929V43.5234Z" fill="white"/>
<path d="M87.1601 53.0194V51.7618C86.5633 51.2825 85.7279 50.8118 85.2385 51.4036C84.7779 51.9607 84.6286 52.5183 84.6977 53.0197L87.1601 53.0194Z" fill="#027DC0"/>
<path d="M84.0185 53.0219H85.2197L85.7351 51.1954C85.7351 51.1954 84.7388 49.7944 82.9491 49.1152C81.1593 48.4359 81.547 51.4368 82.1087 51.9568C82.4194 52.2445 83.2962 52.6851 84.0185 53.0219Z" fill="#FF8B7B"/>
<path d="M84.5253 53.0204L84.1378 49.5039H83.3208L82.9336 53.0204H84.5253Z" fill="#263238"/>
<path opacity="0.2" d="M84.5253 53.0204L84.1378 49.5039H83.3208L82.9336 53.0204H84.5253Z" fill="white"/>
<path d="M83.7772 53.0204L83.39 49.5039H82.5727L82.1855 53.0204H83.7772Z" fill="#263238"/>
<path opacity="0.4" d="M83.7772 53.0204L83.39 49.5039H82.5727L82.1855 53.0204H83.7772Z" fill="white"/>
<path d="M82.9107 49.3189C82.9107 49.3189 83.2998 49.5759 83.4669 50.9426C83.6341 52.3094 83.0954 52.3464 82.7241 52.1792C82.3526 52.0121 82.1068 51.9099 82.1068 51.9099C82.1068 51.9099 81.4818 49.003 82.9107 49.3189Z" fill="#FF8B7B"/>
<path d="M84.174 52.9493L84.3215 53.0206H84.733L84.527 50.4882C84.527 50.4882 83.5614 49.575 83.4685 50.9417C83.3753 52.3084 84.174 52.9493 84.174 52.9493Z" fill="#FF8B7B"/>
<path d="M85.3081 47.5731L81.5113 45.6523H80.5183L80.1914 46.7174V47.5731L83.4323 50.3032H85.7722V49.0867L85.3081 47.5731Z" fill="#263238"/>
<path opacity="0.5" d="M85.3081 47.5731L81.5113 45.6523H80.5183L80.1914 46.7174V47.5731L83.4323 50.3032H85.7722V49.0867L85.3081 47.5731Z" fill="white"/>
<path opacity="0.3" d="M85.3094 47.5723H83.8977L83.4336 49.0858V50.3024H85.7736V49.0858L85.3094 47.5723Z" fill="black"/>
<path opacity="0.1" d="M85.1074 47.9629H84.0991L83.7676 49.0441V49.3189H85.439V49.0441L85.1074 47.9629Z" fill="black"/>
<path d="M84.0991 47.9629L83.7676 49.0441V49.1279H85.248V48.8534L84.9751 47.9629H84.0991Z" fill="#027DC0"/>
<path opacity="0.2" d="M84.0991 47.9629L83.7676 49.0441V49.1279H85.248V48.8534L84.9751 47.9629H84.0991Z" fill="black"/>
<path opacity="0.5" d="M83.8977 47.5731H85.3093L81.5125 45.6523H80.5195L83.8977 47.5731Z" fill="white"/>
<path opacity="0.2" d="M80.1914 46.7188V47.5745L83.4323 50.3046V49.088L80.1914 46.7188Z" fill="black"/>
<path d="M81.2168 47.2776L81.4889 46.3906L81.636 46.4742L81.3579 47.3806L81.2168 47.2776Z" fill="#027DC0"/>
<path d="M80.9355 47.0707L81.1956 46.2227L81.3427 46.3065L81.0767 47.174L80.9355 47.0707Z" fill="#027DC0"/>
<path d="M80.6523 46.8633L80.9003 46.0547L81.0477 46.1383L80.7935 46.9666L80.6523 46.8633Z" fill="#027DC0"/>
<path d="M81.5014 45.5193L81.2003 44.9102H81.0472L80.9102 45.3568V45.7154L81.3565 45.9218H81.5699V45.7423L81.5014 45.5193Z" fill="#263238"/>
<path opacity="0.5" d="M81.5014 45.5193L81.2003 44.9102H81.0472L80.9102 45.3568V45.7154L81.3565 45.9218H81.5699V45.7423L81.5014 45.5193Z" fill="white"/>
<path opacity="0.2" d="M81.5007 45.5195H81.424L81.3555 45.7426V45.922H81.5692V45.7426L81.5007 45.5195Z" fill="black"/>
<path opacity="0.5" d="M81.4244 45.5193H81.5012L81.2 44.9102H81.0469L81.4244 45.5193Z" fill="white"/>
<path d="M78.8362 45.9718H78.2762C78.2236 45.4786 77.8345 45.0892 77.341 45.0366V44.4766H77.1183V45.0366C76.6251 45.0892 76.2357 45.4786 76.1831 45.9718H75.623V46.1945H76.1831C76.2357 46.6877 76.6248 47.0771 77.1183 47.1297V47.6898H77.341V47.1297C77.8342 47.0771 78.2236 46.6877 78.2762 46.1945H78.8362V45.9718ZM77.3413 46.9812V46.4557H77.1185V46.9812C76.707 46.9302 76.3831 46.6061 76.3322 46.1948H76.8577V45.9721H76.3322C76.3831 45.5605 76.7073 45.2366 77.1185 45.1857V45.7112H77.3413V45.1857C77.7528 45.2366 78.0767 45.5605 78.1277 45.9721H77.6021V46.1948H78.1277C78.0767 46.6061 77.7526 46.9302 77.3413 46.9812Z" fill="#027DC0"/>
<path opacity="0.2" d="M78.8362 45.9718H78.2762C78.2236 45.4786 77.8345 45.0892 77.341 45.0366V44.4766H77.1183V45.0366C76.6251 45.0892 76.2357 45.4786 76.1831 45.9718H75.623V46.1945H76.1831C76.2357 46.6877 76.6248 47.0771 77.1183 47.1297V47.6898H77.341V47.1297C77.8342 47.0771 78.2236 46.6877 78.2762 46.1945H78.8362V45.9718ZM77.3413 46.9812V46.4557H77.1185V46.9812C76.707 46.9302 76.3831 46.6061 76.3322 46.1948H76.8577V45.9721H76.3322C76.3831 45.5605 76.7073 45.2366 77.1185 45.1857V45.7112H77.3413V45.1857C77.7528 45.2366 78.0767 45.5605 78.1277 45.9721H77.6021V46.1948H78.1277C78.0767 46.6061 77.7526 46.9302 77.3413 46.9812Z" fill="black"/>
<g opacity="0.9">
<path d="M72.743 40.9238H71.9512V41.1485H72.743V40.9238Z" fill="white"/>
<path d="M69.8755 40.9238H69.1562V41.1485H69.8755V40.9238Z" fill="white"/>
<path d="M71.1503 40.9238H70.3047V41.1485H71.1503V40.9238Z" fill="white"/>
<path d="M71.8128 40.9238H71.2793V41.1485H71.8128V40.9238Z" fill="white"/>
</g>
<g opacity="0.9">
<path d="M69.8755 40.4277H69.1562V40.6524H69.8755V40.4277Z" fill="white"/>
<path d="M70.722 40.4277H70.3047V40.6524H70.722V40.4277Z" fill="white"/>
<path d="M72.4146 40.4277H71.6953V40.6524H72.4146V40.4277Z" fill="white"/>
<path d="M71.5689 40.4277H70.8496V40.6524H71.5689V40.4277Z" fill="white"/>
<path d="M70.8804 41.418H70.3047V41.6427H70.8804V41.418Z" fill="white"/>
<path d="M71.8114 41.418H71.0195V41.6427H71.8114V41.418Z" fill="white"/>
<path d="M72.5184 41.418H71.9512V41.6427H72.5184V41.418Z" fill="white"/>
<path d="M69.8755 41.418H69.1562V41.6427H69.8755V41.418Z" fill="white"/>
</g>
<path d="M49.0669 37.9292C49.0669 37.9292 51.4902 38.626 51.4354 37.2031C51.3806 35.7805 49.336 37.2626 48.7935 36.8886C48.2512 36.5145 49.0669 37.9292 49.0669 37.9292Z" fill="#263238"/>
<path opacity="0.6" d="M49.0669 37.9292C49.0669 37.9292 51.4902 38.626 51.4354 37.2031C51.3806 35.7805 49.336 37.2626 48.7935 36.8886C48.2512 36.5145 49.0669 37.9292 49.0669 37.9292Z" fill="black"/>
<path d="M58.8604 90.8965L58.5703 96.2225L56.6383 96.371L56.1309 90.9316L58.8604 90.8965Z" fill="#FF8B7B"/>
<path d="M58.9176 96.2018C58.8968 96.1988 58.8801 96.184 58.8746 96.1637C58.8694 96.1434 58.8776 96.1218 58.8951 96.1103C58.9261 96.0894 59.63 95.6193 59.9879 95.691C60.0544 95.7034 60.1136 95.7415 60.1528 95.7965C60.2043 95.8574 60.212 95.9439 60.1717 96.0127C60.0931 96.1311 59.8262 96.1979 59.5648 96.2163C59.3492 96.2305 59.1327 96.2256 58.9176 96.2018ZM59.0743 96.1237C59.4689 96.1448 59.9988 96.1042 60.0868 95.9607C60.0996 95.9429 60.1106 95.9119 60.0692 95.8524C60.0465 95.8171 60.0087 95.7938 59.9668 95.7897C59.9352 95.7831 59.9029 95.7812 59.8706 95.7839C59.5862 95.8459 59.316 95.9612 59.0743 96.1237Z" fill="#027DC0"/>
<path d="M58.8907 96.2012C58.8751 96.1925 58.8652 96.1758 58.8652 96.1577C58.8663 96.1311 58.8825 95.5601 59.1348 95.3214C59.2072 95.251 59.3053 95.2135 59.4061 95.217C59.5442 95.2211 59.5919 95.2874 59.6009 95.3442C59.6623 95.5776 59.1891 96.0686 58.9455 96.1977C58.9392 96.2012 58.9321 96.2026 58.925 96.201C58.9143 96.2053 58.9019 96.2056 58.8907 96.2012ZM59.3795 95.3138C59.3165 95.3176 59.2568 95.3442 59.2118 95.3883C59.0677 95.5804 58.9861 95.8122 58.9778 96.0525C59.2277 95.8801 59.5338 95.5003 59.5111 95.3587C59.5064 95.3461 59.4979 95.3105 59.408 95.3094L59.3795 95.3138Z" fill="#027DC0"/>
<path d="M58.6826 95.9225L56.3878 96.0833C56.3012 96.0894 56.2305 96.1546 56.2176 96.2403L55.9335 98.1361C55.9069 98.3041 56.0217 98.4616 56.19 98.4882C56.2116 98.4915 56.2333 98.4926 56.2552 98.4915C57.0813 98.4192 57.8137 98.3225 58.8437 98.2518C60.0591 98.1668 59.7607 98.334 61.1913 98.2542C62.053 98.2052 62.1421 97.2158 61.7735 97.193C60.0882 97.0999 59.8791 96.6075 59.1927 96.0546C59.0445 95.9493 58.8628 95.9025 58.6826 95.9225Z" fill="#263238"/>
<path opacity="0.1" d="M58.6669 94.4549L56.4603 94.4617L56.2598 92.3136L58.7852 92.2812L58.6669 94.4549Z" fill="black"/>
<path d="M38.1009 67.4316C38.1009 67.4316 36.9736 73.0237 41.6744 74.0657C46.3751 75.1077 55.0878 73.9775 55.0878 73.9775C55.0878 73.9775 54.0912 77.0148 56.2662 93.409L58.8654 93.411C58.8654 93.411 61.2843 74.9803 59.7129 72.1102C58.1418 69.24 48.6808 67.8678 38.1009 67.4316Z" fill="#027DC0"/>
<path d="M38.1009 67.4316C38.1009 67.4316 36.9736 73.0237 41.6744 74.0657C46.3751 75.1077 55.0878 73.9775 55.0878 73.9775C55.0878 73.9775 54.0912 77.0148 56.2662 93.409L58.8654 93.411C58.8654 93.411 61.2843 74.9803 59.7129 72.1102C58.1418 69.24 48.6808 67.8678 38.1009 67.4316Z" fill="#027DC0"/>
<path opacity="0.2" d="M59.5149 71.8111C59.59 71.9089 59.6576 72.0078 59.7133 72.1092C60.5106 73.5652 60.2804 79.0266 59.8607 84.0545C57.9114 77.9383 58.0273 76.3926 58.0273 76.3926C58.0273 76.3926 56.742 76.3101 54.873 76.2093C54.9213 74.4861 55.0879 73.9768 55.0879 73.9768C55.0879 73.9768 58.0605 71.1272 59.5149 71.8111Z" fill="black"/>
<path d="M59.1289 92.6934L58.9845 93.7252L56.1299 93.7288L55.9883 92.7388L59.1289 92.6934Z" fill="#027DC0"/>
<path opacity="0.3" d="M59.1289 92.6934L58.9845 93.7252L56.1299 93.7288L55.9883 92.7388L59.1289 92.6934Z" fill="white"/>
<path d="M67.205 95.9261L65.4638 96.259L64.7744 93.8875L64.1203 91.644L63.8203 90.6099L66.3789 89.9531L66.4891 90.7554L66.8486 93.3587L67.205 95.9261Z" fill="#FF8B7B"/>
<path d="M67.4305 96.081C67.4104 96.0752 67.3957 96.0579 67.3929 96.0374C67.3904 96.0166 67.4017 95.9963 67.4206 95.9872C67.454 95.9708 68.2157 95.6012 68.5604 95.7212C68.6248 95.7426 68.6782 95.7883 68.7095 95.8483C68.7522 95.9155 68.7481 96.0026 68.6988 96.0653C68.6045 96.1719 68.3311 96.2015 68.07 96.184C67.8541 96.1681 67.6403 96.1338 67.4305 96.081ZM67.5962 96.0248C67.9842 96.0996 68.5147 96.1319 68.6215 96.0015C68.6369 95.9856 68.6519 95.9566 68.6191 95.8919C68.6013 95.8538 68.567 95.8256 68.5259 95.8157C68.4955 95.805 68.4637 95.7985 68.4314 95.7971C68.1412 95.8198 67.8579 95.8968 67.5962 96.0248Z" fill="#027DC0"/>
<path d="M67.4045 96.0762C67.39 96.0655 67.3826 96.0475 67.3853 96.0296C67.39 96.0033 67.4842 95.44 67.7667 95.2381C67.8481 95.1783 67.9503 95.1542 68.0498 95.1715C68.186 95.1945 68.2243 95.2666 68.2254 95.3241C68.2545 95.5636 67.7185 95.9855 67.4596 96.0801C67.453 96.0828 67.4456 96.0831 67.4388 96.0806C67.427 96.0833 67.4149 96.0817 67.4045 96.0762ZM68.0098 95.2638C67.9468 95.2589 67.884 95.277 67.8336 95.3148C67.6645 95.4855 67.5519 95.7039 67.5111 95.9406C67.7821 95.8039 68.1375 95.4696 68.1342 95.3263C68.1314 95.3131 68.1279 95.2767 68.0388 95.2633L68.0098 95.2638Z" fill="#027DC0"/>
<path d="M67.236 95.7719L64.9409 95.6176C64.8543 95.6118 64.7754 95.6666 64.7508 95.7499L64.2104 97.5893C64.1614 97.7521 64.2535 97.9239 64.4162 97.9729C64.437 97.9792 64.4587 97.9833 64.4803 97.985C65.3086 98.0261 66.0473 98.0304 67.0773 98.1009C68.293 98.1828 67.9747 98.3077 69.4025 98.4239C70.2628 98.4932 70.4861 97.5249 70.1245 97.4523C68.4676 97.1295 68.3278 96.6133 67.7237 95.9719C67.5908 95.848 67.4176 95.7765 67.236 95.7719Z" fill="#263238"/>
<path opacity="0.1" d="M66.8967 93.3462L66.8493 93.3582L64.7751 93.8871L64.1211 91.6435L66.4898 90.755L66.4986 90.752L66.8967 93.3462Z" fill="black"/>
<path d="M39.5397 67.7736C39.5397 67.7736 38.938 74.0271 43.7516 73.9206C48.5653 73.8137 58.5279 74.454 58.5279 74.454C58.5279 74.454 58.2829 77.6412 64.2981 93.0463L66.823 92.4293C66.823 92.4293 65.0529 73.3268 62.8434 70.9131C60.6341 68.4997 49.9194 65.6792 39.5397 67.7736Z" fill="#027DC0"/>
<path d="M67.0592 91.6523L67.1748 92.7845L64.1077 93.5328L63.6953 92.5196L67.0592 91.6523Z" fill="#027DC0"/>
<path opacity="0.3" d="M67.0592 91.6523L67.1748 92.7845L64.1077 93.5328L63.6953 92.5196L67.0592 91.6523Z" fill="white"/>
<path d="M50.8122 40.6855L51.7257 41.9676C51.7257 41.9676 51.303 42.3153 50.6758 42.1265L50.8122 40.6855Z" fill="#FF5652"/>
<path d="M50.4897 39.7297C50.5199 39.7313 50.5489 39.7182 50.5678 39.6946C50.6996 39.5099 50.9122 39.4 51.1391 39.3989C51.1881 39.4025 51.2306 39.3661 51.235 39.317C51.2377 39.2677 51.201 39.225 51.1517 39.2208C50.8643 39.2156 50.5925 39.3515 50.4248 39.585C50.3946 39.6244 50.402 39.6809 50.4415 39.711H50.4418C50.4555 39.722 50.4724 39.7283 50.4897 39.7297Z" fill="#1A2E35"/>
<path d="M51.3093 40.4747C51.32 40.6456 51.2402 40.7906 51.1282 40.798C51.0161 40.8054 50.9087 40.6659 50.9027 40.4993C50.8967 40.3327 50.9717 40.1834 51.0841 40.1779C51.1967 40.1722 51.2967 40.304 51.3093 40.4747Z" fill="#1A2E35"/>
<path d="M44.65 39.7523C44.6938 42.0311 44.6631 42.9983 45.7618 44.2133C47.4661 45.475 50.2083 45.4901 50.8456 43.2422C51.4202 41.2198 51.2523 37.8411 49.0635 36.8301C47.5031 36.11 45.6547 36.7911 44.9346 38.3516C44.7324 38.79 44.6349 39.2695 44.65 39.7523Z" fill="#FF8B7B"/>
<path opacity="0.2" d="M48.1328 45.0594L48.1435 44.9471C48.1671 44.6988 48.3865 44.2303 48.6301 44.2835L49.5836 44.7852C49.1491 44.995 48.6499 45.0814 48.1328 45.0594Z" fill="#1A2E35"/>
<path d="M48.1871 44.4787L47.5687 47.8991L44.4199 47.4782L45.4389 43.957L48.1871 44.4787Z" fill="#FF8B7B"/>
<path d="M48.1144 46.4448L49.1811 45.8313C49.1811 45.8313 45.772 44.7188 44.3063 45.1435C42.8407 45.568 43.4775 46.2461 43.4775 46.2461L48.1144 46.4448Z" fill="#027DC0"/>
<path opacity="0.3" d="M48.1144 46.4448L49.1811 45.8313C49.1811 45.8313 45.772 44.7188 44.3063 45.1435C42.8407 45.568 43.4775 46.2461 43.4775 46.2461L48.1144 46.4448Z" fill="black"/>
<path d="M44.2508 51.2402C44.2508 51.2402 45.7409 56.9107 46.3182 57.4625C46.6889 57.8171 53.1605 57.0682 53.1605 57.0682L54.9596 56.435C55.2637 56.3279 55.6005 56.3928 55.8454 56.6021C56.3932 57.0699 57.3006 57.9165 57.3308 58.4141C57.3426 58.6086 57.0773 59.004 56.8896 59.0564C56.5189 59.1599 55.4862 58.4226 55.4862 58.4226L53.1383 58.6289C53.1383 58.6289 47.304 60.3828 45.5948 60.2157C43.6102 60.0214 41.7832 52.8703 41.7832 52.8703L44.2508 51.2402Z" fill="#FF8B7B"/>
<path opacity="0.1" d="M44.2508 51.2402C44.2508 51.2402 45.7409 56.9107 46.3182 57.4625C46.6889 57.8171 53.1605 57.0682 53.1605 57.0682L54.9596 56.435C55.2637 56.3279 55.6005 56.3928 55.8454 56.6021C56.3932 57.0699 57.3006 57.9165 57.3308 58.4141C57.3426 58.6086 57.0773 59.004 56.8896 59.0564C56.5189 59.1599 55.4862 58.4226 55.4862 58.4226L53.1383 58.6289C53.1383 58.6289 47.304 60.3828 45.5948 60.2157C43.6102 60.0214 41.7832 52.8703 41.7832 52.8703L44.2508 51.2402Z" fill="black"/>
<path d="M41.9671 47.0664C41.9671 47.0664 43.6531 47.2645 44.9052 52.8684C44.9052 52.8684 43.3528 53.2851 42.1017 54.4392C42.1017 54.4392 41.1005 51.8814 41.0029 50.4846C40.8728 48.6224 41.9671 47.0664 41.9671 47.0664Z" fill="#027DC0"/>
<path opacity="0.3" d="M41.9671 47.0664C41.9671 47.0664 43.6531 47.2645 44.9052 52.8684C44.9052 52.8684 43.3528 53.2851 42.1017 54.4392C42.1017 54.4392 41.1005 51.8814 41.0029 50.4846C40.8728 48.6224 41.9671 47.0664 41.9671 47.0664Z" fill="black"/>
<path d="M51.1375 48.0314C51.1375 48.0314 49.3146 60.7696 49.1047 67.3766C49.1047 67.3766 44.9443 67.8586 37.8729 67.9652C37.8729 67.9652 36.7936 47.3738 43.4765 46.2474C49.7095 45.1963 51.1375 48.0314 51.1375 48.0314Z" fill="#027DC0"/>
<path opacity="0.3" d="M51.1381 48.0314C51.1381 48.0314 49.4229 58.8947 49.213 65.5016C49.213 65.5016 45.1172 65.395 38.0461 65.5016C38.0461 65.5016 36.7942 47.3741 43.4768 46.2474C49.71 45.1963 51.1381 48.0314 51.1381 48.0314Z" fill="black"/>
<path opacity="0.2" d="M49.3587 49.2441L50.6766 51.429C50.5399 52.4738 50.384 53.7002 50.2245 55.022C48.772 51.9222 49.0107 49.2625 49.0107 49.2625L49.3587 49.2441Z" fill="black"/>
<path d="M51.4976 48.5078C51.4976 48.5078 54.2101 54.4761 54.8941 54.9646C55.3333 55.2784 60.4576 54.7704 60.4576 54.7704C60.4576 54.7704 62.0786 53.5231 62.7096 53.5941C63.4582 53.6782 64.8523 54.8098 65.0044 55.5477C65.0458 55.7485 64.8287 56.2004 64.6411 56.2831C64.2703 56.4467 63.4889 55.8433 63.0836 55.8332C62.4636 55.8173 61.2681 56.242 60.6681 56.4001C58.729 56.9106 56.3583 57.8603 54.5524 57.9419C52.4555 58.037 49.1699 50.5765 49.1699 50.5765L51.4976 48.5078Z" fill="#FF8B7B"/>
<path d="M49.5921 46.7207C49.5921 46.7207 51.378 46.6618 53.5621 52.2977C53.5621 52.2977 52.0118 52.9756 50.8911 54.3735C50.8911 54.3735 49.4469 51.8686 49.1257 50.4301C48.6978 48.5124 49.5921 46.7207 49.5921 46.7207Z" fill="#027DC0"/>
<path opacity="0.3" d="M49.5921 46.7207C49.5921 46.7207 51.378 46.6618 53.5621 52.2977C53.5621 52.2977 52.0118 52.9756 50.8911 54.3735C50.8911 54.3735 49.4469 51.8686 49.1257 50.4301C48.6978 48.5124 49.5921 46.7207 49.5921 46.7207Z" fill="black"/>
<path d="M47.5433 44.3579C47.5433 44.3579 49.0136 43.3003 49.1796 41.3302C49.1796 41.3302 49.441 40.6269 49.5558 39.9758C49.6707 39.3251 49.5832 37.8397 49.5832 37.8397C49.5832 37.8397 50.3017 37.9181 50.3003 37.2084C50.3003 37.2084 50.5559 36.039 49.8277 35.234C49.0994 34.429 48.5664 35.7727 48.5664 35.7727C48.5664 35.7727 47.9488 34.2413 47.2668 34.4755C46.5849 34.7095 46.6446 35.6628 46.6446 35.6628C46.6446 35.6628 45.002 34.7926 44.6428 35.5058C44.2833 36.219 45.1176 36.656 45.1176 36.656C45.1176 36.656 43.256 36.5703 43.4232 37.355C43.5903 38.1398 44.2438 38.1 44.2438 38.1C44.2438 38.1 43.2911 38.106 43.2336 38.9026C43.176 39.6991 43.9372 39.3618 44.046 40.3479C44.1433 41.2321 44.3581 42.5884 45.094 43.7885C45.2387 44.0244 45.4976 44.1716 45.7744 44.1667C46.1311 44.1601 46.7224 44.1891 47.5433 44.3579Z" fill="#263238"/>
<path d="M49.3355 40.4196C49.5004 40.855 49.4848 41.3383 49.2925 41.7625C49.033 42.3231 48.7277 42.1921 48.4047 41.706C48.1118 41.2657 47.8989 40.4467 48.3507 40.0418C48.8023 39.6368 49.1278 39.8894 49.3355 40.4196Z" fill="#FF8B7B"/>
<path d="M48.4387 36.7128C48.1233 36.0418 47.6345 35.1905 46.9029 34.7422C46.9029 34.7422 46.0196 35.3609 45.9365 35.3795C45.896 35.339 47.1161 36.3684 47.423 37.1394C47.9526 38.4598 47.9836 40.1003 47.9836 40.1003L49.0267 39.8569C49.0267 39.8569 49.1514 38.2077 48.4387 36.7128Z" fill="#027DC0"/>
<g opacity="0.3">
<path d="M48.4387 36.7128C48.1233 36.0418 47.6345 35.1905 46.9029 34.7422C46.9029 34.7422 46.0196 35.3609 45.9365 35.3795C45.896 35.339 47.1161 36.3684 47.423 37.1394C47.9526 38.4598 47.9836 40.1003 47.9836 40.1003L49.0267 39.8569C49.0267 39.8569 49.1514 38.2077 48.4387 36.7128Z" fill="black"/>
</g>
<path d="M49.6807 39.0728C50.5885 39.6699 50.8406 40.8897 50.2438 41.7975C49.6467 42.7052 48.4269 42.9573 47.5191 42.3605C47.0117 42.0698 46.5763 40.8557 47.1739 39.9504C47.7723 39.0421 48.7773 38.4788 49.6807 39.0728Z" fill="#027DC0"/>
<path opacity="0.3" d="M49.9267 39.7471C50.4638 40.1168 50.5279 40.976 50.0654 41.6761C49.6029 42.3762 48.7927 42.6576 48.251 42.3019C47.7093 41.9463 47.8128 41.0626 48.2726 40.3614C48.7266 39.6586 49.39 39.3775 49.9267 39.7471Z" fill="black"/>
<path d="M48.0078 41.0639L50.3283 40.7773L50.1941 41.0971L48.1571 41.3779L48.0078 41.0639Z" fill="#263238"/>
<path d="M35.0711 92.8988C36.8875 92.6002 39.5812 92.1777 40.7808 92.0892C41.0441 92.0697 41.3745 92.0552 41.7384 92.0456V82.7285H44.0197V92.0456C44.3833 92.0552 44.7138 92.0697 44.9771 92.0892C46.1769 92.1777 48.8703 92.6002 50.6867 92.8988C51.7331 93.0709 52.4995 93.9754 52.4995 95.0358V95.5065H50.2869L49.9896 94.8442C49.9896 94.8442 45.8309 94.1239 44.4293 94.0206C43.6561 93.9636 42.1009 93.9636 41.3277 94.0206C39.9261 94.1239 35.7677 94.8442 35.7677 94.8442L35.4704 95.5065H33.2578V95.0358C33.2584 93.9754 34.0247 93.0709 35.0711 92.8988Z" fill="#263238"/>
<path d="M32.625 97.066C32.625 97.9277 33.3234 98.6262 34.1852 98.6262C35.0469 98.6262 35.7453 97.9277 35.7453 97.066C35.7453 96.2043 35.0469 95.5059 34.1852 95.5059C33.3234 95.5059 32.625 96.2046 32.625 97.066Z" fill="#263238"/>
<path opacity="0.5" d="M33.4043 97.0652C33.4043 97.496 33.7536 97.8453 34.1844 97.8453C34.6151 97.8453 34.9645 97.496 34.9645 97.0652C34.9645 96.6345 34.6151 96.2852 34.1844 96.2852C33.7536 96.2852 33.4043 96.6345 33.4043 97.0652Z" fill="white"/>
<path d="M50.0117 97.066C50.0117 97.9277 50.7101 98.6262 51.5719 98.6262C52.4336 98.6262 53.132 97.9277 53.132 97.066C53.132 96.2043 52.4336 95.5059 51.5719 95.5059C50.7101 95.5059 50.0117 96.2046 50.0117 97.066Z" fill="#263238"/>
<path opacity="0.5" d="M50.793 97.0652C50.793 97.496 51.1423 97.8453 51.573 97.8453C52.0038 97.8453 52.3531 97.496 52.3531 97.0652C52.3531 96.6345 52.0038 96.2852 51.573 96.2852C51.1423 96.2852 50.793 96.6345 50.793 97.0652Z" fill="white"/>
<path opacity="0.1" d="M44.0196 82.7285H41.7383V85.5356H44.0196V82.7285Z" fill="black"/>
<path d="M42.0237 84.0657H43.7326C44.2721 84.0657 44.7097 83.6284 44.7097 83.0886V75.1309H41.0469V83.0886C41.0466 83.6284 41.4842 84.0657 42.0237 84.0657Z" fill="#263238"/>
<path opacity="0.3" d="M42.0237 84.0657H43.7326C44.2721 84.0657 44.7097 83.6284 44.7097 83.0886V75.1309H41.0469V83.0886C41.0466 83.6284 41.4842 84.0657 42.0237 84.0657Z" fill="white"/>
<path opacity="0.2" d="M44.7097 75.1309H41.0469V77.3053H44.7097V75.1309Z" fill="black"/>
<path d="M30.4944 73.2766C32.6798 72.7192 34.9253 72.4129 37.177 72.3565C39.4975 72.2984 48.1836 72.3477 50.2465 72.3469C52.7575 72.3458 55.2681 72.6554 57.7043 73.2766C59.2356 73.667 58.7635 75.8771 57.3804 75.9026C57.2582 75.9048 31.0005 75.8968 30.904 75.9012C29.4573 75.967 28.9293 73.6755 30.4944 73.2766Z" fill="#263238"/>
<path d="M26.1485 54.3078C26.8124 54.3078 27.3708 53.81 27.4465 53.1505L27.775 50.2902C27.8509 49.6307 28.409 49.1328 29.0729 49.1328H31.1531H32.5135H34.5938C35.2026 49.1328 35.7309 49.5534 35.8673 50.1469L36.5901 53.294C36.7263 53.8875 37.2546 54.3081 37.8634 54.3081H38.2895C38.9531 54.3081 39.5115 54.8057 39.5874 55.4649L41.6635 73.4692C41.7528 74.2449 41.1465 74.9255 40.3656 74.9255H38.2854H30.3048H28.2246C27.561 74.9255 27.0029 74.4279 26.9267 73.7687L24.8506 55.7642C24.761 54.9885 25.3676 54.3078 26.1485 54.3078Z" fill="#263238"/>
<path opacity="0.3" d="M26.1485 54.3078C26.8124 54.3078 27.3708 53.81 27.4465 53.1505L27.775 50.2902C27.8509 49.6307 28.409 49.1328 29.0729 49.1328H31.1531H32.5135H34.5938C35.2026 49.1328 35.7309 49.5534 35.8673 50.1469L36.5901 53.294C36.7263 53.8875 37.2546 54.3081 37.8634 54.3081H38.2895C38.9531 54.3081 39.5115 54.8057 39.5874 55.4649L41.6635 73.4692C41.7528 74.2449 41.1465 74.9255 40.3656 74.9255H38.2854H30.3048H28.2246C27.561 74.9255 27.0029 74.4279 26.9267 73.7687L24.8506 55.7642C24.761 54.9885 25.3676 54.3078 26.1485 54.3078Z" fill="white"/>
<path d="M27.4464 53.1505L27.7749 50.2902C27.8508 49.6307 28.409 49.1328 29.0729 49.1328H32.5135C33.1223 49.1328 33.6506 49.5534 33.7868 50.1469L34.5096 53.294C34.6458 53.8875 35.174 54.3081 35.7829 54.3081H36.2089C36.8726 54.3081 37.4307 54.8057 37.5069 55.4649L39.583 73.4692C39.6723 74.2449 39.0659 74.9255 38.285 74.9255H28.2243C27.5607 74.9255 27.0025 74.4279 26.9264 73.7687L24.8505 55.7642C24.7612 54.9885 25.3676 54.3081 26.1485 54.3081C26.8124 54.3079 27.3708 53.81 27.4464 53.1505Z" fill="#263238"/>
<path opacity="0.1" d="M27.4464 53.1505L27.7749 50.2902C27.8508 49.6307 28.409 49.1328 29.0729 49.1328H32.5135C33.1223 49.1328 33.6506 49.5534 33.7868 50.1469L34.5096 53.294C34.6458 53.8875 35.174 54.3081 35.7829 54.3081H36.2089C36.8726 54.3081 37.4307 54.8057 37.5069 55.4649L39.583 73.4692C39.6723 74.2449 39.0659 74.9255 38.285 74.9255H28.2243C27.5607 74.9255 27.0025 74.4279 26.9264 73.7687L24.8505 55.7642C24.7612 54.9885 25.3676 54.3081 26.1485 54.3081C26.8124 54.3079 27.3708 53.81 27.4464 53.1505Z" fill="white"/>
<path opacity="0.3" d="M56.994 75.8544C52.5832 74.7296 47.9112 74.7296 43.5003 75.8544C41.8317 76.2799 41.1201 73.7013 42.7893 73.2755C47.6613 72.0332 52.8331 72.0332 57.705 73.2755C59.3718 73.7005 58.6654 76.2804 56.994 75.8544Z" fill="white"/>
<path d="M50.0123 74.9259C50.3405 74.9259 50.6066 74.6598 50.6066 74.3316V67.4966C50.6066 67.1684 50.3405 66.9023 50.0123 66.9023C49.684 66.9023 49.418 67.1684 49.418 67.4966V74.3316C49.418 74.6598 49.684 74.9259 50.0123 74.9259Z" fill="#263238"/>
<path opacity="0.5" d="M50.0123 74.9259C50.3405 74.9259 50.6066 74.6598 50.6066 74.3316V67.4966C50.6066 67.1684 50.3405 66.9023 50.0123 66.9023C49.684 66.9023 49.418 67.1684 49.418 67.4966V74.3316C49.418 74.6598 49.684 74.9259 50.0123 74.9259Z" fill="white"/>
<path opacity="0.2" d="M50.0123 66.9023C50.3405 66.9023 50.6066 67.1684 50.6066 67.4966V69.2664H49.418V67.4966C49.418 67.1684 49.684 66.9023 50.0123 66.9023Z" fill="black"/>
<path d="M56.3153 68.2439C51.6184 68.2439 48.4077 68.2439 43.7108 68.2439C42.5635 68.2439 42.5616 66.4609 43.7108 66.4609C48.4077 66.4609 51.6187 66.4609 56.3153 66.4609C57.4625 66.4609 57.4645 68.2439 56.3153 68.2439Z" fill="#263238"/>
<g opacity="0.1">
<path d="M56.3153 68.2439C51.6184 68.2439 48.4077 68.2439 43.7108 68.2439C42.5635 68.2439 42.5616 66.4609 43.7108 66.4609C48.4077 66.4609 51.6187 66.4609 56.3153 66.4609C57.4625 66.4609 57.4645 68.2439 56.3153 68.2439Z" fill="white"/>
</g>
<path d="M56.3152 68.2439C51.6183 68.2439 50.4875 68.2439 45.7908 68.2439C44.6436 68.2439 44.6417 66.4609 45.7908 66.4609C50.4877 66.4609 51.6185 66.4609 56.3152 66.4609C57.4624 66.4609 57.4643 68.2439 56.3152 68.2439Z" fill="#263238"/>
<g opacity="0.3">
<path d="M56.3152 68.2439C51.6183 68.2439 50.4875 68.2439 45.7908 68.2439C44.6436 68.2439 44.6417 66.4609 45.7908 66.4609C50.4877 66.4609 51.6185 66.4609 56.3152 66.4609C57.4624 66.4609 57.4643 68.2439 56.3152 68.2439Z" fill="white"/>
</g>
<path opacity="0.1" d="M42.1743 92.4844H43.5808L44.6497 94.0401C44.5707 94.0325 44.4954 94.0259 44.4283 94.021C43.655 93.964 42.0998 93.964 41.3266 94.021C41.2595 94.0259 41.1844 94.0328 41.1055 94.0401L42.1743 92.4844Z" fill="black"/>
<path d="M41.2871 97.066C41.2871 97.9277 41.9855 98.6262 42.8473 98.6262C43.709 98.6262 44.4074 97.9277 44.4074 97.066C44.4074 96.2043 43.709 95.5059 42.8473 95.5059C41.9855 95.5059 41.2871 96.2046 41.2871 97.066Z" fill="#263238"/>
<path opacity="0.5" d="M42.0684 97.0652C42.0684 97.496 42.4174 97.8453 42.8484 97.8453C43.2792 97.8453 43.6285 97.496 43.6285 97.0652C43.6285 96.6345 43.2792 96.2852 42.8484 96.2852C42.4177 96.2852 42.0684 96.6345 42.0684 97.0652Z" fill="white"/>
<path d="M42.1762 95.3749H43.5824L43.8797 92.1855H41.8789L42.1762 95.3749Z" fill="#263238"/>
<path opacity="0.2" d="M42.1762 95.3749H43.5824L43.8797 92.1855H41.8789L42.1762 95.3749Z" fill="white"/>
</svg>
