<svg width="64" height="51" viewBox="0 0 64 51" fill="none" xmlns="http://www.w3.org/2000/svg">
<path d="M46.7694 41.3792L45 22H64L62.2727 41.3792L54.5211 43.5698" fill="#264DE4"/>
<path d="M54.5215 23.5586V41.8845L60.7986 40.1573L62.2731 23.5586" fill="#2965F1"/>
<path d="M48.5371 25.9609H54.5194V28.3201H48.7478M48.9584 30.7636H54.5194V33.1649H49.169M49.2954 34.3445H51.6546L51.8231 36.2403L54.5194 36.9565V39.4421L49.5903 38.094" fill="#EBEBEB"/>
<path d="M54.5215 30.7636V33.1649H57.4284L57.1335 36.2403L54.5215 36.9565V39.4421L59.3663 38.094L60.4616 25.9609H54.5215V28.3201H57.8918L57.6601 30.7636H54.5215Z" fill="white"/>
<path d="M33.1982 23C32.8879 23.0001 32.5831 22.9185 32.3143 22.7634L29.5017 21.0984C29.0819 20.8634 29.2865 20.7805 29.4253 20.732C29.8717 20.5941 30.2992 20.4009 30.6977 20.157C30.7311 20.1416 30.7678 20.1349 30.8045 20.1376C30.8411 20.1404 30.8765 20.1524 30.9072 20.1726L33.0684 21.4565C33.1086 21.4778 33.1535 21.4889 33.199 21.4889C33.2445 21.4889 33.2894 21.4778 33.3296 21.4565L41.7576 16.5919C41.797 16.5683 41.8296 16.5348 41.8523 16.4948C41.8749 16.4548 41.8867 16.4096 41.8866 16.3636V6.63281C41.8866 6.5861 41.8746 6.54018 41.8517 6.49946C41.8288 6.45875 41.7958 6.42461 41.7559 6.40034L33.328 1.53988C33.2882 1.5175 33.2434 1.50574 33.1978 1.50574C33.1522 1.50574 33.1073 1.5175 33.0676 1.53988L24.6445 6.40198C24.6044 6.42574 24.571 6.45948 24.5477 6.49992C24.5244 6.54036 24.5119 6.58613 24.5115 6.63281V16.3595C24.5116 16.4053 24.5239 16.4504 24.5471 16.4899C24.5704 16.5295 24.6037 16.5621 24.6437 16.5846L26.9552 17.9186C28.2079 18.5445 28.9752 17.8069 28.9752 17.0659V7.46246C28.9752 7.3971 29.0011 7.33442 29.0473 7.28821C29.0936 7.24199 29.1562 7.21603 29.2216 7.21603H30.2895C30.3548 7.21603 30.4175 7.24199 30.4637 7.28821C30.5099 7.33442 30.5359 7.3971 30.5359 7.46246V17.0667C30.5359 18.7384 29.6257 19.6953 28.0404 19.6953C27.3564 19.7073 26.6832 19.5244 26.0993 19.168L23.8839 17.8972C23.6149 17.7406 23.3918 17.5162 23.2367 17.2463C23.0816 16.9765 23 16.6707 23 16.3595V6.63281C22.9992 6.3211 23.0805 6.01466 23.2356 5.7443C23.3908 5.47395 23.6143 5.24918 23.8839 5.09261L32.3127 0.226398C32.5842 0.077855 32.8887 0 33.1982 0C33.5077 0 33.8122 0.077855 34.0837 0.226398L42.5117 5.09261C42.7806 5.24892 43.0038 5.47303 43.159 5.74257C43.3143 6.01211 43.3961 6.31765 43.3964 6.6287V16.3595C43.3959 16.6707 43.314 16.9764 43.1588 17.2462C43.0036 17.5159 42.7805 17.7404 42.5117 17.8972L34.0837 22.7634C33.8145 22.9188 33.509 23.0004 33.1982 23Z" fill="#83CD29"/>
<path d="M31.6016 13.104C31.6016 13.0386 31.6275 12.9759 31.6737 12.9297C31.72 12.8835 31.7826 12.8575 31.848 12.8575H32.938C32.9963 12.8577 33.0526 12.8785 33.0969 12.9163C33.1413 12.954 33.1709 13.0063 33.1804 13.0637C33.3447 14.1735 33.8375 14.7329 36.0661 14.7329C37.8412 14.7329 38.5978 14.3312 38.5978 13.389C38.5978 12.846 38.3834 12.4427 35.6242 12.1725C33.3176 11.9441 31.8915 11.4332 31.8915 9.58986C31.8915 7.88948 33.3249 6.875 35.7277 6.875C38.4277 6.875 39.7642 7.81226 39.9334 9.82315C39.936 9.85672 39.9317 9.89047 39.9207 9.9223C39.9098 9.95414 39.8924 9.98339 39.8697 10.0083C39.847 10.0331 39.8194 10.0531 39.7887 10.0669C39.758 10.0807 39.7248 10.088 39.6911 10.0885H38.5937C38.5386 10.0877 38.4854 10.0685 38.4425 10.034C38.3996 9.99943 38.3696 9.95153 38.3571 9.8979C38.095 8.73063 37.4535 8.3577 35.7285 8.3577C33.7899 8.3577 33.5648 9.03292 33.5648 9.53893C33.5648 10.1517 33.831 10.3308 36.4481 10.6766C39.0381 11.0192 40.2686 11.5038 40.2686 13.3241C40.2686 15.1609 38.7374 16.2123 36.0669 16.2123C32.3745 16.2172 31.6016 14.5242 31.6016 13.104Z" fill="#83CD29"/>
<path d="M1.61905 41.2381L0 21H19.4286L17.8095 41.2381L9.71429 43.6667L1.61905 41.2381Z" fill="#E44D26"/>
<path d="M17.8101 22.6191H9.71484V42.4525L16.191 40.4287L17.8101 22.6191Z" fill="#F16529"/>
<path d="M4.4521 32.7393L3.64258 25.0488H16.1902L15.7854 27.4774H6.07115L6.47591 30.3107H15.3807L14.5711 38.0012L9.71401 39.6203L4.85686 38.0012L4.4521 33.9536H6.88067L7.28544 35.9774L9.71401 36.7869L12.1426 35.9774L12.5473 32.7393H4.4521Z" fill="white"/>
<path d="M39.2662 38.0558C39.0484 37.9809 38.8226 37.9099 38.5902 37.8428C38.6284 37.6869 38.6635 37.533 38.6946 37.3817C39.2064 34.8977 38.8718 32.8966 37.7293 32.2378C36.6337 31.606 34.8421 32.2647 33.0326 33.8395C32.8586 33.9909 32.6841 34.1512 32.5097 34.3192C32.3935 34.2081 32.2775 34.1006 32.1618 33.9979C30.2654 32.3141 28.3645 31.6045 27.2231 32.2652C26.1287 32.8988 25.8045 34.7801 26.2652 37.1342C26.3097 37.3616 26.3617 37.5938 26.4205 37.8298C26.1514 37.9062 25.8917 37.9876 25.6432 38.0742C23.4199 38.8494 22 40.0642 22 41.3243C22 42.6258 23.5243 43.9312 25.84 44.7227C26.0228 44.7851 26.2124 44.8442 26.4078 44.9003C26.3444 45.1556 26.2892 45.4058 26.2429 45.6499C25.8037 47.9631 26.1467 49.7999 27.2382 50.4295C28.3657 51.0797 30.258 50.4114 32.1005 48.8008C32.2462 48.6734 32.3923 48.5384 32.5387 48.3969C32.7285 48.5797 32.918 48.7526 33.1064 48.9148C34.8912 50.4507 36.6539 51.0708 37.7444 50.4395C38.8708 49.7874 39.2369 47.8143 38.7616 45.4136C38.7253 45.2302 38.6831 45.0429 38.6357 44.8523C38.7685 44.813 38.899 44.7725 39.0262 44.7303C41.4336 43.9326 43 42.6432 43 41.3243C43 40.0597 41.5343 38.8366 39.2662 38.0558ZM38.7441 43.8787C38.6292 43.9168 38.5114 43.9535 38.3913 43.9891C38.1256 43.1477 37.7669 42.2531 37.3279 41.3287C37.7468 40.4264 38.0916 39.5431 38.35 38.7072C38.5648 38.7693 38.7733 38.8349 38.9742 38.9041C40.9175 39.5731 42.1029 40.5622 42.1029 41.3243C42.1029 42.1361 40.8227 43.19 38.7441 43.8787ZM37.8816 45.5878C38.0917 46.6494 38.1217 47.6091 37.9825 48.3594C37.8574 49.0336 37.6059 49.4831 37.2949 49.6631C36.6331 50.0462 35.2178 49.5482 33.6915 48.2348C33.5165 48.0842 33.3403 47.9235 33.1635 47.7533C33.7552 47.1061 34.3466 46.3538 34.9238 45.5183C35.939 45.4282 36.8981 45.2809 37.7679 45.0798C37.8107 45.2526 37.8488 45.4221 37.8816 45.5878ZM29.1594 49.5969C28.5128 49.8253 27.9978 49.8318 27.6865 49.6523C27.0241 49.2702 26.7487 47.7955 27.1243 45.8172C27.1674 45.5906 27.2186 45.3579 27.2776 45.12C28.1379 45.3102 29.09 45.4471 30.1076 45.5296C30.6887 46.3472 31.2971 47.0987 31.9103 47.7568C31.7763 47.8861 31.6429 48.0092 31.5102 48.1253C30.6954 48.8375 29.8789 49.3428 29.1594 49.5969ZM26.1302 43.8738C25.1062 43.5238 24.2605 43.0689 23.6809 42.5725C23.16 42.1265 22.8971 41.6837 22.8971 41.3243C22.8971 40.5596 24.0371 39.5843 25.9385 38.9214C26.1692 38.8409 26.4107 38.7651 26.6614 38.6939C26.9241 39.5487 27.2689 40.4424 27.6849 41.3462C27.2635 42.2633 26.9139 43.1713 26.6485 44.0361C26.4698 43.9847 26.2967 43.9307 26.1302 43.8738ZM27.1456 36.9619C26.7509 34.945 27.013 33.4235 27.6726 33.0417C28.3751 32.6349 29.9287 33.2148 31.5661 34.6687C31.6707 34.7616 31.7758 34.8589 31.8812 34.9595C31.271 35.6147 30.6681 36.3606 30.0922 37.1733C29.1046 37.2649 28.1592 37.4119 27.2899 37.6089C27.2353 37.389 27.1869 37.173 27.1456 36.9619ZM36.204 39.1987C35.9962 38.8397 35.7829 38.4893 35.5654 38.1484C36.2355 38.2331 36.8774 38.3456 37.4803 38.4832C37.2993 39.0632 37.0737 39.6697 36.8082 40.2915C36.6177 39.9298 36.4162 39.5652 36.204 39.1987ZM32.51 35.6007C32.9238 36.049 33.3382 36.5495 33.7458 37.0925C33.3351 37.0731 32.9193 37.063 32.5 37.063C32.0847 37.063 31.672 37.0729 31.2638 37.092C31.6718 36.554 32.0898 36.0541 32.51 35.6007ZM28.7923 39.2049C28.5848 39.5648 28.387 39.9274 28.1995 40.2908C27.9383 39.6712 27.7148 39.062 27.5322 38.4737C28.1314 38.3396 28.7703 38.23 29.4361 38.1469C29.2156 38.4909 29.0005 38.844 28.7923 39.2049ZM29.4553 44.5658C28.7674 44.489 28.1189 44.3851 27.5199 44.2547C27.7053 43.6559 27.9338 43.0336 28.2005 42.4007C28.3885 42.7638 28.5871 43.1266 28.7959 43.4873C29.0086 43.8548 29.2291 44.2148 29.4553 44.5658ZM32.5348 47.1112C32.1096 46.6525 31.6855 46.145 31.2713 45.5991C31.6734 45.6149 32.0834 45.623 32.5 45.623C32.928 45.623 33.3512 45.6134 33.7677 45.5948C33.3587 46.1505 32.9458 46.6587 32.5348 47.1112ZM36.8167 42.3685C37.0974 43.0082 37.334 43.6272 37.5219 44.2158C36.913 44.3547 36.2556 44.4666 35.563 44.5497C35.781 44.2042 35.9962 43.8478 36.2076 43.4811C36.4215 43.1102 36.6247 42.7387 36.8167 42.3685ZM35.4305 43.033C35.1023 43.6021 34.7652 44.1455 34.4231 44.6584C33.8 44.7029 33.1562 44.7259 32.5 44.7259C31.8465 44.7259 31.2108 44.7056 30.5987 44.6658C30.2428 44.1462 29.8984 43.6013 29.5722 43.0379C29.2469 42.476 28.9476 41.9093 28.6763 41.3459C28.9475 40.7811 29.2461 40.2138 29.5696 39.6529L29.5695 39.653C29.8938 39.0907 30.2351 38.5484 30.5878 38.032C31.2123 37.9848 31.8527 37.9602 32.5 37.9602C33.1501 37.9602 33.7914 37.985 34.4157 38.0326C34.763 38.5452 35.102 39.0857 35.4276 39.6482C35.7569 40.217 36.0593 40.7805 36.3329 41.3331C36.0602 41.8953 35.7584 42.4644 35.4305 43.033ZM37.2812 33.015C37.9844 33.4205 38.2579 35.056 37.816 37.2007C37.7878 37.3375 37.7561 37.4769 37.7216 37.6182C36.8504 37.4171 35.9043 37.2675 34.9138 37.1746C34.3368 36.3529 33.7388 35.6059 33.1386 34.9591C33.3 34.8039 33.4611 34.6559 33.6216 34.5162C35.1719 33.167 36.621 32.6343 37.2812 33.015ZM32.5 39.4491C33.5356 39.4491 34.3752 40.2886 34.3752 41.3243C34.3752 42.36 33.5356 43.1996 32.5 43.1996C31.4644 43.1996 30.6248 42.36 30.6248 41.3243C30.6248 40.2886 31.4644 39.4491 32.5 39.4491Z" fill="#00D8FF"/>
</svg>
