<svg width="151" height="134" viewBox="0 0 151 134" fill="none" xmlns="http://www.w3.org/2000/svg">
<g opacity="0.45">
<path d="M117.394 133.42C133.098 133.42 145.828 120.689 145.828 104.985C145.828 89.2814 133.098 76.5508 117.394 76.5508C101.69 76.5508 88.959 89.2814 88.959 104.985C88.959 120.689 101.69 133.42 117.394 133.42Z" fill="#EBFBFF"/>
<path d="M54.6653 96.8853C81.4098 96.8853 103.09 75.2047 103.09 48.4602C103.09 21.7158 81.4098 0.0351562 54.6653 0.0351562C27.9209 0.0351562 6.24023 21.7158 6.24023 48.4602C6.24023 75.2047 27.9209 96.8853 54.6653 96.8853Z" fill="#EBFBFF"/>
</g>
<path d="M143.042 43.6083L141.597 44.9318C141.548 44.9759 141.506 45.0239 141.468 45.0738C140.55 44.4338 139.54 43.974 138.49 43.6966C138.503 43.6335 138.514 43.569 138.516 43.5029L138.593 41.5445C138.617 40.9351 138.14 40.4199 137.531 40.3961L135.573 40.3192C134.964 40.2954 134.448 40.7718 134.424 41.3811L134.347 43.3395C134.345 43.4053 134.35 43.4701 134.359 43.5339C133.319 43.7228 132.303 44.0874 131.358 44.6292C131.324 44.5761 131.286 44.5248 131.243 44.4765L129.919 43.031C129.507 42.5812 128.806 42.5502 128.356 42.9621L126.911 44.2856C126.461 44.6975 126.43 45.3985 126.842 45.8483L128.166 47.2938C128.21 47.3417 128.258 47.3841 128.308 47.4227C127.668 48.3409 127.208 49.3504 126.931 50.4009C126.868 50.3871 126.803 50.3768 126.737 50.3744L124.779 50.2975C124.486 50.2858 124.205 50.3885 123.989 50.5867C123.987 50.5877 123.986 50.5891 123.985 50.5905C123.768 50.7911 123.642 51.0641 123.63 51.3594L123.554 53.3178C123.53 53.9272 124.006 54.4424 124.616 54.4662L126.574 54.5431C126.64 54.5458 126.705 54.54 126.768 54.531C126.957 55.5716 127.322 56.5873 127.864 57.5317C127.811 57.5654 127.759 57.6034 127.711 57.6475L126.265 58.971C125.816 59.3828 125.785 60.0839 126.197 60.5337L127.52 61.9792C127.932 62.429 128.633 62.46 129.083 62.0478L130.529 60.7243C130.577 60.6801 130.619 60.6322 130.657 60.5823C131.576 61.2227 132.585 61.6824 133.636 61.9599C133.623 62.0226 133.612 62.0867 133.609 62.1532L133.532 64.1116C133.521 64.407 133.625 64.6889 133.825 64.9057C134.026 65.1229 134.299 65.2487 134.594 65.26L136.552 65.3369C136.855 65.3486 137.134 65.2369 137.342 65.047C137.552 64.8547 137.689 64.5817 137.701 64.275L137.778 62.3166C137.781 62.2504 137.775 62.1856 137.766 62.1222C138.806 61.9333 139.822 61.5687 140.766 61.0269C140.801 61.08 140.838 61.1317 140.883 61.1796L142.206 62.6251C142.618 63.0749 143.319 63.1059 143.769 62.694L145.214 61.3705C145.664 60.9586 145.695 60.2576 145.283 59.8078L143.959 58.3623C143.915 58.314 143.867 58.272 143.817 58.2334C144.458 57.3152 144.917 56.3053 145.195 55.2545C145.258 55.2683 145.322 55.2789 145.388 55.2817L147.347 55.3586C147.65 55.3703 147.929 55.2586 148.137 55.0687C148.347 54.8764 148.483 54.6034 148.495 54.2967L148.572 52.3383C148.596 51.7289 148.12 51.2136 147.51 51.1899L145.552 51.113C145.486 51.1103 145.421 51.1154 145.357 51.124C145.168 50.0838 144.804 49.0685 144.262 48.1241C144.315 48.0903 144.367 48.0524 144.415 48.0083L145.86 46.6848C146.31 46.2729 146.341 45.5719 145.929 45.1221L144.605 43.6766C144.193 43.2271 143.492 43.1965 143.042 43.6083ZM139.57 56.6593C137.458 58.5936 134.165 58.4488 132.231 56.3364C130.297 54.2239 130.441 50.9317 132.554 48.9971C134.666 47.0629 137.958 47.2076 139.893 49.3201C141.827 51.4329 141.682 54.7251 139.57 56.6593Z" stroke="#027DC0" stroke-width="0.344663" stroke-miterlimit="10"/>
<path d="M28.7796 119.55H28.0179C27.8773 119.55 27.7632 119.435 27.7632 119.295C27.7632 119.154 27.8773 119.04 28.0179 119.04H28.7796C28.9202 119.04 29.0343 119.154 29.0343 119.295C29.0343 119.435 28.9202 119.55 28.7796 119.55ZM26.3208 119.55H24.6233C24.4827 119.55 24.3686 119.435 24.3686 119.295C24.3686 119.154 24.4827 119.04 24.6233 119.04H26.3208C26.4614 119.04 26.5755 119.154 26.5755 119.295C26.5755 119.435 26.4614 119.55 26.3208 119.55ZM22.9259 119.55H21.2284C21.0878 119.55 20.9737 119.435 20.9737 119.295C20.9737 119.154 21.0878 119.04 21.2284 119.04H22.9259C23.0665 119.04 23.1806 119.154 23.1806 119.295C23.1806 119.435 23.0665 119.55 22.9259 119.55ZM19.5309 119.55H17.8335C17.6928 119.55 17.5788 119.435 17.5788 119.295C17.5788 119.154 17.6928 119.04 17.8335 119.04H19.5309C19.6716 119.04 19.7856 119.154 19.7856 119.295C19.7856 119.435 19.6716 119.55 19.5309 119.55ZM16.136 119.55H14.4385C14.2979 119.55 14.1838 119.435 14.1838 119.295C14.1838 119.154 14.2979 119.04 14.4385 119.04H16.136C16.2766 119.04 16.3907 119.154 16.3907 119.295C16.3907 119.435 16.2766 119.55 16.136 119.55ZM12.7411 119.55H11.0436C10.903 119.55 10.7889 119.435 10.7889 119.295C10.7889 119.154 10.903 119.04 11.0436 119.04H12.7411C12.8817 119.04 12.9958 119.154 12.9958 119.295C12.9958 119.435 12.8817 119.55 12.7411 119.55ZM9.34616 119.547C9.34374 119.547 9.34168 119.547 9.33926 119.547C8.74748 119.53 8.16293 119.434 7.60182 119.259C7.4674 119.218 7.39261 119.075 7.43431 118.94C7.47602 118.806 7.61733 118.731 7.75278 118.773C8.26978 118.934 8.80814 119.023 9.35339 119.038C9.49367 119.042 9.60465 119.159 9.60086 119.3C9.59707 119.437 9.48402 119.547 9.34616 119.547ZM6.14562 118.552C6.09806 118.552 6.05015 118.539 6.00741 118.511C5.51386 118.191 5.06476 117.804 4.67357 117.361C4.58085 117.256 4.59085 117.095 4.69597 117.002C4.80075 116.909 4.96171 116.918 5.05545 117.024C5.41597 117.432 5.82922 117.788 6.28452 118.083C6.40239 118.16 6.43617 118.318 6.35931 118.436C6.31071 118.511 6.22937 118.552 6.14562 118.552ZM3.92703 116.039C3.83225 116.039 3.74125 115.986 3.69714 115.895C3.44071 115.363 3.25804 114.799 3.15464 114.219C3.13017 114.081 3.22219 113.949 3.36075 113.924C3.49827 113.901 3.63131 113.991 3.65578 114.13C3.75091 114.664 3.9191 115.183 4.15588 115.673C4.21689 115.8 4.16381 115.952 4.03732 116.013C4.00182 116.031 3.96425 116.039 3.92703 116.039ZM3.30939 112.738C3.16877 112.738 3.05469 112.624 3.05469 112.483V110.786C3.05469 110.645 3.16877 110.531 3.30939 110.531C3.45001 110.531 3.5641 110.645 3.5641 110.786V112.483C3.5641 112.624 3.45001 112.738 3.30939 112.738ZM3.30939 109.343C3.16877 109.343 3.05469 109.229 3.05469 109.088V107.391C3.05469 107.25 3.16877 107.136 3.30939 107.136C3.45001 107.136 3.5641 107.25 3.5641 107.391V109.088C3.5641 109.229 3.45001 109.343 3.30939 109.343ZM3.30939 105.948C3.16877 105.948 3.05469 105.834 3.05469 105.693V103.996C3.05469 103.855 3.16877 103.741 3.30939 103.741C3.45001 103.741 3.5641 103.855 3.5641 103.996V105.693C3.5641 105.834 3.45001 105.948 3.30939 105.948ZM3.30939 102.553C3.16877 102.553 3.05469 102.439 3.05469 102.298V100.601C3.05469 100.46 3.16877 100.346 3.30939 100.346C3.45001 100.346 3.5641 100.46 3.5641 100.601V102.298C3.5641 102.439 3.45001 102.553 3.30939 102.553ZM3.30939 99.1582C3.16877 99.1582 3.05469 99.0442 3.05469 98.9035V97.2061C3.05469 97.0654 3.16877 96.9514 3.30939 96.9514C3.45001 96.9514 3.5641 97.0654 3.5641 97.2061V98.9035C3.5641 99.0442 3.45001 99.1582 3.30939 99.1582ZM3.30939 95.7633C3.16877 95.7633 3.05469 95.6492 3.05469 95.5086V93.8112C3.05469 93.6705 3.16877 93.5564 3.30939 93.5564C3.45001 93.5564 3.5641 93.6705 3.5641 93.8112V95.5086C3.5641 95.6496 3.45001 95.7633 3.30939 95.7633ZM3.30939 92.3684C3.16877 92.3684 3.05469 92.2543 3.05469 92.1137V90.4162C3.05469 90.2756 3.16877 90.1615 3.30939 90.1615C3.45001 90.1615 3.5641 90.2756 3.5641 90.4162V92.1137C3.5641 92.2547 3.45001 92.3684 3.30939 92.3684ZM3.30939 88.9738C3.16877 88.9738 3.05469 88.8597 3.05469 88.7191V87.0216C3.05469 86.881 3.16877 86.7669 3.30939 86.7669C3.45001 86.7669 3.5641 86.881 3.5641 87.0216V88.7191C3.5641 88.8597 3.45001 88.9738 3.30939 88.9738ZM3.30939 85.5789C3.16877 85.5789 3.05469 85.4648 3.05469 85.3242V83.6267C3.05469 83.4861 3.16877 83.372 3.30939 83.372C3.45001 83.372 3.5641 83.4861 3.5641 83.6267V85.3242C3.5641 85.4648 3.45001 85.5789 3.30939 85.5789ZM3.30939 82.184C3.16877 82.184 3.05469 82.0699 3.05469 81.9293V80.2318C3.05469 80.0912 3.16877 79.9771 3.30939 79.9771C3.45001 79.9771 3.5641 80.0912 3.5641 80.2318V81.9293C3.5641 82.0699 3.45001 82.184 3.30939 82.184ZM3.30939 78.789C3.16877 78.789 3.05469 78.675 3.05469 78.5343V76.8369C3.05469 76.6962 3.16877 76.5822 3.30939 76.5822C3.45001 76.5822 3.5641 76.6962 3.5641 76.8369V78.5343C3.5641 78.675 3.45001 78.789 3.30939 78.789ZM3.30939 75.3941C3.16877 75.3941 3.05469 75.28 3.05469 75.1394V73.4419C3.05469 73.3013 3.16877 73.1872 3.30939 73.1872C3.45001 73.1872 3.5641 73.3013 3.5641 73.4419V75.1394C3.5641 75.28 3.45001 75.3941 3.30939 75.3941ZM3.30939 71.9992C3.16877 71.9992 3.05469 71.8851 3.05469 71.7445V71.5728C3.05469 71.041 3.11948 70.512 3.24701 70.0012C3.28113 69.8647 3.4221 69.782 3.55583 69.8158C3.69231 69.8499 3.77538 69.9881 3.74126 70.1242C3.62407 70.5947 3.5641 71.082 3.5641 71.5725V71.7441C3.5641 71.8851 3.45001 71.9992 3.30939 71.9992ZM4.12486 68.748C4.08213 68.748 4.0387 68.7373 3.99872 68.7146C3.87671 68.6449 3.83431 68.4891 3.90394 68.3671C4.19587 67.856 4.55707 67.3862 4.97721 66.9709C5.07751 66.8723 5.23847 66.873 5.33739 66.973C5.43631 67.0729 5.43562 67.2342 5.33532 67.3331C4.94826 67.7157 4.61532 68.1486 4.34648 68.6194C4.29926 68.7018 4.21344 68.748 4.12486 68.748ZM6.50958 66.3915C6.41997 66.3915 6.33312 66.3443 6.28693 66.2606C6.21869 66.1375 6.26281 65.9828 6.38585 65.9142C6.90216 65.6274 7.45465 65.4134 8.02851 65.2772C8.16672 65.2455 8.30217 65.3293 8.33492 65.4664C8.36732 65.6033 8.28287 65.7405 8.14604 65.7729C7.61767 65.898 7.10861 66.0951 6.63332 66.3595C6.59403 66.3812 6.55163 66.3915 6.50958 66.3915ZM48.8124 65.6129H47.115C46.9743 65.6129 46.8603 65.4988 46.8603 65.3582C46.8603 65.2176 46.9743 65.1035 47.115 65.1035H48.8124C48.953 65.1035 49.0671 65.2176 49.0671 65.3582C49.0671 65.4988 48.953 65.6129 48.8124 65.6129ZM45.4178 65.6129H43.7204C43.5798 65.6129 43.4657 65.4988 43.4657 65.3582C43.4657 65.2176 43.5798 65.1035 43.7204 65.1035H45.4178C45.5585 65.1035 45.6726 65.2176 45.6726 65.3582C45.6722 65.4988 45.5581 65.6129 45.4178 65.6129ZM42.0229 65.6129H40.3255C40.1848 65.6129 40.0708 65.4988 40.0708 65.3582C40.0708 65.2176 40.1848 65.1035 40.3255 65.1035H42.0229C42.1635 65.1035 42.2776 65.2176 42.2776 65.3582C42.2773 65.4988 42.1635 65.6129 42.0229 65.6129ZM38.628 65.6129H36.9305C36.7899 65.6129 36.6758 65.4988 36.6758 65.3582C36.6758 65.2176 36.7899 65.1035 36.9305 65.1035H38.628C38.7686 65.1035 38.8827 65.2176 38.8827 65.3582C38.8827 65.4988 38.7686 65.6129 38.628 65.6129ZM35.2331 65.6129H33.5356C33.395 65.6129 33.2809 65.4988 33.2809 65.3582C33.2809 65.2176 33.395 65.1035 33.5356 65.1035H35.2331C35.3737 65.1035 35.4878 65.2176 35.4878 65.3582C35.4878 65.4988 35.3737 65.6129 35.2331 65.6129ZM31.8381 65.6129H30.1407C30.0001 65.6129 29.886 65.4988 29.886 65.3582C29.886 65.2176 30.0001 65.1035 30.1407 65.1035H31.8381C31.9788 65.1035 32.0928 65.2176 32.0928 65.3582C32.0928 65.4988 31.9788 65.6129 31.8381 65.6129ZM28.4432 65.6129H26.7458C26.6051 65.6129 26.491 65.4988 26.491 65.3582C26.491 65.2176 26.6051 65.1035 26.7458 65.1035H28.4432C28.5838 65.1035 28.6979 65.2176 28.6979 65.3582C28.6979 65.4988 28.5838 65.6129 28.4432 65.6129ZM25.0483 65.6129H23.3508C23.2102 65.6129 23.0961 65.4988 23.0961 65.3582C23.0961 65.2176 23.2102 65.1035 23.3508 65.1035H25.0483C25.1889 65.1035 25.303 65.2176 25.303 65.3582C25.303 65.4988 25.1889 65.6129 25.0483 65.6129ZM21.6534 65.6129H19.9559C19.8153 65.6129 19.7012 65.4988 19.7012 65.3582C19.7012 65.2176 19.8153 65.1035 19.9559 65.1035H21.6534C21.794 65.1035 21.9081 65.2176 21.9081 65.3582C21.9081 65.4988 21.794 65.6129 21.6534 65.6129ZM18.2584 65.6129H16.561C16.4204 65.6129 16.3063 65.4988 16.3063 65.3582C16.3063 65.2176 16.4204 65.1035 16.561 65.1035H18.2584C18.3991 65.1035 18.5131 65.2176 18.5131 65.3582C18.5131 65.4988 18.3991 65.6129 18.2584 65.6129ZM14.8635 65.6129H13.1661C13.0254 65.6129 12.9113 65.4988 12.9113 65.3582C12.9113 65.2176 13.0254 65.1035 13.1661 65.1035H14.8635C15.0041 65.1035 15.1182 65.2176 15.1182 65.3582C15.1182 65.4988 15.0041 65.6129 14.8635 65.6129ZM11.4686 65.6129H9.77113C9.6305 65.6129 9.51642 65.4988 9.51642 65.3582C9.51642 65.2176 9.6305 65.1035 9.77113 65.1035H11.4686C11.6092 65.1035 11.7233 65.2176 11.7233 65.3582C11.7233 65.4988 11.6092 65.6129 11.4686 65.6129Z" fill="#027DC0"/>
<path d="M3.31064 93.5119C3.92338 93.5119 4.42011 93.0152 4.42011 92.4024C4.42011 91.7897 3.92338 91.293 3.31064 91.293C2.6979 91.293 2.20117 91.7897 2.20117 92.4024C2.20117 93.0152 2.6979 93.5119 3.31064 93.5119Z" fill="#027DC0"/>
<path d="M3.30982 94.4829C2.16347 94.4829 1.23047 93.5503 1.23047 92.4036C1.23047 91.2569 2.16347 90.3242 3.30982 90.3242C4.45616 90.3242 5.38917 91.2569 5.38917 92.4036C5.38917 93.5499 4.45616 94.4829 3.30982 94.4829ZM3.30982 90.5786C2.30375 90.5786 1.48517 91.3971 1.48517 92.4032C1.48517 93.4093 2.30375 94.2279 3.30982 94.2279C4.31589 94.2279 5.13446 93.4093 5.13446 92.4032C5.13446 91.3971 4.31623 90.5786 3.30982 90.5786Z" fill="#027DC0"/>
<path d="M60.4524 57.8516C60.2815 57.8516 60.1426 57.7128 60.1426 57.5418V55.4766C60.1426 55.3056 60.2815 55.1667 60.4524 55.1667C60.6234 55.1667 60.7623 55.3056 60.7623 55.4766V57.5418C60.7623 57.7128 60.6234 57.8516 60.4524 57.8516ZM60.4524 53.7212C60.2815 53.7212 60.1426 53.5823 60.1426 53.4114V51.3461C60.1426 51.1752 60.2815 51.0363 60.4524 51.0363C60.6234 51.0363 60.7623 51.1752 60.7623 51.3461V53.4114C60.7623 53.5823 60.6234 53.7212 60.4524 53.7212ZM60.4524 49.5904C60.2815 49.5904 60.1426 49.4515 60.1426 49.2806V47.2154C60.1426 47.0444 60.2815 46.9055 60.4524 46.9055C60.6234 46.9055 60.7623 47.0444 60.7623 47.2154V49.2806C60.7623 49.4519 60.6234 49.5904 60.4524 49.5904ZM60.4524 45.46C60.2815 45.46 60.1426 45.3211 60.1426 45.1501V43.0849C60.1426 42.914 60.2815 42.7751 60.4524 42.7751C60.6234 42.7751 60.7623 42.914 60.7623 43.0849V45.1501C60.7623 45.3214 60.6234 45.46 60.4524 45.46ZM60.4524 41.3296C60.2815 41.3296 60.1426 41.1907 60.1426 41.0197V38.9545C60.1426 38.7835 60.2815 38.6446 60.4524 38.6446C60.6234 38.6446 60.7623 38.7835 60.7623 38.9545V41.0197C60.7623 41.1907 60.6234 41.3296 60.4524 41.3296ZM60.4524 37.1991C60.2815 37.1991 60.1426 37.0602 60.1426 36.8893V34.824C60.1426 34.6531 60.2815 34.5142 60.4524 34.5142C60.6234 34.5142 60.7623 34.6531 60.7623 34.824V36.8893C60.7623 37.0602 60.6234 37.1991 60.4524 37.1991ZM93.2512 33.4785C93.0803 33.4785 92.9413 33.3396 92.9413 33.1686V32.0223C92.9413 31.8513 93.0803 31.7124 93.2512 31.7124C93.4222 31.7124 93.5611 31.8513 93.5611 32.0223V33.1686C93.5611 33.3396 93.4222 33.4785 93.2512 33.4785ZM60.4524 33.0687C60.2815 33.0687 60.1426 32.9301 60.1426 32.7588V30.6936C60.1426 30.5227 60.2815 30.3838 60.4524 30.3838C60.6234 30.3838 60.7623 30.5227 60.7623 30.6936V32.7588C60.7623 32.9298 60.6234 33.0687 60.4524 33.0687ZM93.2512 30.2669C93.0803 30.2669 92.9413 30.1284 92.9413 29.9571V27.8919C92.9413 27.7209 93.0803 27.582 93.2512 27.582C93.4222 27.582 93.5611 27.7209 93.5611 27.8919V29.9571C93.5611 30.128 93.4222 30.2669 93.2512 30.2669ZM60.4524 28.9382C60.2815 28.9382 60.1426 28.7993 60.1426 28.6284V26.5632C60.1426 26.3922 60.2815 26.2533 60.4524 26.2533C60.6234 26.2533 60.7623 26.3922 60.7623 26.5632V28.6284C60.7623 28.7993 60.6234 28.9382 60.4524 28.9382ZM93.2512 26.1361C93.0803 26.1361 92.9413 25.9972 92.9413 25.8263V23.7611C92.9413 23.5901 93.0803 23.4512 93.2512 23.4512C93.4222 23.4512 93.5611 23.5901 93.5611 23.7611V25.8263C93.5611 25.9976 93.4222 26.1361 93.2512 26.1361ZM60.4524 24.8075C60.2815 24.8075 60.1426 24.6686 60.1426 24.4976V22.4324C60.1426 22.2614 60.2815 22.1225 60.4524 22.1225C60.6234 22.1225 60.7623 22.2614 60.7623 22.4324V24.4976C60.7623 24.6689 60.6234 24.8075 60.4524 24.8075ZM93.2512 22.0057C93.0803 22.0057 92.9413 21.8668 92.9413 21.6959V19.6306C92.9413 19.4597 93.0803 19.3208 93.2512 19.3208C93.4222 19.3208 93.5611 19.4597 93.5611 19.6306V21.6959C93.5611 21.8672 93.4222 22.0057 93.2512 22.0057ZM60.4524 20.677C60.2815 20.677 60.1426 20.5381 60.1426 20.3672V18.302C60.1426 18.131 60.2815 17.9921 60.4524 17.9921C60.6234 17.9921 60.7623 18.131 60.7623 18.302V20.3672C60.7623 20.5385 60.6234 20.677 60.4524 20.677ZM93.2512 17.8753C93.0803 17.8753 92.9413 17.7364 92.9413 17.5654V15.5002C92.9413 15.3292 93.0803 15.1903 93.2512 15.1903C93.4222 15.1903 93.5611 15.3292 93.5611 15.5002V17.5654C93.5611 17.7367 93.4222 17.8753 93.2512 17.8753ZM60.4524 16.5466C60.2815 16.5466 60.1426 16.4077 60.1426 16.2367V14.1715C60.1426 14.0006 60.2815 13.8617 60.4524 13.8617C60.6234 13.8617 60.7623 14.0006 60.7623 14.1715V16.2367C60.7623 16.4077 60.6234 16.5466 60.4524 16.5466ZM93.2512 13.7448C93.0803 13.7448 92.9413 13.6059 92.9413 13.435V11.3698C92.9413 11.1988 93.0803 11.0599 93.2512 11.0599C93.4222 11.0599 93.5611 11.1988 93.5611 11.3698V13.435C93.5611 13.6059 93.4222 13.7448 93.2512 13.7448ZM60.4524 12.4162C60.2815 12.4162 60.1426 12.2773 60.1426 12.1063V10.0411C60.1426 9.87014 60.2815 9.73124 60.4524 9.73124C60.6234 9.73124 60.7623 9.87014 60.7623 10.0411V12.1063C60.7623 12.2773 60.6234 12.4162 60.4524 12.4162ZM93.2378 9.61474C93.0747 9.61474 92.9383 9.48722 92.9289 9.32247C92.8914 8.66037 92.7639 8.00896 92.5502 7.38547C92.495 7.22382 92.5812 7.04735 92.7428 6.99186C92.9031 6.93672 93.0813 7.02254 93.1361 7.18453C93.3684 7.86145 93.5069 8.56904 93.5476 9.28731C93.5573 9.45827 93.4266 9.6044 93.256 9.6144C93.2498 9.6144 93.244 9.61474 93.2378 9.61474ZM60.6561 8.30192C60.6323 8.30192 60.6086 8.29917 60.5844 8.29365C60.418 8.25402 60.3149 8.0872 60.3545 7.92073C60.52 7.22175 60.7809 6.54931 61.1297 5.92203C61.2124 5.77244 61.4016 5.71868 61.5509 5.80209C61.7005 5.88515 61.7542 6.07402 61.6712 6.22361C61.3496 6.80092 61.1097 7.42028 60.9574 8.06376C60.9236 8.20611 60.7964 8.30192 60.6561 8.30192ZM91.9167 5.75831C91.8181 5.75831 91.7216 5.71178 91.6613 5.62493C91.2849 5.08036 90.8368 4.58991 90.3288 4.16701C90.1978 4.0574 90.1796 3.86198 90.2892 3.73066C90.3988 3.59866 90.5939 3.58177 90.7255 3.69103C91.2763 4.14977 91.7623 4.68193 92.1707 5.27234C92.2679 5.41331 92.2327 5.60597 92.0921 5.70351C92.039 5.74074 91.9773 5.75831 91.9167 5.75831ZM62.6352 4.7357C62.5566 4.7357 62.478 4.70572 62.4173 4.64609C62.2957 4.5258 62.2947 4.32969 62.4149 4.20802C62.9202 3.69689 63.4917 3.25744 64.1131 2.90209C64.261 2.81731 64.4509 2.86901 64.536 3.01756C64.6208 3.16611 64.5691 3.35533 64.4205 3.44046C63.8477 3.76754 63.3214 4.17252 62.8554 4.64402C62.7948 4.70502 62.7148 4.7357 62.6352 4.7357ZM88.7823 3.1475C88.7399 3.1475 88.6968 3.13888 88.6558 3.12061C88.0523 2.85005 87.4147 2.66393 86.7609 2.56708C86.5913 2.54227 86.4744 2.38441 86.4996 2.21518C86.5248 2.04595 86.6806 1.92532 86.8515 1.95427C87.5619 2.05905 88.2539 2.26137 88.9095 2.55502C89.0656 2.62499 89.1352 2.80835 89.0656 2.96448C89.0136 3.07925 88.9005 3.1475 88.7823 3.1475ZM66.1759 2.71357C66.037 2.71357 65.9109 2.61947 65.8757 2.47885C65.8343 2.31272 65.935 2.14453 66.1011 2.10317C66.7225 1.94807 67.366 1.86914 68.0133 1.86914H68.2222C68.3931 1.86914 68.532 2.00804 68.532 2.17899C68.532 2.34995 68.3931 2.48885 68.2222 2.48885H68.0133C67.4167 2.48885 66.8239 2.56122 66.251 2.70426C66.2262 2.71046 66.2007 2.71357 66.1759 2.71357ZM84.7446 2.48885H82.6794C82.5084 2.48885 82.3695 2.34995 82.3695 2.17899C82.3695 2.00804 82.5084 1.86914 82.6794 1.86914H84.7446C84.9155 1.86914 85.0544 2.00804 85.0544 2.17899C85.0544 2.34995 84.9155 2.48885 84.7446 2.48885ZM80.6142 2.48885H78.5489C78.378 2.48885 78.2391 2.34995 78.2391 2.17899C78.2391 2.00804 78.378 1.86914 78.5489 1.86914H80.6142C80.7851 1.86914 80.924 2.00804 80.924 2.17899C80.9237 2.34995 80.7851 2.48885 80.6142 2.48885ZM76.4834 2.48885H74.4182C74.2472 2.48885 74.1083 2.34995 74.1083 2.17899C74.1083 2.00804 74.2472 1.86914 74.4182 1.86914H76.4834C76.6543 1.86914 76.7932 2.00804 76.7932 2.17899C76.7932 2.34995 76.6547 2.48885 76.4834 2.48885ZM72.3529 2.48885H70.2877C70.1168 2.48885 69.9779 2.34995 69.9779 2.17899C69.9779 2.00804 70.1168 1.86914 70.2877 1.86914H72.3529C72.5239 1.86914 72.6628 2.00804 72.6628 2.17899C72.6628 2.34995 72.5242 2.48885 72.3529 2.48885Z" fill="#027DC0"/>
<path d="M76.8475 3.34543C77.4903 3.34543 78.0114 2.82432 78.0114 2.1815C78.0114 1.53868 77.4903 1.01758 76.8475 1.01758C76.2047 1.01758 75.6836 1.53868 75.6836 2.1815C75.6836 2.82432 76.2047 3.34543 76.8475 3.34543Z" fill="#027DC0"/>
<path d="M76.8493 4.36274C75.6465 4.36274 74.668 3.38424 74.668 2.18137C74.668 0.978495 75.6468 0 76.8493 0C78.0522 0 79.0307 0.978495 79.0307 2.18137C79.0307 3.38424 78.0522 4.36274 76.8493 4.36274ZM76.8493 0.267111C75.7936 0.267111 74.9351 1.12601 74.9351 2.18137C74.9351 3.23707 75.794 4.09562 76.8493 4.09562C77.905 4.09562 78.7636 3.23672 78.7636 2.18137C78.7636 1.12601 77.905 0.267111 76.8493 0.267111Z" fill="#027DC0"/>
<path d="M78.2441 18.9629H58.2695V22.3778H78.2441V18.9629Z" fill="#C1C1C1"/>
<path d="M94.3811 17.6777H80.1027C79.0636 17.6777 78.0778 18.0265 77.4099 18.6307L73.531 21.5331H58.2504C57.6118 21.5331 57.0938 22.0512 57.0938 22.6898V43.8393C57.0938 44.478 57.6118 44.996 58.2504 44.996H95.4826C96.1213 44.996 96.6393 44.4783 96.6393 43.8393V23.4057V22.6898V20.2482C96.6393 18.8896 95.6284 17.6777 94.3811 17.6777Z" fill="white"/>
<path d="M35.3711 81.5885L33.2535 83.6413C33.1832 83.7095 33.1215 83.7836 33.0657 83.8605C31.657 82.9368 30.1188 82.2885 28.5268 81.9162C28.5447 81.8204 28.5575 81.7232 28.5585 81.624L28.5902 78.6747C28.5999 77.7572 27.8616 77.0024 26.9438 76.9927L23.9945 76.961C23.0773 76.9514 22.3222 77.6897 22.3125 78.6075L22.2808 81.5568C22.2798 81.656 22.2905 81.7532 22.306 81.849C20.7491 82.1778 19.2374 82.7696 17.8402 83.6251C17.7868 83.5465 17.7275 83.4707 17.6592 83.4004L15.6064 81.2828C14.9674 80.6238 13.9117 80.6072 13.2527 81.2462L11.1351 83.299C10.4761 83.938 10.4599 84.9937 11.0986 85.6527L13.1514 87.7703C13.2196 87.8406 13.2937 87.9023 13.3703 87.9582C12.4466 89.3668 11.7982 90.905 11.426 92.497C11.3305 92.4791 11.2333 92.4664 11.1337 92.4653L8.18446 92.4336C7.7426 92.4288 7.32521 92.5953 7.00812 92.9027C7.00606 92.9044 7.00433 92.9065 7.00261 92.9086C6.68483 93.2194 6.50733 93.6358 6.50251 94.0801L6.4708 97.0293C6.46115 97.9468 7.19941 98.7016 8.11725 98.7113L11.0665 98.743C11.1665 98.744 11.263 98.7327 11.3585 98.7168C11.6873 100.274 12.279 101.786 13.1348 103.183C13.0563 103.237 12.9804 103.296 12.9101 103.364L10.7925 105.417C10.1335 106.056 10.1173 107.112 10.756 107.77L12.8088 109.888C13.4478 110.547 14.5035 110.563 15.1625 109.925L17.2801 107.872C17.3504 107.803 17.4121 107.729 17.4679 107.653C18.8769 108.577 20.4155 109.225 22.0078 109.597C21.9899 109.692 21.9761 109.789 21.9751 109.889L21.9434 112.838C21.9386 113.283 22.1071 113.703 22.4183 114.021C22.7292 114.338 23.1456 114.516 23.5898 114.521L26.5391 114.552C26.9951 114.557 27.4108 114.377 27.7148 114.083C28.0225 113.784 28.2162 113.368 28.2211 112.906L28.2528 109.957C28.2538 109.857 28.2424 109.76 28.2266 109.665C29.7838 109.336 31.2958 108.744 32.6934 107.889C32.7468 107.967 32.8061 108.043 32.8744 108.113L34.9272 110.231C35.5662 110.89 36.6219 110.906 37.2809 110.267L39.3985 108.215C40.0575 107.576 40.0737 106.52 39.435 105.861L37.3822 103.743C37.314 103.673 37.2399 103.611 37.163 103.556C38.0867 102.147 38.735 100.608 39.1072 99.0156C39.2024 99.0336 39.2992 99.0473 39.3992 99.0484L42.3484 99.0801C42.8044 99.0849 43.2201 98.905 43.5244 98.6103C43.8322 98.3118 44.0259 97.8955 44.0307 97.434L44.0628 94.4847C44.0724 93.5669 43.3338 92.8124 42.4163 92.8024L39.4671 92.7707C39.3678 92.7697 39.2706 92.78 39.1748 92.7959C38.846 91.239 38.2542 89.7273 37.3987 88.3301C37.4773 88.2766 37.5532 88.2174 37.6235 88.1491L39.7411 86.0963C40.4001 85.4573 40.4163 84.4016 39.7776 83.743L37.7248 81.6253C37.0854 80.966 36.0297 80.9495 35.3711 81.5885ZM30.7078 101.369C27.6131 104.369 22.6548 104.292 19.6545 101.198C16.6542 98.103 16.7311 93.1447 19.8258 90.1444C22.9205 87.1441 27.8788 87.2209 30.8791 90.3157C33.8791 93.4101 33.8022 98.3684 30.7078 101.369Z" stroke="#027DC0" stroke-width="0.344663" stroke-miterlimit="10"/>
<path d="M91.5368 105.764H59.8379V120.959H91.5368V105.764Z" fill="#027DC0"/>
<path d="M128.345 34.021V103.244C128.345 105.467 126.543 107.269 124.316 107.269H27.0581C24.8346 107.269 23.0293 105.467 23.0293 103.244V34.021C23.0293 31.7975 24.8346 29.9922 27.0581 29.9922H124.316C126.543 29.9922 128.345 31.7975 128.345 34.021Z" fill="#027DC0"/>
<path opacity="0.5" d="M77.5832 102.4C77.5832 103.542 76.6575 104.468 75.5152 104.468C74.373 104.468 73.4473 103.542 73.4473 102.4C73.4473 101.258 74.373 100.332 75.5152 100.332C76.6575 100.332 77.5832 101.258 77.5832 102.4Z" fill="white"/>
<path d="M127.081 97.8382V34.7957C127.081 32.8849 125.585 31.3359 123.74 31.3359H27.6357C25.7908 31.3359 24.2949 32.8849 24.2949 34.7957V97.8382H127.081Z" fill="#EBFBFF"/>
<path d="M97.7726 122.595H53.5996V122.489C53.5996 120.739 55.0186 119.32 56.7684 119.32H94.6034C96.3536 119.32 97.7723 120.739 97.7723 122.489V122.595H97.7726Z" fill="#027DC0"/>
<path d="M32.5837 30.6904C32.5837 27.6391 30.2834 25.1283 27.3231 24.7891C27.3459 24.5896 27.3603 24.3876 27.3603 24.1822C27.3603 21.2567 24.9887 18.8854 22.0636 18.8854C21.2798 18.8854 20.5384 19.0601 19.8691 19.3655C18.4587 17.1669 15.9951 15.709 13.1889 15.709C8.80751 15.709 5.25576 19.2607 5.25576 23.6421C5.25576 24.0278 5.28471 24.4069 5.33813 24.7777C2.33991 25.081 0 27.6126 0 30.6908C0 33.9733 2.66114 36.6345 5.94371 36.6345H26.9347V36.6197C30.0794 36.4646 32.5837 33.8734 32.5837 30.6904Z" fill="#027DC0"/>
<path d="M20.099 41.1685V31.9336H12.4854V41.1685H10.1055L16.2922 46.9647L22.4792 41.1685H20.099Z" fill="white"/>
<path d="M34.2039 125.019H15.5107C13.7823 125.019 12.3809 123.618 12.3809 121.89V115.673C12.3809 113.944 13.7823 112.543 15.5107 112.543H34.2042C35.9327 112.543 37.3341 113.944 37.3341 115.673V121.89C37.3341 123.618 35.9327 125.019 34.2039 125.019Z" fill="#114D71"/>
<path d="M43.4151 72.0585H24.7217C22.9932 72.0585 21.5918 70.6571 21.5918 68.9286V62.7119C21.5918 60.9834 22.9932 59.582 24.7217 59.582H43.4151C45.1436 59.582 46.545 60.9834 46.545 62.7119V68.9286C46.545 70.6571 45.1436 72.0585 43.4151 72.0585Z" fill="#114D71"/>
<path d="M109.282 112.007H108.392C108.245 112.007 108.125 111.887 108.125 111.74C108.125 111.592 108.245 111.473 108.392 111.473H109.282C109.43 111.473 109.549 111.592 109.549 111.74C109.549 111.887 109.43 112.007 109.282 112.007Z" fill="#027DC0"/>
<path d="M130.656 112.006H128.875C128.728 112.006 128.608 111.887 128.608 111.739C128.608 111.592 128.728 111.472 128.875 111.472H130.656C130.804 111.472 130.923 111.592 130.923 111.739C130.923 111.887 130.804 112.006 130.656 112.006ZM127.094 112.006H125.313C125.166 112.006 125.046 111.887 125.046 111.739C125.046 111.592 125.166 111.472 125.313 111.472H127.094C127.241 111.472 127.361 111.592 127.361 111.739C127.361 111.887 127.241 112.006 127.094 112.006ZM123.532 112.006H121.751C121.603 112.006 121.483 111.887 121.483 111.739C121.483 111.592 121.603 111.472 121.751 111.472H123.532C123.679 111.472 123.799 111.592 123.799 111.739C123.799 111.887 123.679 112.006 123.532 112.006ZM119.969 112.006H118.188C118.041 112.006 117.921 111.887 117.921 111.739C117.921 111.592 118.041 111.472 118.188 111.472H119.969C120.117 111.472 120.236 111.592 120.236 111.739C120.237 111.887 120.117 112.006 119.969 112.006ZM116.407 112.006H114.626C114.479 112.006 114.359 111.887 114.359 111.739C114.359 111.592 114.479 111.472 114.626 111.472H116.407C116.555 111.472 116.674 111.592 116.674 111.739C116.674 111.887 116.555 112.006 116.407 112.006ZM112.845 112.006H111.064C110.916 112.006 110.797 111.887 110.797 111.739C110.797 111.592 110.916 111.472 111.064 111.472H112.845C112.993 111.472 113.112 111.592 113.112 111.739C113.112 111.887 112.993 112.006 112.845 112.006ZM132.42 111.799C132.3 111.799 132.19 111.717 132.161 111.595C132.126 111.451 132.214 111.307 132.357 111.272C132.914 111.137 133.453 110.935 133.96 110.67C134.091 110.602 134.252 110.653 134.32 110.784C134.388 110.914 134.338 111.076 134.207 111.144C133.661 111.429 133.081 111.646 132.483 111.791C132.462 111.797 132.441 111.799 132.42 111.799ZM135.549 110.17C135.475 110.17 135.401 110.14 135.348 110.08C135.251 109.969 135.262 109.8 135.373 109.703C135.803 109.324 136.187 108.895 136.515 108.426C136.599 108.305 136.765 108.276 136.887 108.36C137.008 108.445 137.037 108.612 136.953 108.732C136.601 109.236 136.188 109.697 135.726 110.104C135.675 110.148 135.612 110.17 135.549 110.17ZM137.568 107.279C137.536 107.279 137.503 107.273 137.472 107.261C137.335 107.208 137.266 107.053 137.319 106.916C137.525 106.382 137.666 105.824 137.737 105.256C137.756 105.11 137.885 105.006 138.036 105.025C138.182 105.043 138.286 105.177 138.268 105.323C138.191 105.934 138.039 106.534 137.817 107.109C137.777 107.214 137.675 107.279 137.568 107.279ZM138.061 103.779C137.914 103.779 137.794 103.659 137.794 103.512V101.731C137.794 101.583 137.914 101.463 138.061 101.463C138.209 101.463 138.328 101.583 138.328 101.731V103.512C138.329 103.659 138.209 103.779 138.061 103.779ZM138.061 100.216C137.914 100.216 137.794 100.097 137.794 99.9493V98.1684C137.794 98.0209 137.914 97.9013 138.061 97.9013C138.209 97.9013 138.328 98.0209 138.328 98.1684V99.9493C138.329 100.097 138.209 100.216 138.061 100.216ZM138.061 96.6543C137.914 96.6543 137.794 96.5347 137.794 96.3872V94.6063C137.794 94.4588 137.914 94.3392 138.061 94.3392C138.209 94.3392 138.328 94.4588 138.328 94.6063V96.3872C138.329 96.5347 138.209 96.6543 138.061 96.6543ZM138.061 93.0922C137.914 93.0922 137.794 92.9726 137.794 92.8251V91.0439C137.794 90.8964 137.914 90.7768 138.061 90.7768C138.209 90.7768 138.328 90.8964 138.328 91.0439V92.8251C138.329 92.9723 138.209 93.0922 138.061 93.0922ZM138.061 89.5301C137.914 89.5301 137.794 89.4105 137.794 89.263V87.4818C137.794 87.3343 137.914 87.2147 138.061 87.2147C138.209 87.2147 138.328 87.3343 138.328 87.4818V89.263C138.329 89.4102 138.209 89.5301 138.061 89.5301ZM138.061 85.9677C137.914 85.9677 137.794 85.8481 137.794 85.7006V83.9197C137.794 83.7722 137.914 83.6526 138.061 83.6526C138.209 83.6526 138.328 83.7722 138.328 83.9197V85.7006C138.329 85.8481 138.209 85.9677 138.061 85.9677ZM138.061 82.4053C137.914 82.4053 137.794 82.2857 137.794 82.1382V80.357C137.794 80.2094 137.914 80.0898 138.061 80.0898C138.209 80.0898 138.328 80.2094 138.328 80.357V82.1382C138.329 82.2857 138.209 82.4053 138.061 82.4053Z" fill="#027DC0"/>
<path d="M138.061 78.8346C137.913 78.8346 137.794 78.715 137.794 78.5675V77.9444H137.57C137.422 77.9444 137.303 77.8248 137.303 77.6773C137.303 77.5298 137.422 77.4102 137.57 77.4102H138.061C138.209 77.4102 138.328 77.5298 138.328 77.6773V78.5675C138.328 78.715 138.209 78.8346 138.061 78.8346Z" fill="#027DC0"/>
<path d="M129.771 50.7012H106.401C104.996 50.7012 103.857 51.8399 103.857 53.2448V101.811C103.857 103.216 104.996 104.354 106.401 104.354H129.771C131.176 104.354 132.314 103.216 132.314 101.811V53.2448C132.314 51.8399 131.176 50.7012 129.771 50.7012Z" fill="#027DC0"/>
<path d="M123.312 53.5006H110.457C110.234 53.5006 110.053 53.3196 110.053 53.0966V53.0446C110.053 52.8216 110.234 52.6406 110.457 52.6406H123.312C123.535 52.6406 123.716 52.8216 123.716 53.0446V53.0966C123.716 53.3196 123.535 53.5006 123.312 53.5006Z" fill="#027DC0"/>
<path d="M126.12 53.0688C126.12 53.3063 125.927 53.499 125.69 53.499C125.452 53.499 125.26 53.3063 125.26 53.0688C125.26 52.8313 125.452 52.6387 125.69 52.6387C125.927 52.6387 126.12 52.8313 126.12 53.0688Z" fill="#027DC0"/>
<path d="M130.748 55.5723H105.424V71.1334H130.748V55.5723Z" fill="white"/>
<path d="M122.891 62.0751L121.034 64.2961L116.23 58.5488L108.197 68.1577H117.806H124.262H127.976L122.891 62.0751Z" fill="white"/>
<path d="M117.378 91.7461H105.422V98.7586H117.378V91.7461Z" fill="white"/>
<path d="M113.67 94.4717L112.793 95.5202L110.525 92.8066L106.732 97.3434H111.269H114.317H116.07L113.67 94.4717Z" fill="white"/>
<path d="M117.374 75.1387H105.418V75.8104H117.374V75.1387Z" fill="#027DC0"/>
<path d="M117.374 73.7344H105.418V74.4061H117.374V73.7344Z" fill="#027DC0"/>
<path d="M112.978 76.5156H105.418V77.1874H112.978V76.5156Z" fill="#027DC0"/>
<path d="M117.374 76.5156H113.516V77.1874H117.374V76.5156Z" fill="#027DC0"/>
<path d="M115.996 77.8887H105.418V78.5604H115.996V77.8887Z" fill="#027DC0"/>
<path d="M109.092 79.2988H105.418V79.9706H109.092V79.2988Z" fill="#027DC0"/>
<path d="M112.374 79.2988H109.729V79.9706H112.374V79.2988Z" fill="#027DC0"/>
<path d="M130.751 84.543H118.795V85.2147H130.751V84.543Z" fill="#027DC0"/>
<path d="M130.749 83.1367H118.793V83.8085H130.749V83.1367Z" fill="#027DC0"/>
<path d="M126.355 85.9199H118.795V86.5917H126.355V85.9199Z" fill="#027DC0"/>
<path d="M130.751 85.9199H126.893V86.5917H130.751V85.9199Z" fill="#027DC0"/>
<path d="M129.373 87.291H118.795V87.9628H129.373V87.291Z" fill="#027DC0"/>
<path d="M122.469 88.7051H118.795V89.3768H122.469V88.7051Z" fill="#027DC0"/>
<path d="M125.748 88.7051H123.102V89.3768H125.748V88.7051Z" fill="#027DC0"/>
<path d="M130.749 75.1387H118.793V75.8104H130.749V75.1387Z" fill="#027DC0"/>
<path d="M130.749 73.7344H118.793V74.4061H130.749V73.7344Z" fill="#027DC0"/>
<path d="M126.353 76.5156H118.793V77.1874H126.353V76.5156Z" fill="#027DC0"/>
<path d="M130.751 76.5156H126.893V77.1874H130.751V76.5156Z" fill="#027DC0"/>
<path d="M130.749 77.8887H118.793V78.5604H130.749V77.8887Z" fill="#027DC0"/>
<path d="M122.467 79.2988H118.793V79.9706H122.467V79.2988Z" fill="#027DC0"/>
<path d="M130.75 79.2988H123.102V79.9706H130.75V79.2988Z" fill="#027DC0"/>
<path d="M117.374 84.5449H105.418V85.2167H117.374V84.5449Z" fill="#027DC0"/>
<path d="M117.374 83.1387H105.418V83.8104H117.374V83.1387Z" fill="#027DC0"/>
<path d="M117.374 85.9199H105.418V86.5917H117.374V85.9199Z" fill="#027DC0"/>
<path d="M117.374 87.293H105.418V87.9647H117.374V87.293Z" fill="#027DC0"/>
<path d="M117.374 88.7031H105.418V89.3749H117.374V88.7031Z" fill="#027DC0"/>
<path d="M130.749 93.3809H118.793V94.0526H130.749V93.3809Z" fill="#027DC0"/>
<path d="M130.749 91.9746H118.793V92.6464H130.749V91.9746Z" fill="#027DC0"/>
<path d="M130.749 94.7559H123.189V95.4276H130.749V94.7559Z" fill="#027DC0"/>
<path d="M122.651 94.7559H118.793V95.4276H122.651V94.7559Z" fill="#027DC0"/>
<path d="M127.973 96.1309H118.793V96.8026H127.973V96.1309Z" fill="#027DC0"/>
<path d="M130.747 96.1309H128.609V96.8026H130.747V96.1309Z" fill="#027DC0"/>
<path d="M130.749 97.541H121.93V98.2128H130.749V97.541Z" fill="#027DC0"/>
<path d="M121.439 97.541H118.793V98.2128H121.439V97.541Z" fill="#027DC0"/>
<path d="M110.169 116.578H91.4756C89.7471 116.578 88.3457 115.177 88.3457 113.448V107.231C88.3457 105.503 89.7471 104.102 91.4756 104.102H110.169C111.898 104.102 113.299 105.503 113.299 107.231V113.448C113.299 115.177 111.898 116.578 110.169 116.578Z" fill="#114D71"/>
<path d="M139.023 96.1346C139.023 96.7774 138.502 97.2986 137.859 97.2986C137.216 97.2986 136.695 96.7774 136.695 96.1346C136.695 95.4918 137.216 94.9707 137.859 94.9707C138.502 94.9707 139.023 95.4918 139.023 96.1346Z" fill="#027DC0"/>
<path d="M137.859 98.3159C136.656 98.3159 135.678 97.3374 135.678 96.1345C135.678 94.9316 136.657 93.9531 137.859 93.9531C139.062 93.9531 140.04 94.9316 140.04 96.1345C140.041 97.3374 139.062 98.3159 137.859 98.3159ZM137.859 94.2199C136.803 94.2199 135.945 95.0788 135.945 96.1342C135.945 97.1895 136.804 98.0484 137.859 98.0484C138.915 98.0484 139.773 97.1895 139.773 96.1342C139.773 95.0788 138.915 94.2199 137.859 94.2199Z" fill="#027DC0"/>
<path d="M147.87 78.8749H129.177C127.448 78.8749 126.047 77.4735 126.047 75.745V69.5283C126.047 67.7998 127.448 66.3984 129.177 66.3984H147.87C149.599 66.3984 151 67.7998 151 69.5283V75.745C151 77.4735 149.599 78.8749 147.87 78.8749Z" fill="#114D71"/>
<path d="M80.7932 81.3418H72.9414V82.0542H80.7932V81.3418Z" fill="#027DC0"/>
<path d="M100.992 81.3418H82.8086V82.0542H100.992V81.3418Z" fill="#027DC0"/>
<path d="M91.6717 87.4738C88.5504 87.4738 85.4223 87.47 82.3086 87.4624L82.31 86.75C88.5366 86.7648 94.8212 86.7648 100.99 86.75L100.992 87.4624C97.907 87.47 94.793 87.4738 91.6717 87.4738Z" fill="#027DC0"/>
<path d="M100.99 84.0469H79.4473V84.7593H100.99V84.0469Z" fill="#027DC0"/>
<path d="M100.993 89.4629H78.2773V90.1753H100.993V89.4629Z" fill="#027DC0"/>
<path d="M100.991 92.166H75.125V92.8784H100.991V92.166Z" fill="#027DC0"/>
<path d="M42.6673 40.6055H30.5059V41.3179H42.6673V40.6055Z" fill="#027DC0"/>
<path d="M70.9307 40.6055H58.3809V41.3179H70.9307V40.6055Z" fill="#027DC0"/>
<path d="M70.9301 43.3086H62.2246V44.021H70.9301V43.3086Z" fill="white"/>
<path d="M70.9311 48.7266H58.6445V49.439H70.9311V48.7266Z" fill="white"/>
<path d="M70.9332 51.4316H56.2402V52.1441H70.9332V51.4316Z" fill="white"/>
<path d="M70.9308 54.5898H52.0312V55.3023H70.9308V54.5898Z" fill="white"/>
<path d="M56.8001 40.6055H44.6387V41.3179H56.8001V40.6055Z" fill="white"/>
<path d="M61.1148 46.7394C59.2571 46.7394 57.3928 46.7367 53.6642 46.7315L51.2402 46.728L51.2409 46.0156L53.6653 46.0191C61.121 46.0294 61.1217 46.0294 68.5247 46.0191L70.9325 46.0156V46.728L68.5258 46.7315C64.8237 46.737 62.9725 46.7394 61.1148 46.7394Z" fill="white"/>
<path d="M39.8239 46.7371C36.7027 46.7371 33.5886 46.7333 30.5039 46.7261L30.5053 46.0137C36.6741 46.0285 42.9593 46.0285 49.186 46.0137L49.1874 46.7261C46.0733 46.7337 42.9448 46.7371 39.8239 46.7371Z" fill="#027DC0"/>
<path d="M60.5001 43.3105H30.5059V44.023H60.5001V43.3105Z" fill="#027DC0"/>
<path d="M50.3681 54.5918H30.5059V55.3042H50.3681V54.5918Z" fill="#027DC0"/>
<path d="M57.0952 48.7285H30.5059V49.4409H57.0952V48.7285Z" fill="#027DC0"/>
<path d="M54.6036 51.4316H30.5059V52.1441H54.6036V51.4316Z" fill="#027DC0"/>
<path d="M27.9579 41.4569C28.2292 41.4569 28.4491 41.237 28.4491 40.9658C28.4491 40.6945 28.2292 40.4746 27.9579 40.4746C27.6867 40.4746 27.4668 40.6945 27.4668 40.9658C27.4668 41.237 27.6867 41.4569 27.9579 41.4569Z" fill="#027DC0"/>
<path d="M28.4491 43.6689C28.4491 43.9401 28.2292 44.16 27.9579 44.16C27.6867 44.16 27.4668 43.9401 27.4668 43.6689C27.4668 43.3976 27.6867 43.1777 27.9579 43.1777C28.2292 43.1774 28.4491 43.3973 28.4491 43.6689Z" fill="#027DC0"/>
<path d="M27.9579 46.8631C28.2292 46.8631 28.4491 46.6433 28.4491 46.372C28.4491 46.1008 28.2292 45.8809 27.9579 45.8809C27.6867 45.8809 27.4668 46.1008 27.4668 46.372C27.4668 46.6433 27.6867 46.8631 27.9579 46.8631Z" fill="#027DC0"/>
<path d="M28.4491 49.0732C28.4491 49.3444 28.2292 49.5643 27.9579 49.5643C27.6867 49.5643 27.4668 49.3444 27.4668 49.0732C27.4668 48.8019 27.6867 48.582 27.9579 48.582C28.2292 48.582 28.4491 48.8019 28.4491 49.0732Z" fill="#027DC0"/>
<path d="M27.9579 52.2811C28.2292 52.2811 28.4491 52.0612 28.4491 51.79C28.4491 51.5187 28.2292 51.2988 27.9579 51.2988C27.6867 51.2988 27.4668 51.5187 27.4668 51.79C27.4668 52.0612 27.6867 52.2811 27.9579 52.2811Z" fill="#027DC0"/>
<path d="M28.4491 54.9482C28.4491 55.2194 28.2292 55.4393 27.9579 55.4393C27.6867 55.4393 27.4668 55.2194 27.4668 54.9482C27.4668 54.6769 27.6867 54.457 27.9579 54.457C28.2292 54.457 28.4491 54.6769 28.4491 54.9482Z" fill="#027DC0"/>
<path d="M74.1743 56.5577C74.0757 56.5577 73.9961 56.4781 73.9961 56.3795V40.563C73.9961 40.4644 74.0757 40.3848 74.1743 40.3848C74.2729 40.3848 74.3525 40.4644 74.3525 40.563V56.3799C74.3521 56.4781 74.2725 56.5577 74.1743 56.5577Z" fill="#027DC0"/>
<path d="M43.8534 90.6739H42.7584C42.6574 90.6739 42.5761 90.5923 42.5761 90.4916C42.5761 90.3906 42.6578 90.3093 42.7584 90.3093H43.8534C43.9544 90.3093 44.0357 90.391 44.0357 90.4916C44.0361 90.5923 43.9544 90.6739 43.8534 90.6739ZM41.6638 90.6739H40.5691C40.4681 90.6739 40.3868 90.5923 40.3868 90.4916C40.3868 90.3906 40.4685 90.3093 40.5691 90.3093H41.6638C41.7647 90.3093 41.8461 90.391 41.8461 90.4916C41.8464 90.5923 41.7647 90.6739 41.6638 90.6739ZM39.4741 90.6739H39.0309C38.7817 90.6739 38.5353 90.6102 38.3185 90.4899C38.2299 90.441 38.1985 90.33 38.2471 90.2417C38.2964 90.1532 38.4084 90.1221 38.4953 90.1707C38.6583 90.261 38.8434 90.309 39.0309 90.309H39.4741C39.5751 90.309 39.6564 90.3906 39.6564 90.4913C39.6568 90.5923 39.5751 90.6739 39.4741 90.6739ZM37.7722 89.6613C37.6884 89.6613 37.6129 89.6031 37.5943 89.5176C37.5719 89.4146 37.5605 89.3087 37.5605 89.2036V88.3864C37.5605 88.2854 37.6422 88.2041 37.7429 88.2041C37.8435 88.2041 37.9252 88.2858 37.9252 88.3864V89.2036C37.9252 89.2825 37.9338 89.3625 37.9507 89.4404C37.9721 89.539 37.9097 89.6362 37.8115 89.6575C37.798 89.66 37.7849 89.6613 37.7722 89.6613ZM37.7429 87.4741C37.6419 87.4741 37.5605 87.3924 37.5605 87.2918V86.1968C37.5605 86.0958 37.6422 86.0145 37.7429 86.0145C37.8435 86.0145 37.9252 86.0961 37.9252 86.1968V87.2918C37.9252 87.3924 37.8439 87.4741 37.7429 87.4741ZM37.7429 85.2845C37.6419 85.2845 37.5605 85.2028 37.5605 85.1018V84.0068C37.5605 83.9058 37.6422 83.8245 37.7429 83.8245C37.8435 83.8245 37.9252 83.9062 37.9252 84.0068V85.1018C37.9252 85.2028 37.8439 85.2845 37.7429 85.2845ZM37.7429 83.0945C37.6419 83.0945 37.5605 83.0128 37.5605 82.9122V81.8172C37.5605 81.7162 37.6422 81.6348 37.7429 81.6348C37.8435 81.6348 37.9252 81.7165 37.9252 81.8172V82.9122C37.9252 83.0131 37.8439 83.0945 37.7429 83.0945ZM37.7429 80.9048C37.6419 80.9048 37.5605 80.8232 37.5605 80.7225V80.5891C37.5605 80.2179 37.6991 79.8633 37.951 79.591C38.0196 79.5172 38.1348 79.5124 38.2092 79.581C38.283 79.6492 38.2878 79.765 38.2192 79.8388C38.03 80.0435 37.9255 80.3099 37.9255 80.5895V80.7229C37.9252 80.8235 37.8439 80.9048 37.7429 80.9048ZM44.5372 79.4838H43.4426C43.3416 79.4838 43.2602 79.4021 43.2602 79.3015C43.2602 79.2008 43.3419 79.1191 43.4426 79.1191H44.5372C44.6382 79.1191 44.7199 79.2008 44.7199 79.3015C44.7199 79.4021 44.6382 79.4838 44.5372 79.4838ZM42.3476 79.4838H41.2529C41.1519 79.4838 41.0706 79.4021 41.0706 79.3015C41.0706 79.2008 41.1523 79.1191 41.2529 79.1191H42.3476C42.4486 79.1191 42.5299 79.2008 42.5299 79.3015C42.5299 79.4021 42.4486 79.4838 42.3476 79.4838ZM40.1579 79.4838H39.0633C38.9623 79.4838 38.881 79.4021 38.881 79.3015C38.881 79.2008 38.9626 79.1191 39.0633 79.1191H40.1579C40.2589 79.1191 40.3403 79.2008 40.3403 79.3015C40.3403 79.4021 40.2589 79.4838 40.1579 79.4838Z" fill="#027DC0"/>
<path d="M47.8278 85.9375H41.9668V86.6675H47.8278V85.9375Z" fill="#027DC0"/>
<path d="M58.8299 85.9375H49.3613V86.6675H58.8299V85.9375Z" fill="#027DC0"/>
<path d="M58.8274 92.1484H52.9668V92.8784H58.8274V92.1484Z" fill="#027DC0"/>
<path d="M51.4357 92.1484H41.9668V92.8784H51.4357V92.1484Z" fill="#027DC0"/>
<path d="M52.2753 88.0508H41.9668V88.7808H52.2753V88.0508Z" fill="#027DC0"/>
<path d="M58.8296 88.0508H53.8086V88.7808H58.8296V88.0508Z" fill="#027DC0"/>
<path d="M50.45 90.127H41.9668V90.8569H50.45V90.127Z" fill="#027DC0"/>
<path d="M58.8285 90.127H53.0723V90.8569H58.8285V90.127Z" fill="#027DC0"/>
<path d="M45.035 77.1191H41.9668V82.8323H45.035V77.1191Z" fill="white"/>
<path d="M49.8475 74.9492H46.7793V82.831H49.8475V74.9492Z" fill="#027DC0"/>
<path d="M54.5037 70.4531H51.4355V82.8313H54.5037V70.4531Z" fill="#114D71"/>
<path d="M52.359 90.127H51.2578V90.8569H52.359V90.127Z" fill="#027DC0"/>
<path d="M100.714 51.0625H77.7461V76.6882H100.714V51.0625Z" fill="#027DC0"/>
<path d="M95.6167 55.6172H79.6016V56.1514H95.6167V55.6172Z" fill="white"/>
<path d="M87.5926 60.0393C84.8422 60.0393 82.0969 60.0365 79.6016 60.0303L79.603 59.4961C84.593 59.5085 90.5801 59.5085 95.6167 59.4961L95.618 60.0303C93.0989 60.0365 90.343 60.0393 87.5926 60.0393Z" fill="white"/>
<path d="M95.6167 57.5566H79.6016V58.0909H95.6167V57.5566Z" fill="white"/>
<path d="M91.2767 61.4453H79.6016V61.9795H91.2767V61.4453Z" fill="white"/>
<path d="M95.6167 74.502H79.6016V75.0362H95.6167V74.502Z" fill="white"/>
<path d="M95.6167 71.1563C90.5794 71.1442 84.5926 71.1442 79.603 71.1563L79.6016 70.6221C84.5926 70.6104 90.5804 70.6104 95.618 70.6221L95.6167 71.1563Z" fill="white"/>
<path d="M95.6167 72.5625H79.6016V73.0967H95.6167V72.5625Z" fill="white"/>
<path d="M91.2767 68.6738H79.6016V69.2081H91.2767V68.6738Z" fill="white"/>
<path d="M101.069 77.0452H77.3887V50.6992H101.069V77.0452ZM77.745 76.6892H100.713V51.0553H77.745V76.6892Z" fill="#114D71"/>
<path d="M100.891 50.877H77.5664V53.9465H100.891V50.877Z" fill="#114D71"/>
<path d="M94.2317 67.3115C94.1686 67.3115 94.1059 67.2894 94.0545 67.2446L92.2599 65.6589C92.2023 65.6082 92.1699 65.5351 92.1699 65.4586C92.1699 65.3821 92.2027 65.309 92.2599 65.2584L94.0545 63.6726C94.1652 63.575 94.3337 63.5847 94.4319 63.696C94.5295 63.8066 94.5188 63.9752 94.4085 64.0731L92.8403 65.4586L94.4085 66.8441C94.5188 66.942 94.5291 67.1106 94.4319 67.2212C94.3792 67.2812 94.3054 67.3115 94.2317 67.3115Z" fill="white"/>
<path d="M97.0014 67.3111C96.9276 67.3111 96.8539 67.2808 96.8011 67.2208C96.7036 67.1102 96.7143 66.9417 96.8246 66.8438L98.3928 65.4582L96.8246 64.0727C96.7143 63.9748 96.7039 63.8063 96.8011 63.6956C96.899 63.585 97.0675 63.575 97.1785 63.6722L98.9732 65.258C99.0307 65.3086 99.0631 65.3817 99.0631 65.4582C99.0631 65.5348 99.0304 65.6075 98.9732 65.6585L97.1785 67.2443C97.1275 67.2891 97.0644 67.3111 97.0014 67.3111Z" fill="white"/>
<path d="M79.7759 52.4145L80.398 51.7924C80.457 51.7334 80.457 51.6383 80.398 51.5794C80.3391 51.5204 80.244 51.5204 80.185 51.5794L79.5629 52.2015L78.9408 51.5794C78.8819 51.5204 78.7867 51.5204 78.7278 51.5794C78.6689 51.6383 78.6689 51.7334 78.7278 51.7924L79.3499 52.4145L78.7278 53.0366C78.6689 53.0955 78.6689 53.1907 78.7278 53.2496C78.7571 53.2789 78.7957 53.2937 78.8343 53.2937C78.8729 53.2937 78.9115 53.2789 78.9408 53.2496L79.5629 52.6275L80.185 53.2496C80.2143 53.2789 80.2529 53.2937 80.2915 53.2937C80.3301 53.2937 80.3687 53.2789 80.398 53.2496C80.457 53.1907 80.457 53.0955 80.398 53.0366L79.7759 52.4145Z" fill="white"/>
<path d="M82.444 53.2936C81.9591 53.2936 81.5645 52.899 81.5645 52.4144C81.5645 51.9294 81.9591 51.5352 82.444 51.5352C82.929 51.5352 83.3233 51.9298 83.3233 52.4144C83.3233 52.8993 82.929 53.2936 82.444 53.2936ZM82.444 51.8164C82.1145 51.8164 81.8464 52.0845 81.8464 52.414C81.8464 52.7435 82.1145 53.0117 82.444 53.0117C82.7735 53.0117 83.0417 52.7435 83.0417 52.414C83.0417 52.0845 82.7735 51.8164 82.444 51.8164Z" fill="white"/>
<path d="M85.8454 53.2895H84.4123C84.3289 53.2895 84.2617 53.222 84.2617 53.1389C84.2617 53.0558 84.3289 52.9883 84.4123 52.9883H85.8454C85.9289 52.9883 85.9961 53.0558 85.9961 53.1389C85.9961 53.222 85.9285 53.2895 85.8454 53.2895Z" fill="white"/>
<path d="M70.4075 16.5642L68.3333 17.2205C68.2644 17.2422 68.1993 17.2708 68.1372 17.3032C67.5124 16.2292 66.7114 15.2942 65.7839 14.5235C65.8273 14.4663 65.8676 14.4063 65.9011 14.3412L66.8947 12.4059C67.2039 11.8038 66.9654 11.0624 66.3633 10.7529L64.428 9.75922C63.8258 9.4504 63.0841 9.68856 62.775 10.2907L61.7813 12.226C61.7479 12.2911 61.7227 12.3587 61.7017 12.4269C60.566 12.1302 59.3735 12.0223 58.1692 12.126C58.1599 12.0567 58.1458 11.9871 58.1241 11.9182L57.4679 9.844C57.2638 9.19845 56.5724 8.83931 55.9269 9.0437L53.8527 9.69994C53.2071 9.90398 52.8483 10.5954 53.0524 11.2409L53.7086 13.3151C53.7303 13.384 53.7589 13.4492 53.7913 13.5112C52.7174 14.1361 51.7823 14.9371 51.0116 15.8646C50.9544 15.8211 50.8945 15.7808 50.8293 15.7474L48.894 14.7537C48.6042 14.6048 48.2736 14.5769 47.9631 14.6751C47.9614 14.6758 47.9593 14.6762 47.9576 14.6772C47.6453 14.7775 47.391 14.9936 47.241 15.2852L46.2474 17.2205C45.9382 17.8226 46.1767 18.564 46.7788 18.8735L48.7141 19.8671C48.7796 19.9009 48.8472 19.925 48.9154 19.9461C48.6186 21.0817 48.5104 22.2746 48.6142 23.4789C48.5449 23.4882 48.4753 23.5023 48.4063 23.524L46.3322 24.1802C45.6866 24.3843 45.3278 25.0757 45.5319 25.7212L46.1881 27.7954C46.3921 28.441 47.0835 28.7998 47.7291 28.5957L49.8033 27.9395C49.8722 27.9178 49.9373 27.8892 49.9994 27.8568C50.6242 28.9311 51.4256 29.8661 52.3534 30.6372C52.3103 30.694 52.2693 30.7533 52.2355 30.8188L51.2419 32.7541C51.0919 33.0457 51.0647 33.3786 51.165 33.6905C51.2653 34.0028 51.4814 34.2571 51.773 34.4067L53.7083 35.4004C54.0074 35.5541 54.3411 35.5724 54.6389 35.4779C54.9404 35.3825 55.2055 35.1715 55.3609 34.8686L56.3546 32.9333C56.3884 32.8678 56.4125 32.8003 56.4335 32.732C57.5692 33.0288 58.7621 33.1366 59.9667 33.0332C59.976 33.1025 59.9901 33.1721 60.0118 33.2414L60.6681 35.3156C60.8721 35.9612 61.5635 36.3199 62.209 36.1159L64.2832 35.4597C64.9288 35.2556 65.2876 34.5642 65.0835 33.9187L64.4273 31.8445C64.4056 31.7756 64.377 31.7104 64.3446 31.6484C65.4189 31.0235 66.3539 30.2222 67.125 29.2943C67.1818 29.3378 67.2411 29.3784 67.3069 29.4122L69.2422 30.4059C69.5414 30.5596 69.875 30.5779 70.1732 30.4838C70.4747 30.3883 70.7398 30.1774 70.8952 29.8744L71.8892 27.9391C72.1984 27.337 71.9599 26.5953 71.3578 26.2861L69.4225 25.2925C69.3573 25.259 69.2898 25.2339 69.2212 25.2125C69.5176 24.0768 69.6258 22.8843 69.5221 21.6804C69.5914 21.6711 69.661 21.657 69.7303 21.6353L71.8044 20.979C72.45 20.775 72.8088 20.0836 72.6047 19.4384L71.9485 17.3642C71.7441 16.7193 71.0531 16.3602 70.4075 16.5642ZM60.8069 28.077C57.7756 29.0358 54.5293 27.3498 53.5704 24.3184C52.6116 21.2871 54.2977 18.0408 57.329 17.0819C60.3603 16.1231 63.6063 17.8092 64.5651 20.8405C65.524 23.8721 63.8379 27.1181 60.8069 28.077Z" fill="#027DC0"/>
<path d="M67.7877 64.7206L67.2835 65.9552C67.2666 65.9962 67.2546 66.0379 67.2456 66.08C66.4946 65.9531 65.7398 65.9642 65.0129 66.0989C65.0029 66.0562 64.9905 66.0135 64.9729 65.9721L64.4504 64.7451C64.2877 64.3632 63.8452 64.185 63.4633 64.3474L62.2363 64.8695C61.8547 65.0318 61.6762 65.4751 61.8385 65.8566L62.361 67.0836C62.3786 67.125 62.4007 67.1632 62.4244 67.2001C61.8396 67.6189 61.3208 68.1386 60.8976 68.7466C60.8614 68.7239 60.8232 68.7032 60.7818 68.6863L59.5472 68.1821C59.1629 68.0252 58.7228 68.21 58.566 68.5943L58.0617 69.8289C57.9049 70.2132 58.0896 70.6533 58.4739 70.8101L59.7085 71.3144C59.7495 71.3312 59.7912 71.3433 59.8333 71.3523C59.7064 72.1033 59.7175 72.8581 59.8522 73.585C59.8095 73.595 59.7668 73.6074 59.7254 73.625L58.4984 74.1475C58.3144 74.2257 58.172 74.3705 58.0965 74.5552C58.0962 74.5563 58.0955 74.5576 58.0951 74.5587C58.02 74.7451 58.0221 74.9499 58.1007 75.1346L58.6232 76.3616C58.7859 76.7431 59.2287 76.9217 59.6103 76.7593L60.8373 76.2368C60.8786 76.2193 60.9169 76.1969 60.9534 76.1731C61.3722 76.7583 61.8919 77.277 62.5003 77.7003C62.4775 77.7365 62.4569 77.7751 62.44 77.8161L61.9357 79.0507C61.7789 79.435 61.9636 79.8751 62.3479 80.0319L63.5825 80.5362C63.9668 80.693 64.4069 80.5082 64.5638 80.1239L65.068 78.8894C65.0849 78.8483 65.097 78.8066 65.1059 78.7646C65.8569 78.8914 66.6121 78.8804 67.339 78.7453C67.349 78.788 67.3607 78.8304 67.3786 78.8721L67.9011 80.0991C67.9797 80.2842 68.1259 80.4272 68.3123 80.5024C68.4988 80.5775 68.7035 80.5754 68.8883 80.4969L70.1153 79.9744C70.3048 79.8937 70.4444 79.7438 70.5168 79.5663C70.5902 79.3867 70.5947 79.1792 70.513 78.9872L69.9908 77.7602C69.9732 77.7185 69.9508 77.6806 69.9267 77.6441C70.512 77.2253 71.0307 76.7056 71.4539 76.0972C71.4905 76.12 71.5287 76.1407 71.5697 76.1576L72.8043 76.6618C73.1886 76.8186 73.6287 76.6339 73.7856 76.2496L74.2898 75.015C74.4466 74.6307 74.2619 74.1906 73.8776 74.0338L72.643 73.5295C72.602 73.5126 72.5603 73.5005 72.5182 73.4916C72.6451 72.7406 72.634 71.9854 72.4989 71.2585C72.5417 71.2485 72.5841 71.2368 72.6258 71.2189L73.8528 70.6964C74.0423 70.6157 74.1819 70.4655 74.2543 70.2883C74.3277 70.1087 74.3322 69.9012 74.2502 69.7093L73.728 68.4819C73.5653 68.1 73.1224 67.9218 72.7409 68.0842L71.5139 68.6067C71.4725 68.6243 71.4343 68.6463 71.3974 68.6701C70.9786 68.0852 70.4589 67.5665 69.8509 67.1433C69.8736 67.1071 69.8943 67.0685 69.9112 67.0275L70.4155 65.7929C70.5723 65.4086 70.3875 64.9684 70.0032 64.8116L68.7687 64.3074C68.3847 64.1512 67.9446 64.3363 67.7877 64.7206ZM69.4483 73.7587C68.7114 75.563 66.6442 76.4316 64.8398 75.695C63.0355 74.9581 62.167 72.8908 62.9035 71.0865C63.6404 69.2822 65.7077 68.4137 67.512 69.1506C69.3163 69.8871 70.1849 71.9544 69.4483 73.7587Z" fill="#027DC0"/>
<path d="M59.611 58.4529L58.9547 59.1178C58.933 59.1398 58.914 59.1636 58.8968 59.1884C58.4443 58.9058 57.9528 58.7111 57.4458 58.6046C57.4509 58.5742 57.4541 58.5432 57.4537 58.5118L57.4434 57.5778C57.4399 57.2873 57.2007 57.0532 56.9102 57.0567L55.9758 57.0674C55.6852 57.0708 55.4512 57.3097 55.4547 57.6006L55.4654 58.5346C55.4657 58.566 55.4698 58.5966 55.4753 58.627C54.9845 58.7421 54.5099 58.9399 54.0736 59.2208C54.056 59.1963 54.0371 59.1729 54.0147 59.1508L53.3498 58.4946C53.143 58.2906 52.8083 58.2926 52.6043 58.4994L51.9481 59.1643C51.744 59.3711 51.7461 59.7058 51.9529 59.9098L52.6177 60.566C52.6398 60.5877 52.6636 60.6067 52.6884 60.6239C52.4058 61.0765 52.211 61.5683 52.1045 62.075C52.0742 62.0698 52.0432 62.0667 52.0118 62.067L51.0778 62.0777C50.9379 62.0794 50.8069 62.1349 50.7087 62.2345C50.708 62.2352 50.7073 62.2356 50.7069 62.2363C50.6084 62.3369 50.5553 62.4699 50.5567 62.6109L50.5673 63.5449C50.5708 63.8355 50.81 64.0695 51.1005 64.0661L52.0349 64.0554C52.0666 64.0551 52.097 64.0509 52.1273 64.0451C52.2424 64.5359 52.4402 65.0105 52.7211 65.4471C52.6967 65.4647 52.6732 65.484 52.6512 65.5061L51.9949 66.1709C51.7909 66.3777 51.793 66.7124 51.9998 66.9164L52.6646 67.5727C52.8714 67.7767 53.2061 67.7746 53.4101 67.5678L54.0664 66.903C54.0881 66.8809 54.107 66.8572 54.1243 66.8323C54.5768 67.115 55.0686 67.3097 55.5756 67.4162C55.5705 67.4465 55.567 67.4772 55.5674 67.5089L55.5781 68.4429C55.5798 68.5839 55.636 68.7156 55.7366 68.8141C55.8372 68.9127 55.9703 68.9658 56.1112 68.9644L57.0456 68.9541C57.19 68.9524 57.3203 68.8924 57.4148 68.7969C57.5102 68.7004 57.5685 68.567 57.5668 68.4209L57.5561 67.4869C57.5557 67.4551 57.5512 67.4248 57.5457 67.3945C58.0365 67.2794 58.5111 67.0815 58.9478 66.8006C58.9654 66.8251 58.9847 66.8489 59.0068 66.8706L59.6716 67.5268C59.8784 67.7312 60.2131 67.7288 60.4171 67.522L61.0734 66.8572C61.2774 66.6504 61.2753 66.3157 61.0685 66.1116L60.4037 65.4554C60.3816 65.4337 60.3578 65.4147 60.333 65.3975C60.6156 64.945 60.8104 64.4531 60.9172 63.9461C60.9476 63.9513 60.9782 63.9548 61.0099 63.9544L61.944 63.9437C62.0884 63.942 62.219 63.8824 62.3131 63.7866C62.4086 63.6897 62.4668 63.5567 62.4651 63.4105L62.4548 62.4762C62.4513 62.1856 62.2121 61.9516 61.9216 61.955L60.9875 61.9657C60.9562 61.966 60.9255 61.9702 60.8952 61.9757C60.78 61.4849 60.5822 61.0103 60.3013 60.574C60.3258 60.5564 60.3496 60.5371 60.3713 60.515L61.0275 59.8502C61.2316 59.6434 61.2295 59.3087 61.0227 59.1047L60.3578 58.4484C60.1497 58.244 59.8153 58.2461 59.611 58.4529ZM58.2726 64.7495C57.3134 65.7215 55.7428 65.7318 54.7709 64.7726C53.7989 63.8134 53.7886 62.2428 54.7478 61.2709C55.7066 60.2993 57.2776 60.2889 58.2495 61.2478C59.2211 62.2073 59.2315 63.7779 58.2726 64.7495Z" stroke="#027DC0" stroke-width="0.172331" stroke-miterlimit="10"/>
<path d="M7.13721 49.7637H2.87891V50.4761H7.13721V49.7637Z" fill="#027DC0"/>
<path d="M19.7582 49.7637H8.89648V50.4761H19.7582V49.7637Z" fill="#027DC0"/>
<path d="M19.7604 57.4121H13.0371V58.1245H19.7604V57.4121Z" fill="#027DC0"/>
<path d="M11.2759 57.4121H2.87891V58.1245H11.2759V57.4121Z" fill="#027DC0"/>
<path d="M12.2393 52.3691H2.87891V53.0816H12.2393V52.3691Z" fill="#027DC0"/>
<path d="M19.76 52.3691H14V53.0816H19.76V52.3691Z" fill="#027DC0"/>
<path d="M10.1451 54.9258H2.87891V55.6382H10.1451V54.9258Z" fill="#027DC0"/>
<path d="M19.7596 54.9258H13.1562V55.6382H19.7596V54.9258Z" fill="#027DC0"/>
<path d="M12.3374 54.9258H11.0742V55.6382H12.3374V54.9258Z" fill="#027DC0"/>
<path d="M119.372 116.477H115.113V117.189H119.372V116.477Z" fill="#027DC0"/>
<path d="M131.993 116.477H121.131V117.189H131.993V116.477Z" fill="#027DC0"/>
<path d="M131.993 124.125H125.27V124.837H131.993V124.125Z" fill="#027DC0"/>
<path d="M123.51 124.125H115.113V124.837H123.51V124.125Z" fill="#027DC0"/>
<path d="M124.473 119.08H115.113V119.792H124.473V119.08Z" fill="#027DC0"/>
<path d="M131.992 119.08H126.232V119.792H131.992V119.08Z" fill="#027DC0"/>
<path d="M122.379 121.639H115.113V122.351H122.379V121.639Z" fill="#027DC0"/>
<path d="M131.992 121.639H125.389V122.351H131.992V121.639Z" fill="#027DC0"/>
<path d="M124.572 121.639H123.309V122.351H124.572V121.639Z" fill="#027DC0"/>
<path d="M129.263 28.5717L127.591 28.9298C127.535 28.9418 127.482 28.9591 127.431 28.9797C127.023 28.0926 126.466 27.3009 125.797 26.6281C125.836 26.5867 125.872 26.5426 125.903 26.494L126.826 25.054C127.113 24.606 126.982 24.008 126.534 23.7209L125.094 22.7982C124.646 22.5115 124.048 22.6421 123.761 23.0905L122.838 24.5305C122.807 24.5787 122.782 24.6298 122.76 24.6818C121.894 24.3647 120.969 24.1907 120.019 24.1817C120.016 24.1266 120.011 24.0714 119.999 24.0156L119.641 22.3433C119.529 21.8228 119.016 21.4902 118.495 21.6016L116.823 21.9597C116.302 22.071 115.97 22.5852 116.081 23.1057L116.439 24.778C116.451 24.8335 116.468 24.8865 116.489 24.9375C115.602 25.346 114.81 25.9029 114.138 26.5709C114.096 26.5326 114.052 26.4964 114.004 26.4654L112.564 25.5428C112.348 25.4046 112.092 25.358 111.841 25.4115C111.84 25.4118 111.838 25.4121 111.837 25.4125C111.585 25.4676 111.37 25.6176 111.231 25.8347L110.308 27.2747C110.021 27.7228 110.152 28.3207 110.6 28.6079L112.04 29.5305C112.089 29.5619 112.14 29.586 112.192 29.6074C111.875 30.4739 111.701 31.3993 111.691 32.3495C111.637 32.3516 111.581 32.3574 111.525 32.3692L109.853 32.7273C109.333 32.8386 109 33.3525 109.111 33.8733L109.469 35.5456C109.581 36.066 110.095 36.3986 110.615 36.2873L112.287 35.9292C112.343 35.9171 112.396 35.8999 112.447 35.8792C112.855 36.7667 113.412 37.5584 114.081 38.2312C114.043 38.2725 114.007 38.3156 113.975 38.3646L113.053 39.8046C112.913 40.0217 112.867 40.2799 112.922 40.5318C112.977 40.7837 113.127 40.9988 113.344 41.1377L114.784 42.0604C115.007 42.2031 115.267 42.2424 115.507 42.191C115.75 42.139 115.973 41.9939 116.118 41.7684L117.04 40.3284C117.072 40.2798 117.096 40.2285 117.117 40.1768C117.984 40.4939 118.909 40.6679 119.859 40.6772C119.861 40.7324 119.867 40.7879 119.879 40.8434L120.237 42.5157C120.349 43.0361 120.863 43.3687 121.383 43.2574L123.055 42.8993C123.576 42.788 123.908 42.2741 123.797 41.7536L123.439 40.0813C123.427 40.0258 123.41 39.9728 123.389 39.9217C124.276 39.5133 125.068 38.9563 125.741 38.2877C125.782 38.326 125.826 38.3621 125.874 38.3935L127.314 39.3162C127.537 39.4589 127.797 39.4982 128.037 39.4468C128.28 39.3948 128.503 39.2497 128.648 39.0242L129.57 37.5842C129.858 37.1362 129.726 36.5382 129.279 36.2511L127.839 35.3284C127.79 35.2974 127.739 35.2726 127.687 35.2509C128.004 34.3844 128.178 33.4593 128.187 32.5094C128.243 32.5074 128.298 32.5015 128.353 32.4898L130.026 32.1317C130.546 32.0204 130.879 31.5065 130.767 30.986L130.409 29.3137C130.297 28.7929 129.783 28.4603 129.263 28.5717ZM120.888 36.8618C118.444 37.385 116.03 35.8227 115.507 33.3787C114.984 30.9347 116.546 28.5207 118.99 27.9975C121.434 27.4743 123.848 29.0366 124.371 31.4806C124.894 33.9246 123.332 36.3386 120.888 36.8618Z" fill="#027DC0"/>
<path d="M24.4281 67.8984H23.7727L25.2454 63.806H25.9588L27.4315 67.8984H26.7761L25.6191 64.5494H25.5871L24.4281 67.8984ZM24.538 66.2958H26.6642V66.8154H24.538V66.2958ZM28.572 66.076V67.8984H27.9745V64.8291H28.548V65.3287H28.586C28.6566 65.1662 28.7672 65.0356 28.9177 64.937C29.0696 64.8384 29.2607 64.7892 29.4912 64.7892C29.7004 64.7892 29.8835 64.8331 30.0407 64.921C30.1979 65.0076 30.3198 65.1368 30.4064 65.3087C30.493 65.4805 30.5363 65.693 30.5363 65.9461V67.8984H29.9388V66.0181C29.9388 65.7956 29.8809 65.6218 29.765 65.4965C29.6491 65.37 29.4899 65.3067 29.2874 65.3067C29.1488 65.3067 29.0256 65.3367 28.9177 65.3966C28.8111 65.4566 28.7265 65.5445 28.6639 65.6604C28.6026 65.775 28.572 65.9135 28.572 66.076ZM32.4866 67.9584C32.2388 67.9584 32.0177 67.8951 31.8232 67.7686C31.63 67.6407 31.4781 67.4588 31.3676 67.223C31.2583 66.9859 31.2037 66.7015 31.2037 66.3698C31.2037 66.0381 31.259 65.7543 31.3696 65.5185C31.4815 65.2827 31.6347 65.1022 31.8292 64.977C32.0237 64.8518 32.2441 64.7892 32.4906 64.7892C32.6811 64.7892 32.8343 64.8211 32.9502 64.8851C33.0674 64.9477 33.158 65.0209 33.2219 65.1049C33.2872 65.1888 33.3378 65.2627 33.3738 65.3267H33.4098V63.806H34.0073V67.8984H33.4238V67.4209H33.3738C33.3378 67.4861 33.2859 67.5607 33.2179 67.6447C33.1513 67.7286 33.0594 67.8019 32.9422 67.8645C32.825 67.9271 32.6731 67.9584 32.4866 67.9584ZM32.6185 67.4488C32.7903 67.4488 32.9355 67.4035 33.0541 67.3129C33.174 67.221 33.2646 67.0938 33.3259 66.9313C33.3885 66.7688 33.4198 66.5796 33.4198 66.3638C33.4198 66.1506 33.3891 65.9641 33.3279 65.8043C33.2666 65.6444 33.1766 65.5198 33.0581 65.4306C32.9395 65.3413 32.793 65.2967 32.6185 65.2967C32.4386 65.2967 32.2888 65.3433 32.1689 65.4366C32.049 65.5298 31.9584 65.6571 31.8971 65.8183C31.8372 65.9794 31.8072 66.1613 31.8072 66.3638C31.8072 66.5689 31.8378 66.7534 31.8991 66.9173C31.9604 67.0812 32.051 67.211 32.1709 67.307C32.2921 67.4015 32.4413 67.4488 32.6185 67.4488ZM34.86 67.8984V64.8291H35.4375V65.3167H35.4695C35.5254 65.1515 35.624 65.0216 35.7652 64.927C35.9078 64.8311 36.069 64.7832 36.2488 64.7832C36.2861 64.7832 36.3301 64.7845 36.3807 64.7872C36.4326 64.7898 36.4733 64.7931 36.5026 64.7971V65.3686C36.4786 65.362 36.436 65.3547 36.3747 65.3467C36.3134 65.3373 36.2521 65.3327 36.1909 65.3327C36.0496 65.3327 35.9238 65.3627 35.8132 65.4226C35.7039 65.4812 35.6174 65.5631 35.5534 65.6684C35.4895 65.7723 35.4575 65.8909 35.4575 66.0241V67.8984H34.86ZM38.2026 67.9604C37.9148 67.9604 37.6637 67.8944 37.4493 67.7626C37.2348 67.6307 37.0683 67.4462 36.9497 67.209C36.8311 66.9719 36.7718 66.6948 36.7718 66.3778C36.7718 66.0594 36.8311 65.781 36.9497 65.5425C37.0683 65.304 37.2348 65.1189 37.4493 64.987C37.6637 64.8551 37.9148 64.7892 38.2026 64.7892C38.4903 64.7892 38.7415 64.8551 38.9559 64.987C39.1704 65.1189 39.3369 65.304 39.4555 65.5425C39.5741 65.781 39.6333 66.0594 39.6333 66.3778C39.6333 66.6948 39.5741 66.9719 39.4555 67.209C39.3369 67.4462 39.1704 67.6307 38.9559 67.7626C38.7415 67.8944 38.4903 67.9604 38.2026 67.9604ZM38.2046 67.4588C38.3911 67.4588 38.5456 67.4095 38.6682 67.311C38.7907 67.2124 38.8813 67.0812 38.94 66.9173C38.9999 66.7534 39.0299 66.5729 39.0299 66.3758C39.0299 66.1799 38.9999 66.0001 38.94 65.8362C38.8813 65.671 38.7907 65.5385 38.6682 65.4386C38.5456 65.3387 38.3911 65.2887 38.2046 65.2887C38.0168 65.2887 37.8609 65.3387 37.737 65.4386C37.6144 65.5385 37.5232 65.671 37.4632 65.8362C37.4046 66.0001 37.3753 66.1799 37.3753 66.3758C37.3753 66.5729 37.4046 66.7534 37.4632 66.9173C37.5232 67.0812 37.6144 67.2124 37.737 67.311C37.8609 67.4095 38.0168 67.4588 38.2046 67.4588ZM40.3003 67.8984V64.8291H40.8977V67.8984H40.3003ZM40.602 64.3555C40.4981 64.3555 40.4088 64.3209 40.3342 64.2516C40.261 64.181 40.2243 64.0971 40.2243 63.9998C40.2243 63.9013 40.261 63.8173 40.3342 63.7481C40.4088 63.6775 40.4981 63.6422 40.602 63.6422C40.7059 63.6422 40.7945 63.6775 40.8678 63.7481C40.9424 63.8173 40.9797 63.9013 40.9797 63.9998C40.9797 64.0971 40.9424 64.181 40.8678 64.2516C40.7945 64.3209 40.7059 64.3555 40.602 64.3555ZM42.8505 67.9584C42.6028 67.9584 42.3816 67.8951 42.1871 67.7686C41.994 67.6407 41.8421 67.4588 41.7315 67.223C41.6223 66.9859 41.5677 66.7015 41.5677 66.3698C41.5677 66.0381 41.6229 65.7543 41.7335 65.5185C41.8454 65.2827 41.9986 65.1022 42.1931 64.977C42.3876 64.8518 42.6081 64.7892 42.8545 64.7892C43.045 64.7892 43.1982 64.8211 43.3141 64.8851C43.4314 64.9477 43.522 65.0209 43.5859 65.1049C43.6512 65.1888 43.7018 65.2627 43.7378 65.3267H43.7737V63.806H44.3712V67.8984H43.7877V67.4209H43.7378C43.7018 67.4861 43.6498 67.5607 43.5819 67.6447C43.5153 67.7286 43.4234 67.8019 43.3061 67.8645C43.1889 67.9271 43.037 67.9584 42.8505 67.9584ZM42.9824 67.4488C43.1543 67.4488 43.2995 67.4035 43.418 67.3129C43.5379 67.221 43.6285 67.0938 43.6898 66.9313C43.7524 66.7688 43.7837 66.5796 43.7837 66.3638C43.7837 66.1506 43.7531 65.9641 43.6918 65.8043C43.6305 65.6444 43.5406 65.5198 43.422 65.4306C43.3035 65.3413 43.1569 65.2967 42.9824 65.2967C42.8026 65.2967 42.6527 65.3433 42.5328 65.4366C42.4129 65.5298 42.3223 65.6571 42.2611 65.8183C42.2011 65.9794 42.1711 66.1613 42.1711 66.3638C42.1711 66.5689 42.2018 66.7534 42.2631 66.9173C42.3243 67.0812 42.4149 67.211 42.5348 67.307C42.656 67.4015 42.8052 67.4488 42.9824 67.4488Z" fill="white"/>
<path d="M22.9815 118.594H22.358C22.334 118.461 22.2894 118.343 22.2241 118.242C22.1588 118.141 22.0789 118.055 21.9843 117.984C21.8897 117.914 21.7838 117.861 21.6666 117.825C21.5507 117.789 21.4275 117.771 21.2969 117.771C21.0611 117.771 20.85 117.83 20.6635 117.948C20.4783 118.067 20.3318 118.241 20.2239 118.47C20.1173 118.699 20.064 118.979 20.064 119.309C20.064 119.642 20.1173 119.923 20.2239 120.153C20.3318 120.382 20.479 120.555 20.6655 120.672C20.852 120.789 21.0618 120.848 21.2949 120.848C21.4241 120.848 21.5467 120.831 21.6626 120.796C21.7798 120.76 21.8857 120.707 21.9803 120.638C22.0749 120.569 22.1548 120.484 22.2201 120.384C22.2867 120.283 22.3327 120.167 22.358 120.037L22.9815 120.039C22.9481 120.24 22.8835 120.425 22.7876 120.594C22.693 120.762 22.5711 120.907 22.4219 121.03C22.2741 121.151 22.1049 121.245 21.9144 121.312C21.7239 121.378 21.5161 121.411 21.2909 121.411C20.9366 121.411 20.6208 121.327 20.3438 121.16C20.0667 120.99 19.8482 120.749 19.6883 120.434C19.5298 120.12 19.4505 119.745 19.4505 119.309C19.4505 118.872 19.5305 118.497 19.6903 118.184C19.8502 117.87 20.0687 117.629 20.3458 117.461C20.6228 117.292 20.9379 117.207 21.2909 117.207C21.5081 117.207 21.7106 117.238 21.8984 117.301C22.0876 117.362 22.2574 117.453 22.408 117.573C22.5585 117.691 22.683 117.837 22.7816 118.008C22.8802 118.179 22.9468 118.374 22.9815 118.594ZM24.8753 120.668V117.966H25.4128V120.668H24.8753ZM23.7942 119.585V119.049H26.4959V119.585H23.7942ZM28.623 120.668V117.966H29.1606V120.668H28.623ZM27.542 119.585V119.049H30.2436V119.585H27.542Z" fill="white"/>
<path d="M135.555 71.1205V75.2129H134.938V71.1205H135.555ZM137.699 75.2748C137.412 75.2748 137.161 75.2089 136.946 75.077C136.732 74.9451 136.565 74.7606 136.447 74.5235C136.328 74.2864 136.269 74.0093 136.269 73.6922C136.269 73.3738 136.328 73.0954 136.447 72.8569C136.565 72.6185 136.732 72.4333 136.946 72.3014C137.161 72.1695 137.412 72.1036 137.699 72.1036C137.987 72.1036 138.238 72.1695 138.453 72.3014C138.667 72.4333 138.834 72.6185 138.952 72.8569C139.071 73.0954 139.13 73.3738 139.13 73.6922C139.13 74.0093 139.071 74.2864 138.952 74.5235C138.834 74.7606 138.667 74.9451 138.453 75.077C138.238 75.2089 137.987 75.2748 137.699 75.2748ZM137.701 74.7733C137.888 74.7733 138.043 74.724 138.165 74.6254C138.288 74.5268 138.378 74.3956 138.437 74.2317C138.497 74.0679 138.527 73.8874 138.527 73.6902C138.527 73.4944 138.497 73.3145 138.437 73.1507C138.378 72.9855 138.288 72.853 138.165 72.753C138.043 72.6531 137.888 72.6032 137.701 72.6032C137.514 72.6032 137.358 72.6531 137.234 72.753C137.111 72.853 137.02 72.9855 136.96 73.1507C136.902 73.3145 136.872 73.4944 136.872 73.6902C136.872 73.8874 136.902 74.0679 136.96 74.2317C137.02 74.3956 137.111 74.5268 137.234 74.6254C137.358 74.724 137.514 74.7733 137.701 74.7733ZM142.097 72.8929L141.556 72.9888C141.533 72.9196 141.497 72.8536 141.448 72.791C141.4 72.7284 141.334 72.6771 141.252 72.6371C141.169 72.5972 141.066 72.5772 140.942 72.5772C140.773 72.5772 140.632 72.6152 140.519 72.6911C140.405 72.7657 140.349 72.8623 140.349 72.9808C140.349 73.0834 140.387 73.166 140.463 73.2286C140.539 73.2912 140.661 73.3425 140.83 73.3825L141.318 73.4944C141.6 73.5597 141.811 73.6602 141.949 73.7961C142.088 73.932 142.157 74.1085 142.157 74.3257C142.157 74.5095 142.104 74.6734 141.997 74.8172C141.892 74.9598 141.745 75.0717 141.556 75.1529C141.368 75.2342 141.15 75.2748 140.902 75.2748C140.558 75.2748 140.278 75.2016 140.061 75.055C139.844 74.9072 139.711 74.6973 139.661 74.4256L140.239 74.3377C140.275 74.4882 140.349 74.6021 140.461 74.6794C140.572 74.7553 140.718 74.7933 140.898 74.7933C141.094 74.7933 141.251 74.7526 141.368 74.6714C141.485 74.5888 141.544 74.4882 141.544 74.3696C141.544 74.2737 141.508 74.1931 141.436 74.1278C141.365 74.0626 141.257 74.0133 141.11 73.98L140.59 73.8661C140.304 73.8008 140.092 73.6969 139.955 73.5543C139.819 73.4118 139.751 73.2313 139.751 73.0128C139.751 72.8316 139.802 72.6731 139.903 72.5372C140.004 72.4013 140.144 72.2954 140.323 72.2195C140.501 72.1422 140.706 72.1036 140.936 72.1036C141.268 72.1036 141.529 72.1755 141.719 72.3194C141.91 72.462 142.036 72.6531 142.097 72.8929Z" fill="white"/>
<path d="M92.1703 113.477V109.384H94.7081V109.916H92.7878V111.163H94.5263V111.692H92.7878V113.477H92.1703ZM96.017 109.384V113.477H95.4195V109.384H96.017ZM98.7651 112.204V110.407H99.3645V113.477H98.777V112.945H98.7451C98.6745 113.109 98.5612 113.245 98.4054 113.355C98.2508 113.463 98.0583 113.517 97.8279 113.517C97.6307 113.517 97.4562 113.473 97.3043 113.387C97.1538 113.299 97.0352 113.169 96.9486 112.997C96.8634 112.825 96.8208 112.613 96.8208 112.36V110.407H97.4182V112.288C97.4182 112.497 97.4762 112.663 97.5921 112.787C97.708 112.911 97.8585 112.973 98.0437 112.973C98.1556 112.973 98.2668 112.945 98.3774 112.889C98.4893 112.833 98.5819 112.749 98.6552 112.635C98.7298 112.522 98.7664 112.378 98.7651 112.204ZM101.6 110.407V110.887H99.9235V110.407H101.6ZM100.373 109.672H100.971V112.575C100.971 112.691 100.988 112.779 101.023 112.837C101.057 112.894 101.102 112.934 101.156 112.955C101.212 112.975 101.273 112.985 101.338 112.985C101.386 112.985 101.428 112.982 101.464 112.975C101.5 112.968 101.528 112.963 101.548 112.959L101.656 113.453C101.621 113.466 101.572 113.479 101.508 113.493C101.444 113.507 101.364 113.515 101.268 113.517C101.111 113.519 100.965 113.491 100.829 113.433C100.693 113.374 100.583 113.283 100.499 113.161C100.415 113.038 100.373 112.884 100.373 112.699V109.672ZM103.694 110.407V110.887H102.017V110.407H103.694ZM102.467 109.672H103.064V112.575C103.064 112.691 103.082 112.779 103.116 112.837C103.151 112.894 103.196 112.934 103.25 112.955C103.306 112.975 103.367 112.985 103.432 112.985C103.48 112.985 103.522 112.982 103.558 112.975C103.594 112.968 103.622 112.963 103.642 112.959L103.75 113.453C103.715 113.466 103.666 113.479 103.602 113.493C103.538 113.507 103.458 113.515 103.362 113.517C103.205 113.519 103.058 113.491 102.922 113.433C102.787 113.374 102.677 113.283 102.593 113.161C102.509 113.038 102.467 112.884 102.467 112.699V109.672ZM105.645 113.539C105.342 113.539 105.082 113.474 104.863 113.345C104.646 113.214 104.478 113.031 104.36 112.795C104.242 112.558 104.184 112.28 104.184 111.962C104.184 111.647 104.242 111.37 104.36 111.131C104.478 110.891 104.643 110.704 104.855 110.569C105.068 110.435 105.318 110.367 105.603 110.367C105.776 110.367 105.944 110.396 106.106 110.453C106.269 110.51 106.415 110.6 106.544 110.723C106.673 110.846 106.775 111.005 106.849 111.201C106.924 111.395 106.961 111.632 106.961 111.91V112.122H104.522V111.674H106.376C106.376 111.517 106.344 111.378 106.28 111.257C106.216 111.134 106.126 111.037 106.01 110.967C105.896 110.896 105.761 110.861 105.607 110.861C105.439 110.861 105.292 110.902 105.167 110.985C105.043 111.066 104.947 111.173 104.879 111.304C104.813 111.435 104.779 111.577 104.779 111.73V112.08C104.779 112.285 104.815 112.459 104.887 112.603C104.96 112.747 105.062 112.857 105.193 112.933C105.323 113.008 105.476 113.045 105.651 113.045C105.764 113.045 105.867 113.029 105.96 112.997C106.054 112.964 106.134 112.914 106.202 112.849C106.27 112.784 106.322 112.703 106.358 112.607L106.923 112.709C106.878 112.876 106.797 113.022 106.68 113.147C106.564 113.271 106.418 113.367 106.242 113.437C106.068 113.505 105.868 113.539 105.645 113.539ZM107.624 113.477V110.407H108.202V110.895H108.234C108.29 110.73 108.388 110.6 108.53 110.505C108.672 110.409 108.833 110.361 109.013 110.361C109.05 110.361 109.094 110.363 109.145 110.365C109.197 110.368 109.238 110.371 109.267 110.375V110.947C109.243 110.94 109.2 110.933 109.139 110.925C109.078 110.915 109.016 110.911 108.955 110.911C108.814 110.911 108.688 110.941 108.577 111.001C108.468 111.059 108.382 111.141 108.318 111.247C108.254 111.35 108.222 111.469 108.222 111.602V113.477H107.624Z" fill="white"/>
</svg>
