<svg width="110" height="127" viewBox="0 0 110 127" fill="none" xmlns="http://www.w3.org/2000/svg">
<path d="M23.7444 88.737H10.6909C8.57697 88.737 6.85742 87.0174 6.85742 84.9038V41.7025C6.85742 39.5885 8.57697 37.869 10.6909 37.869H52.8669C54.5009 37.869 55.8301 36.5398 55.8301 34.9058V18.1264C55.8301 16.0125 57.5499 14.293 59.6636 14.293H104.71C106.823 14.293 108.543 16.0125 108.543 18.1264V33.5039C108.543 35.6178 106.823 37.3373 104.71 37.3373H62.2304C60.5964 37.3373 59.2672 38.6666 59.2672 40.3005V73.449C59.2672 73.6891 59.0721 73.8841 58.832 73.8841C58.5919 73.8841 58.3969 73.6891 58.3969 73.449V40.3005C58.3969 38.1866 60.1164 36.4671 62.2301 36.4671H104.709C106.343 36.4671 107.672 35.1378 107.672 33.5039V18.1264C107.672 16.4925 106.343 15.1633 104.709 15.1633H59.6636C58.0296 15.1633 56.7001 16.4925 56.7001 18.1264V34.9056C56.7001 37.0195 54.9806 38.739 52.8669 38.739H10.6909C9.05695 38.739 7.72771 40.0683 7.72771 41.7022V84.9035C7.72771 86.5375 9.05695 87.8667 10.6909 87.8667H23.7444C23.9848 87.8667 24.1796 88.0615 24.1796 88.3018C24.1796 88.5422 23.9848 88.737 23.7444 88.737Z" fill="#EDEFEE"/>
<path d="M101.487 89.8974H67.0484C66.8083 89.8974 66.6133 89.7026 66.6133 89.4622C66.6133 89.2221 66.8083 89.0271 67.0484 89.0271H101.487C103.121 89.0271 104.45 87.6976 104.45 86.0636V57.0346C104.45 55.4007 103.121 54.0715 101.487 54.0715H78.3855C78.1454 54.0715 77.9503 53.8767 77.9503 53.6363C77.9503 53.3959 78.1454 53.2012 78.3855 53.2012H101.487C103.601 53.2012 105.32 54.9207 105.32 57.0346V86.0636C105.32 88.1776 103.601 89.8974 101.487 89.8974Z" fill="#EDEFEE"/>
<path d="M60.5826 73.5925C60.5026 73.5925 60.4375 73.5277 60.4375 73.4474V40.299C60.4375 39.3048 61.2462 38.4961 62.2404 38.4961H90.4138C90.4941 38.4961 90.5589 38.5609 90.5589 38.6412C90.5589 38.7215 90.4941 38.7864 90.4138 38.7864H62.2404C61.4063 38.7864 60.7278 39.4649 60.7278 40.2992V73.4477C60.7278 73.5277 60.6629 73.5925 60.5826 73.5925Z" fill="#EDEFEE"/>
<path d="M109.852 25.4924C109.772 25.4924 109.707 25.4275 109.707 25.3472V18.1258C109.707 15.3721 107.467 13.1321 104.713 13.1321C104.633 13.1321 104.568 13.0672 104.568 12.9869C104.568 12.9069 104.633 12.8418 104.713 12.8418C107.627 12.8418 109.997 15.212 109.997 18.1256V25.347C109.997 25.4275 109.932 25.4924 109.852 25.4924Z" fill="#EDEFEE"/>
<path d="M52.8694 36.7078H44.2643C44.1842 36.7078 44.1191 36.643 44.1191 36.5627C44.1191 36.4827 44.184 36.4176 44.2643 36.4176H52.8694C53.7034 36.4176 54.382 35.739 54.382 34.9047V18.1256C54.382 15.212 56.7522 12.8418 59.666 12.8418C59.7461 12.8418 59.8112 12.9066 59.8112 12.9869C59.8112 13.0672 59.7463 13.1321 59.666 13.1321C56.9123 13.1321 54.672 15.3721 54.672 18.1258V34.905C54.6723 35.8988 53.8635 36.7078 52.8694 36.7078Z" fill="#EDEFEE"/>
<path d="M5.5631 68.2889C5.48306 68.2889 5.41797 68.224 5.41797 68.1437V41.7076C5.41797 38.7941 7.78821 36.4238 10.7017 36.4238H37.2268C37.3068 36.4238 37.3719 36.4887 37.3719 36.569C37.3719 36.6493 37.3071 36.7141 37.2268 36.7141H10.702C7.94829 36.7141 5.70823 38.9541 5.70823 41.7079V68.1442C5.70823 68.224 5.64339 68.2889 5.5631 68.2889Z" fill="#EDEFEE"/>
<path d="M23.7475 90.1867H10.6939C7.7804 90.1867 5.41016 87.8165 5.41016 84.9029C5.41016 84.8229 5.475 84.7578 5.55529 84.7578C5.63558 84.7578 5.70042 84.8227 5.70042 84.9029C5.70042 87.6564 7.94073 89.8967 10.6942 89.8967H23.7477C23.828 89.8967 23.8929 89.9616 23.8929 90.0418C23.8929 90.1221 23.8278 90.1867 23.7475 90.1867Z" fill="#EDEFEE"/>
<path d="M52.8731 40.1903H25.5963C25.5163 40.1903 25.4512 40.1254 25.4512 40.0451C25.4512 39.9648 25.516 39.9 25.5963 39.9H52.8731C55.6265 39.9 57.8666 37.6599 57.8666 34.9062V18.1271C57.8666 17.133 58.6753 16.3242 59.6697 16.3242H69.769C69.849 16.3242 69.9141 16.3891 69.9141 16.4694C69.9141 16.5496 69.8493 16.6145 69.769 16.6145H59.6697C58.8354 16.6145 58.1566 17.293 58.1566 18.1274V34.9065C58.1569 37.8198 55.7866 40.1903 52.8731 40.1903Z" fill="#EDEFEE"/>
<path d="M23.7471 86.7069H10.6935C9.69936 86.7069 8.89062 85.8981 8.89062 84.904V53.6334C8.89062 53.5534 8.95547 53.4883 9.03576 53.4883C9.11579 53.4883 9.18089 53.5531 9.18089 53.6334V84.904C9.18089 85.7381 9.85944 86.4166 10.6938 86.4166H23.7473C23.8276 86.4166 23.8924 86.4814 23.8924 86.5617C23.8924 86.642 23.8274 86.7069 23.7471 86.7069Z" fill="#EDEFEE"/>
<path d="M104.709 35.3059H69.7623C69.6823 35.3059 69.6172 35.2411 69.6172 35.1608C69.6172 35.0808 69.682 35.0157 69.7623 35.0157H104.709C105.543 35.0157 106.222 34.3371 106.222 33.5028V18.1256C106.222 18.0456 106.287 17.9805 106.367 17.9805C106.447 17.9805 106.512 18.0453 106.512 18.1256V33.503C106.512 34.4972 105.703 35.3059 104.709 35.3059Z" fill="#EDEFEE"/>
<path d="M57.0924 73.592C57.0124 73.592 56.9473 73.5271 56.9473 73.4468V59.6529C56.9473 59.5727 57.0121 59.5078 57.0924 59.5078C57.1727 59.5078 57.2375 59.5727 57.2375 59.6529V73.4468C57.2375 73.5271 57.1727 73.592 57.0924 73.592Z" fill="#EDEFEE"/>
<path d="M95.8798 55.5188H78.3854C78.3053 55.5188 78.2402 55.4539 78.2402 55.3736C78.2402 55.2936 78.3051 55.2285 78.3854 55.2285H95.8798C95.9598 55.2285 96.0249 55.2934 96.0249 55.3736C96.0249 55.4539 95.9601 55.5188 95.8798 55.5188Z" fill="#EDEFEE"/>
<path d="M101.486 87.8701H67.0475C66.9674 87.8701 66.9023 87.8053 66.9023 87.725C66.9023 87.6447 66.9672 87.5799 67.0475 87.5799H101.486C102.32 87.5799 102.999 86.9011 102.999 86.067C102.999 85.9867 103.064 85.9219 103.144 85.9219C103.224 85.9219 103.289 85.9867 103.289 86.067C103.289 87.0614 102.48 87.8701 101.486 87.8701Z" fill="#EDEFEE"/>
<path d="M101.488 91.3486H73.2115C73.1312 91.3486 73.0664 91.2838 73.0664 91.2035C73.0664 91.1232 73.1312 91.0584 73.2115 91.0584H101.488C104.242 91.0584 106.482 88.8183 106.482 86.0643V68.651C106.482 68.571 106.547 68.5059 106.627 68.5059C106.707 68.5059 106.772 68.5707 106.772 68.651V86.0643C106.772 88.9781 104.402 91.3486 101.488 91.3486Z" fill="#EDEFEE"/>
<path d="M106.626 57.1811C106.546 57.1811 106.481 57.1163 106.481 57.036C106.481 54.2823 104.24 52.0422 101.487 52.0422H78.3854C78.3053 52.0422 78.2402 51.9774 78.2402 51.8971C78.2402 51.8168 78.3051 51.752 78.3854 51.752H101.487C104.4 51.752 106.771 54.1222 106.771 57.0357C106.771 57.1163 106.706 57.1811 106.626 57.1811Z" fill="#EDEFEE"/>
<path d="M81.1169 80.3182H75.5117L76.3602 78.0234H80.2684L81.1169 80.3182Z" fill="#11324D"/>
<path d="M79.5972 80.3182H75.5117L76.3602 78.0234H78.7487L79.5972 80.3182Z" fill="#174366"/>
<path d="M83.4943 81.34V86.9478C83.4943 87.6975 82.8865 88.3079 82.1342 88.3079H74.5027C73.753 88.3079 73.1426 87.6975 73.1426 86.9478V81.34C73.1426 80.5903 73.753 79.9824 74.5027 79.9824H82.1342C82.8865 79.9824 83.4943 80.5903 83.4943 81.34Z" fill="#11324D"/>
<path d="M81.6783 81.34V86.9478C81.6783 87.6975 81.0704 88.3079 80.3181 88.3079H74.5027C73.753 88.3079 73.1426 87.6975 73.1426 86.9478V81.34C73.1426 80.5903 73.753 79.9824 74.5027 79.9824H80.3181C81.0704 79.9824 81.6783 80.5903 81.6783 81.34Z" fill="#174366"/>
<path d="M80.6317 86.4541C81.9104 85.1753 81.9104 83.102 80.6317 81.8233C79.3529 80.5445 77.2797 80.5446 76.0009 81.8233C74.7222 83.102 74.7222 85.1753 76.0009 86.454C77.2797 87.7328 79.3529 87.7328 80.6317 86.4541Z" fill="#11324D"/>
<path d="M81.3392 84.6308C81.6087 82.9633 80.4755 81.393 78.808 81.1234C77.1405 80.8538 75.5702 81.9871 75.3006 83.6546C75.031 85.3221 76.1643 86.8924 77.8318 87.162C79.4993 87.4315 81.0696 86.2983 81.3392 84.6308Z" fill="#EDEFEE"/>
<path d="M80.1686 86.2047C81.3075 85.1889 81.4072 83.4421 80.3913 82.3032C79.3754 81.1644 77.6287 81.0647 76.4898 82.0805C75.351 83.0964 75.2513 84.8432 76.2671 85.982C77.283 87.1209 79.0297 87.2206 80.1686 86.2047Z" fill="#CFD1D0"/>
<path d="M79.9984 85.8226C79.0694 86.7517 77.5633 86.7517 76.6343 85.8226C75.7052 84.8936 75.7052 83.3876 76.6343 82.4585C77.5633 81.5295 79.0694 81.5295 79.9984 82.4585C80.9272 83.3873 80.9272 84.8936 79.9984 85.8226Z" fill="#027DC0"/>
<path d="M80.0005 82.4572C79.5286 81.9853 78.9076 81.7543 78.2891 81.7619V86.5168C78.9076 86.5244 79.5284 86.2934 80.0005 85.8216C80.9293 84.8925 80.9293 83.3862 80.0005 82.4572Z" fill="#00B6E8"/>
<path d="M74.4056 84.4479C74.2656 84.4479 74.1523 84.3347 74.1523 84.1946V81.9994C74.1523 81.8593 74.2656 81.7461 74.4056 81.7461C74.5457 81.7461 74.6589 81.8593 74.6589 81.9994V84.1946C74.6589 84.3347 74.5457 84.4479 74.4056 84.4479Z" fill="#EDEFEE"/>
<path d="M74.4056 85.8831C74.2656 85.8831 74.1523 85.7699 74.1523 85.6298V85.0795C74.1523 84.9394 74.2656 84.8262 74.4056 84.8262C74.5457 84.8262 74.6589 84.9394 74.6589 85.0795V85.6298C74.6589 85.7699 74.5457 85.8831 74.4056 85.8831Z" fill="#EDEFEE"/>
<path d="M102.328 67.7461H88.7344V79.1731H102.328V67.7461Z" fill="#11324D"/>
<path d="M100.111 67.7461H88.7344V79.1731H100.111V67.7461Z" fill="#174366"/>
<path d="M101.049 69.0234H90.0059V75.9052H101.049V69.0234Z" fill="#F5B41D"/>
<path d="M101.049 69.0234L90.0059 75.9052V69.0234H101.049Z" fill="#FFCA26"/>
<path d="M95.5316 75.9051C96.5458 75.9051 97.3679 75.0829 97.3679 74.0687C97.3679 73.0546 96.5458 72.2324 95.5316 72.2324C94.5175 72.2324 93.6953 73.0546 93.6953 74.0687C93.6953 75.0829 94.5175 75.9051 95.5316 75.9051Z" fill="#FF3938"/>
<path d="M101.049 73.248V75.905H90.0059V74.132C90.1376 74.0687 90.2718 74.013 90.4086 73.9699C91.4167 73.6482 92.5108 73.7774 93.5519 73.9623C94.5954 74.1472 95.6491 74.3878 96.7027 74.2815C97.6297 74.1877 98.5036 73.8331 99.3951 73.5621C99.9321 73.4 100.492 73.2708 101.049 73.248Z" fill="#027DC0"/>
<path d="M101.049 74.0664V75.9027H90.0059V74.9504C90.1376 74.887 90.2718 74.8313 90.4086 74.7883C91.4167 74.4666 92.5108 74.5958 93.5519 74.7807C94.5954 74.9656 95.6491 75.2062 96.7027 75.0998C97.6297 75.0061 98.5036 74.6515 99.3951 74.3805C99.9321 74.2184 100.492 74.0892 101.049 74.0664Z" fill="#00B6E8"/>
<path d="M91.2396 73.3059C91.0995 73.3059 90.9863 73.1927 90.9863 73.0527V70.1771C90.9863 70.037 91.0995 69.9238 91.2396 69.9238C91.3797 69.9238 91.4929 70.037 91.4929 70.1771V73.0527C91.4929 73.1925 91.3797 73.3059 91.2396 73.3059Z" fill="#EDEFEE"/>
<path d="M91.2006 74.7842C91.0605 74.7842 90.9473 74.671 90.9473 74.5309V73.9759C90.9473 73.8359 91.0605 73.7227 91.2006 73.7227C91.3406 73.7227 91.4538 73.8359 91.4538 73.9759V74.5309C91.4538 74.671 91.3406 74.7842 91.2006 74.7842Z" fill="#EDEFEE"/>
<path d="M52.5396 69.0135H45.2491C44.1655 69.0135 43.2871 68.1351 43.2871 67.0516V61.6143C43.2871 60.5307 44.1655 59.6523 45.2491 59.6523H52.5396C53.6232 59.6523 54.5016 60.5307 54.5016 61.6143V67.0516C54.5016 68.1351 53.6232 69.0135 52.5396 69.0135Z" fill="#174366"/>
<path d="M52.5396 59.6523H48.9062V69.0138H52.5396C53.6232 69.0138 54.5016 68.1354 54.5016 67.0518V61.6145C54.5016 60.5307 53.6232 59.6523 52.5396 59.6523Z" fill="#11324D"/>
<path d="M54.4977 66.202H50.9256C50.3119 66.202 49.8145 65.7045 49.8145 65.0908V63.5721C49.8145 62.9584 50.3119 62.4609 50.9256 62.4609H54.4977V66.202Z" fill="#027DC0"/>
<path d="M54.5014 62.4609H53.043V66.202H54.5014V62.4609Z" fill="#00B6E8"/>
<path d="M51.7836 64.3332C51.7836 64.7286 51.463 65.0493 51.0676 65.0493C50.6722 65.0493 50.3516 64.7286 50.3516 64.3332C50.3516 63.9378 50.6722 63.6172 51.0676 63.6172C51.4632 63.6172 51.7836 63.9378 51.7836 64.3332Z" fill="#174366"/>
<path d="M87.9351 35.9638H84.6217C84.1759 35.9638 83.8145 35.6024 83.8145 35.1568V32.4381C83.8145 31.9923 84.1759 31.6309 84.6217 31.6309H87.9351C88.3809 31.6309 88.7421 31.9923 88.7421 32.4381V35.1568C88.7421 35.6026 88.3809 35.9638 87.9351 35.9638Z" fill="#174366"/>
<path d="M86.875 35.9632H85.6855V34.3916C85.6855 34.0631 85.9518 33.7969 86.2803 33.7969C86.6088 33.7969 86.875 34.0631 86.875 34.3916V35.9632Z" fill="#EEA218"/>
<path d="M87.9782 32.73C87.6968 32.73 87.4684 32.5018 87.4684 32.2204V30.5214C87.4684 29.8656 86.935 29.332 86.2792 29.332C85.6235 29.332 85.0898 29.8654 85.0898 30.5214V32.2204C85.0898 32.5018 84.8616 32.73 84.5802 32.73C84.2985 32.73 84.0703 32.5018 84.0703 32.2204V30.5214C84.0703 29.3034 85.0612 28.3125 86.2792 28.3125C87.497 28.3125 88.4879 29.3034 88.4879 30.5214V32.2204C88.4881 32.5018 88.2599 32.73 87.9782 32.73Z" fill="#174366"/>
<path d="M101.142 31.7337C103.639 31.7337 105.663 29.7095 105.663 27.2125C105.663 24.7156 103.639 22.6914 101.142 22.6914C98.6453 22.6914 96.6211 24.7156 96.6211 27.2125C96.6211 29.7095 98.6453 31.7337 101.142 31.7337Z" fill="#E33332"/>
<path d="M101.146 31.2945C103.398 31.2945 105.224 29.4687 105.224 27.2166C105.224 24.9644 103.398 23.1387 101.146 23.1387C98.8941 23.1387 97.0684 24.9644 97.0684 27.2166C97.0684 29.4687 98.8941 31.2945 101.146 31.2945Z" fill="#FF3938"/>
<path d="M101.14 30.4392C102.923 30.4392 104.369 28.9938 104.369 27.2108C104.369 25.4278 102.923 23.9824 101.14 23.9824C99.3575 23.9824 97.9121 25.4278 97.9121 27.2108C97.9121 28.9938 99.3575 30.4392 101.14 30.4392Z" fill="#027DC0"/>
<path d="M101.143 23.9824V30.4389C102.924 30.4374 104.368 28.9927 104.368 27.2105C104.368 25.4284 102.924 23.9837 101.143 23.9824Z" fill="#00B6E8"/>
<path d="M102.326 27.5939H101.136C101.067 27.5939 101.01 27.5371 101.01 27.4672V25.3434C101.01 25.2735 101.067 25.2168 101.136 25.2168C101.206 25.2168 101.263 25.2735 101.263 25.3434V27.3406H102.326C102.396 27.3406 102.452 27.3973 102.452 27.4672C102.452 27.5371 102.396 27.5939 102.326 27.5939Z" fill="#174366"/>
<path d="M102.759 6.99805H93.584V13.4548H102.759V6.99805Z" fill="#027DC0"/>
<path d="M102.761 6.99805H98.2363V13.4548H102.761V6.99805Z" fill="#00B6E8"/>
<path d="M102.759 8.5293H93.584V10.2283H102.759V8.5293Z" fill="#174366"/>
<path d="M102.761 8.5293H98.2363V10.2283H102.761V8.5293Z" fill="#11324D"/>
<path d="M69.1891 20.084H60.3535V25.946H69.1891V20.084Z" fill="#C81C1C"/>
<path d="M60.3535 20.084L64.7713 23.2485L69.1894 20.084H60.3535Z" fill="#FF3938"/>
<path d="M74.8002 35.377H44.2578V55.3421H74.8002V35.377Z" fill="#CFD1D0"/>
<path d="M70.2834 35.377H44.2578V55.3421H70.2834V35.377Z" fill="#EDEFEE"/>
<path d="M74.8002 54.7266H44.2578V55.3385H74.8002V54.7266Z" fill="#CFD1D0"/>
<path d="M56.4531 55.8449V39.1992H47.9929V55.8449H56.4531Z" fill="#8A8A8A"/>
<path d="M55.949 39.7051H48.502V55.3373H55.949V39.7051Z" fill="#027DC0"/>
<path d="M55.9445 39.7051H52.2754V55.3373H55.9445V39.7051Z" fill="#00B6E8"/>
<path d="M72.7148 50.3012V39.1992H58.5757V50.3012H72.7148Z" fill="#8A8A8A"/>
<path d="M72.21 39.7051H59.084V49.7939H72.21V39.7051Z" fill="#027DC0"/>
<path d="M72.2114 39.7051H65.6191V49.7939H72.2114V39.7051Z" fill="#00B6E8"/>
<path d="M42.7882 41.6427C41.3001 41.6427 40.0938 40.4363 40.0938 38.9483V35.377H45.4826V38.9483C45.4826 40.4363 44.2762 41.6427 42.7882 41.6427Z" fill="#FF3938"/>
<path d="M48.1749 41.6427C46.6869 41.6427 45.4805 40.4363 45.4805 38.9483V35.377H50.8691V38.9483C50.8691 40.4363 49.663 41.6427 48.1749 41.6427Z" fill="#EDEFEE"/>
<path d="M53.5694 41.6427C52.0814 41.6427 50.875 40.4363 50.875 38.9483V35.377H56.2639V38.9483C56.2639 40.4363 55.0575 41.6427 53.5694 41.6427Z" fill="#FF3938"/>
<path d="M58.9562 41.6427C57.4681 41.6427 56.2617 40.4363 56.2617 38.9483V35.377H61.6504V38.9483C61.6506 40.4363 60.4442 41.6427 58.9562 41.6427Z" fill="#EDEFEE"/>
<path d="M64.3429 41.6427C62.8548 41.6427 61.6484 40.4363 61.6484 38.9483V35.377H67.0373V38.9483C67.0373 40.4363 65.8312 41.6427 64.3429 41.6427Z" fill="#FF3938"/>
<path d="M69.7355 41.6427C68.2474 41.6427 67.041 40.4363 67.041 38.9483V35.377H72.4299V38.9483C72.4299 40.4363 71.2235 41.6427 69.7355 41.6427Z" fill="#EDEFEE"/>
<path d="M75.1222 41.6427C73.6341 41.6427 72.4277 40.4363 72.4277 38.9483V35.377H77.8164V38.9483C77.8164 40.4363 76.6102 41.6427 75.1222 41.6427Z" fill="#FF3938"/>
<path d="M44.1629 35.377V38.9483C44.1629 40.2089 43.2961 41.2641 42.127 41.5584C42.3379 41.6116 42.5578 41.6427 42.7855 41.6427C44.2735 41.6427 45.4799 40.4363 45.4799 38.9483V35.377H44.1629Z" fill="#E33332"/>
<path d="M49.5496 35.377V38.9483C49.5496 40.2089 48.6828 41.2641 47.5137 41.5584C47.7247 41.6116 47.9445 41.6427 48.1722 41.6427C49.6603 41.6427 50.8667 40.4363 50.8667 38.9483V35.377H49.5496Z" fill="#CFD1D0"/>
<path d="M54.9441 35.377V38.9483C54.9441 40.2089 54.0774 41.2641 52.9082 41.5584C53.1194 41.6116 53.339 41.6427 53.5667 41.6427C55.0548 41.6427 56.2612 40.4363 56.2612 38.9483V35.377H54.9441Z" fill="#E33332"/>
<path d="M60.3308 35.377V38.9483C60.3308 40.2089 59.4641 41.2641 58.2949 41.5584C58.5059 41.6116 58.7258 41.6427 58.9535 41.6427C60.4415 41.6427 61.6479 40.4363 61.6479 38.9483V35.377H60.3308Z" fill="#CFD1D0"/>
<path d="M65.7175 35.377V38.9483C65.7175 40.2089 64.8508 41.2641 63.6816 41.5584C63.8926 41.6116 64.1125 41.6427 64.3399 41.6427C65.828 41.6427 67.0344 40.4363 67.0344 38.9483V35.377H65.7175Z" fill="#E33332"/>
<path d="M71.1101 35.377V38.9483C71.1101 40.2089 70.2434 41.2641 69.0742 41.5584C69.2852 41.6116 69.5051 41.6427 69.7328 41.6427C71.2208 41.6427 72.4272 40.4363 72.4272 38.9483V35.377H71.1101Z" fill="#CFD1D0"/>
<path d="M76.4968 35.377V38.9483C76.4968 40.2089 75.6301 41.2641 74.4609 41.5584C74.6719 41.6116 74.8918 41.6427 75.1192 41.6427C76.6073 41.6427 77.8137 40.4363 77.8137 38.9483V35.377H76.4968Z" fill="#E33332"/>
<path d="M77.8214 35.3754H40.0996L44.2611 26.8574H73.6574L77.8214 35.3754Z" fill="#E33332"/>
<path d="M70.3064 35.3754H40.0996L44.2611 26.8574H66.1424L70.3064 35.3754Z" fill="#FF3938"/>
<path d="M76.4996 56.7852H42.5586V58.2294H76.4996V56.7852Z" fill="#EDEFEE"/>
<path d="M75.6557 55.3359H43.4141V56.7802H75.6557V55.3359Z" fill="#EDEFEE"/>
<path d="M76.4996 57.4336H42.5586V58.2322H76.4996V57.4336Z" fill="#CFD1D0"/>
<path d="M75.6557 56.25H43.4141V56.7865H75.6557V56.25Z" fill="#CFD1D0"/>
<path d="M60.3002 45.704C60.1601 45.704 60.0469 45.5906 60.0469 45.4507V42.6595C60.0469 42.5197 60.1601 42.4062 60.3002 42.4062C60.4402 42.4062 60.5534 42.5197 60.5534 42.6595V45.4507C60.5534 45.5906 60.4402 45.704 60.3002 45.704Z" fill="#EDEFEE"/>
<path d="M60.3881 47.2127C60.248 47.2127 60.1348 47.0992 60.1348 46.9594V46.3685C60.1348 46.2287 60.248 46.1152 60.3881 46.1152C60.5281 46.1152 60.6413 46.2287 60.6413 46.3685V46.9594C60.6413 47.0992 60.5281 47.2127 60.3881 47.2127Z" fill="#EDEFEE"/>
<path d="M49.9095 49.8301C49.7697 49.8301 49.6562 49.7166 49.6562 49.5768V43.4974C49.6562 43.3576 49.7697 43.2441 49.9095 43.2441C50.0493 43.2441 50.1628 43.3576 50.1628 43.4974V49.5768C50.1628 49.7168 50.0493 49.8301 49.9095 49.8301Z" fill="#EDEFEE"/>
<path d="M50.0814 52.953C49.9416 52.953 49.8281 52.8396 49.8281 52.6998V51.349C49.8281 51.2092 49.9416 51.0957 50.0814 51.0957C50.2212 51.0957 50.3347 51.2092 50.3347 51.349V52.6998C50.3347 52.8396 50.2215 52.953 50.0814 52.953Z" fill="#EDEFEE"/>
<path d="M44.2141 32.2899C44.1807 32.2899 44.1467 32.2833 44.1143 32.2691C43.9856 32.2139 43.9264 32.065 43.9816 31.9366L45.6095 28.1474C45.6649 28.0187 45.8141 27.9597 45.942 28.0147C46.0707 28.0699 46.13 28.2188 46.0747 28.3475L44.4469 32.1366C44.4058 32.2324 44.3124 32.2899 44.2141 32.2899Z" fill="#EDEFEE"/>
<path d="M15.421 64.6835H0.824219L2.75932 51.1758H13.4834L15.421 64.6835Z" fill="#F5B41D"/>
<path d="M12.4677 64.6835H0.824219L2.75932 51.1758H10.5326L12.4677 64.6835Z" fill="#FFCA26"/>
<path d="M11.0895 54.1486C10.8795 54.1486 10.7096 53.9786 10.7096 53.7687V50.4281C10.7096 49.0332 9.54775 47.8985 8.11948 47.8985C6.69121 47.8985 5.52939 49.0332 5.52939 50.4281V53.7687C5.52939 53.9786 5.35943 54.1486 5.14946 54.1486C4.93949 54.1486 4.76953 53.9786 4.76953 53.7687V50.4281C4.76953 48.6143 6.27227 47.1387 8.11948 47.1387C9.96669 47.1387 11.4694 48.6143 11.4694 50.4281V53.7687C11.4694 53.9786 11.2995 54.1486 11.0895 54.1486Z" fill="#EDEFEE"/>
<path d="M11.8157 53.6393C11.8157 54.0486 11.4839 54.3802 11.0748 54.3802C10.6655 54.3802 10.334 54.0484 10.334 53.6393C10.334 53.2302 10.6658 52.8984 11.0748 52.8984C11.4842 52.8984 11.8157 53.2302 11.8157 53.6393Z" fill="#174366"/>
<path d="M5.9075 53.6393C5.9075 54.0486 5.5757 54.3802 5.16664 54.3802C4.75733 54.3802 4.42578 54.0484 4.42578 53.6393C4.42578 53.2302 4.75759 52.8984 5.16664 52.8984C5.5757 52.8984 5.9075 53.2302 5.9075 53.6393Z" fill="#174366"/>
<path d="M12.5808 95.641H7.38338L7.30411 95.2915H8.24025H10.2982H11.8397C12.0676 95.2915 12.2647 95.1331 12.3141 94.911L12.6393 93.4473C12.6393 93.4473 12.6393 93.4468 12.6396 93.4463L13.0547 91.578C13.0866 91.4339 13.0516 91.2832 12.9595 91.1682C12.8673 91.0532 12.7277 90.9864 12.5803 90.9864H10.5945H7.94416H6.34263L6.08732 89.8377C6.03793 89.6153 5.84062 89.457 5.61292 89.457H3.94504C3.67656 89.457 3.45898 89.6746 3.45898 89.9431C3.45898 90.2116 3.67656 90.4291 3.94504 90.4291H5.22286L6.09011 94.3318L6.5212 96.2344C6.57135 96.4558 6.76815 96.6131 6.99535 96.6131H12.5808C12.8493 96.6131 13.0668 96.3955 13.0668 96.127C13.0668 95.8586 12.849 95.641 12.5808 95.641ZM6.98142 93.8348H7.6663L7.70936 94.3193H7.08907L6.98142 93.8348ZM8.68527 94.3193L8.64221 93.8348H9.89698L9.85393 94.3193H8.68527ZM10.8298 94.3193L10.8729 93.8348H11.5578L11.4501 94.3193H10.8298ZM11.7738 92.8627H10.9593L11.0398 91.9585H11.9747L11.7738 92.8627ZM10.0639 91.9587L9.98361 92.863H8.55584L8.47529 91.9587H10.0639ZM7.49939 91.9587L7.57968 92.863H6.76511L6.56426 91.9587H7.49939Z" fill="#FFCA26"/>
<path d="M8.959 97.0977C8.959 97.5571 8.58642 97.9297 8.12696 97.9297C7.6675 97.9297 7.29492 97.5571 7.29492 97.0977C7.29492 96.6382 7.6675 96.2656 8.12696 96.2656C8.58642 96.2656 8.959 96.6382 8.959 97.0977Z" fill="#FFCA26"/>
<path d="M12.1172 97.0977C12.1172 97.5571 11.7446 97.9297 11.2852 97.9297C10.8257 97.9297 10.4531 97.5571 10.4531 97.0977C10.4531 96.6382 10.8257 96.2656 11.2852 96.2656C11.7446 96.2656 12.1172 96.6382 12.1172 97.0977Z" fill="#FFCA26"/>
<path d="M92.5866 97.9015C92.423 97.9015 92.2836 97.857 92.1685 97.7679C92.0534 97.6781 91.9654 97.5482 91.9046 97.378C91.8437 97.2071 91.8133 97.0008 91.8133 96.7589C91.8133 96.5185 91.8437 96.3132 91.9046 96.1431C91.9661 95.9722 92.0544 95.8419 92.1696 95.7521C92.2854 95.6616 92.4244 95.6163 92.5866 95.6163C92.7488 95.6163 92.8875 95.6616 93.0026 95.7521C93.1185 95.8419 93.2068 95.9722 93.2676 96.1431C93.3292 96.3132 93.36 96.5185 93.36 96.7589C93.36 97.0008 93.3295 97.2071 93.2687 97.378C93.2079 97.5482 93.1199 97.6781 93.0048 97.7679C92.8897 97.857 92.7503 97.9015 92.5866 97.9015ZM92.5866 97.6626C92.7488 97.6626 92.8748 97.5844 92.9646 97.428C93.0544 97.2716 93.0993 97.0485 93.0993 96.7589C93.0993 96.5663 93.0786 96.4023 93.0374 96.2669C92.9968 96.1315 92.9382 96.0283 92.8614 95.9574C92.7854 95.8864 92.6938 95.8509 92.5866 95.8509C92.4259 95.8509 92.3003 95.9302 92.2098 96.0888C92.1192 96.2466 92.074 96.47 92.074 96.7589C92.074 96.9515 92.0943 97.1152 92.1348 97.2498C92.1754 97.3845 92.2337 97.487 92.3097 97.5572C92.3864 97.6274 92.4788 97.6626 92.5866 97.6626ZM93.8862 97.8885C93.8326 97.8885 93.7866 97.8693 93.7482 97.8309C93.7099 97.7925 93.6907 97.7466 93.6907 97.693C93.6907 97.6394 93.7099 97.5934 93.7482 97.555C93.7866 97.5167 93.8326 97.4975 93.8862 97.4975C93.9398 97.4975 93.9857 97.5167 94.0241 97.555C94.0625 97.5934 94.0817 97.6394 94.0817 97.693C94.0817 97.7285 94.0726 97.761 94.0545 97.7907C94.0371 97.8204 94.0136 97.8443 93.9839 97.8624C93.955 97.8798 93.9224 97.8885 93.8862 97.8885ZM95.1852 97.9015C95.0215 97.9015 94.8821 97.857 94.767 97.7679C94.6519 97.6781 94.5639 97.5482 94.5031 97.378C94.4423 97.2071 94.4119 97.0008 94.4119 96.7589C94.4119 96.5185 94.4423 96.3132 94.5031 96.1431C94.5646 95.9722 94.653 95.8419 94.7681 95.7521C94.8839 95.6616 95.023 95.6163 95.1852 95.6163C95.3474 95.6163 95.486 95.6616 95.6011 95.7521C95.717 95.8419 95.8053 95.9722 95.8662 96.1431C95.9277 96.3132 95.9585 96.5185 95.9585 96.7589C95.9585 97.0008 95.9281 97.2071 95.8672 97.378C95.8064 97.5482 95.7184 97.6781 95.6033 97.7679C95.4882 97.857 95.3488 97.9015 95.1852 97.9015ZM95.1852 97.6626C95.3474 97.6626 95.4733 97.5844 95.5631 97.428C95.6529 97.2716 95.6978 97.0485 95.6978 96.7589C95.6978 96.5663 95.6772 96.4023 95.6359 96.2669C95.5954 96.1315 95.5367 96.0283 95.4599 95.9574C95.3839 95.8864 95.2923 95.8509 95.1852 95.8509C95.0244 95.8509 94.8988 95.9302 94.8083 96.0888C94.7178 96.2466 94.6725 96.47 94.6725 96.7589C94.6725 96.9515 94.6928 97.1152 94.7333 97.2498C94.7739 97.3845 94.8322 97.487 94.9082 97.5572C94.985 97.6274 95.0773 97.6626 95.1852 97.6626ZM97.0967 97.9015C96.9331 97.9015 96.7937 97.857 96.6786 97.7679C96.5634 97.6781 96.4755 97.5482 96.4146 97.378C96.3538 97.2071 96.3234 97.0008 96.3234 96.7589C96.3234 96.5185 96.3538 96.3132 96.4146 96.1431C96.4762 95.9722 96.5645 95.8419 96.6797 95.7521C96.7955 95.6616 96.9345 95.6163 97.0967 95.6163C97.2589 95.6163 97.3976 95.6616 97.5127 95.7521C97.6286 95.8419 97.7169 95.9722 97.7777 96.1431C97.8393 96.3132 97.87 96.5185 97.87 96.7589C97.87 97.0008 97.8396 97.2071 97.7788 97.378C97.718 97.5482 97.63 97.6781 97.5149 97.7679C97.3997 97.857 97.2604 97.9015 97.0967 97.9015ZM97.0967 97.6626C97.2589 97.6626 97.3849 97.5844 97.4747 97.428C97.5645 97.2716 97.6094 97.0485 97.6094 96.7589C97.6094 96.5663 97.5887 96.4023 97.5475 96.2669C97.5069 96.1315 97.4483 96.0283 97.3715 95.9574C97.2955 95.8864 97.2039 95.8509 97.0967 95.8509C96.936 95.8509 96.8103 95.9302 96.7198 96.0888C96.6293 96.2466 96.5841 96.47 96.5841 96.7589C96.5841 96.9515 96.6044 97.1152 96.6449 97.2498C96.6854 97.3845 96.7437 97.487 96.8198 97.5572C96.8965 97.6274 96.9888 97.6626 97.0967 97.6626ZM99.0083 97.9015C98.8446 97.9015 98.7053 97.857 98.5901 97.7679C98.475 97.6781 98.387 97.5482 98.3262 97.378C98.2654 97.2071 98.235 97.0008 98.235 96.7589C98.235 96.5185 98.2654 96.3132 98.3262 96.1431C98.3877 95.9722 98.4761 95.8419 98.5912 95.7521C98.7071 95.6616 98.8461 95.6163 99.0083 95.6163C99.1705 95.6163 99.3091 95.6616 99.4243 95.7521C99.5401 95.8419 99.6284 95.9722 99.6893 96.1431C99.7508 96.3132 99.7816 96.5185 99.7816 96.7589C99.7816 97.0008 99.7512 97.2071 99.6904 97.378C99.6295 97.5482 99.5416 97.6781 99.4264 97.7679C99.3113 97.857 99.1719 97.9015 99.0083 97.9015ZM99.0083 97.6626C99.1705 97.6626 99.2965 97.5844 99.3862 97.428C99.476 97.2716 99.5209 97.0485 99.5209 96.7589C99.5209 96.5663 99.5003 96.4023 99.459 96.2669C99.4185 96.1315 99.3598 96.0283 99.2831 95.9574C99.207 95.8864 99.1154 95.8509 99.0083 95.8509C98.8475 95.8509 98.7219 95.9302 98.6314 96.0888C98.5409 96.2466 98.4956 96.47 98.4956 96.7589C98.4956 96.9515 98.5159 97.1152 98.5565 97.2498C98.597 97.3845 98.6553 97.487 98.7313 97.5572C98.8081 97.6274 98.9004 97.6626 99.0083 97.6626ZM100.976 95.6467V97.8711H100.707V95.9291H100.694L100.151 96.2897V96.016L100.707 95.6467H100.976Z" fill="white"/>
<path d="M95.8798 65.4451C98.085 65.4451 99.8728 63.6573 99.8728 61.452C99.8728 59.2467 98.085 57.459 95.8798 57.459C93.6745 57.459 91.8867 59.2467 91.8867 61.452C91.8867 63.6573 93.6745 65.4451 95.8798 65.4451Z" fill="#FFCA26"/>
<path d="M95.879 57.459C95.8625 57.459 95.8465 57.4613 95.8301 57.4615V65.4425C95.8465 65.4428 95.8625 65.4451 95.879 65.4451C98.0843 65.4451 99.872 63.6574 99.872 61.452C99.872 59.2467 98.0843 57.459 95.879 57.459Z" fill="#F5B41D"/>
<path d="M95.8768 64.6774C97.6598 64.6774 99.1052 63.2321 99.1052 61.4491C99.1052 59.6661 97.6598 58.2207 95.8768 58.2207C94.0938 58.2207 92.6484 59.6661 92.6484 61.4491C92.6484 63.2321 94.0938 64.6774 95.8768 64.6774Z" fill="#EEA218"/>
<path d="M95.8926 58.2207V64.6762C97.6689 64.6683 99.1065 63.2266 99.1065 61.4486C99.1065 59.67 97.6689 58.2283 95.8926 58.2207Z" fill="#DE9716"/>
<path d="M95.982 62.9089V60.1285H96.1601V62.9089H95.982ZM96.5815 60.9626C96.5685 60.8525 96.5156 60.7671 96.4229 60.7063C96.3303 60.6454 96.2166 60.615 96.0819 60.615C95.9834 60.615 95.8973 60.631 95.8234 60.6628C95.7503 60.6947 95.6931 60.7385 95.6518 60.7942C95.6112 60.85 95.591 60.9134 95.591 60.9843C95.591 61.0437 95.6051 61.0947 95.6333 61.1375C95.6623 61.1795 95.6992 61.2146 95.7441 61.2428C95.789 61.2703 95.8361 61.2931 95.8853 61.3112C95.9345 61.3286 95.9798 61.3427 96.0211 61.3536L96.247 61.4144C96.3049 61.4296 96.3694 61.4506 96.4403 61.4774C96.512 61.5042 96.5804 61.5408 96.6456 61.5871C96.7115 61.6327 96.7658 61.6914 96.8085 61.7631C96.8512 61.8347 96.8726 61.9227 96.8726 62.027C96.8726 62.1472 96.8411 62.2558 96.7781 62.3528C96.7158 62.4498 96.6246 62.527 96.5044 62.5842C96.3849 62.6414 96.2397 62.67 96.0689 62.67C95.9096 62.67 95.7716 62.6443 95.6551 62.5928C95.5392 62.5414 95.448 62.4698 95.3814 62.3778C95.3155 62.2858 95.2782 62.179 95.2695 62.0574H95.5475C95.5548 62.1414 95.583 62.2109 95.6322 62.2659C95.6822 62.3202 95.7452 62.3608 95.8212 62.3876C95.898 62.4136 95.9805 62.4267 96.0689 62.4267C96.1717 62.4267 96.264 62.41 96.3458 62.3767C96.4276 62.3427 96.4924 62.2956 96.5402 62.2355C96.588 62.1747 96.6119 62.1037 96.6119 62.0226C96.6119 61.9488 96.5913 61.8887 96.55 61.8423C96.5087 61.796 96.4544 61.7583 96.3871 61.7294C96.3198 61.7004 96.247 61.6751 96.1688 61.6534L95.8951 61.5752C95.7213 61.5252 95.5837 61.4539 95.4824 61.3612C95.381 61.2685 95.3303 61.1472 95.3303 60.9973C95.3303 60.8728 95.364 60.7642 95.4313 60.6715C95.4994 60.5781 95.5906 60.5057 95.705 60.4543C95.8201 60.4022 95.9487 60.3761 96.0906 60.3761C96.2339 60.3761 96.3614 60.4018 96.4729 60.4532C96.5844 60.5039 96.6727 60.5734 96.7379 60.6617C96.8038 60.7501 96.8386 60.8504 96.8422 60.9626H96.5815Z" fill="white"/>
<path d="M16.8996 75.0941C19.3974 75.0941 21.4223 73.0693 21.4223 70.5715C21.4223 68.0737 19.3974 66.0488 16.8996 66.0488C14.4018 66.0488 12.377 68.0737 12.377 70.5715C12.377 73.0693 14.4018 75.0941 16.8996 75.0941Z" fill="#FF3938"/>
<path d="M17.1761 71.5328V71.3228C17.1761 71.1777 17.2059 71.0448 17.2656 70.9243C17.3265 70.8024 17.4146 70.7052 17.53 70.6327C17.6466 70.5588 17.7879 70.5218 17.9538 70.5218C18.1223 70.5218 18.2635 70.5588 18.3776 70.6327C18.4916 70.7052 18.5778 70.8024 18.6361 70.9243C18.6945 71.0448 18.7236 71.1777 18.7236 71.3228V71.5328C18.7236 71.6779 18.6938 71.8114 18.6342 71.9333C18.5759 72.0538 18.489 72.151 18.3737 72.2249C18.2596 72.2974 18.1197 72.3337 17.9538 72.3337C17.7853 72.3337 17.6434 72.2974 17.528 72.2249C17.4127 72.151 17.3252 72.0538 17.2656 71.9333C17.2059 71.8114 17.1761 71.6779 17.1761 71.5328ZM17.5727 71.3228V71.5328C17.5727 71.6533 17.6012 71.7615 17.6583 71.8574C17.7153 71.952 17.8138 71.9993 17.9538 71.9993C18.0899 71.9993 18.1858 71.952 18.2415 71.8574C18.2985 71.7615 18.327 71.6533 18.327 71.5328V71.3228C18.327 71.2023 18.2998 71.0947 18.2454 71.0001C18.1909 70.9042 18.0937 70.8562 17.9538 70.8562C17.8177 70.8562 17.7198 70.9042 17.6602 71.0001C17.6019 71.0947 17.5727 71.2023 17.5727 71.3228ZM15.1932 69.2543V69.0443C15.1932 68.8992 15.223 68.7663 15.2826 68.6458C15.3435 68.524 15.4317 68.4268 15.547 68.3542C15.6636 68.2803 15.8049 68.2434 15.9708 68.2434C16.1393 68.2434 16.2806 68.2803 16.3946 68.3542C16.5087 68.4268 16.5949 68.524 16.6532 68.6458C16.7115 68.7663 16.7407 68.8992 16.7407 69.0443V69.2543C16.7407 69.3995 16.7109 69.533 16.6512 69.6548C16.5929 69.7753 16.5061 69.8725 16.3907 69.9464C16.2767 70.019 16.1367 70.0553 15.9708 70.0553C15.8023 70.0553 15.6604 70.019 15.5451 69.9464C15.4297 69.8725 15.3422 69.7753 15.2826 69.6548C15.223 69.533 15.1932 69.3995 15.1932 69.2543ZM15.5898 69.0443V69.2543C15.5898 69.3748 15.6183 69.4831 15.6753 69.579C15.7323 69.6736 15.8308 69.7209 15.9708 69.7209C16.1069 69.7209 16.2028 69.6736 16.2585 69.579C16.3156 69.4831 16.3441 69.3748 16.3441 69.2543V69.0443C16.3441 68.9238 16.3169 68.8162 16.2624 68.7216C16.208 68.6257 16.1108 68.5778 15.9708 68.5778C15.8347 68.5778 15.7369 68.6257 15.6773 68.7216C15.6189 68.8162 15.5898 68.9238 15.5898 69.0443ZM15.3409 72.2793L18.0782 68.2978H18.5214L15.7842 72.2793H15.3409Z" fill="#174366"/>
<path d="M47.7049 16.2539H33.7734V23.9842H47.7049V16.2539Z" fill="#027DC0"/>
<path d="M47.7066 16.2539H40.7402V23.9842H47.7066V16.2539Z" fill="#00B6E8"/>
<path d="M42.5674 20.1158C42.5674 21.1246 41.7496 21.9424 40.7408 21.9424C39.7319 21.9424 38.9141 21.1246 38.9141 20.1158C38.9141 19.1069 39.7319 18.2891 40.7408 18.2891C41.7496 18.2893 42.5674 19.1069 42.5674 20.1158Z" fill="#FFCA26"/>
<path d="M40.7407 18.2891H40.7402V21.9422H40.7407C41.7496 21.9422 42.5674 21.1243 42.5674 20.1155C42.5674 19.1067 41.7496 18.2891 40.7407 18.2891Z" fill="#F5B41D"/>
<path d="M47.7139 16.248V19.4519C47.6936 19.4544 47.6706 19.4544 47.6503 19.4544C45.9146 19.4544 44.5078 18.0474 44.5078 16.3119C44.5078 16.2916 44.5078 16.2686 44.5103 16.2483L47.7139 16.248Z" fill="#F5B41D"/>
<path d="M47.7141 20.7721V23.9759H44.5103C44.5078 23.9554 44.5078 23.9326 44.5078 23.912C44.5078 22.1763 45.9148 20.7695 47.6503 20.7695C47.6706 20.7695 47.6936 20.7695 47.7141 20.7721Z" fill="#F5B41D"/>
<path d="M36.9856 16.3116C36.9856 18.0474 35.5786 19.4541 33.8431 19.4541C33.8226 19.4541 33.7998 19.4541 33.7793 19.4516V16.248H36.9831C36.9856 16.2683 36.9856 16.2914 36.9856 16.3116Z" fill="#FFCA26"/>
<path d="M36.9856 23.912C36.9856 23.9323 36.9856 23.9554 36.9831 23.9759H33.7793V20.7721C33.7998 20.7695 33.8226 20.7695 33.8431 20.7695C35.5789 20.7693 36.9856 22.1763 36.9856 23.912Z" fill="#FFCA26"/>
<path d="M40.8265 20.8313V18.5143H40.9749V20.8313H40.8265ZM41.3261 19.2094C41.3152 19.1177 41.2712 19.0465 41.1939 18.9958C41.1167 18.9451 41.022 18.9197 40.9097 18.9197C40.8277 18.9197 40.7559 18.933 40.6943 18.9596C40.6334 18.9861 40.5857 19.0226 40.5513 19.0691C40.5175 19.1155 40.5006 19.1683 40.5006 19.2275C40.5006 19.277 40.5124 19.3195 40.5359 19.3551C40.5601 19.3901 40.5908 19.4194 40.6282 19.4429C40.6656 19.4658 40.7049 19.4848 40.7459 19.4999C40.7869 19.5144 40.8246 19.5262 40.859 19.5352L41.0473 19.5859C41.0956 19.5986 41.1493 19.6161 41.2084 19.6384C41.2681 19.6607 41.3252 19.6912 41.3795 19.7298C41.4344 19.7678 41.4796 19.8167 41.5152 19.8764C41.5508 19.9362 41.5686 20.0095 41.5686 20.0964C41.5686 20.1965 41.5424 20.287 41.4899 20.3679C41.438 20.4488 41.362 20.513 41.2618 20.5607C41.1622 20.6084 41.0413 20.6322 40.8989 20.6322C40.7661 20.6322 40.6512 20.6108 40.554 20.5679C40.4575 20.5251 40.3814 20.4654 40.3259 20.3887C40.271 20.3121 40.2399 20.2231 40.2327 20.1217H40.4644C40.4704 20.1917 40.494 20.2496 40.535 20.2955C40.5766 20.3408 40.6291 20.3745 40.6925 20.3969C40.7565 20.4186 40.8252 20.4295 40.8989 20.4295C40.9845 20.4295 41.0615 20.4156 41.1297 20.3878C41.1978 20.3595 41.2518 20.3202 41.2917 20.2702C41.3315 20.2195 41.3514 20.1603 41.3514 20.0928C41.3514 20.0312 41.3342 19.9811 41.2998 19.9425C41.2654 19.9039 41.2202 19.8725 41.1641 19.8484C41.1079 19.8242 41.0473 19.8031 40.9821 19.785L40.754 19.7199C40.6092 19.6782 40.4946 19.6188 40.4101 19.5415C40.3256 19.4643 40.2834 19.3632 40.2834 19.2383C40.2834 19.1346 40.3114 19.044 40.3676 18.9668C40.4243 18.889 40.5003 18.8286 40.5957 18.7858C40.6916 18.7423 40.7987 18.7206 40.917 18.7206C41.0364 18.7206 41.1426 18.742 41.2356 18.7849C41.3285 18.8271 41.4021 18.8851 41.4564 18.9587C41.5113 19.0323 41.5403 19.1159 41.5433 19.2094H41.3261Z" fill="#174366"/>
<path d="M102.25 41.1749L101.708 39.6157C101.531 39.1068 101.091 38.7715 100.602 38.7715H98.5918H96.5819C96.0921 38.7715 95.6524 39.1068 95.4756 39.6157L94.9336 41.1749C94.8806 41.3271 94.8535 41.4887 94.8535 41.6518V49.1362H98.5918H102.33V41.6518C102.33 41.4887 102.303 41.3269 102.25 41.1749Z" fill="#FF3938"/>
<path d="M102.254 41.1749L101.712 39.6157C101.535 39.1068 101.095 38.7715 100.605 38.7715H98.5508V49.1364H102.334V41.6521C102.334 41.4887 102.307 41.3269 102.254 41.1749Z" fill="#E33332"/>
<path d="M99.3594 40.6416C99.3594 41.0638 99.017 41.4063 98.5947 41.4063C98.1725 41.4063 97.8301 41.0638 97.8301 40.6416C97.8301 40.2194 98.1725 39.877 98.5947 39.877C99.017 39.877 99.3594 40.2191 99.3594 40.6416Z" fill="#174366"/>
<path d="M98.5837 40.7668C98.5138 40.7668 98.457 40.7101 98.457 40.6402V37.4118C98.457 37.3419 98.5138 37.2852 98.5837 37.2852C98.6536 37.2852 98.7103 37.3419 98.7103 37.4118V40.6402C98.7103 40.7101 98.6536 40.7668 98.5837 40.7668Z" fill="#174366"/>
<path d="M98.7466 48.0014V43.827H99.014V48.0014H98.7466ZM99.6467 45.0793C99.6271 44.9141 99.5478 44.7858 99.4086 44.6945C99.2695 44.6032 99.0988 44.5576 98.8966 44.5576C98.7488 44.5576 98.6194 44.5815 98.5085 44.6293C98.3987 44.6771 98.3129 44.7429 98.2509 44.8266C98.19 44.9103 98.1596 45.0054 98.1596 45.112C98.1596 45.2011 98.1808 45.2777 98.2232 45.3419C98.2667 45.4049 98.3221 45.4577 98.3895 45.5C98.4569 45.5414 98.5276 45.5756 98.6015 45.6028C98.6754 45.6289 98.7433 45.6501 98.8053 45.6664L99.1445 45.7577C99.2314 45.7805 99.3282 45.812 99.4347 45.8523C99.5423 45.8925 99.6451 45.9474 99.7429 46.017C99.8418 46.0854 99.9234 46.1735 99.9875 46.2811C100.052 46.3887 100.084 46.5208 100.084 46.6774C100.084 46.8578 100.036 47.0209 99.9418 47.1665C99.8484 47.3122 99.7114 47.428 99.5309 47.5139C99.3516 47.5997 99.1336 47.6427 98.8771 47.6427C98.6379 47.6427 98.4308 47.6041 98.2558 47.5269C98.0819 47.4497 97.9449 47.3421 97.8449 47.204C97.7459 47.066 97.69 46.9056 97.6769 46.723H98.0944C98.1052 46.8491 98.1476 46.9535 98.2215 47.0361C98.2966 47.1176 98.3911 47.1785 98.5053 47.2187C98.6205 47.2579 98.7444 47.2774 98.8771 47.2774C99.0314 47.2774 99.17 47.2524 99.2929 47.2024C99.4157 47.1513 99.513 47.0807 99.5847 46.9904C99.6565 46.8991 99.6924 46.7926 99.6924 46.6708C99.6924 46.56 99.6614 46.4697 99.5994 46.4002C99.5375 46.3306 99.4559 46.2741 99.3548 46.2306C99.2537 46.1871 99.1445 46.149 99.0271 46.1164L98.6162 45.999C98.3553 45.924 98.1487 45.8169 97.9965 45.6778C97.8443 45.5386 97.7682 45.3566 97.7682 45.1315C97.7682 44.9446 97.8188 44.7815 97.9199 44.6423C98.0221 44.5021 98.159 44.3934 98.3308 44.3162C98.5036 44.2379 98.6966 44.1988 98.9097 44.1988C99.1249 44.1988 99.3162 44.2374 99.4836 44.3146C99.6511 44.3907 99.7837 44.495 99.8815 44.6277C99.9804 44.7603 100.033 44.9109 100.038 45.0793H99.6467Z" fill="#174366"/>
<path d="M70.7263 66.5588L69.9297 67.3555L72.2995 69.7253L73.0961 68.9287L70.7263 66.5588Z" fill="#D0CFD5"/>
<path d="M74.6961 71.3248C74.2645 71.7564 73.5649 71.7564 73.1336 71.3248L71.7866 69.9778C71.355 69.5462 71.355 68.8466 71.7866 68.4153C72.2182 67.984 72.9178 67.984 73.3491 68.4153L74.6961 69.7623C75.1277 70.1936 75.1277 70.8932 74.6961 71.3248Z" fill="#174366"/>
<path d="M67.5271 68.6518C70.01 68.6518 72.0229 66.6389 72.0229 64.156C72.0229 61.673 70.01 59.6602 67.5271 59.6602C65.0441 59.6602 63.0312 61.673 63.0312 64.156C63.0312 66.6389 65.0441 68.6518 67.5271 68.6518Z" fill="#174366"/>
<path d="M70.7098 60.9742C69.8146 60.0791 68.6361 59.6429 67.4629 59.6607V68.646C68.6361 68.6634 69.8146 68.2275 70.7098 67.3324C72.4655 65.5767 72.4655 62.73 70.7098 60.9742Z" fill="#11324D"/>
<path d="M67.5247 67.6589C69.4606 67.6589 71.03 66.0895 71.03 64.1537C71.03 62.2178 69.4606 60.6484 67.5247 60.6484C65.5889 60.6484 64.0195 62.2178 64.0195 64.1537C64.0195 66.0895 65.5889 67.6589 67.5247 67.6589Z" fill="#027DC0"/>
<path d="M70.0083 61.6748C69.3227 60.9891 68.4238 60.6472 67.5254 60.6484V67.6586C68.424 67.6596 69.323 67.3177 70.0083 66.632C71.3774 65.263 71.3774 63.0435 70.0083 61.6748Z" fill="#00B6E8"/>
<path d="M85.7663 9.56672C85.7663 6.21196 83.0467 3.49219 79.6917 3.49219C76.337 3.49219 73.6172 6.21196 73.6172 9.56672C73.6172 10.802 73.9867 11.9504 74.6202 12.9093L79.6917 18.9547L84.7632 12.9093C85.3965 11.9501 85.7663 10.8017 85.7663 9.56672Z" fill="#FFCA26"/>
<path d="M79.69 3.49219C79.6649 3.49219 79.6403 3.49371 79.6152 3.49396V18.8656L79.69 18.9545L84.7615 12.9091C85.3947 11.9501 85.7645 10.8017 85.7645 9.56647C85.7645 6.21171 83.0447 3.49219 79.69 3.49219Z" fill="#F5B41D"/>
<path d="M80.4977 11.0677C81.5766 10.6235 82.0912 9.38877 81.647 8.30984C81.2028 7.23092 79.968 6.71636 78.8891 7.16056C77.8102 7.60475 77.2956 8.83949 77.7398 9.91841C78.184 10.9973 79.4188 11.5119 80.4977 11.0677Z" fill="#FF3938"/>
<path d="M79.69 6.99609C79.6649 6.99609 79.6403 6.99888 79.6152 6.99989V11.2173C79.6403 11.2184 79.6646 11.2211 79.69 11.2211C80.8566 11.2211 81.8026 10.2754 81.8026 9.10849C81.8023 7.94186 80.8566 6.99609 79.69 6.99609Z" fill="#E33332"/>
<path d="M17.4635 28.4922H12.5729C12.0909 28.4922 11.6289 28.6849 11.29 29.0276L8.64847 31.6985C8.31438 32.0364 8.12695 32.4921 8.12695 32.9672V38.5071H17.4635V28.4922Z" fill="#FF3938"/>
<path d="M17.4656 33.0898H8.12695V38.5051H17.4656V33.0898Z" fill="#E33332"/>
<path d="M16.4497 33.5879V29.5098H12.5785C12.3703 29.5098 12.1672 29.5946 12.0205 29.7428L9.37903 32.4137C9.23289 32.5616 9.15234 32.7574 9.15234 32.9656V33.5879H16.4497Z" fill="#027DC0"/>
<path d="M16.4464 29.5098H13.6426V33.5879H16.4464V29.5098Z" fill="#00B6E8"/>
<path d="M15.9744 38.3068C15.9744 38.3752 15.9719 38.4436 15.9668 38.5095H9.61697C9.61191 38.4436 9.60938 38.3752 9.60938 38.3068C9.60938 36.891 10.5592 35.6296 11.9193 35.2446C12.203 35.1636 12.4968 35.123 12.7906 35.123C14.5459 35.123 15.9744 36.5516 15.9744 38.3068Z" fill="#B52928"/>
<path d="M15.4711 38.31C15.4711 39.7867 14.273 40.9873 12.7938 40.9873C12.5405 40.9873 12.2949 40.9518 12.0618 40.8859C10.9398 40.5668 10.1191 39.5334 10.1191 38.31C10.1191 37.0841 10.9398 36.0533 12.0618 35.7341C12.2949 35.6683 12.5405 35.6328 12.7938 35.6328C14.273 35.6328 15.4711 36.8309 15.4711 38.31Z" fill="#11324D"/>
<path d="M34.2862 25.9434H16.9062V38.506H34.2862V25.9434Z" fill="#FFCA26"/>
<path d="M34.2841 33.1582H16.9062V38.5101H34.2841V33.1582Z" fill="#F5B41D"/>
<path d="M34.2855 25.9434V37.3994C31.4132 37.2247 28.6271 35.6492 27.0593 33.2253C25.6586 31.0698 25.1622 28.3369 23.3562 26.5107C23.1561 26.3081 22.9383 26.1156 22.7129 25.9434H34.2855Z" fill="#FF3938"/>
<path d="M34.2816 25.9434V36.2115C32.9873 35.4897 31.8628 34.4689 31.0573 33.2253C29.6566 31.0698 29.1602 28.3369 27.3543 26.5107C27.1542 26.3081 26.9364 26.1156 26.7109 25.9434H34.2816Z" fill="#E33332"/>
<path d="M34.2869 38.3068C34.2869 38.3752 34.2844 38.4436 34.2793 38.5095H27.9295C27.9244 38.4436 27.9219 38.3752 27.9219 38.3068C27.9219 36.891 28.8717 35.6296 30.2318 35.2446C30.5155 35.1636 30.8093 35.123 31.1031 35.123C32.8584 35.123 34.2869 36.5516 34.2869 38.3068Z" fill="#C78F0E"/>
<path d="M33.7836 38.31C33.7836 39.7867 32.5855 40.9873 31.1063 40.9873C30.853 40.9873 30.6074 40.9518 30.3743 40.8859C29.2523 40.5668 28.4316 39.5334 28.4316 38.31C28.4316 37.0841 29.2523 36.0533 30.3743 35.7341C30.6074 35.6683 30.853 35.6328 31.1063 35.6328C32.5855 35.6328 33.7836 36.8309 33.7836 38.31Z" fill="#11324D"/>
<path d="M23.6736 38.3068C23.6736 38.3752 23.6711 38.4436 23.666 38.5095H17.3162C17.3111 38.4436 17.3086 38.3752 17.3086 38.3068C17.3086 37.9573 17.3668 37.6154 17.4758 37.2937C17.805 36.3186 18.5953 35.5334 19.6186 35.2446C19.9022 35.1636 20.196 35.123 20.4899 35.123C22.2451 35.123 23.6736 36.5516 23.6736 38.3068Z" fill="#C78F0E"/>
<path d="M23.1625 38.31C23.1625 39.7867 21.9644 40.9873 20.4852 40.9873C20.232 40.9873 19.9863 40.9518 19.7532 40.8859C18.6312 40.5668 17.8105 39.5334 17.8105 38.31C17.8105 37.0841 18.6312 36.0533 19.7532 35.7341C19.9863 35.6683 20.232 35.6328 20.4852 35.6328C21.9644 35.6328 23.1625 36.8309 23.1625 38.31Z" fill="#11324D"/>
<path d="M14.0143 38.3025C14.0143 39.5233 13.1937 40.5567 12.0716 40.8784C10.9495 40.5592 10.1289 39.5258 10.1289 38.3025C10.1289 37.0766 10.9495 36.0457 12.0716 35.7266C13.1937 36.0457 14.0143 37.0791 14.0143 38.3025Z" fill="#174366"/>
<path d="M32.3165 38.3025C32.3165 39.5233 31.4958 40.5567 30.3763 40.8784C29.2542 40.5592 28.4336 39.5258 28.4336 38.3025C28.4336 37.0766 29.2542 36.0457 30.3763 35.7266C31.4958 36.0457 32.3165 37.0791 32.3165 38.3025Z" fill="#174366"/>
<path d="M21.6934 38.3025C21.6934 39.5233 20.8728 40.5567 19.7532 40.8784C18.6312 40.5592 17.8105 39.5258 17.8105 38.3025C17.8105 37.0766 18.6312 36.0457 19.7532 35.7266C20.8728 36.0457 21.6934 37.0791 21.6934 38.3025Z" fill="#174366"/>
<path d="M14.2004 38.3055C14.2004 39.0806 13.5722 39.7062 12.7972 39.7062C12.6553 39.7062 12.516 39.6859 12.3868 39.6454C11.8144 39.4707 11.3965 38.9388 11.3965 38.3055C11.3965 37.6723 11.8144 37.1379 12.3868 36.9631C12.516 36.9226 12.6553 36.9023 12.7972 36.9023C13.5722 36.9023 14.2004 37.5305 14.2004 38.3055Z" fill="#CFD1D0"/>
<path d="M32.505 38.3055C32.505 39.0806 31.8769 39.7062 31.1018 39.7062C30.96 39.7062 30.8207 39.6859 30.6915 39.6454C30.1166 39.4707 29.7012 38.9388 29.7012 38.3055C29.7012 37.6723 30.1166 37.1379 30.6915 36.9631C30.8207 36.9226 30.96 36.9023 31.1018 36.9023C31.8769 36.9023 32.505 37.5305 32.505 38.3055Z" fill="#CFD1D0"/>
<path d="M21.8839 38.3055C21.8839 39.0806 21.2558 39.7062 20.4807 39.7062C20.3389 39.7062 20.1996 39.6859 20.0704 39.6454C19.498 39.4707 19.0801 38.9388 19.0801 38.3055C19.0801 37.6723 19.498 37.1379 20.0704 36.9631C20.1996 36.9226 20.3389 36.9023 20.4807 36.9023C21.2558 36.9023 21.8839 37.5305 21.8839 38.3055Z" fill="#CFD1D0"/>
<path d="M13.3772 38.3053C13.3772 38.936 12.9593 39.4704 12.3868 39.6452C11.8144 39.4704 11.3965 38.9385 11.3965 38.3053C11.3965 37.6721 11.8144 37.1377 12.3868 36.9629C12.9593 37.1402 13.3772 37.6746 13.3772 38.3053Z" fill="#EDEFEE"/>
<path d="M31.6819 38.3053C31.6819 38.936 31.2639 39.4704 30.6915 39.6452C30.1166 39.4704 29.7012 38.9385 29.7012 38.3053C29.7012 37.6721 30.1166 37.1377 30.6915 36.9629C31.2639 37.1402 31.6819 37.6746 31.6819 38.3053Z" fill="#EDEFEE"/>
<path d="M21.0608 38.3053C21.0608 38.936 20.6428 39.4704 20.0704 39.6452C19.498 39.4704 19.0801 38.9385 19.0801 38.3053C19.0801 37.6721 19.498 37.1377 20.0704 36.9629C20.6428 37.1402 21.0608 37.6746 21.0608 38.3053Z" fill="#EDEFEE"/>
<path d="M10.6616 32.9645C10.5948 32.9645 10.5279 32.9382 10.478 32.8858C10.3815 32.7845 10.3856 32.6241 10.4871 32.5276L12.6185 30.5013C12.7198 30.4051 12.8807 30.4089 12.9767 30.5105C13.0732 30.6118 13.0691 30.7721 12.9675 30.8686L10.8364 32.8949C10.7873 32.9415 10.7244 32.9645 10.6616 32.9645Z" fill="#EDEFEE"/>
<path d="M18.2611 33.8476C18.1213 33.8476 18.0078 33.7341 18.0078 33.5943V28.0853C18.0078 27.9455 18.1213 27.832 18.2611 27.832C18.4009 27.832 18.5144 27.9455 18.5144 28.0853V33.5943C18.5144 33.7341 18.4009 33.8476 18.2611 33.8476Z" fill="#EDEFEE"/>
<path d="M30.1162 84.8264C28.1664 84.8264 26.5801 83.2398 26.5801 81.29C26.5801 79.3402 28.1664 77.7539 30.1162 77.7539C32.066 77.7539 33.6526 79.3402 33.6526 81.29C33.6526 83.2398 32.066 84.8264 30.1162 84.8264ZM30.1162 79.7929C29.2907 79.7929 28.619 80.4643 28.619 81.29C28.619 82.1157 29.2907 82.7874 30.1162 82.7874C30.9419 82.7874 31.6134 82.1157 31.6134 81.29C31.6134 80.4643 30.9419 79.7929 30.1162 79.7929Z" fill="#E33332"/>
<path d="M25.2158 84.8264C23.266 84.8264 21.6797 83.2398 21.6797 81.29C21.6797 79.3402 23.266 77.7539 25.2158 77.7539C27.1656 77.7539 28.7522 79.3402 28.7522 81.29C28.7519 83.2398 27.1656 84.8264 25.2158 84.8264ZM25.2158 79.7929C24.3903 79.7929 23.7186 80.4643 23.7186 81.29C23.7186 82.1157 24.3903 82.7874 25.2158 82.7874C26.0415 82.7874 26.713 82.1157 26.713 81.29C26.713 80.4643 26.0413 79.7929 25.2158 79.7929Z" fill="#FF3938"/>
<path d="M35.6292 86.5195H19.709V98.8274H35.6292V86.5195Z" fill="#FFCA26"/>
<path d="M35.6297 86.5195H32.1035V98.8274H35.6297V86.5195Z" fill="#F5B41D"/>
<path d="M35.6292 86.5195H19.709V87.233H35.6292V86.5195Z" fill="#F5B41D"/>
<path d="M36.9867 81.6875H18.3477V86.5174H36.9867V81.6875Z" fill="#027DC0"/>
<path d="M34.2117 81.6875V85.9652H18.3477V86.5174H36.9867V81.6875H34.2117Z" fill="#00B6E8"/>
<path d="M30.3563 81.6875H24.9707V98.8253H30.3563V81.6875Z" fill="#FF3938"/>
<path d="M30.3616 81.6875H27.459V98.8253H30.3616V81.6875Z" fill="#E33332"/>
<path d="M21.8766 60.0687C21.8067 60.0687 21.75 60.012 21.75 59.9421V58.9548C21.75 58.8849 21.8067 58.8281 21.8766 58.8281C21.9465 58.8281 22.0033 58.8849 22.0033 58.9548V59.9421C22.0033 60.0122 21.9465 60.0687 21.8766 60.0687Z" fill="#EDEFEE"/>
<path d="M21.8766 64.1097C21.8067 64.1097 21.75 64.053 21.75 63.9831V62.9958C21.75 62.9259 21.8067 62.8691 21.8766 62.8691C21.9465 62.8691 22.0033 62.9259 22.0033 62.9958V63.9831C22.0033 64.0532 21.9465 64.1097 21.8766 64.1097Z" fill="#EDEFEE"/>
<path d="M24.3893 61.5951H23.402C23.3321 61.5951 23.2754 61.5383 23.2754 61.4684C23.2754 61.3985 23.3321 61.3418 23.402 61.3418H24.3893C24.4592 61.3418 24.516 61.3985 24.516 61.4684C24.516 61.5386 24.4592 61.5951 24.3893 61.5951Z" fill="#EDEFEE"/>
<path d="M20.35 61.5951H19.363C19.2931 61.5951 19.2363 61.5383 19.2363 61.4684C19.2363 61.3985 19.2931 61.3418 19.363 61.3418H20.35C20.4199 61.3418 20.4767 61.3985 20.4767 61.4684C20.4767 61.5386 20.4199 61.5951 20.35 61.5951Z" fill="#EDEFEE"/>
<path d="M20.7974 60.508C20.765 60.508 20.7326 60.4956 20.7078 60.4708L20.0097 59.7728C19.9603 59.7234 19.9603 59.6431 20.0097 59.5937C20.0591 59.5443 20.1394 59.5443 20.1888 59.5937L20.8868 60.2917C20.9362 60.3411 20.9362 60.4214 20.8868 60.4708C20.8623 60.4956 20.8298 60.508 20.7974 60.508Z" fill="#EDEFEE"/>
<path d="M23.6529 63.3655C23.6205 63.3655 23.588 63.353 23.5632 63.3282L22.8652 62.6302C22.8158 62.5808 22.8158 62.5005 22.8652 62.4511C22.9146 62.4017 22.9949 62.4017 23.0442 62.4511L23.7423 63.1492C23.7917 63.1985 23.7917 63.2788 23.7423 63.3282C23.7175 63.353 23.6851 63.3655 23.6529 63.3655Z" fill="#EDEFEE"/>
<path d="M22.9548 60.508C22.9224 60.508 22.89 60.4956 22.8652 60.4708C22.8158 60.4214 22.8158 60.3411 22.8652 60.2917L23.5632 59.5937C23.6126 59.5443 23.6929 59.5443 23.7423 59.5937C23.7917 59.6431 23.7917 59.7234 23.7423 59.7728L23.0442 60.4708C23.0197 60.4956 22.9873 60.508 22.9548 60.508Z" fill="#EDEFEE"/>
<path d="M20.0994 63.3655C20.0669 63.3655 20.0345 63.353 20.0097 63.3282C19.9603 63.2788 19.9603 63.1985 20.0097 63.1492L20.7078 62.4511C20.7571 62.4017 20.8374 62.4017 20.8868 62.4511C20.9362 62.5005 20.9362 62.5808 20.8868 62.6302L20.1888 63.3282C20.1639 63.353 20.1315 63.3655 20.0994 63.3655Z" fill="#EDEFEE"/>
<path d="M2.64031 24.5392C2.57041 24.5392 2.51367 24.4824 2.51367 24.4125V23.4255C2.51367 23.3556 2.57041 23.2988 2.64031 23.2988C2.71022 23.2988 2.76696 23.3556 2.76696 23.4255V24.4125C2.76696 24.4827 2.71022 24.5392 2.64031 24.5392Z" fill="#EDEFEE"/>
<path d="M2.64031 28.5882C2.57041 28.5882 2.51367 28.5315 2.51367 28.4616V27.4743C2.51367 27.4044 2.57041 27.3477 2.64031 27.3477C2.71022 27.3477 2.76696 27.4044 2.76696 27.4743V28.4616C2.76696 28.5315 2.71022 28.5882 2.64031 28.5882Z" fill="#EDEFEE"/>
<path d="M5.15471 26.0677H4.16766C4.09775 26.0677 4.04102 26.011 4.04102 25.9411C4.04102 25.8712 4.09775 25.8145 4.16766 25.8145H5.15471C5.22462 25.8145 5.28135 25.8712 5.28135 25.9411C5.28135 26.011 5.22462 26.0677 5.15471 26.0677Z" fill="#EDEFEE"/>
<path d="M1.11369 26.0677H0.126643C0.0567359 26.0677 0 26.011 0 25.9411C0 25.8712 0.0567359 25.8145 0.126643 25.8145H1.11369C1.1836 25.8145 1.24034 25.8712 1.24034 25.9411C1.24034 26.011 1.1836 26.0677 1.11369 26.0677Z" fill="#EDEFEE"/>
<path d="M1.56109 24.9944C1.52867 24.9944 1.49625 24.982 1.47143 24.9571L0.773371 24.2591C0.72398 24.2097 0.72398 24.1294 0.773371 24.08C0.822762 24.0306 0.903053 24.0306 0.952444 24.08L1.6505 24.7781C1.69989 24.8275 1.69989 24.9077 1.6505 24.9571C1.62593 24.982 1.59351 24.9944 1.56109 24.9944Z" fill="#EDEFEE"/>
<path d="M4.41851 27.8496C4.38609 27.8496 4.35367 27.8372 4.32885 27.8126L3.63079 27.1146C3.5814 27.0652 3.5814 26.9849 3.63079 26.9355C3.68018 26.8861 3.76048 26.8861 3.80987 26.9355L4.50792 27.6335C4.55731 27.6829 4.55731 27.7632 4.50792 27.8126C4.48335 27.8372 4.45093 27.8496 4.41851 27.8496Z" fill="#EDEFEE"/>
<path d="M3.7202 24.9944C3.68778 24.9944 3.65536 24.982 3.63079 24.9571C3.5814 24.9077 3.5814 24.8275 3.63079 24.7781L4.32885 24.08C4.37824 24.0306 4.45853 24.0306 4.50792 24.08C4.55731 24.1294 4.55731 24.2097 4.50792 24.2591L3.80987 24.9571C3.78504 24.982 3.75262 24.9944 3.7202 24.9944Z" fill="#EDEFEE"/>
<path d="M0.863034 27.8496C0.830614 27.8496 0.798193 27.8372 0.773371 27.8126C0.72398 27.7632 0.72398 27.6829 0.773371 27.6335L1.47143 26.9355C1.52082 26.8861 1.60111 26.8861 1.6505 26.9355C1.69989 26.9849 1.69989 27.0652 1.6505 27.1146L0.952444 27.8126C0.927875 27.8372 0.895454 27.8496 0.863034 27.8496Z" fill="#EDEFEE"/>
<path d="M42.5466 8.83799C42.4767 8.83799 42.4199 8.78126 42.4199 8.71135V7.7243C42.4199 7.65439 42.4767 7.59766 42.5466 7.59766C42.6165 7.59766 42.6732 7.65439 42.6732 7.7243V8.71135C42.6732 8.78151 42.6165 8.83799 42.5466 8.83799Z" fill="#EDEFEE"/>
<path d="M42.5466 12.879C42.4767 12.879 42.4199 12.8223 42.4199 12.7524V11.7653C42.4199 11.6954 42.4767 11.6387 42.5466 11.6387C42.6165 11.6387 42.6732 11.6954 42.6732 11.7653V12.7524C42.6732 12.8225 42.6165 12.879 42.5466 12.879Z" fill="#EDEFEE"/>
<path d="M45.0668 10.3646H44.0798C44.0099 10.3646 43.9531 10.3079 43.9531 10.238C43.9531 10.1681 44.0099 10.1113 44.0798 10.1113H45.0668C45.1367 10.1113 45.1935 10.1681 45.1935 10.238C45.1935 10.3081 45.1367 10.3646 45.0668 10.3646Z" fill="#EDEFEE"/>
<path d="M41.0199 10.3646H40.0329C39.963 10.3646 39.9062 10.3079 39.9062 10.238C39.9062 10.1681 39.963 10.1113 40.0329 10.1113H41.0199C41.0899 10.1113 41.1466 10.1681 41.1466 10.238C41.1466 10.3081 41.0899 10.3646 41.0199 10.3646Z" fill="#EDEFEE"/>
<path d="M41.4712 9.28123C41.4388 9.28123 41.4064 9.26882 41.3816 9.24425L40.6835 8.54619C40.6341 8.4968 40.6341 8.41651 40.6835 8.36712C40.7329 8.31773 40.8132 8.31773 40.8626 8.36712L41.5607 9.06517C41.61 9.11457 41.61 9.19486 41.5607 9.24425C41.5361 9.26882 41.5037 9.28123 41.4712 9.28123Z" fill="#EDEFEE"/>
<path d="M44.3306 12.1406C44.2982 12.1406 44.2658 12.1282 44.241 12.1036L43.5429 11.4056C43.4935 11.3562 43.4935 11.2759 43.5429 11.2265C43.5923 11.1771 43.6726 11.1771 43.722 11.2265L44.42 11.9245C44.4694 11.9739 44.4694 12.0542 44.42 12.1036C44.3955 12.1282 44.363 12.1406 44.3306 12.1406Z" fill="#EDEFEE"/>
<path d="M43.6326 9.28123C43.6001 9.28123 43.5677 9.26882 43.5429 9.24425C43.4935 9.19486 43.4935 9.11457 43.5429 9.06517L44.241 8.36712C44.2903 8.31773 44.3706 8.31773 44.42 8.36712C44.4694 8.41651 44.4694 8.4968 44.42 8.54619L43.722 9.24425C43.6974 9.26882 43.665 9.28123 43.6326 9.28123Z" fill="#EDEFEE"/>
<path d="M40.7732 12.1406C40.7408 12.1406 40.7083 12.1282 40.6835 12.1036C40.6341 12.0542 40.6341 11.9739 40.6835 11.9245L41.3816 11.2265C41.431 11.1771 41.5113 11.1771 41.5607 11.2265C41.61 11.2759 41.61 11.3562 41.5607 11.4056L40.8626 12.1036C40.838 12.1282 40.8056 12.1406 40.7732 12.1406Z" fill="#EDEFEE"/>
<path d="M86.2634 62.0743C86.1935 62.0743 86.1367 62.0176 86.1367 61.9477V60.9606C86.1367 60.8907 86.1935 60.834 86.2634 60.834C86.3333 60.834 86.39 60.8907 86.39 60.9606V61.9477C86.39 62.0176 86.3333 62.0743 86.2634 62.0743Z" fill="#EDEFEE"/>
<path d="M86.2634 66.1215C86.1935 66.1215 86.1367 66.0647 86.1367 65.9948V65.0075C86.1367 64.9376 86.1935 64.8809 86.2634 64.8809C86.3333 64.8809 86.39 64.9376 86.39 65.0075V65.9948C86.39 66.0647 86.3333 66.1215 86.2634 66.1215Z" fill="#EDEFEE"/>
<path d="M88.7797 63.6009H87.7927C87.7228 63.6009 87.666 63.5442 87.666 63.4743C87.666 63.4044 87.7228 63.3477 87.7927 63.3477H88.7797C88.8496 63.3477 88.9064 63.4044 88.9064 63.4743C88.9064 63.5442 88.8496 63.6009 88.7797 63.6009Z" fill="#EDEFEE"/>
<path d="M84.7348 63.6009H83.7477C83.6778 63.6009 83.6211 63.5442 83.6211 63.4743C83.6211 63.4044 83.6778 63.3477 83.7477 63.3477H84.7348C84.8047 63.3477 84.8614 63.4044 84.8614 63.4743C84.8614 63.5442 84.8047 63.6009 84.7348 63.6009Z" fill="#EDEFEE"/>
<path d="M85.1822 62.5215C85.1498 62.5215 85.1173 62.5091 85.0925 62.4845L84.3945 61.7864C84.3451 61.737 84.3451 61.6567 84.3945 61.6074C84.4439 61.558 84.5241 61.558 84.5735 61.6074L85.2716 62.3054C85.321 62.3548 85.321 62.4351 85.2716 62.4845C85.247 62.5091 85.2146 62.5215 85.1822 62.5215Z" fill="#EDEFEE"/>
<path d="M88.0394 65.3772C88.0069 65.3772 87.9745 65.3648 87.9499 65.34L87.2519 64.6419C87.2025 64.5925 87.2025 64.5122 87.2519 64.4628C87.3013 64.4134 87.3816 64.4134 87.431 64.4628L88.129 65.1609C88.1784 65.2103 88.1784 65.2906 88.129 65.34C88.1042 65.3648 88.0718 65.3772 88.0394 65.3772Z" fill="#EDEFEE"/>
<path d="M87.3416 62.5215C87.3091 62.5215 87.2767 62.5091 87.2519 62.4845C87.2025 62.4351 87.2025 62.3548 87.2519 62.3054L87.9499 61.6074C87.9993 61.558 88.0796 61.558 88.129 61.6074C88.1784 61.6567 88.1784 61.737 88.129 61.7864L87.431 62.4845C87.4061 62.5091 87.374 62.5215 87.3416 62.5215Z" fill="#EDEFEE"/>
<path d="M84.4841 65.3772C84.4517 65.3772 84.4193 65.3648 84.3945 65.34C84.3451 65.2906 84.3451 65.2103 84.3945 65.1609L85.0925 64.4628C85.1419 64.4134 85.2222 64.4134 85.2716 64.4628C85.321 64.5122 85.321 64.5925 85.2716 64.6419L84.5735 65.34C84.5487 65.3648 84.5163 65.3772 84.4841 65.3772Z" fill="#EDEFEE"/>
<path d="M83.2692 94.879C83.1993 94.879 83.1426 94.8223 83.1426 94.7524V93.7653C83.1426 93.6954 83.1993 93.6387 83.2692 93.6387C83.3391 93.6387 83.3959 93.6954 83.3959 93.7653V94.7524C83.3959 94.8223 83.3394 94.879 83.2692 94.879Z" fill="#EDEFEE"/>
<path d="M83.2692 98.92C83.1993 98.92 83.1426 98.8633 83.1426 98.7934V97.8063C83.1426 97.7364 83.1993 97.6797 83.2692 97.6797C83.3391 97.6797 83.3959 97.7364 83.3959 97.8063V98.7934C83.3959 98.8635 83.3394 98.92 83.2692 98.92Z" fill="#EDEFEE"/>
<path d="M85.7895 96.4076H84.8024C84.7325 96.4076 84.6758 96.3508 84.6758 96.2809C84.6758 96.211 84.7325 96.1543 84.8024 96.1543H85.7895C85.8594 96.1543 85.9161 96.211 85.9161 96.2809C85.9161 96.3508 85.8594 96.4076 85.7895 96.4076Z" fill="#EDEFEE"/>
<path d="M81.7426 96.4076H80.7555C80.6856 96.4076 80.6289 96.3508 80.6289 96.2809C80.6289 96.211 80.6856 96.1543 80.7555 96.1543H81.7426C81.8125 96.1543 81.8692 96.211 81.8692 96.2809C81.8692 96.3508 81.8125 96.4076 81.7426 96.4076Z" fill="#EDEFEE"/>
<path d="M82.1917 95.3264C82.1593 95.3264 82.1268 95.314 82.1023 95.2892L81.4042 94.5911C81.3548 94.5417 81.3548 94.4614 81.4042 94.412C81.4536 94.3627 81.5339 94.3627 81.5833 94.412L82.2814 95.1101C82.3307 95.1595 82.3307 95.2398 82.2814 95.2892C82.2563 95.314 82.2241 95.3264 82.1917 95.3264Z" fill="#EDEFEE"/>
<path d="M85.0494 98.1836C85.017 98.1836 84.9845 98.1712 84.9597 98.1466L84.2617 97.4485C84.2123 97.3991 84.2123 97.3189 84.2617 97.2695C84.311 97.2201 84.3913 97.2201 84.4407 97.2695L85.1388 97.9675C85.1882 98.0169 85.1882 98.0972 85.1388 98.1466C85.1142 98.1712 85.0818 98.1836 85.0494 98.1836Z" fill="#EDEFEE"/>
<path d="M84.3513 95.3264C84.3189 95.3264 84.2865 95.314 84.2617 95.2892C84.2123 95.2398 84.2123 95.1595 84.2617 95.1101L84.9597 94.412C85.0091 94.3627 85.0894 94.3627 85.1388 94.412C85.1882 94.4614 85.1882 94.5417 85.1388 94.5911L84.4407 95.2892C84.4162 95.314 84.3837 95.3264 84.3513 95.3264Z" fill="#EDEFEE"/>
<path d="M81.4939 98.1836C81.4615 98.1836 81.4291 98.1712 81.4042 98.1466C81.3548 98.0972 81.3548 98.0169 81.4042 97.9675L82.1023 97.2695C82.1517 97.2201 82.232 97.2201 82.2814 97.2695C82.3307 97.3189 82.3307 97.3991 82.2814 97.4485L81.5833 98.1466C81.5587 98.1712 81.5263 98.1836 81.4939 98.1836Z" fill="#EDEFEE"/>
<path d="M30.3493 102.711C30.2794 102.711 30.2227 102.654 30.2227 102.584V101.597C30.2227 101.527 30.2794 101.471 30.3493 101.471C30.4192 101.471 30.4759 101.527 30.4759 101.597V102.584C30.4759 102.655 30.4192 102.711 30.3493 102.711Z" fill="#EDEFEE"/>
<path d="M30.3493 106.758C30.2794 106.758 30.2227 106.701 30.2227 106.632V105.644C30.2227 105.574 30.2794 105.518 30.3493 105.518C30.4192 105.518 30.4759 105.574 30.4759 105.644V106.632C30.4759 106.701 30.4192 106.758 30.3493 106.758Z" fill="#EDEFEE"/>
<path d="M32.8698 104.238H31.8825C31.8126 104.238 31.7559 104.181 31.7559 104.111C31.7559 104.041 31.8126 103.984 31.8825 103.984H32.8698C32.9397 103.984 32.9964 104.041 32.9964 104.111C32.9964 104.181 32.9397 104.238 32.8698 104.238Z" fill="#EDEFEE"/>
<path d="M28.8207 104.238H27.8337C27.7638 104.238 27.707 104.181 27.707 104.111C27.707 104.041 27.7638 103.984 27.8337 103.984H28.8207C28.8906 103.984 28.9474 104.041 28.9474 104.111C28.9474 104.181 28.8909 104.238 28.8207 104.238Z" fill="#EDEFEE"/>
<path d="M29.2759 103.158C29.2435 103.158 29.2111 103.146 29.1863 103.121L28.4882 102.423C28.4388 102.374 28.4388 102.293 28.4882 102.244C28.5376 102.195 28.6179 102.195 28.6673 102.244L29.3653 102.942C29.4147 102.992 29.4147 103.072 29.3653 103.121C29.3408 103.146 29.3084 103.158 29.2759 103.158Z" fill="#EDEFEE"/>
<path d="M32.1334 106.014C32.1009 106.014 32.0685 106.001 32.0437 105.977L31.3456 105.279C31.2962 105.229 31.2962 105.149 31.3456 105.1C31.395 105.05 31.4753 105.05 31.5247 105.1L32.2228 105.798C32.2722 105.847 32.2722 105.927 32.2228 105.977C32.1982 106.001 32.1658 106.014 32.1334 106.014Z" fill="#EDEFEE"/>
<path d="M31.4353 103.158C31.4029 103.158 31.3705 103.146 31.3456 103.121C31.2962 103.072 31.2962 102.992 31.3456 102.942L32.0437 102.244C32.0931 102.195 32.1734 102.195 32.2228 102.244C32.2722 102.293 32.2722 102.374 32.2228 102.423L31.5247 103.121C31.5001 103.146 31.4677 103.158 31.4353 103.158Z" fill="#EDEFEE"/>
<path d="M28.5779 106.014C28.5455 106.014 28.513 106.001 28.4882 105.977C28.4388 105.927 28.4388 105.847 28.4882 105.798L29.1863 105.1C29.2357 105.05 29.3159 105.05 29.3653 105.1C29.4147 105.149 29.4147 105.229 29.3653 105.279L28.6673 105.977C28.6427 106.001 28.6103 106.014 28.5779 106.014Z" fill="#EDEFEE"/>
<path d="M87.3493 1.24034C87.2794 1.24034 87.2227 1.1836 87.2227 1.11369V0.126643C87.2227 0.0567359 87.2794 0 87.3493 0C87.4192 0 87.4759 0.0567359 87.4759 0.126643V1.11369C87.4759 1.18385 87.4192 1.24034 87.3493 1.24034Z" fill="#EDEFEE"/>
<path d="M87.3493 5.28135C87.2794 5.28135 87.2227 5.22462 87.2227 5.15471V4.16766C87.2227 4.09775 87.2794 4.04102 87.3493 4.04102C87.4192 4.04102 87.4759 4.09775 87.4759 4.16766V5.15471C87.4759 5.22487 87.4192 5.28135 87.3493 5.28135Z" fill="#EDEFEE"/>
<path d="M89.8696 2.7611H88.8825C88.8126 2.7611 88.7559 2.70436 88.7559 2.63446C88.7559 2.56455 88.8126 2.50781 88.8825 2.50781H89.8696C89.9395 2.50781 89.9962 2.56455 89.9962 2.63446C89.9962 2.70436 89.9397 2.7611 89.8696 2.7611Z" fill="#EDEFEE"/>
<path d="M85.8207 2.7611H84.8337C84.7638 2.7611 84.707 2.70436 84.707 2.63446C84.707 2.56455 84.7638 2.50781 84.8337 2.50781H85.8207C85.8906 2.50781 85.9474 2.56455 85.9474 2.63446C85.9474 2.70436 85.8909 2.7611 85.8207 2.7611Z" fill="#EDEFEE"/>
<path d="M86.2623 1.67381C86.2298 1.67381 86.1974 1.66139 86.1726 1.63683L85.4745 0.938772C85.4252 0.889381 85.4252 0.80909 85.4745 0.759699C85.5239 0.710309 85.6042 0.710309 85.6536 0.759699L86.3517 1.45775C86.4011 1.50714 86.4011 1.58744 86.3517 1.63683C86.3271 1.66139 86.2947 1.67381 86.2623 1.67381Z" fill="#EDEFEE"/>
<path d="M89.1214 4.52927C89.089 4.52927 89.0565 4.51686 89.032 4.49229L88.3339 3.79424C88.2845 3.74485 88.2845 3.66456 88.3339 3.61517C88.3833 3.56578 88.4636 3.56578 88.513 3.61517L89.211 4.31322C89.2604 4.36261 89.2604 4.4429 89.211 4.49229C89.1862 4.51686 89.1538 4.52927 89.1214 4.52927Z" fill="#EDEFEE"/>
<path d="M88.4233 1.67381C88.3909 1.67381 88.3585 1.66139 88.3339 1.63683C88.2845 1.58744 88.2845 1.50714 88.3339 1.45775L89.032 0.759699C89.0814 0.710309 89.1616 0.710309 89.211 0.759699C89.2604 0.80909 89.2604 0.889381 89.211 0.938772L88.513 1.63683C88.4882 1.66139 88.4557 1.67381 88.4233 1.67381Z" fill="#EDEFEE"/>
<path d="M85.564 4.52927C85.5315 4.52927 85.4991 4.51686 85.4745 4.49229C85.4252 4.4429 85.4252 4.36261 85.4745 4.31322L86.1726 3.61517C86.222 3.56578 86.3023 3.56578 86.3517 3.61517C86.4011 3.66456 86.4011 3.74485 86.3517 3.79424L85.6536 4.49229C85.6288 4.51686 85.5964 4.52927 85.564 4.52927Z" fill="#EDEFEE"/>
<path d="M3.05833 60.3126C3.04617 60.3126 3.03402 60.3118 3.02186 60.3101C2.88331 60.29 2.78732 60.1616 2.80733 60.0231L3.35594 56.2149C3.37595 56.0766 3.50563 55.9817 3.64266 56.0004C3.78121 56.0204 3.8772 56.1486 3.85719 56.2871L3.30858 60.0953C3.29059 60.2217 3.18219 60.3126 3.05833 60.3126Z" fill="#EDEFEE"/>
<path d="M21.1224 93.7497C20.9826 93.7497 20.8691 93.6365 20.8691 93.4964V88.5814C20.8691 88.4413 20.9826 88.3281 21.1224 88.3281C21.2622 88.3281 21.3757 88.4413 21.3757 88.5814V93.4964C21.3757 93.6365 21.2625 93.7497 21.1224 93.7497Z" fill="#EDEFEE"/>
<path d="M21.1224 95.5891C20.9826 95.5891 20.8691 95.4758 20.8691 95.3358V94.4916C20.8691 94.3515 20.9826 94.2383 21.1224 94.2383C21.2622 94.2383 21.3757 94.3515 21.3757 94.4916V95.3358C21.3757 95.4758 21.2625 95.5891 21.1224 95.5891Z" fill="#EDEFEE"/>
<path d="M19.2689 84.7078C19.1291 84.7078 19.0156 84.5945 19.0156 84.4545V82.3373C19.0156 82.1972 19.1291 82.084 19.2689 82.084C19.4087 82.084 19.5222 82.1972 19.5222 82.3373V84.4545C19.5222 84.5945 19.4087 84.7078 19.2689 84.7078Z" fill="#EDEFEE"/>
<path d="M26.0209 91.9917C25.881 91.9917 25.7676 91.8784 25.7676 91.7384V83.9486C25.7676 83.8085 25.881 83.6953 26.0209 83.6953C26.1607 83.6953 26.2741 83.8085 26.2741 83.9486V91.7384C26.2741 91.8784 26.1609 91.9917 26.0209 91.9917Z" fill="#EDEFEE"/>
<path d="M44.9331 114.052L49.8075 108.636V91.623H48.6427C47.3223 91.623 46.1113 92.3576 45.5012 93.5285L42.0233 100.202C41.8627 100.51 41.7789 100.853 41.7789 101.2V106.566C41.7789 107.163 41.5722 107.742 41.1941 108.204L40.0586 109.592L44.9331 114.052Z" fill="#FFE4A9"/>
<path d="M49.8112 91.623H48.6463C48.6433 91.623 48.6403 91.6236 48.6372 91.6236C48.5174 91.6238 48.3979 91.6306 48.2796 91.6433C48.2707 91.6443 48.2616 91.6448 48.2527 91.6458C48.2429 91.6469 48.2327 91.6474 48.2229 91.6486V91.6509C48.1094 91.6648 47.9967 91.6823 47.886 91.7066V108.081L43.6055 112.833L44.9377 114.052L49.811 108.636V108.636L49.8112 108.636V91.623Z" fill="#EBCB86"/>
<path d="M47.5079 119.25L43.9518 123.186L40.7401 126.74H21.3359L33.1568 113.655L36.7129 109.719L47.5079 119.25Z" fill="#174366"/>
<path d="M47.5054 119.25L43.9493 123.186L33.1543 113.655L36.7104 109.719L47.5054 119.25Z" fill="#11324D"/>
<path d="M50.0338 118.696L46.4903 122.708C46.0243 123.237 45.2188 123.286 44.692 122.82L42.6125 120.983L33.5145 112.952C32.9877 112.486 32.937 111.68 33.4031 111.153L36.944 107.141C37.3543 106.678 38.0255 106.584 38.5422 106.883C38.6131 106.923 38.6815 106.974 38.7449 107.03L49.9198 116.898C50.4492 117.364 50.4998 118.169 50.0338 118.696Z" fill="#11324D"/>
<path d="M47.7517 116.713L44.2082 120.725C43.8004 121.188 43.1292 121.282 42.6125 120.983L33.5145 112.952C32.9877 112.486 32.937 111.68 33.4031 111.153L36.944 107.141C37.3543 106.678 38.0255 106.584 38.5422 106.883L47.6402 114.915C48.1671 115.381 48.2177 116.186 47.7517 116.713Z" fill="#174366"/>
<path d="M35.0968 112.699C35.036 112.699 34.9752 112.677 34.9266 112.633C34.823 112.539 34.8157 112.378 34.9096 112.275L38.2479 108.602C38.3422 108.499 38.502 108.491 38.6058 108.585C38.7094 108.679 38.7168 108.84 38.6228 108.943L35.2845 112.616C35.2343 112.671 35.1657 112.699 35.0968 112.699Z" fill="#EDEFEE"/>
<path d="M29.7707 120.413C29.7097 120.413 29.6484 120.391 29.5998 120.346C29.4967 120.252 29.4896 120.091 29.5841 119.988L33.6366 115.564C33.7311 115.462 33.8912 115.454 33.9945 115.549C34.0976 115.643 34.1047 115.804 34.0102 115.907L29.9577 120.331C29.9078 120.385 29.8394 120.413 29.7707 120.413Z" fill="#EDEFEE"/>
<path d="M42.9427 106.966C42.8029 106.966 42.6895 106.852 42.6895 106.712V102.835C42.6895 102.695 42.8029 102.582 42.9427 102.582C43.0826 102.582 43.196 102.695 43.196 102.835V106.712C43.196 106.852 43.0826 106.966 42.9427 106.966Z" fill="#EDEFEE"/>
<path d="M66.2068 108.857H51.224C49.6052 108.857 48.293 107.544 48.293 105.926V73.9388C48.293 72.3201 49.6052 71.0078 51.224 71.0078H66.2068C67.8256 71.0078 69.1378 72.3201 69.1378 73.9388V105.926C69.1378 107.544 67.8256 108.857 66.2068 108.857Z" fill="#174366"/>
<path d="M67.0371 71.1328V108.738C68.2501 108.379 69.1356 107.258 69.1356 105.929V73.942C69.1356 72.6128 68.2498 71.4917 67.0371 71.1328Z" fill="#11324D"/>
<path d="M51.2241 104.551C50.7322 104.551 50.332 104.151 50.332 103.659V76.7436C50.332 76.2518 50.7322 75.8516 51.2241 75.8516H66.2069C66.6988 75.8516 67.099 76.2518 67.099 76.7436V103.659C67.099 104.151 66.6988 104.551 66.2069 104.551H51.2241Z" fill="#027DC0"/>
<path d="M66.2094 75.8516H58.8945V104.551H66.2094C66.7013 104.551 67.1015 104.151 67.1015 103.659V76.7436C67.1015 76.252 66.7013 75.8516 66.2094 75.8516Z" fill="#00B6E8"/>
<path d="M63.1491 87.5702H54.4835C53.2165 87.5702 52.1895 86.5431 52.1895 85.2762C52.1895 84.0092 53.2165 82.9824 54.4835 82.9824H63.1491C64.416 82.9824 65.4431 84.0095 65.4431 85.2762C65.4431 86.5434 64.416 87.5702 63.1491 87.5702Z" fill="#FFCA26"/>
<path d="M63.1507 82.9824H58.8945V87.5702H63.1507C64.4177 87.5702 65.4447 86.5431 65.4447 85.2762C65.4447 84.0095 64.4177 82.9824 63.1507 82.9824Z" fill="#F5B41D"/>
<path d="M63.1491 94.5174H54.4835C53.2165 94.5174 52.1895 93.4904 52.1895 92.2237C52.1895 90.9568 53.2165 89.9297 54.4835 89.9297H63.1491C64.416 89.9297 65.4431 90.9568 65.4431 92.2237C65.4431 93.4906 64.416 94.5174 63.1491 94.5174Z" fill="#FF3938"/>
<path d="M63.1457 89.9297H58.8262V94.5174H63.1457C64.4126 94.5174 65.4397 93.4904 65.4397 92.2237C65.4397 90.9568 64.4126 89.9297 63.1457 89.9297Z" fill="#E33332"/>
<path d="M60.2314 107.453H57.3984C56.9843 107.453 56.6484 107.117 56.6484 106.703C56.6484 106.289 56.9843 105.953 57.3984 105.953H60.2314C60.6455 105.953 60.9814 106.289 60.9814 106.703C60.9814 107.117 60.6455 107.453 60.2314 107.453Z" fill="#027DC0"/>
<path d="M60.2314 74.1894H57.3984C56.9843 74.1894 56.6484 73.8536 56.6484 73.4394C56.6484 73.0253 56.9843 72.6895 57.3984 72.6895H60.2314C60.6455 72.6895 60.9814 73.0253 60.9814 73.4394C60.9814 73.8536 60.6455 74.1894 60.2314 74.1894Z" fill="#027DC0"/>
<path d="M56.4432 86.4375V84.2131H57.2208C57.3758 84.2131 57.5036 84.2399 57.6042 84.2935C57.7049 84.3464 57.7798 84.4177 57.8291 84.5075C57.8783 84.5965 57.9029 84.6954 57.9029 84.804C57.9029 84.8996 57.8859 84.9785 57.8519 85.0408C57.8186 85.103 57.7744 85.1523 57.7194 85.1885C57.6651 85.2247 57.606 85.2515 57.5423 85.2688V85.2906C57.6104 85.2949 57.6788 85.3188 57.7476 85.3622C57.8164 85.4057 57.874 85.468 57.9203 85.5491C57.9666 85.6302 57.9898 85.7294 57.9898 85.8467C57.9898 85.9582 57.9645 86.0584 57.9138 86.1475C57.8631 86.2366 57.7831 86.3072 57.6737 86.3593C57.5644 86.4114 57.4221 86.4375 57.2469 86.4375H56.4432ZM56.7125 86.1986H57.2469C57.4229 86.1986 57.5478 86.1645 57.6216 86.0965C57.6962 86.0277 57.7335 85.9444 57.7335 85.8467C57.7335 85.7714 57.7143 85.7018 57.6759 85.6381C57.6375 85.5737 57.5829 85.5223 57.5119 85.4839C57.441 85.4448 57.357 85.4252 57.2599 85.4252H56.7125V86.1986ZM56.7125 85.1906H57.2122C57.2932 85.1906 57.3664 85.1747 57.4315 85.1429C57.4974 85.111 57.5496 85.0661 57.5879 85.0082C57.627 84.9502 57.6466 84.8822 57.6466 84.804C57.6466 84.7062 57.6126 84.6233 57.5445 84.5553C57.4764 84.4865 57.3686 84.4521 57.2208 84.4521H56.7125V85.1906ZM59.8921 84.2131H60.1615V85.6859C60.1615 85.838 60.1256 85.9737 60.054 86.0932C59.983 86.212 59.8827 86.3057 59.7531 86.3745C59.6235 86.4426 59.4714 86.4766 59.2969 86.4766C59.1224 86.4766 58.9704 86.4426 58.8408 86.3745C58.7112 86.3057 58.6105 86.212 58.5388 86.0932C58.4679 85.9737 58.4324 85.838 58.4324 85.6859V84.2131H58.7018V85.6642C58.7018 85.7728 58.7256 85.8695 58.7734 85.9542C58.8212 86.0382 58.8893 86.1044 58.9776 86.1529C59.0667 86.2007 59.1731 86.2246 59.2969 86.2246C59.4208 86.2246 59.5272 86.2007 59.6163 86.1529C59.7053 86.1044 59.7734 86.0382 59.8205 85.9542C59.8682 85.8695 59.8921 85.7728 59.8921 85.6642V84.2131ZM60.5082 84.2131H60.8167L61.4336 85.2515H61.4597L62.0766 84.2131H62.385L61.5813 85.5208V86.4375H61.312V85.5208L60.5082 84.2131Z" fill="#174366"/>
<path d="M57.351 91.7145C57.338 91.6045 57.2851 91.519 57.1925 91.4582C57.0998 91.3974 56.9861 91.367 56.8514 91.367C56.753 91.367 56.6668 91.3829 56.5929 91.4148C56.5198 91.4466 56.4626 91.4904 56.4213 91.5462C56.3808 91.6019 56.3605 91.6653 56.3605 91.7363C56.3605 91.7956 56.3746 91.8467 56.4029 91.8894C56.4318 91.9314 56.4688 91.9665 56.5136 91.9948C56.5585 92.0223 56.6056 92.0451 56.6548 92.0632C56.7041 92.0806 56.7493 92.0947 56.7906 92.1055L57.0165 92.1664C57.0744 92.1816 57.1389 92.2026 57.2098 92.2294C57.2815 92.2562 57.35 92.2927 57.4151 92.3391C57.481 92.3847 57.5353 92.4433 57.578 92.515C57.6208 92.5867 57.6421 92.6747 57.6421 92.7789C57.6421 92.8991 57.6106 93.0077 57.5476 93.1048C57.4854 93.2018 57.3941 93.2789 57.2739 93.3361C57.1545 93.3933 57.0093 93.4219 56.8384 93.4219C56.6791 93.4219 56.5412 93.3962 56.4246 93.3448C56.3087 93.2934 56.2175 93.2217 56.1509 93.1297C56.085 93.0378 56.0477 92.931 56.039 92.8093H56.3171C56.3243 92.8933 56.3525 92.9628 56.4018 93.0179C56.4517 93.0722 56.5147 93.1127 56.5908 93.1395C56.6675 93.1656 56.7501 93.1786 56.8384 93.1786C56.9412 93.1786 57.0335 93.162 57.1154 93.1287C57.1972 93.0946 57.262 93.0476 57.3098 92.9875C57.3576 92.9266 57.3814 92.8557 57.3814 92.7746C57.3814 92.7007 57.3608 92.6406 57.3195 92.5943C57.2783 92.548 57.224 92.5103 57.1566 92.4813C57.0893 92.4524 57.0165 92.427 56.9383 92.4053L56.6646 92.3271C56.4908 92.2771 56.3533 92.2058 56.2519 92.1131C56.1505 92.0205 56.0998 91.8992 56.0998 91.7493C56.0998 91.6248 56.1335 91.5161 56.2008 91.4235C56.2689 91.3301 56.3601 91.2577 56.4745 91.2062C56.5897 91.1541 56.7182 91.128 56.8601 91.128C57.0035 91.128 57.1309 91.1537 57.2424 91.2052C57.3539 91.2558 57.4423 91.3254 57.5074 91.4137C57.5733 91.502 57.6081 91.6023 57.6117 91.7145H57.351ZM58.085 93.3828V91.1585H59.4274V91.3974H58.3543V92.149H59.3579V92.3879H58.3543V93.1439H59.4448V93.3828H58.085ZM59.9129 93.3828V91.1585H60.1823V93.1439H61.2162V93.3828H59.9129ZM61.6333 93.3828V91.1585H61.9027V93.1439H62.9366V93.3828H61.6333Z" fill="#174366"/>
<path d="M49.308 77.5353C49.1682 77.5353 49.0547 77.4221 49.0547 77.282V74.14C49.0547 73.9999 49.1682 73.8867 49.308 73.8867C49.4478 73.8867 49.5613 73.9999 49.5613 74.14V77.282C49.5613 77.4221 49.448 77.5353 49.308 77.5353Z" fill="#EDEFEE"/>
<path d="M49.3998 79.4646C49.26 79.4646 49.1465 79.3513 49.1465 79.2113V78.2787C49.1465 78.1386 49.26 78.0254 49.3998 78.0254C49.5396 78.0254 49.6531 78.1386 49.6531 78.2787V79.2113C49.6531 79.3511 49.5396 79.4646 49.3998 79.4646Z" fill="#EDEFEE"/>
<path d="M51.2474 91.7071C51.1076 91.7071 50.9941 91.5939 50.9941 91.4538V82.2474C50.9941 82.1074 51.1076 81.9941 51.2474 81.9941C51.3872 81.9941 51.5007 82.1074 51.5007 82.2474V91.4538C51.5007 91.5936 51.3875 91.7071 51.2474 91.7071Z" fill="#EDEFEE"/>
<path d="M51.2474 95.0092C51.1076 95.0092 50.9941 94.896 50.9941 94.7559V92.7279C50.9941 92.5878 51.1076 92.4746 51.2474 92.4746C51.3872 92.4746 51.5007 92.5878 51.5007 92.7279V94.7559C51.5007 94.896 51.3875 95.0092 51.2474 95.0092Z" fill="#EDEFEE"/>
<path d="M49.0067 101.093V97.4289C49.0067 96.6042 48.3712 95.8849 47.5468 95.8601C46.6937 95.8345 45.9941 96.5184 45.9941 97.3656V98.0806C45.9941 99.7447 47.3429 101.093 49.0067 101.093Z" fill="#EBCB86"/>
<path d="M46.791 104.107V97.2778C46.791 96.446 47.4655 95.7715 48.2973 95.7715C49.1293 95.7715 49.8036 96.446 49.8036 97.2778V101.094C49.8038 102.758 48.4548 104.107 46.791 104.107Z" fill="#FFE4A9"/>
<path d="M90.4024 126.742H75.0508L73.8401 123.467L72.2393 119.141L72.0215 118.551L85.4583 113.371L87.2794 118.295L90.4024 126.742Z" fill="#11324D"/>
<path d="M88.3694 126.745H75.0517L73.841 123.47L72.2402 119.144L83.8989 114.65L85.7201 119.574L88.3694 126.745Z" fill="#174366"/>
<path d="M84.5404 110.992L71.1036 116.172C70.8124 115.417 70.2805 114.782 69.589 114.361L69.5814 114.356C68.8899 113.938 68.358 113.3 68.0667 112.545L67.6108 111.162L63.7508 109.45C62.9479 109.093 62.6085 108.118 63.0517 107.33C63.4367 106.643 64.3131 106.403 65.0324 106.722L68.0566 108.062L63.2493 95.8003C63.0644 95.3191 63.1429 94.7999 63.4139 94.4047C63.5887 94.1514 63.842 93.9463 64.156 93.8374C64.9336 93.5638 65.7872 94.0045 66.0835 94.7745L68.548 101.167C68.6088 101.324 68.7557 101.418 68.9152 101.418C68.9608 101.418 69.009 101.411 69.0546 101.393C69.2547 101.314 69.356 101.086 69.2775 100.886L68.277 98.2901C67.973 97.4999 68.3783 96.6083 69.1837 96.3272C69.9638 96.0536 70.8149 96.4943 71.1112 97.2643L72.0889 99.8022C72.1497 99.9593 72.2966 100.053 72.4562 100.053C72.5018 100.053 72.5499 100.045 72.5955 100.028C72.7981 99.9491 72.8969 99.7212 72.8209 99.5211L72.3118 98.1989C72.0053 97.4087 72.4131 96.5197 73.2186 96.236C73.9962 95.9624 74.8472 96.4057 75.1435 97.1757L75.6324 98.437C75.6906 98.5915 75.8401 98.6878 75.9971 98.6878C76.0427 98.6878 76.0908 98.6776 76.1364 98.6599C76.339 98.5839 76.4404 98.356 76.3618 98.1559L76.1592 97.6265C75.8527 96.8363 76.2605 95.9472 77.066 95.6636C77.8436 95.39 78.6946 95.8333 78.9909 96.6007L84.5404 110.992Z" fill="#FFE4A9"/>
<path d="M63.5785 107.554C63.1328 108.344 63.4722 109.327 64.2827 109.687L63.7508 109.451C62.9479 109.094 62.6085 108.119 63.0517 107.331C63.4367 106.645 64.3131 106.404 65.0324 106.723L65.3718 106.873C64.693 106.67 63.9306 106.926 63.5785 107.554Z" fill="#EBCB86"/>
<path d="M66.0876 94.7745L66.2826 95.276C65.9812 94.5111 65.1352 94.0729 64.3576 94.3465C63.5674 94.6251 63.1596 95.4913 63.4382 96.2714L63.2533 95.8003C62.9494 95.0101 63.3546 94.1185 64.1601 93.8374C64.9377 93.5638 65.7912 94.0045 66.0876 94.7745Z" fill="#EBCB86"/>
<path d="M71.1091 97.2628L71.3016 97.7618C71.0002 96.9994 70.1542 96.5637 69.3817 96.8348C68.5762 97.1184 68.1684 98.0075 68.4749 98.8002L69.4754 101.394C69.5514 101.597 69.4526 101.824 69.2499 101.9C69.2044 101.918 69.1562 101.928 69.1081 101.928C68.9511 101.928 68.8042 101.832 68.7434 101.678L68.5483 101.168C68.6091 101.323 68.7535 101.417 68.9131 101.417C68.9587 101.417 69.0068 101.409 69.0524 101.391C69.2525 101.313 69.3538 101.085 69.2753 100.885L68.2748 98.2886C67.9709 97.4984 68.3761 96.6068 69.1816 96.3256C69.9617 96.0521 70.8127 96.4928 71.1091 97.2628Z" fill="#EBCB86"/>
<path d="M73.0151 100.029C73.0936 100.231 72.9923 100.457 72.7897 100.535C72.7441 100.553 72.696 100.563 72.6504 100.563C72.4934 100.563 72.3439 100.467 72.2857 100.312L72.0957 99.8235C72.1616 99.9678 72.3009 100.051 72.4528 100.051C72.4984 100.051 72.5465 100.044 72.5921 100.026C72.7948 99.9476 72.8936 99.7196 72.8176 99.5195L73.0151 100.029Z" fill="#EBCB86"/>
<path d="M75.1408 97.1772L75.313 97.623C74.9964 96.891 74.1681 96.4832 73.4134 96.7491C72.6079 97.0303 72.2027 97.9218 72.5066 98.7121L72.309 98.2005C72.0026 97.4102 72.4103 96.5212 73.2158 96.2375C73.9934 95.9639 74.8444 96.4072 75.1408 97.1772Z" fill="#EBCB86"/>
<path d="M76.562 98.6634C76.6405 98.866 76.5392 99.0915 76.3391 99.17C76.2935 99.1877 76.2454 99.1953 76.1973 99.1953C76.0402 99.1953 75.8933 99.1016 75.8325 98.9445L75.6426 98.4532C75.7059 98.5975 75.8477 98.6862 75.9997 98.6862C76.0453 98.6862 76.0934 98.6761 76.139 98.6583C76.3416 98.5823 76.443 98.3544 76.3644 98.1543L76.562 98.6634Z" fill="#EBCB86"/>
<path d="M79.1612 97.0533C78.8446 96.3213 78.0164 95.9109 77.2591 96.1769C76.4536 96.458 76.0484 97.3496 76.3523 98.1398L76.1547 97.6282C75.8483 96.838 76.2561 95.9489 77.0615 95.6652C77.8391 95.3917 78.6901 95.8349 78.9865 96.6024L79.1612 97.0533Z" fill="#EBCB86"/>
<path d="M71.3066 97.7754L72.0969 99.8245C72.0944 99.8169 72.0893 99.8093 72.0868 99.8017L71.3066 97.7754Z" fill="#EBCB86"/>
<path d="M75.635 98.4406L75.3184 97.625C75.3285 97.6453 75.3386 97.6655 75.3462 97.6883L75.635 98.4406Z" fill="#EBCB86"/>
<path d="M70.2754 114.899C70.6361 115.258 70.921 115.691 71.1064 116.172L84.5427 110.992L84.0197 109.635L70.2754 114.899Z" fill="#EBCB86"/>
<path d="M87.2794 118.295L73.9642 123.427C73.9237 123.442 73.8806 123.457 73.8401 123.467L72.0215 118.551L85.4583 113.371L87.2794 118.295Z" fill="#11324D"/>
<path d="M68.0603 108.059L63.253 95.7979C63.0681 95.3167 63.1466 94.7975 63.4176 94.4023L68.6606 107.231C68.8303 107.644 68.5061 108.092 68.0603 108.059Z" fill="#EBCB86"/>
<path d="M87.3298 117.519L73.4194 122.881C73.3712 122.899 73.3206 122.917 73.2725 122.927C72.6544 123.084 72.006 122.76 71.7705 122.152L69.8455 117.157C69.5922 116.501 69.919 115.764 70.5775 115.511L81.3269 111.365L84.4879 110.146C85.1439 109.893 85.8835 110.22 86.1368 110.878L88.0618 115.871C88.315 116.529 87.9883 117.266 87.3298 117.519Z" fill="#11324D"/>
<path d="M84.0168 118.785L73.2725 122.926C72.6544 123.083 72.006 122.759 71.7705 122.151L69.8455 117.156C69.5922 116.5 69.919 115.763 70.5775 115.51L81.3269 111.363C81.9424 111.211 82.5908 111.536 82.8238 112.143L84.7488 117.136C85.0021 117.794 84.6754 118.531 84.0168 118.785Z" fill="#174366"/>
<path d="M70.3694 113.438C70.3344 113.438 70.299 113.431 70.265 113.415C69.2342 112.948 68.4958 111.875 68.4282 110.745C68.4198 110.605 68.5262 110.485 68.666 110.477C68.8056 110.471 68.9256 110.575 68.934 110.714C68.9907 111.662 69.6098 112.562 70.4745 112.954C70.6019 113.012 70.6584 113.162 70.6006 113.289C70.5581 113.383 70.4659 113.438 70.3694 113.438Z" fill="#EDEFEE"/>
<path d="M72.5925 119.853C72.4899 119.853 72.3934 119.79 72.3552 119.689L71.9634 118.643C71.9145 118.512 71.9806 118.366 72.1118 118.317C72.242 118.268 72.3889 118.334 72.4378 118.465L72.8296 119.511C72.8785 119.643 72.8124 119.788 72.6812 119.837C72.6523 119.848 72.6219 119.853 72.5925 119.853Z" fill="#EDEFEE"/>
<path d="M81.5738 106.84C81.4715 106.84 81.375 106.777 81.3365 106.676L78.1704 98.2485C78.1215 98.1176 78.1874 97.9714 78.3186 97.9223C78.4483 97.8737 78.5954 97.9392 78.6448 98.0705L81.8109 106.497C81.8598 106.628 81.7939 106.774 81.6627 106.823C81.6336 106.835 81.6035 106.84 81.5738 106.84Z" fill="#EDEFEE"/>
</svg>
