<?xml version="1.0" encoding="UTF-8"?>
<svg preserveAspectRatio="xMidYMid" viewBox="0 0 256 256" xmlns="http://www.w3.org/2000/svg">
<path d="m53.841 161.32c0 14.832-11.987 26.82-26.819 26.82s-26.819-11.988-26.819-26.82c0-14.831 11.987-26.818 26.82-26.818h26.817v26.819zm13.41 0c0-14.831 11.987-26.818 26.819-26.818s26.819 11.987 26.819 26.819v67.047c0 14.832-11.987 26.82-26.82 26.82-14.83 0-26.818-11.988-26.818-26.82v-67.047z" fill="#E01E5A"/>
<path d="m94.07 53.638c-14.832 0-26.82-11.987-26.82-26.819s11.989-26.819 26.82-26.819 26.819 11.987 26.819 26.819v26.82h-26.82zm0 13.613c14.832 0 26.819 11.987 26.819 26.819s-11.987 26.819-26.82 26.819h-67.249c-14.833 0-26.82-11.987-26.82-26.82 0-14.83 11.987-26.818 26.819-26.818h67.25z" fill="#36C5F0"/>
<path d="m201.55 94.07c0-14.832 11.987-26.82 26.818-26.82 14.832 0 26.82 11.988 26.82 26.82s-11.988 26.819-26.82 26.819h-26.818v-26.82zm-13.41 0c0 14.832-11.988 26.819-26.82 26.819-14.831 0-26.818-11.987-26.818-26.82v-67.249c0-14.833 11.987-26.82 26.818-26.82s26.819 11.987 26.819 26.819v67.25z" fill="#2EB67D"/>
<path d="M161.32 201.55c14.832 0 26.82 11.987 26.82 26.818 0 14.832-11.988 26.82-26.82 26.82-14.831 0-26.818-11.988-26.818-26.82V201.55h26.819Zm0-13.41c-14.831 0-26.818-11.988-26.818-26.82 0-14.831 11.987-26.818 26.819-26.818h67.25c14.832 0 26.82 11.987 26.82 26.819 0 14.831-11.988 26.819-26.82 26.819h-67.25Z" fill="#ECB22E"/>
</svg>
