<svg xmlns="http://www.w3.org/2000/svg" width="61.053" height="60.759" viewBox="0 0 61.053 60.759">
  <g id="design-line" transform="translate(-2 -0.994)">
    <path id="Path_4692" data-name="Path 4692" d="M9,17.41V35.064H26.654l-3.682-3.682H12.682V21.092Z" transform="translate(5.886 13.803)" fill="#027dc0"/>
    <path id="Path_4693" data-name="Path 4693" d="M62.509,58.605l-5.283-5.357v4.823H5.682v-7.64H9.363V47.486H5.682V35.245H9.363V32.3H5.682V20.518H9.363V17.573H5.682V7.282L35.025,36.46V31.268L5.148,1.539A1.841,1.841,0,0,0,2,2.846V59.912a1.841,1.841,0,0,0,1.841,1.841H61.2a1.841,1.841,0,0,0,1.307-3.148Z" transform="translate(0 0)" fill="#153b99"/>
    <path id="Path_4694" data-name="Path 4694" d="M25.682,52.308h7.363a3.682,3.682,0,0,0,3.682-3.682V13.1L32.493,5.311a3.7,3.7,0,0,0-6.48.147L22,13.135V48.626A3.682,3.682,0,0,0,25.682,52.308Zm0-38.29,3.571-6.94,3.792,6.958V41.263H25.682Zm0,30.245h7.363v4.492H25.682Z" transform="translate(16.817 2.082)" fill="#027dc0"/>
  </g>
</svg>
