<svg width="191" height="67" viewBox="0 0 191 67" fill="none" xmlns="http://www.w3.org/2000/svg">
<path d="M51.3589 47.8408H48.8408V53H47.6982V47.8408H45.1758V46.6982H51.3589V47.8408ZM63.4351 49.8228C63.4351 49.981 63.4072 50.1523 63.3516 50.3369C63.2959 50.5186 63.2051 50.6885 63.0791 50.8467C62.9561 51.002 62.7935 51.1323 62.5913 51.2378C62.3921 51.3433 62.1489 51.396 61.8618 51.396H59.8008V50.3105H61.8618C62.0171 50.3105 62.1372 50.2637 62.2222 50.1699C62.3071 50.0732 62.3496 49.9546 62.3496 49.814C62.3496 49.6646 62.3013 49.5474 62.2046 49.4624C62.1108 49.3774 61.9966 49.335 61.8618 49.335H59.8008C59.6455 49.335 59.5254 49.3833 59.4404 49.48C59.3555 49.5737 59.313 49.6909 59.313 49.8315V51.4268C59.313 51.5791 59.3599 51.6978 59.4536 51.7827C59.5503 51.8677 59.6689 51.9102 59.8096 51.9102H61.8618V53H59.8008C59.6426 53 59.4712 52.9722 59.2866 52.9165C59.105 52.8608 58.9351 52.7715 58.7769 52.6484C58.6216 52.5225 58.4912 52.3599 58.3857 52.1606C58.2803 51.9585 58.2275 51.7139 58.2275 51.4268V49.8228C58.2275 49.6646 58.2554 49.4946 58.311 49.313C58.3667 49.1284 58.4561 48.9585 58.5791 48.8032C58.7051 48.645 58.8677 48.5132 59.0669 48.4077C59.269 48.3022 59.5137 48.2495 59.8008 48.2495H61.8618C62.02 48.2495 62.1899 48.2773 62.3716 48.333C62.5562 48.3887 62.7261 48.4795 62.8813 48.6055C63.0396 48.7285 63.1714 48.8911 63.2769 49.0933C63.3823 49.2925 63.4351 49.5356 63.4351 49.8228ZM75.5552 53H72.457C72.2988 53 72.126 52.9722 71.9385 52.9165C71.751 52.8608 71.5767 52.77 71.4155 52.644C71.2573 52.5151 71.124 52.3496 71.0156 52.1475C70.9102 51.9424 70.8574 51.6919 70.8574 51.396V49.8491C70.8574 49.7407 70.8691 49.6265 70.8926 49.5063C70.9189 49.3862 70.9585 49.2676 71.0112 49.1504C71.064 49.0303 71.1313 48.916 71.2134 48.8076C71.2983 48.6992 71.3994 48.604 71.5166 48.522C71.6367 48.4399 71.7744 48.374 71.9297 48.3242C72.085 48.2744 72.2607 48.2495 72.457 48.2495H75.5552V49.3921H72.457C72.3076 49.3921 72.1934 49.4302 72.1143 49.5063C72.0381 49.5825 72 49.6997 72 49.8579V51.396C72 51.5454 72.0396 51.6597 72.1187 51.7388C72.1978 51.8179 72.3135 51.8574 72.4658 51.8574H75.5552V53ZM88.5322 53H87.3896V49.8491C87.3896 49.6997 87.3516 49.5869 87.2754 49.5107C87.1992 49.4316 87.085 49.3921 86.9326 49.3921H84.8716V48.2495H86.9326C87.041 48.2495 87.1553 48.2627 87.2754 48.2891C87.3955 48.3125 87.5142 48.3506 87.6313 48.4033C87.7515 48.4561 87.8657 48.5249 87.9741 48.6099C88.0825 48.6919 88.1777 48.793 88.2598 48.9131C88.3418 49.0303 88.4077 49.1665 88.4575 49.3218C88.5073 49.4771 88.5322 49.6528 88.5322 49.8491V53ZM84.4102 53H83.2676V46.2412H84.4102V53ZM101.593 53H100.45V50.3633C100.45 50.2139 100.424 50.0806 100.371 49.9634C100.321 49.8433 100.252 49.7407 100.165 49.6558C100.077 49.5708 99.9727 49.5063 99.8525 49.4624C99.7354 49.4155 99.6079 49.3921 99.4702 49.3921H97.4707V53H96.3281V48.8164C96.3281 48.7373 96.3428 48.6641 96.3721 48.5967C96.4014 48.5264 96.4424 48.4663 96.4951 48.4165C96.5479 48.3638 96.6094 48.3228 96.6797 48.2935C96.75 48.2642 96.8247 48.2495 96.9038 48.2495H99.479C99.6226 48.2495 99.7734 48.2656 99.9316 48.2979C100.093 48.3301 100.251 48.3828 100.406 48.4561C100.564 48.5264 100.714 48.6172 100.854 48.7285C100.998 48.8369 101.124 48.9702 101.232 49.1284C101.344 49.2837 101.432 49.4639 101.496 49.6689C101.561 49.874 101.593 50.1055 101.593 50.3633V53ZM114.513 51.396C114.513 51.5923 114.488 51.7695 114.438 51.9277C114.388 52.083 114.322 52.2207 114.24 52.3408C114.158 52.458 114.063 52.5591 113.955 52.644C113.846 52.7261 113.732 52.7935 113.612 52.8462C113.495 52.8989 113.375 52.9385 113.251 52.9648C113.131 52.9883 113.017 53 112.909 53H110.848C110.689 53 110.517 52.9722 110.329 52.9165C110.142 52.8608 109.967 52.77 109.806 52.644C109.648 52.5151 109.515 52.3496 109.406 52.1475C109.301 51.9424 109.248 51.6919 109.248 51.396V49.8491C109.248 49.5562 109.301 49.3086 109.406 49.1064C109.515 48.9014 109.648 48.7358 109.806 48.6099C109.967 48.481 110.142 48.3887 110.329 48.333C110.517 48.2773 110.689 48.2495 110.848 48.2495H112.909C113.202 48.2495 113.451 48.3022 113.656 48.4077C113.861 48.5132 114.026 48.6465 114.152 48.8076C114.278 48.9658 114.369 49.1387 114.425 49.3262C114.483 49.5137 114.513 49.688 114.513 49.8491V51.396ZM113.37 49.8579C113.37 49.6997 113.331 49.5825 113.251 49.5063C113.172 49.4302 113.058 49.3921 112.909 49.3921H110.856C110.704 49.3921 110.588 49.4316 110.509 49.5107C110.43 49.5869 110.391 49.6997 110.391 49.8491V51.396C110.391 51.5454 110.43 51.6597 110.509 51.7388C110.588 51.8179 110.704 51.8574 110.856 51.8574H112.909C113.064 51.8574 113.18 51.8179 113.256 51.7388C113.332 51.6597 113.37 51.5454 113.37 51.396V49.8579ZM124.326 53H123.816C123.652 53 123.476 52.9722 123.289 52.9165C123.104 52.8608 122.931 52.77 122.77 52.644C122.609 52.5151 122.476 52.3496 122.37 52.1475C122.265 51.9424 122.212 51.6919 122.212 51.396V46.2412H123.354V51.396C123.354 51.5366 123.398 51.6494 123.486 51.7344C123.574 51.8164 123.684 51.8574 123.816 51.8574H124.326V53ZM136.978 51.396C136.978 51.5923 136.953 51.7695 136.903 51.9277C136.853 52.083 136.787 52.2207 136.705 52.3408C136.623 52.458 136.528 52.5591 136.419 52.644C136.311 52.7261 136.197 52.7935 136.077 52.8462C135.959 52.8989 135.839 52.9385 135.716 52.9648C135.596 52.9883 135.482 53 135.374 53H133.312C133.154 53 132.981 52.9722 132.794 52.9165C132.606 52.8608 132.432 52.77 132.271 52.644C132.113 52.5151 131.979 52.3496 131.871 52.1475C131.766 51.9424 131.713 51.6919 131.713 51.396V49.8491C131.713 49.5562 131.766 49.3086 131.871 49.1064C131.979 48.9014 132.113 48.7358 132.271 48.6099C132.432 48.481 132.606 48.3887 132.794 48.333C132.981 48.2773 133.154 48.2495 133.312 48.2495H135.374C135.667 48.2495 135.916 48.3022 136.121 48.4077C136.326 48.5132 136.491 48.6465 136.617 48.8076C136.743 48.9658 136.834 49.1387 136.89 49.3262C136.948 49.5137 136.978 49.688 136.978 49.8491V51.396ZM135.835 49.8579C135.835 49.6997 135.795 49.5825 135.716 49.5063C135.637 49.4302 135.523 49.3921 135.374 49.3921H133.321C133.169 49.3921 133.053 49.4316 132.974 49.5107C132.895 49.5869 132.855 49.6997 132.855 49.8491V51.396C132.855 51.5454 132.895 51.6597 132.974 51.7388C133.053 51.8179 133.169 51.8574 133.321 51.8574H135.374C135.529 51.8574 135.645 51.8179 135.721 51.7388C135.797 51.6597 135.835 51.5454 135.835 51.396V49.8579ZM149.871 53.457C149.871 53.6533 149.846 53.8291 149.796 53.9844C149.747 54.1426 149.681 54.2803 149.599 54.3975C149.517 54.5176 149.421 54.6187 149.313 54.7007C149.205 54.7856 149.09 54.8545 148.97 54.9072C148.853 54.96 148.733 54.998 148.61 55.0215C148.49 55.0479 148.375 55.061 148.267 55.061H146.206V53.9185H148.267C148.422 53.9185 148.538 53.8789 148.614 53.7998C148.69 53.7207 148.729 53.6064 148.729 53.457V49.8491C148.729 49.6997 148.69 49.5869 148.614 49.5107C148.538 49.4316 148.422 49.3921 148.267 49.3921H146.206C146.065 49.3921 145.954 49.436 145.872 49.5239C145.79 49.6089 145.749 49.7173 145.749 49.8491V51.396C145.749 51.5454 145.789 51.6597 145.868 51.7388C145.947 51.8179 146.062 51.8574 146.215 51.8574H148.267V53H146.206C146.098 53 145.983 52.9883 145.863 52.9648C145.743 52.9385 145.623 52.8989 145.503 52.8462C145.386 52.7935 145.273 52.7261 145.165 52.644C145.056 52.5591 144.961 52.458 144.879 52.3408C144.797 52.2207 144.731 52.083 144.681 51.9277C144.631 51.7695 144.606 51.5923 144.606 51.396V49.8491C144.606 49.7407 144.618 49.6265 144.642 49.5063C144.668 49.3862 144.708 49.2676 144.76 49.1504C144.813 49.0303 144.88 48.916 144.962 48.8076C145.047 48.6992 145.148 48.604 145.266 48.522C145.386 48.4399 145.523 48.374 145.679 48.3242C145.834 48.2744 146.01 48.2495 146.206 48.2495H148.267C148.375 48.2495 148.49 48.2627 148.61 48.2891C148.733 48.3125 148.853 48.3506 148.97 48.4033C149.09 48.4561 149.205 48.5249 149.313 48.6099C149.421 48.6919 149.517 48.793 149.599 48.9131C149.681 49.0303 149.747 49.1665 149.796 49.3218C149.846 49.4771 149.871 49.6528 149.871 49.8491V53.457ZM158.827 47.2739H157.685V46.2412H158.827V47.2739ZM158.827 53H157.685V48.2495H158.827V53ZM171.787 49.8228C171.787 49.981 171.759 50.1523 171.703 50.3369C171.647 50.5186 171.557 50.6885 171.431 50.8467C171.308 51.002 171.145 51.1323 170.943 51.2378C170.744 51.3433 170.5 51.396 170.213 51.396H168.152V50.3105H170.213C170.369 50.3105 170.489 50.2637 170.574 50.1699C170.659 50.0732 170.701 49.9546 170.701 49.814C170.701 49.6646 170.653 49.5474 170.556 49.4624C170.462 49.3774 170.348 49.335 170.213 49.335H168.152C167.997 49.335 167.877 49.3833 167.792 49.48C167.707 49.5737 167.665 49.6909 167.665 49.8315V51.4268C167.665 51.5791 167.711 51.6978 167.805 51.7827C167.902 51.8677 168.021 51.9102 168.161 51.9102H170.213V53H168.152C167.994 53 167.823 52.9722 167.638 52.9165C167.457 52.8608 167.287 52.7715 167.128 52.6484C166.973 52.5225 166.843 52.3599 166.737 52.1606C166.632 51.9585 166.579 51.7139 166.579 51.4268V49.8228C166.579 49.6646 166.607 49.4946 166.663 49.313C166.718 49.1284 166.808 48.9585 166.931 48.8032C167.057 48.645 167.219 48.5132 167.418 48.4077C167.621 48.3022 167.865 48.2495 168.152 48.2495H170.213C170.372 48.2495 170.542 48.2773 170.723 48.333C170.908 48.3887 171.078 48.4795 171.233 48.6055C171.391 48.7285 171.523 48.8911 171.628 49.0933C171.734 49.2925 171.787 49.5356 171.787 49.8228ZM183.898 51.396C183.898 51.5923 183.873 51.7695 183.823 51.9277C183.773 52.083 183.708 52.2207 183.625 52.3408C183.543 52.458 183.448 52.5591 183.34 52.644C183.231 52.7261 183.117 52.7935 182.997 52.8462C182.88 52.8989 182.76 52.9385 182.637 52.9648C182.517 52.9883 182.402 53 182.294 53H179.2V51.8574H182.285C182.44 51.8574 182.558 51.8179 182.637 51.7388C182.716 51.6597 182.755 51.5454 182.755 51.396C182.741 51.0913 182.587 50.939 182.294 50.939H180.523C180.271 50.939 180.057 50.895 179.881 50.8071C179.706 50.7192 179.562 50.6094 179.451 50.4775C179.342 50.3457 179.263 50.2036 179.213 50.0513C179.167 49.8989 179.143 49.7568 179.143 49.625C179.143 49.3701 179.188 49.1562 179.279 48.9834C179.37 48.8076 179.484 48.6655 179.622 48.5571C179.76 48.4487 179.909 48.3711 180.07 48.3242C180.231 48.2744 180.382 48.2495 180.523 48.2495H183.331V49.3921H180.532C180.473 49.3921 180.426 49.3994 180.391 49.4141C180.359 49.4258 180.334 49.4434 180.316 49.4668C180.302 49.4873 180.293 49.5107 180.29 49.5371C180.287 49.5605 180.286 49.584 180.286 49.6074C180.289 49.6543 180.297 49.6909 180.312 49.7173C180.327 49.7437 180.344 49.7627 180.365 49.7744C180.388 49.7861 180.413 49.7935 180.439 49.7964C180.469 49.7964 180.497 49.7964 180.523 49.7964H182.294C182.587 49.7964 182.836 49.8491 183.041 49.9546C183.246 50.0601 183.412 50.1934 183.538 50.3545C183.664 50.5127 183.754 50.6855 183.81 50.873C183.869 51.0605 183.898 51.2349 183.898 51.396Z" fill="#114D71"/>
<path d="M44.8398 36.3516H41.793V19.5469H44.8398V36.3516ZM162.707 22.5938H155.992V36.3516H152.945V22.5938H146.219V19.5469H162.707V22.5938Z" fill="#027DC0"/>
<path d="M65.1953 35.0508C65.1953 35.2695 65.1523 35.4727 65.0664 35.6602C64.9883 35.8477 64.8789 36.0117 64.7383 36.1523C64.6055 36.2852 64.4453 36.3906 64.2578 36.4688C64.0703 36.5469 63.8711 36.5859 63.6602 36.5859C63.4727 36.5859 63.2812 36.5508 63.0859 36.4805C62.8984 36.4102 62.7305 36.2969 62.582 36.1406L51.4492 24.5156V36.3516H48.4023V20.8477C48.4023 20.5352 48.4883 20.2539 48.6602 20.0039C48.8398 19.7461 49.0664 19.5547 49.3398 19.4297C49.6289 19.3125 49.9258 19.2852 50.2305 19.3477C50.5352 19.4023 50.7969 19.543 51.0156 19.7695L62.1484 31.3828V19.5469H65.1953V35.0508ZM85.5391 35.0508C85.5391 35.2695 85.4961 35.4727 85.4102 35.6602C85.332 35.8477 85.2227 36.0117 85.082 36.1523C84.9492 36.2852 84.7891 36.3906 84.6016 36.4688C84.4141 36.5469 84.2148 36.5859 84.0039 36.5859C83.8164 36.5859 83.625 36.5508 83.4297 36.4805C83.2422 36.4102 83.0742 36.2969 82.9258 36.1406L71.793 24.5156V36.3516H68.7461V20.8477C68.7461 20.5352 68.832 20.2539 69.0039 20.0039C69.1836 19.7461 69.4102 19.5547 69.6836 19.4297C69.9727 19.3125 70.2695 19.2852 70.5742 19.3477C70.8789 19.4023 71.1406 19.543 71.3594 19.7695L82.4922 31.3828V19.5469H85.5391V35.0508ZM106.727 29.5547C106.727 30.5781 106.551 31.5195 106.199 32.3789C105.848 33.2383 105.359 33.9805 104.734 34.6055C104.109 35.2305 103.367 35.7188 102.508 36.0703C101.656 36.4141 100.727 36.5859 99.7188 36.5859H95.5938C94.5859 36.5859 93.6523 36.4141 92.793 36.0703C91.9336 35.7188 91.1914 35.2305 90.5664 34.6055C89.9414 33.9805 89.4492 33.2383 89.0898 32.3789C88.7383 31.5195 88.5625 30.5781 88.5625 29.5547V26.3438C88.5625 25.3281 88.7383 24.3906 89.0898 23.5312C89.4492 22.6641 89.9414 21.9219 90.5664 21.3047C91.1914 20.6797 91.9336 20.1914 92.793 19.8398C93.6523 19.4883 94.5859 19.3125 95.5938 19.3125H99.7188C100.727 19.3125 101.656 19.4883 102.508 19.8398C103.367 20.1914 104.109 20.6797 104.734 21.3047C105.359 21.9219 105.848 22.6641 106.199 23.5312C106.551 24.3906 106.727 25.3281 106.727 26.3438V29.5547ZM103.68 26.3438C103.68 25.7422 103.582 25.1992 103.387 24.7148C103.199 24.2227 102.93 23.8047 102.578 23.4609C102.234 23.1094 101.816 22.8398 101.324 22.6523C100.84 22.457 100.305 22.3594 99.7188 22.3594H95.5938C95 22.3594 94.457 22.457 93.9648 22.6523C93.4805 22.8398 93.0625 23.1094 92.7109 23.4609C92.3594 23.8047 92.0859 24.2227 91.8906 24.7148C91.7031 25.1992 91.6094 25.7422 91.6094 26.3438V29.5547C91.6094 30.1562 91.7031 30.7031 91.8906 31.1953C92.0859 31.6797 92.3594 32.0977 92.7109 32.4492C93.0625 32.793 93.4805 33.0625 93.9648 33.2578C94.457 33.4453 95 33.5391 95.5938 33.5391H99.6953C100.289 33.5391 100.828 33.4453 101.312 33.2578C101.805 33.0625 102.227 32.793 102.578 32.4492C102.93 32.0977 103.199 31.6797 103.387 31.1953C103.582 30.7031 103.68 30.1562 103.68 29.5547V26.3438ZM126.203 19.5469L118.246 35.7539C118.121 36.0039 117.934 36.2031 117.684 36.3516C117.441 36.5078 117.172 36.5859 116.875 36.5859C116.586 36.5859 116.316 36.5078 116.066 36.3516C115.824 36.2031 115.637 36.0039 115.504 35.7539L107.559 19.5469H110.969L116.875 31.6523L122.805 19.5469H126.203ZM143.969 36.3516H140.922V32.2266H130.211V36.3516H127.164V27.9492C127.164 26.7227 127.375 25.5938 127.797 24.5625C128.219 23.5312 128.805 22.6445 129.555 21.9023C130.305 21.1602 131.191 20.582 132.215 20.168C133.238 19.7539 134.355 19.5469 135.566 19.5469H142.434C142.645 19.5469 142.844 19.5859 143.031 19.6641C143.219 19.7422 143.383 19.8516 143.523 19.9922C143.664 20.1328 143.773 20.2969 143.852 20.4844C143.93 20.6719 143.969 20.8711 143.969 21.082V36.3516ZM130.211 29.1797H140.922V22.5938H135.566C135.473 22.5938 135.273 22.6094 134.969 22.6406C134.672 22.6641 134.324 22.7305 133.926 22.8398C133.535 22.9492 133.121 23.1172 132.684 23.3438C132.246 23.5703 131.844 23.8828 131.477 24.2812C131.109 24.6797 130.805 25.1797 130.562 25.7812C130.328 26.375 130.211 27.0977 130.211 27.9492V29.1797ZM168.027 36.3516H164.98V19.5469H168.027V36.3516ZM179.266 25.5469L184.398 19.5469H188.559L181.328 27.9727L188.512 36.3516H184.375L179.266 30.3984L174.18 36.3516H170.031L177.203 27.9727L170.008 19.5469H174.133L179.266 25.5469Z" fill="#114D71"/>
<circle cx="21.0459" cy="7.12162" r="7.12162" fill="#00B6E8"/>
<path fill-rule="evenodd" clip-rule="evenodd" d="M25.1308 12.0869C26.6986 10.9034 27.7119 9.02439 27.7119 6.90867C27.7119 3.32773 24.809 0.424805 21.228 0.424805C19.1123 0.424805 17.2333 1.43815 16.0498 3.00597C17.1356 2.18636 18.4873 1.70034 19.9525 1.70034C23.5334 1.70034 26.4364 4.60327 26.4364 8.18421C26.4364 9.64943 25.9504 11.0011 25.1308 12.0869Z" fill="#01FFFF"/>
<path fill-rule="evenodd" clip-rule="evenodd" d="M26.5856 11.5981C25.3625 12.5878 23.8051 13.1805 22.1092 13.1805C18.1761 13.1805 14.9876 9.99208 14.9876 6.05892C14.9876 4.36304 15.5804 2.80561 16.57 1.58252C14.9565 2.88811 13.9248 4.88444 13.9248 7.12172C13.9248 11.0549 17.1133 14.2433 21.0464 14.2433C23.2837 14.2433 25.28 13.2117 26.5856 11.5981Z" fill="#0597C0"/>
<path d="M0 17.2195V16.3691H12.8614C17.7934 16.5408 20.8334 18.3887 22.4278 19.9102C22.7821 20.2321 24.1285 21.3467 25.2977 23.2782C26.5039 25.2708 27.211 27.6362 27.3173 29.4604V31.7138V34.0745V38.9032C26.148 36.4352 24.6954 34.7183 24.1285 34.1818C22.0877 31.9499 19.3099 30.748 18.1761 30.4261C17.6446 30.283 16.0502 29.954 13.9244 29.7823C11.7985 29.6106 10.4876 29.3531 10.0978 29.2458C6.86652 28.559 4.0037 25.5974 2.9762 24.2024C0.680274 21.3696 0 18.3641 0 17.2195Z" fill="#00B6E8"/>
<path d="M14.137 15.4126H0V16.4755L14.1125 16.4756C16.9006 16.6881 18.8393 17.5385 20.3019 18.3889C24.8725 21.0462 26.9984 25.723 27.211 29.5496V31.8881V34.2265V38.9034C27.7424 39.7537 28.0613 41.3126 28.1676 42.6236V42.0922V41.1355V39.2223V35.3957V33.5888V31.6755V27.8489C27.5299 22.3217 24.1285 19.3454 21.3649 17.5385C18.8138 15.9441 16.7125 15.4126 14.137 15.4126Z" fill="#01FFFF"/>
<path d="M28.1677 44.2176V59.9489C25.5104 60.2678 22.8531 58.9923 21.7902 58.5671C19.558 57.5042 18.4951 56.2286 17.5385 55.1657C16.3906 53.8903 15.4126 49.7447 15.4126 47.7252V32.3128C15.4126 31.0111 17.3967 31.427 18.2825 31.675C19.0415 31.8875 19.9123 32.2064 20.4084 32.419C22.1941 33.1843 24.0223 34.8992 24.8727 35.9267C26.4883 37.6274 27.9552 41.3476 28.1677 44.2176Z" fill="#027DC0"/>
<path d="M13.9243 46.2706V29.7811C16.7942 29.7615 19.4515 30.7182 20.8334 31.4622C20.8334 31.4622 22.2816 32.2063 23.597 33.3755C25.5102 35.0762 26.892 37.7334 27.3172 38.9027C27.9125 40.2633 28.3801 42.8355 28.1676 44.3236C27.9975 42.793 27.3527 40.7806 27.1046 39.9656C26.8566 39.2924 26.2118 37.6272 25.1914 36.3517C24.171 35.0762 22.8529 33.9778 22.3215 33.5881C21.9317 33.3046 20.6154 32.4171 18.2823 31.6748C15.9439 30.9307 15.4124 31.8874 15.4124 32.5251V47.6187C15.4124 50.1697 16.8651 53.8545 17.5383 55.1655C14.9872 52.9546 13.9243 48.3628 13.9243 46.2706Z" fill="#114D71"/>
</svg>
