<svg width="734" height="734" viewBox="0 0 734 734" fill="none" xmlns="http://www.w3.org/2000/svg">
<rect width="734" height="734" fill="white"/>
<g opacity="0.2">
<path d="M427.707 665.119C427.707 680.165 421.73 694.596 411.09 705.235C400.451 715.874 386.021 721.851 370.975 721.851C355.928 721.851 341.498 715.874 330.859 705.235C320.219 694.596 314.242 680.165 314.242 665.119C314.242 650.073 320.219 635.643 330.859 625.003C341.498 614.364 355.928 608.387 370.975 608.387C386.021 608.387 400.451 614.364 411.09 625.003C421.73 635.643 427.707 650.073 427.707 665.119Z" fill="#027DC0"/>
<path fill-rule="evenodd" clip-rule="evenodd" d="M370.159 340.383C351.154 340.383 334.843 346.056 323.355 354.169C312.292 361.998 306.817 371.104 305.229 378.961C302.882 389.464 296.512 398.629 287.485 404.489C278.458 410.349 267.494 412.438 256.945 410.307C246.396 408.177 237.103 401.996 231.058 393.092C225.013 384.188 222.699 373.269 224.612 362.679C231.051 330.739 250.851 304.67 275.927 286.941C302.024 268.503 335.099 258.121 370.159 258.121C442.691 258.121 517.89 306.627 517.89 384.521C517.89 429.623 491.084 466.102 456.364 487.377C451.756 490.196 446.638 492.081 441.301 492.923C435.965 493.765 430.515 493.547 425.263 492.283C420.011 491.019 415.059 488.732 410.69 485.554C406.322 482.376 402.622 478.369 399.802 473.761C396.982 469.153 395.097 464.035 394.255 458.698C393.413 453.362 393.631 447.912 394.895 442.66C396.16 437.407 398.446 432.456 401.624 428.087C404.802 423.718 408.81 420.019 413.418 417.199C429.586 407.299 435.628 394.676 435.628 384.521C435.628 368.239 415.346 340.383 370.159 340.383Z" fill="#027DC0"/>
<path fill-rule="evenodd" clip-rule="evenodd" d="M370.166 450.027C392.859 450.027 411.297 468.409 411.297 491.158V533.764C411.297 544.673 406.964 555.135 399.25 562.848C391.537 570.562 381.075 574.895 370.166 574.895C359.257 574.895 348.796 570.562 341.082 562.848C333.369 555.135 329.035 544.673 329.035 533.764V491.158C329.035 468.465 347.445 450.027 370.166 450.027Z" fill="#027DC0"/>
<path fill-rule="evenodd" clip-rule="evenodd" d="M470.271 431.183C473.05 435.82 474.887 440.959 475.678 446.306C476.469 451.654 476.198 457.105 474.88 462.347C473.563 467.59 471.225 472.521 468.001 476.86C464.776 481.198 460.728 484.859 456.088 487.632L391.3 526.408C381.941 532.013 370.739 533.67 360.158 531.016C349.577 528.361 340.484 521.612 334.879 512.253C329.275 502.895 327.617 491.693 330.272 481.112C332.926 470.531 339.675 461.438 349.034 455.833L413.851 417.028C418.486 414.254 423.623 412.42 428.968 411.632C434.312 410.843 439.76 411.115 444.999 412.432C450.238 413.75 455.167 416.086 459.503 419.308C463.839 422.53 467.498 426.575 470.271 431.211V431.183Z" fill="#027DC0"/>
</g>
<path d="M378.388 637.798C378.388 647.202 374.652 656.22 368.003 662.87C361.353 669.52 352.334 673.255 342.93 673.255C333.526 673.255 324.508 669.52 317.858 662.87C311.208 656.22 307.473 647.202 307.473 637.798C307.473 628.394 311.208 619.375 317.858 612.725C324.508 606.076 333.526 602.34 342.93 602.34C352.334 602.34 361.353 606.076 368.003 612.725C374.652 619.375 378.388 628.394 378.388 637.798Z" fill="#027DC0"/>
<path fill-rule="evenodd" clip-rule="evenodd" d="M341.792 292.16C318.901 292.16 298.562 298.968 283.557 309.576C269.09 319.788 260.154 333.007 257.403 346.679C256.898 349.463 255.843 352.119 254.299 354.49C252.755 356.861 250.754 358.901 248.412 360.489C246.07 362.077 243.435 363.182 240.661 363.74C237.887 364.297 235.03 364.296 232.257 363.735C229.483 363.175 226.85 362.067 224.51 360.476C222.17 358.886 220.17 356.844 218.629 354.471C217.088 352.099 216.035 349.442 215.533 346.658C215.031 343.873 215.089 341.016 215.705 338.255C220.981 312.101 237.32 290.146 258.991 274.828C281.571 258.886 310.618 249.582 341.792 249.582C407.744 249.582 469.667 293.124 469.667 356.154C469.667 392.803 447.882 423.552 417.643 442.075C412.829 445.024 407.039 445.94 401.55 444.62C396.06 443.301 391.319 439.855 388.37 435.04C385.42 430.225 384.505 424.436 385.824 418.946C387.143 413.456 390.59 408.715 395.404 405.766C416.083 393.115 427.118 374.762 427.118 356.154C427.118 324.979 393.589 292.16 341.792 292.16ZM341.792 441.508C347.435 441.508 352.846 443.749 356.836 447.739C360.825 451.729 363.067 457.14 363.067 462.782V505.388C363.067 511.031 360.825 516.442 356.836 520.432C352.846 524.421 347.435 526.663 341.792 526.663C336.15 526.663 330.739 524.421 326.749 520.432C322.759 516.442 320.518 511.031 320.518 505.388V462.782C320.518 457.14 322.759 451.729 326.749 447.739C330.739 443.749 336.15 441.508 341.792 441.508Z" fill="#027DC0"/>
<path fill-rule="evenodd" clip-rule="evenodd" d="M424.851 413.035C426.288 415.432 427.238 418.089 427.648 420.853C428.057 423.617 427.918 426.435 427.239 429.146C426.559 431.856 425.352 434.407 423.687 436.651C422.021 438.895 419.93 440.789 417.533 442.224L352.716 481.029C350.317 482.524 347.645 483.525 344.855 483.975C342.065 484.426 339.213 484.315 336.466 483.651C333.719 482.987 331.132 481.782 328.856 480.107C326.58 478.432 324.66 476.32 323.209 473.895C321.758 471.47 320.805 468.78 320.405 465.982C320.006 463.185 320.167 460.335 320.881 457.601C321.594 454.866 322.845 452.301 324.561 450.056C326.277 447.81 328.423 445.929 330.874 444.522L395.691 405.717C400.529 402.825 406.318 401.971 411.785 403.343C417.253 404.715 421.952 408.201 424.851 413.035Z" fill="#027DC0"/>
</svg>
